<svg width="60" height="60" viewBox="0 0 60 60" fill="none" xmlns="http://www.w3.org/2000/svg">
<path fill-rule="evenodd" clip-rule="evenodd" d="M30 60C13.4314 60 0 46.5685 0 30C0 13.4315 13.4314 0 30 0C46.5685 0 59.9999 13.4315 59.9999 30C59.9999 46.5685 46.5685 60 30 60Z" fill="#BFE3C6"/>
<path d="M32.5352 21.0094C32.5352 21.0094 32.961 20.7481 33.6481 20.8352C34.3352 20.9223 34.6448 21.1835 34.6448 21.1835" fill="white"/>
<path d="M29.1483 21.0094C29.1483 21.0094 28.7225 20.7481 28.0354 20.8352C27.3483 20.9223 27.0386 21.1835 27.0386 21.1835" fill="white"/>
<path d="M39.9482 49.5095L42.8031 57.1353C45.2998 55.9547 47.6031 54.445 49.6644 52.6547C49.1612 51.1837 48.7257 50.0708 48.7257 50.0708L39.9482 49.5095Z" fill="#DA5742"/>
<path d="M17.5256 57.2808L20.5062 49.3066L11.7288 49.8679C11.7192 49.8776 11.1965 51.2228 10.6353 52.9066C12.7062 54.6582 15.0191 56.1389 17.5256 57.2808Z" fill="#DA5742"/>
<path d="M39.9482 49.5095L40.9354 52.1031L49.645 52.645C49.1708 51.2805 48.7257 50.0708 48.7257 50.0708L39.9482 49.5095Z" fill="#C43D28"/>
<path d="M20.5934 49.0254L19.6064 51.6189L10.7612 52.4802C11.2354 51.1254 11.8161 49.5867 11.8161 49.5867L20.5934 49.0254Z" fill="#C43D28"/>
<path d="M20.2256 37.5675C16.3933 39.2997 12.1836 44.6803 10.6353 50.99H17.4869L16.3546 56.7191C20.4482 58.8094 25.0739 59.99 29.9901 59.99C34.9255 59.99 39.5707 58.7997 43.6739 56.69L42.4642 51.7255L49.3933 51.1062C49.4029 51.1159 47.8062 42.2126 40.4997 38.0029C34.6449 34.6352 25.6256 35.1384 20.2256 37.5675Z" fill="#3D5CFF"/>
<path d="M19.3642 44.5068L15.29 51.0004L17.6029 50.9907L19.3642 44.5068Z" fill="#224BF4"/>
<path d="M42.4837 51.7353L44.545 51.5611L39.9482 43.6934L42.4837 51.7353Z" fill="#224BF4"/>
<path d="M17.5838 51.0968C17.5354 51.0872 17.5063 51.0291 17.516 50.9807L19.4515 43.8001C19.4612 43.7517 19.5193 43.7226 19.5676 43.7323C19.616 43.742 19.645 43.8001 19.6354 43.8485L17.6999 51.0291C17.6902 51.0678 17.6515 51.0968 17.6128 51.0968C17.6031 51.0968 17.5935 51.0968 17.5838 51.0968Z" fill="#1F1F39"/>
<path d="M42.2999 51.7354L39.8225 43.6935C39.8031 43.6451 39.8322 43.5967 39.8805 43.5774C39.9289 43.558 39.9773 43.587 39.9966 43.6354L42.4741 51.6773C42.4934 51.7257 42.4644 51.7741 42.416 51.7935C42.4063 51.7935 42.3967 51.8032 42.387 51.8032C42.3483 51.8032 42.3096 51.7741 42.2999 51.7354Z" fill="#1F1F39"/>
<path d="M23.6126 21.7738C23.6126 21.7738 21.348 21.7738 20.7383 20.7867C20.1287 19.8093 21.019 19.0932 21.019 19.0932C21.019 19.0932 19.79 17.4674 20.4384 15.9771C21.2029 14.2255 22.9932 14.5932 22.9932 14.5932C22.9932 14.5932 21.6868 12.2803 23.2835 10.548C25.2384 8.419 28.5093 10.548 28.5093 10.548C28.5093 10.548 28.7222 9.16416 30.1448 9.16416C31.5577 9.16416 31.5577 10.0158 31.5577 10.0158C31.5577 10.0158 32.8255 8.30287 35.0416 8.95126C38.3029 9.90932 37.7416 13.5287 37.7416 13.5287C37.7416 13.5287 39.048 13.2093 39.4835 14.6996C39.919 16.19 38.5061 16.7222 38.5061 16.7222C38.5061 16.7222 39.8222 16.5093 40.1512 17.5738C40.6448 19.1706 39.2803 20.0222 39.2803 20.0222L38.5158 23.748L23.9223 24.348L23.6126 21.7738Z" fill="#1F1F39"/>
<path d="M21.0869 21.4439C19.5095 22.1697 19.345 24.3568 20.5354 25.731C21.7257 27.1052 24.7257 26.7858 24.7257 26.7858L24.2902 21.8697C24.2902 21.8697 22.6644 20.7181 21.0869 21.4439Z" fill="#C43D28"/>
<path d="M39.9966 21.4434C41.5837 22.1692 41.7385 24.3563 40.5482 25.7304C39.3579 27.1046 36.3579 26.7853 36.3579 26.7853L37.1611 21.8014C37.1611 21.8014 38.4095 20.7176 39.9966 21.4434Z" fill="#C43D28"/>
<path d="M37.21 25.769C37.21 25.7399 37.2197 25.1593 37.8584 24.1722C38.5068 23.1754 39.6971 22.8464 39.7455 22.827C39.8132 22.8076 39.8713 22.8464 39.8906 22.9141C39.91 22.9819 39.8712 23.0399 39.8035 23.0593C39.7938 23.0593 38.6519 23.3883 38.0519 24.298C37.4519 25.2173 37.4422 25.7593 37.4422 25.769C37.4422 25.827 37.3939 25.8851 37.3261 25.8851C37.2584 25.8851 37.21 25.827 37.21 25.769Z" fill="#1F1F39"/>
<path d="M24.1743 25.7691C24.1743 25.7691 24.1646 25.2175 23.5646 24.2982C22.9646 23.3788 21.8227 23.0594 21.813 23.0594C21.7453 23.0401 21.7163 22.9723 21.7259 22.9143C21.7356 22.8562 21.813 22.8175 21.8711 22.8272C21.9195 22.8368 23.1098 23.1756 23.7582 24.1723C24.4066 25.1594 24.4066 25.7498 24.4066 25.7691C24.4066 25.8272 24.3582 25.8852 24.2904 25.8852C24.2227 25.8852 24.1743 25.8272 24.1743 25.7691Z" fill="#1F1F39"/>
<path d="M27.2519 31.2178L26.8551 36.7145C26.8551 36.7145 27.4067 37.9242 30.3293 37.9242C33.4938 37.9242 34.3648 36.7145 34.3648 36.7145L34.2099 31.3048C34.2099 31.3048 36.1842 30.9855 37.1325 27.4242C38.0809 23.8726 37.6067 20.7178 37.6067 20.7178C37.6067 20.7178 32.9422 21.4436 31.3648 19.5081C29.7874 17.5726 28.2003 15.6274 25.9067 16.5952C23.6132 17.5629 23.9035 23.8048 24.5035 26.7758C25.0842 29.65 27.2519 31.2178 27.2519 31.2178Z" fill="#DA5742"/>
<path fill-rule="evenodd" clip-rule="evenodd" d="M28.2777 23.8046C27.8822 23.8046 27.5615 23.4233 27.5615 22.9529C27.5615 22.4826 27.8822 22.1013 28.2777 22.1013C28.6732 22.1013 28.9938 22.4826 28.9938 22.9529C28.9938 23.4233 28.6732 23.8046 28.2777 23.8046Z" fill="#1F1F39"/>
<path fill-rule="evenodd" clip-rule="evenodd" d="M33.4935 23.8046C33.098 23.8046 32.7773 23.4233 32.7773 22.9529C32.7773 22.4826 33.098 22.1013 33.4935 22.1013C33.889 22.1013 34.2096 22.4826 34.2096 22.9529C34.2096 23.4233 33.889 23.8046 33.4935 23.8046Z" fill="#1F1F39"/>
<path d="M30.3388 24.124C30.5807 24.6079 31.2098 24.366 31.2098 24.366C31.2098 24.366 30.5807 24.2014 30.5807 23.7176C30.5807 23.2337 30.5323 21.5789 30.5323 21.5789C30.5323 21.5789 30.0969 23.6402 30.3388 24.124Z" fill="#1F1F39"/>
<path d="M27.0293 35.224C27.0777 35.2143 32.2648 33.2014 33.2422 32.282C33.2422 31.7208 33.2616 31.3046 33.2616 31.3046C33.2616 31.3046 32.3132 31.8659 30.0197 31.7885C28.9551 31.7498 27.8035 31.5466 27.2519 31.2175C27.2616 31.7111 27.0777 35.0304 27.0293 35.224Z" fill="#C43D28"/>
<path fill-rule="evenodd" clip-rule="evenodd" d="M34.7999 25.9059C33.9501 25.9059 33.2612 25.4727 33.2612 24.9382C33.2612 24.4037 33.9501 23.9705 34.7999 23.9705C35.6497 23.9705 36.3386 24.4037 36.3386 24.9382C36.3386 25.4727 35.6497 25.9059 34.7999 25.9059Z" fill="#C43D28"/>
<path fill-rule="evenodd" clip-rule="evenodd" d="M26.6613 25.9059C25.8115 25.9059 25.1226 25.4727 25.1226 24.9382C25.1226 24.4037 25.8115 23.9705 26.6613 23.9705C27.5111 23.9705 28.2 24.4037 28.2 24.9382C28.2 25.4727 27.5111 25.9059 26.6613 25.9059Z" fill="#C43D28"/>
<path d="M30.8707 26.1284C31.2578 26.0316 32.032 25.451 32.032 25.451C32.032 25.451 32.2256 25.3542 32.3223 25.451C32.4191 25.5477 31.7998 26.651 31.2578 26.8058C30.5804 26.9994 30.0965 26.709 29.8062 26.3219C29.5159 25.9348 29.903 26.0316 29.903 26.0316C29.903 26.0316 30.4836 26.2252 30.8707 26.1284Z" fill="white"/>
<path d="M27.1937 29.2247C28.6453 29.6118 28.3743 30.2892 29.0033 29.9989C29.6421 29.7086 29.8162 29.1279 31.0936 29.3215C32.3614 29.515 32.0904 30.1925 32.9033 30.0957C33.7162 29.9989 35.0807 29.0312 35.7098 28.4505C36.3388 27.8699 37.2485 26.9021 37.2485 26.9021C37.2485 26.9021 36.6678 30.9667 33.4356 31.9344C31.0066 32.6602 27.5614 32.3215 26.0227 30.0957C24.484 27.8699 24.3872 26.6118 24.3872 26.6118C24.3872 26.6118 25.742 28.8376 27.1937 29.2247Z" fill="#1F1F39"/>
<path d="M28.6738 28.7415C28.6158 28.7028 28.6061 28.6351 28.6448 28.577L29.0319 27.9964C29.0706 27.9383 29.1384 27.9286 29.1964 27.9673C29.2545 28.006 29.2642 28.0738 29.2255 28.1318L28.8384 28.7125C28.819 28.7415 28.7803 28.7609 28.7416 28.7609C28.7222 28.7609 28.6932 28.7512 28.6738 28.7415Z" fill="#1F1F39"/>
<path d="M26.6129 28.3347C26.5742 28.2766 26.5935 28.2089 26.6419 28.1701L27.2225 27.783C27.2806 27.7443 27.3484 27.7637 27.3871 27.8121C27.4258 27.8701 27.4064 27.9379 27.3581 27.9766L26.7774 28.3637C26.7581 28.3734 26.7387 28.383 26.7097 28.383C26.6709 28.383 26.6322 28.3637 26.6129 28.3347Z" fill="#1F1F39"/>
<path d="M30.7549 28.8378V28.3539C30.7549 28.2862 30.813 28.2378 30.871 28.2378C30.9291 28.2378 30.9872 28.2959 30.9872 28.3539V28.8378C30.9872 28.9055 30.9388 28.9539 30.871 28.9539C30.8033 28.9539 30.7549 28.8959 30.7549 28.8378Z" fill="#1F1F39"/>
<path d="M32.5936 28.5861L32.4 28.1022C32.371 28.0441 32.4097 27.9667 32.4678 27.9474C32.5258 27.9183 32.6033 27.957 32.6226 28.0151L32.8162 28.499C32.8452 28.557 32.8065 28.6345 32.7484 28.6538C32.7387 28.6635 32.7291 28.6635 32.7097 28.6635C32.6613 28.6635 32.6129 28.6345 32.5936 28.5861Z" fill="#1F1F39"/>
<path d="M34.7806 28.451L34.1032 28.0639C34.0452 28.0349 34.0258 27.9574 34.0548 27.8994C34.0839 27.8413 34.1613 27.822 34.2194 27.851L34.8968 28.2381C34.9549 28.2671 34.9742 28.3445 34.9452 28.4026C34.9162 28.451 34.8774 28.4703 34.8387 28.4703C34.8194 28.4703 34.8 28.4607 34.7806 28.451Z" fill="#1F1F39"/>
<g opacity="0.5919">
<g opacity="0.5919">
<path opacity="0.5919" d="M24.7158 42.5606C24.89 42.6767 25.1223 42.6574 25.3255 42.609C25.5771 42.5412 25.8384 42.4154 26.09 42.5509C26.3126 42.667 26.419 42.9283 26.3609 43.1703C26.3416 43.2574 26.4771 43.2961 26.4964 43.209C26.6125 42.7348 26.2255 42.2993 25.7416 42.3574C25.49 42.3864 25.2481 42.5316 24.9868 42.5122C24.7061 42.4929 24.6384 42.2412 24.59 41.9993C24.5706 41.8929 24.4352 41.9316 24.4545 42.0283C24.4932 42.2219 24.5416 42.4348 24.7158 42.5606Z" fill="#BFE3C6"/>
<path opacity="0.5919" d="M23.351 47.3702C23.4575 47.6024 23.6414 47.7379 23.8543 47.8734C24.0768 48.0089 24.3091 48.1831 24.251 48.4734C24.1833 48.7831 23.8833 48.9573 23.6317 49.1024C23.5543 49.1508 23.622 49.2766 23.7091 49.2282C23.9607 49.0831 24.222 48.9185 24.3478 48.6476C24.4543 48.4153 24.4156 48.1637 24.251 47.9798C24.0769 47.796 23.8252 47.7089 23.651 47.5347C23.4284 47.3121 23.3704 46.9734 23.4962 46.6927C23.5155 46.6153 23.3704 46.5863 23.3414 46.6637C23.2446 46.8863 23.2542 47.1476 23.351 47.3702Z" fill="#BFE3C6"/>
<path opacity="0.5919" d="M15.7834 44.8451C15.7738 44.6515 15.7931 44.4773 15.977 44.3709C16.3447 44.1386 16.7124 44.4773 17.0705 44.5064C17.3995 44.5354 17.6124 44.2451 17.6995 43.9547C17.777 43.6644 17.7383 43.3451 17.5738 43.0935C17.5254 43.016 17.3995 43.0838 17.4479 43.1709C17.6318 43.4515 17.6415 43.8289 17.4673 44.1193C17.3512 44.3128 17.1866 44.3999 16.9737 44.3322C16.7899 44.2838 16.635 44.187 16.4512 44.158C16.1705 44.1096 15.8318 44.1773 15.6963 44.4677C15.6286 44.6128 15.6383 44.7773 15.648 44.9322C15.6576 45.1257 15.6867 45.3193 15.735 45.5031C15.7544 45.5902 15.8899 45.5515 15.8705 45.4644C15.8221 45.2612 15.7834 45.0483 15.7834 44.8451Z" fill="#BFE3C6"/>
<path opacity="0.5919" d="M20.68 54.7537C20.7574 54.715 20.8445 54.7441 20.9219 54.7828C21.0671 54.8602 21.1832 54.9957 21.309 55.1021C21.5607 55.3053 21.8703 55.4602 22.1896 55.4989C22.7606 55.557 23.38 55.1118 23.2735 54.4925C23.2542 54.4054 23.1187 54.4441 23.1381 54.5312C23.1961 54.8699 22.9348 55.1892 22.6251 55.3054C22.2864 55.4312 21.909 55.3247 21.609 55.1408C21.4542 55.0441 21.3187 54.9279 21.1832 54.8021C21.0768 54.7054 20.951 54.6182 20.8155 54.5989C20.5832 54.5699 20.3316 54.8021 20.4477 55.0344C20.4864 55.1118 20.6123 55.0441 20.5735 54.957C20.5348 54.8699 20.6123 54.7925 20.68 54.7537Z" fill="#BFE3C6"/>
<path opacity="0.5919" d="M30.522 52.8574C30.522 53.1477 30.7059 53.3607 30.9284 53.5252C31.1704 53.709 31.5187 53.8736 31.5768 54.2026C31.6349 54.5703 31.2091 54.6477 30.9381 54.6187C30.8414 54.609 30.851 54.7542 30.9381 54.7639C31.1897 54.7929 31.5091 54.7445 31.6542 54.5123C31.8188 54.251 31.6736 53.951 31.48 53.7574C31.2574 53.5348 30.9381 53.4284 30.7639 53.1574C30.551 52.8284 30.7543 52.4316 30.9865 52.1703C31.0446 52.1123 30.9381 52.0058 30.8801 52.0736C30.6865 52.2865 30.522 52.5574 30.522 52.8574Z" fill="#BFE3C6"/>
<path opacity="0.5919" d="M38.6318 54.5608C38.477 54.8221 38.5157 55.1028 38.6609 55.3641C38.7383 55.5092 38.8447 55.6544 38.8641 55.8286C38.8834 55.9931 38.835 56.1576 38.7383 56.2834C38.5254 56.5641 38.1093 56.5738 37.8576 56.3318C37.7899 56.2641 37.6834 56.3705 37.7512 56.4383C37.9738 56.6415 38.3028 56.7092 38.5835 56.5834C38.8544 56.4576 39.0286 56.1576 39.0092 55.8673C38.9899 55.5286 38.6705 55.2866 38.6705 54.9383C38.6705 54.6189 38.9415 54.3189 39.2705 54.3092C39.3673 54.3092 39.3673 54.1641 39.2705 54.1641C38.9995 54.1737 38.7673 54.3286 38.6318 54.5608Z" fill="#BFE3C6"/>
<path opacity="0.5919" d="M34.3638 41.2251C34.4703 41.5057 34.6735 41.6896 34.867 41.9122C34.9832 42.038 35.08 42.2219 34.8961 42.338C34.7413 42.4348 34.538 42.4541 34.3638 42.4444C34.2671 42.4444 34.2671 42.5896 34.3638 42.5896C34.6058 42.5993 35.0316 42.5509 35.1283 42.2896C35.2251 42.038 34.9735 41.8154 34.8186 41.6509C34.5961 41.4186 34.4219 41.1089 34.4316 40.7799C34.4412 40.4896 34.6155 40.209 34.8961 40.1219C34.9929 40.0832 34.9542 39.9477 34.8574 39.9767C34.3348 40.1412 34.18 40.7509 34.3638 41.2251Z" fill="#BFE3C6"/>
<path opacity="0.5919" d="M34.248 46.8666C34.5383 47.0215 34.5963 47.3795 34.6931 47.6602C34.7899 47.9408 34.9447 48.1731 35.2351 48.2795C35.506 48.3763 35.8448 48.386 36.1157 48.2795C36.4448 48.144 36.6867 47.8537 36.8222 47.515C36.8609 47.4279 36.7157 47.3892 36.6867 47.4763C36.5609 47.786 36.3189 48.0666 35.9899 48.1731C35.6996 48.2602 35.2931 48.2118 35.0608 47.9989C34.8286 47.786 34.8093 47.4376 34.6931 47.1569C34.5867 46.915 34.4125 46.7215 34.1512 46.6537C33.8705 46.586 33.5512 46.6634 33.348 46.8763C33.2706 46.9634 33.3673 47.0602 33.4351 46.9924C33.6383 46.7698 33.9867 46.7215 34.248 46.8666Z" fill="#BFE3C6"/>
<path opacity="0.5919" d="M43.1608 44.1278C43.0447 44.3698 43.1221 44.6407 43.1705 44.8827C43.2189 45.1343 43.2286 45.4246 42.977 45.5698C42.7447 45.6956 42.4737 45.5988 42.3286 45.3956C42.2802 45.3182 42.1544 45.3956 42.2028 45.473C42.3383 45.6665 42.5512 45.802 42.7931 45.7827C43.0254 45.7633 43.2383 45.6085 43.3157 45.3859C43.4028 45.1149 43.2963 44.8343 43.2576 44.5633C43.2383 44.4278 43.2383 44.273 43.3254 44.1472C43.3931 44.0504 43.5092 43.9827 43.635 44.0214C43.7221 44.0311 43.7608 43.8956 43.6737 43.8666C43.4608 43.7988 43.2576 43.944 43.1608 44.1278Z" fill="#BFE3C6"/>
</g>
<path opacity="0.5919" fill-rule="evenodd" clip-rule="evenodd" d="M49.0466 49.7368L49.0566 49.833L42.0012 50.5679L41.9912 50.4717L49.0466 49.7368Z" fill="#BFE3C6"/>
<path opacity="0.5919" fill-rule="evenodd" clip-rule="evenodd" d="M17.9752 49.3751L17.9773 49.4718L10.9918 49.6219L10.9897 49.5251L17.9752 49.3751Z" fill="#BFE3C6"/>
</g>
</svg>
