<svg width="290" height="290" viewBox="0 0 290 290" fill="none" xmlns="http://www.w3.org/2000/svg">
<g clip-path="url(#clip0_282_127)">
<rect width="290" height="290" rx="8" fill="white" fill-opacity="0.05"/>
<g filter="url(#filter0_d_282_127)">
<rect width="290" height="290" rx="4" fill="#0071BC"/>
</g>
<path opacity="0.07" d="M190.378 72.1329L224.146 58.6249L208.106 82.2623L256.226 89.8606L213.171 113.5L268.046 143.892L234.277 151.491L270.578 190.325L224.146 186.103L248.63 216.496L209.796 217.341L230.058 267.15L176.027 230.849C176.027 230.849 185.314 277.281 181.937 273.059C178.56 268.838 144.792 232.537 144.792 232.537L137.193 263.773L116.087 230.849L100.891 269.682L91.6039 218.185C91.6039 218.185 32.508 249.422 35.0407 249.422C37.5735 249.422 77.2516 186.949 74.7189 186.949C72.1861 186.949 33.3522 194.547 33.3522 194.547L70.4976 162.466L21.5327 160.777L60.3666 127.008L19 110.967L78.9401 92.3933C78.9401 92.3933 40.1062 53.5594 42.639 54.4036C45.1717 55.2479 110.177 68.7559 110.177 68.7559L91.6039 35.8302C91.6039 35.8302 135.503 62.0003 138.88 58.6249C142.257 55.2479 164.208 30.6498 164.208 33.1826C164.208 35.7153 170.117 67.0674 170.117 67.0674C170.117 67.0674 208.951 34.1432 205.574 36.676C202.197 39.2072 190.378 72.1329 190.378 72.1329Z" fill="#2AC5F4"/>
<path opacity="0.07" d="M175.673 256.832C165.4 245.613 151.449 230.611 149.171 228.16L142.209 220.677L135.235 249.347L115.244 218.163L103.205 248.931L96.0362 209.174L89.3831 212.691C88.1881 213.322 70.3502 222.755 54.9194 231.143C57.7703 226.79 60.7097 222.209 63.4643 217.842C82.0782 188.319 81.5241 187.09 80.1848 184.121C79.28 182.115 77.2718 180.817 75.0696 180.817C73.4665 180.817 64.1068 182.492 52.9003 184.612L85.0765 156.823L36.0417 155.131L71.2115 124.549L36.0712 110.923L89.6298 94.3268L83.1816 87.877C75.5445 80.2369 65.8729 70.4457 58.5199 62.8413C74.3464 66.2198 97.0698 70.9548 109.406 73.5186L121.277 75.9846L106.568 49.9091C107.576 50.4662 108.601 51.028 109.631 51.5883C132.105 63.8035 136.213 63.8035 138.188 63.8035C140.685 63.8035 142.25 62.7637 143.122 61.8915C144.039 60.9743 145.96 58.8947 148.619 56.0175C151.434 52.9695 156.49 47.4974 160.629 43.2141C161.827 50.1574 163.525 59.3293 165.058 67.4614L166.81 76.7574L174.027 70.6397C174.643 70.1183 182.269 63.6498 190.327 56.7903C188.26 62.1584 186.492 67.0175 185.548 69.6481L181.416 81.1603L209.847 69.7877L199.035 85.7214L239.815 92.1603L202.126 112.852L253.077 141.071L224.049 147.603L257.053 182.909L212.071 178.82L237.678 210.61L202.038 211.384L218.521 251.903L168.362 218.203L170.982 231.3C172.686 239.834 174.418 249.233 175.673 256.832Z" fill="#2AC5F4"/>
<path opacity="0.07" d="M164.655 234.741C159.279 228.937 155.031 224.371 154.202 223.479L138.547 206.648L132.351 232.114L113.756 203.103L105.658 223.8L101.133 198.705L86.1706 206.614C86.0806 206.662 81.4527 209.106 74.8384 212.631C88.2346 191.045 89.203 187.398 86.4515 181.294C84.5302 177.034 80.3788 174.213 75.7478 173.96L102.848 150.555L53.726 148.862L84.3207 122.257L56.954 111.645L102.545 97.518L88.0422 83.0137C85.5172 80.4871 82.5189 77.4764 79.3374 74.2623C90.187 76.539 100.901 78.7691 108.006 80.2466L134.701 85.7932L123.794 66.4577C133.155 70.6743 136.046 70.6743 138.187 70.6743C141.97 70.6743 145.45 69.2806 147.981 66.7479C148.999 65.7298 150.855 63.7201 153.667 60.6768C154.39 59.893 155.281 58.9293 156.274 57.8585C156.884 61.1718 157.561 64.8002 158.303 68.7297L162.241 89.6357L174.927 78.8809L169.782 93.2114L191.548 84.5051L187.263 90.8183L218.874 95.8093L187.887 112.822L233.937 138.327L210.828 143.528L239.714 174.428L196.542 170.504L223.555 204.038L191.905 204.725L203.669 233.644L158.346 203.193C158.349 203.197 164.517 234.041 164.655 234.741Z" fill="#2AC5F4"/>
<path d="M220.796 109.023C218.105 97.4544 217.213 87.0467 222.312 77.7362C217.477 77.0214 212.419 79.5573 209.801 83.623C202.243 59.1471 186.718 46.0715 157.694 33.4056C153.283 31.4798 148.916 29.2262 145.365 25.9755C141.814 22.7248 139.415 17.7349 140.284 13C136.187 13.4098 132.841 16.8289 131.488 20.7398C130.136 24.6506 130.441 28.9075 131.206 32.9595C131.971 37.0114 133.164 40.986 133.546 45.0881C134.357 53.8249 131.575 61.4782 125.524 67.8202C123.853 64.6833 125.624 60.9318 126.521 57.4899C128.379 50.3739 125.993 43.2852 120.575 38.3181C121.176 43.4628 118.413 48.4936 114.761 52.1677C111.11 55.8418 106.566 58.5052 102.469 61.6512C87.8316 72.8374 79.4044 90.3338 78.5439 108.723C77.0324 106.282 75.8714 104.17 74.3553 101.743C68.1726 123.342 74.4145 148.045 90.1171 164.116C118.062 192.708 179.115 191.829 203.937 160.474C206.096 157.734 208.014 154.813 209.669 151.742C218.433 139.254 223.286 119.731 220.796 109.023Z" fill="#FF9A35"/>
<mask id="mask0_282_127" style="mask-type:luminance" maskUnits="userSpaceOnUse" x="72" y="13" width="151" height="172">
<path d="M220.796 109.023C218.105 97.4544 217.213 87.0467 222.312 77.7362C217.477 77.0214 212.419 79.5573 209.801 83.623C202.243 59.1471 186.718 46.0715 157.694 33.4056C153.283 31.4798 148.916 29.2262 145.365 25.9755C141.814 22.7248 139.415 17.7349 140.284 13C136.187 13.4098 132.841 16.8289 131.488 20.7398C130.136 24.6506 130.441 28.9075 131.206 32.9595C131.971 37.0114 133.164 40.986 133.546 45.0881C134.357 53.8249 131.575 61.4782 125.524 67.8202C123.853 64.6833 125.624 60.9318 126.521 57.4899C128.379 50.3739 125.993 43.2852 120.575 38.3181C121.176 43.4628 118.413 48.4936 114.761 52.1677C111.11 55.8418 106.566 58.5052 102.469 61.6512C87.8316 72.8374 79.4044 90.3338 78.5439 108.723C77.0324 106.282 75.8714 104.17 74.3553 101.743C68.1726 123.342 74.4145 148.045 90.1171 164.116C118.062 192.708 179.115 191.829 203.937 160.474C206.096 157.734 208.014 154.813 209.669 151.742C218.433 139.254 223.286 119.731 220.796 109.023Z" fill="white"/>
</mask>
<g mask="url(#mask0_282_127)">
<path d="M120.575 38.2958C123.307 46.9461 121.081 55.7648 112.804 63.8415C106.325 70.1699 97.5381 79.2117 93.1766 87.1473C72.689 124.48 104.071 150.267 119.642 153.263C129.594 155.18 139.26 148.118 144.682 139.55C148.585 133.272 151.034 126.201 151.849 118.854C152.665 111.507 151.826 104.071 149.394 97.0906C154.166 105.622 157.173 115.026 158.238 124.743C159.302 134.46 158.402 144.292 155.591 153.655C162.725 156.17 170.333 157.055 177.854 156.243C185.375 155.431 192.619 152.944 199.052 148.964C205.486 144.985 210.945 139.614 215.03 133.246C219.114 126.878 221.719 119.676 222.654 112.169C221.188 132.056 219.649 152.275 212.473 170.901C205.298 189.526 191.531 206.59 172.609 212.855C156.884 218.058 139.747 215.308 123.494 212.122C111.565 209.786 99.3638 207.113 89.1883 200.475C77.351 192.768 69.2971 180.284 64.3937 167.053C59.4904 153.823 57.4598 139.737 55.4611 125.755C53.426 111.527 51.655 95.9387 59.2445 83.7372C65.7778 73.2658 77.7562 67.7205 88.9106 62.3983C100.065 57.076 115.435 49.5366 120.575 38.2958Z" fill="#F7802F"/>
<path d="M139.92 11.7851C136.688 15.2907 136.619 20.8588 138.513 25.2386C140.407 29.6184 143.904 33.0648 147.359 36.3519C150.815 39.6391 154.389 42.9672 156.515 47.2468C158.641 51.5264 159.028 57.0034 156.192 60.8369C156.501 51.7905 147.847 44.6062 139.287 41.6605C142.579 46.9691 141.737 53.0152 139.092 58.6743C136.446 64.3334 131.707 66.9149 125.524 67.7799C129.736 63.9009 128.907 59.8853 128.934 54.1579C128.962 48.4305 127.568 42.8124 126.708 37.1532C125.847 31.4941 125.456 25.5618 127.409 20.1804C129.362 14.799 134.206 12.1129 139.92 11.7851Z" fill="#F7802F"/>
<path d="M221.884 78.5786C216.926 81.6062 215.223 87.8845 214.144 93.6028C213.065 99.3211 213.912 102.85 209.409 106.519C212.278 98.575 212.278 89.8781 209.409 81.934C210.443 79.6166 211.29 77.1809 213.193 75.5054C215.096 73.83 217.923 72.9559 220.227 74.0212C222.531 75.0866 224.047 77.2582 221.884 78.5786Z" fill="#F7802F"/>
</g>
<path d="M106.931 38.2039C107.272 35.882 107.094 33.3962 105.911 31.3747C104.727 29.3533 102.382 27.8919 100.06 28.2333C96.9736 28.6886 95.0523 31.9621 94.6425 35.0625C94.2328 38.163 94.8702 41.2998 94.6107 44.4094C94.2055 49.2035 89.9532 55.1039 98.3531 50.4328C102.806 47.9378 106.193 43.2575 106.931 38.2039Z" fill="#FF9A35"/>
<path d="M207.383 139.057C207.297 172.074 201.633 198.699 146.918 198.699C95.1932 198.699 86.4519 171.628 86.4519 138.233C86.4516 122.68 92.4441 107.725 103.184 96.4751C113.924 85.2255 128.586 78.5467 144.122 77.8265C178.723 76.2558 207.479 104.415 207.406 139.048" fill="#E84D4D"/>
<mask id="mask1_282_127" style="mask-type:luminance" maskUnits="userSpaceOnUse" x="86" y="77" width="122" height="122">
<path d="M207.383 139.056C207.297 172.073 201.633 198.698 146.918 198.698C95.1932 198.698 86.4519 171.627 86.4519 138.232C86.4516 122.679 92.4441 107.724 103.184 96.4741C113.924 85.2245 128.586 78.5457 144.122 77.8256C178.723 76.2549 207.479 104.414 207.406 139.047" fill="white"/>
</mask>
<g mask="url(#mask1_282_127)">
<path d="M160.084 197.943C150.232 196.864 140.321 195.776 130.792 193.044C121.263 190.312 112.048 185.819 105.077 178.771C97.3376 170.963 92.8166 160.419 90.7497 149.633C88.6827 138.848 88.9286 127.748 89.7117 116.789C84.9358 135.378 82.7687 154.678 87.4353 173.289C90.1988 184.266 95.0748 195.453 104.476 201.754C111.911 206.739 121.281 208.009 130.213 207.531C141.003 206.948 150.546 202.992 160.084 197.943Z" fill="#D83939"/>
</g>
<path d="M107.104 104.734C106.712 104.734 106.328 104.622 105.997 104.411C105.667 104.199 105.404 103.898 105.24 103.541C105.077 103.185 105.018 102.79 105.072 102.401C105.127 102.013 105.291 101.648 105.547 101.351C107.825 98.7115 110.652 96.601 113.831 95.1668C117.009 93.7325 120.462 93.0089 123.949 93.0466C124.492 93.055 125.01 93.279 125.388 93.6692C125.767 94.0594 125.974 94.5838 125.966 95.1272C125.957 95.6706 125.733 96.1883 125.343 96.5665C124.953 96.9448 124.429 97.1525 123.885 97.1441H123.607C120.772 97.1571 117.972 97.7774 115.396 98.9633C112.82 100.149 110.528 101.873 108.674 104.019C108.48 104.245 108.239 104.427 107.968 104.55C107.697 104.674 107.402 104.736 107.104 104.734Z" fill="#280800"/>
<path d="M186.718 104.733C186.422 104.733 186.129 104.669 185.861 104.545C185.592 104.421 185.353 104.24 185.161 104.014C183.274 101.831 180.934 100.086 178.304 98.8992C175.674 97.7127 172.817 97.1137 169.932 97.1439C169.663 97.1478 169.396 97.0987 169.146 96.9993C168.896 96.8999 168.668 96.7523 168.475 96.5648C168.282 96.3773 168.128 96.1536 168.021 95.9065C167.914 95.6595 167.858 95.3938 167.854 95.1248C167.85 94.8557 167.899 94.5885 167.998 94.3385C168.098 94.0884 168.245 93.8604 168.433 93.6674C168.62 93.4744 168.844 93.3202 169.091 93.2137C169.338 93.1071 169.604 93.0503 169.873 93.0464C173.357 93.0108 176.808 93.7353 179.984 95.1695C183.159 96.6037 185.984 98.7131 188.262 101.351C188.515 101.649 188.678 102.013 188.731 102.401C188.784 102.789 188.726 103.183 188.562 103.539C188.398 103.894 188.137 104.195 187.808 104.407C187.478 104.619 187.096 104.732 186.705 104.733H186.718Z" fill="#280800"/>
<path d="M206.08 158.234L88.1625 159.6C86.5688 154.819 86.1137 144.12 86.5689 135.925C87.4653 119.788 90.4388 115.893 92.4877 111.34C130.693 111.34 162.411 110.885 200.616 110.885C202.665 114.755 205.852 120.446 207.446 134.332C208.129 145.031 208.32 154.321 206.08 158.234Z" fill="#429D3D"/>
<path d="M118.112 155.161C127.237 155.161 134.634 146.29 134.634 135.347C134.634 124.404 127.237 115.533 118.112 115.533C108.987 115.533 101.59 124.404 101.59 135.347C101.59 146.29 108.987 155.161 118.112 155.161Z" fill="white"/>
<path d="M118.112 151.919C124.569 151.919 129.804 145.643 129.804 137.901C129.804 130.159 124.569 123.883 118.112 123.883C111.655 123.883 106.421 130.159 106.421 137.901C106.421 145.643 111.655 151.919 118.112 151.919Z" fill="#280800"/>
<path d="M110.172 132.889C112.246 132.889 113.928 130.873 113.928 128.386C113.928 125.899 112.246 123.883 110.172 123.883C108.098 123.883 106.416 125.899 106.416 128.386C106.416 130.873 108.098 132.889 110.172 132.889Z" fill="white"/>
<path d="M175.723 155.161C184.848 155.161 192.245 146.29 192.245 135.347C192.245 124.404 184.848 115.533 175.723 115.533C166.598 115.533 159.201 124.404 159.201 135.347C159.201 146.29 166.598 155.161 175.723 155.161Z" fill="white"/>
<path d="M175.723 151.919C182.18 151.919 187.415 145.643 187.415 137.901C187.415 130.159 182.18 123.883 175.723 123.883C169.266 123.883 164.032 130.159 164.032 137.901C164.032 145.643 169.266 151.919 175.723 151.919Z" fill="#280800"/>
<path d="M167.788 132.889C169.862 132.889 171.544 130.873 171.544 128.386C171.544 125.899 169.862 123.883 167.788 123.883C165.713 123.883 164.032 125.899 164.032 128.386C164.032 130.873 165.713 132.889 167.788 132.889Z" fill="white"/>
<path d="M146.918 167.193C139.337 167.189 131.789 166.189 124.468 164.22C120.826 163.25 118.549 170.093 121.076 174.282C127.582 185.017 136.751 191.705 146.918 191.705C157.084 191.705 166.254 185.017 172.759 174.282C175.3 170.093 172.987 163.25 169.368 164.22C162.047 166.189 154.499 167.189 146.918 167.193Z" fill="#6F0904"/>
<path d="M146.918 177.915C164.564 177.915 169.108 168.727 170.278 164.156C169.973 164.121 169.665 164.143 169.368 164.22C154.663 168.184 139.172 168.184 124.468 164.22C124.021 164.093 123.549 164.093 123.102 164.22C124.363 168.818 129.075 177.915 146.918 177.915Z" fill="white"/>
<path d="M133.583 187.636C137.504 190.277 142.122 191.693 146.85 191.706C151.578 191.719 156.203 190.328 160.139 187.709C156.324 183.716 151.748 181.385 146.827 181.385C141.905 181.385 137.384 183.689 133.583 187.636Z" fill="#FF6E6E"/>
<path d="M156.788 205.11H136.938C135.482 205.11 134.043 205.43 132.725 206.048C131.406 206.666 130.24 207.567 129.308 208.686C128.377 209.805 127.703 211.116 127.335 212.525C126.966 213.934 126.912 215.406 127.177 216.838L134.206 254.959C134.623 257.217 135.818 259.257 137.583 260.726C139.348 262.195 141.571 262.999 143.867 262.999H149.413C151.717 262.998 153.95 262.195 155.728 260.728C157.505 259.261 158.717 257.221 159.156 254.959L166.531 216.929C166.811 215.492 166.769 214.011 166.408 212.592C166.048 211.173 165.378 209.852 164.447 208.722C163.516 207.593 162.346 206.683 161.022 206.058C159.698 205.434 158.252 205.11 156.788 205.11Z" fill="#FCEE21"/>
<mask id="mask2_282_127" style="mask-type:luminance" maskUnits="userSpaceOnUse" x="127" y="205" width="40" height="58">
<path d="M156.788 205.111H136.938C135.482 205.111 134.043 205.431 132.725 206.049C131.406 206.667 130.24 207.568 129.308 208.687C128.377 209.806 127.703 211.117 127.335 212.526C126.966 213.935 126.912 215.407 127.177 216.839L134.206 254.96C134.623 257.218 135.818 259.258 137.583 260.727C139.348 262.196 141.571 263 143.867 263H149.413C151.717 262.999 153.95 262.196 155.728 260.729C157.505 259.262 158.717 257.222 159.156 254.96L166.531 216.93C166.811 215.493 166.769 214.012 166.408 212.593C166.048 211.174 165.378 209.853 164.447 208.723C163.516 207.594 162.346 206.684 161.022 206.059C159.698 205.435 158.252 205.111 156.788 205.111Z" fill="white"/>
</mask>
<g mask="url(#mask2_282_127)">
<path d="M151.721 262.976C149.581 263.052 147.456 262.585 145.545 261.617C143.634 260.65 142 259.214 140.794 257.444C139.392 255.341 138.673 252.892 137.967 250.442C134.812 239.566 131.966 227.004 128.816 216.128C127.992 213.282 129.726 209.235 131.388 206.79C126.544 208.156 124.286 216.588 123.999 220.817C123.712 225.047 124.295 229.276 124.878 233.474L127.154 249.96C127.664 253.643 128.26 257.531 130.614 260.431C132.435 262.671 135.167 264.041 137.994 264.697C140.822 265.353 143.744 265.348 146.645 265.239C148.725 265.143 150.478 264.624 151.721 262.976Z" fill="#AFA401"/>
</g>
<path d="M130.276 207.632L161.605 242.392L163.739 231.534L137.249 205.128C137.249 205.128 135.781 205.024 133.918 205.583C131.642 206.266 130.276 207.632 130.276 207.632Z" fill="#429D3D"/>
<path d="M163.511 207.632L131.869 242.461L130.048 232.672L156.995 205.128C156.995 205.128 158.941 205.178 160.097 205.583C161.609 206.113 163.511 207.632 163.511 207.632Z" fill="#429D3D"/>
<path d="M146.587 228.284C151.321 228.284 155.159 224.446 155.159 219.711C155.159 214.977 151.321 211.139 146.587 211.139C141.852 211.139 138.014 214.977 138.014 219.711C138.014 224.446 141.852 228.284 146.587 228.284Z" fill="#39B54A"/>
<path d="M146.587 225.513C149.791 225.513 152.389 222.915 152.389 219.711C152.389 216.506 149.791 213.908 146.587 213.908C143.382 213.908 140.784 216.506 140.784 219.711C140.784 222.915 143.382 225.513 146.587 225.513Z" fill="#D9E021"/>
<path d="M145.004 222.453L143.421 219.711L145.004 216.97H148.17L149.753 219.711L148.17 222.453H145.004Z" stroke="#333333" stroke-width="0.212177" stroke-miterlimit="10" stroke-linecap="round" stroke-linejoin="round"/>
<path d="M123.08 229.532L122.479 237.997C122.388 239.222 121.835 240.366 120.932 241.199C120.029 242.031 118.844 242.49 117.616 242.483C116.388 242.475 115.209 242.002 114.317 241.158C113.424 240.314 112.886 239.164 112.809 237.938L105.938 241.277C104.907 241.779 103.789 242.072 102.645 242.141C101.502 242.209 100.356 242.052 99.2729 241.678C97.086 240.922 95.289 239.329 94.277 237.248C93.2649 235.168 93.1208 232.771 93.8763 230.584C94.6319 228.397 96.2253 226.6 98.3058 225.588L110.464 219.674C111.494 219.17 112.613 218.874 113.758 218.804C114.902 218.734 116.049 218.891 117.133 219.265C118.217 219.64 119.216 220.225 120.073 220.987C120.93 221.749 121.628 222.672 122.127 223.705C123.084 225.734 123.112 229.06 123.08 229.532Z" fill="#FC965E"/>
<mask id="mask3_282_127" style="mask-type:luminance" maskUnits="userSpaceOnUse" x="93" y="218" width="31" height="25">
<path d="M123.08 229.534L122.479 237.999C122.388 239.224 121.835 240.368 120.932 241.201C120.029 242.033 118.844 242.492 117.616 242.484C116.388 242.477 115.209 242.003 114.317 241.16C113.424 240.316 112.886 239.165 112.809 237.94L105.938 241.279C104.907 241.78 103.789 242.074 102.645 242.142C101.502 242.211 100.356 242.054 99.2729 241.68C97.086 240.924 95.289 239.331 94.277 237.25C93.2649 235.17 93.1208 232.772 93.8763 230.586C94.6319 228.399 96.2253 226.602 98.3058 225.59L110.464 219.676C111.494 219.172 112.613 218.876 113.758 218.806C114.902 218.736 116.049 218.893 117.133 219.267C118.217 219.642 119.216 220.227 120.073 220.989C120.93 221.751 121.628 222.674 122.127 223.707C123.084 225.736 123.112 229.062 123.08 229.534Z" fill="white"/>
</mask>
<g mask="url(#mask3_282_127)">
<path d="M122.901 231.993C123.304 227.586 119.309 223.674 114.953 222.9C110.596 222.126 105.791 224.952 102.012 227.215C98.2325 229.478 95.0579 231.278 92.1765 234.696C94.9251 225.735 101.49 218.365 110.606 216.23C113.354 215.579 116.387 215.401 118.925 216.656C121.737 218.03 123.505 221.04 124.023 224.132C124.541 227.224 123.982 229.052 122.901 231.993Z" fill="#EF7F48"/>
</g>
<path d="M122.976 245.253C131.022 237.207 131.022 224.161 122.975 216.114C114.929 208.068 101.883 208.068 93.8365 216.114C85.79 224.161 85.79 237.207 93.8365 245.253C101.883 253.3 114.929 253.3 122.976 245.253Z" fill="#39B54A"/>
<path d="M119.344 241.622C125.386 235.581 125.386 225.786 119.344 219.745C113.303 213.704 103.509 213.704 97.4675 219.745C91.4264 225.786 91.4264 235.581 97.4675 241.622C103.509 247.663 113.303 247.663 119.344 241.622Z" fill="#D9E021"/>
<path d="M108.41 244.764C116.184 244.764 122.487 238.461 122.487 230.687C122.487 222.913 116.184 216.611 108.41 216.611C100.636 216.611 94.3336 222.913 94.3336 230.687C94.3336 238.461 100.636 244.764 108.41 244.764Z" stroke="#333333" stroke-width="0.212177" stroke-miterlimit="10" stroke-linecap="round" stroke-linejoin="round"/>
<path d="M104.571 237.338L100.731 230.688L104.571 224.037H112.25L116.089 230.688L112.25 237.338H104.571Z" stroke="#333333" stroke-width="0.212177" stroke-miterlimit="10" stroke-linecap="round" stroke-linejoin="round"/>
<path d="M172.664 212.808L173.26 204.515C173.351 203.315 173.901 202.195 174.798 201.379C175.695 200.563 176.873 200.114 178.093 200.121C179.314 200.129 180.486 200.592 181.373 201.419C182.259 202.245 182.795 203.373 182.871 204.573L189.7 201.302C191.768 200.31 194.151 200.169 196.324 200.91C198.498 201.65 200.284 203.211 201.289 205.249C202.295 207.287 202.438 209.635 201.688 211.778C200.937 213.92 199.353 215.68 197.285 216.672L185.202 222.465C184.178 222.959 183.066 223.249 181.928 223.317C180.791 223.386 179.651 223.232 178.574 222.866C177.497 222.499 176.504 221.925 175.652 221.179C174.8 220.433 174.106 219.528 173.611 218.516C172.664 216.528 172.623 213.27 172.664 212.808Z" fill="#FC965E"/>
<mask id="mask4_282_127" style="mask-type:luminance" maskUnits="userSpaceOnUse" x="172" y="200" width="31" height="24">
<path d="M172.664 212.81L173.26 204.517C173.351 203.317 173.901 202.197 174.798 201.381C175.695 200.565 176.873 200.116 178.093 200.123C179.314 200.131 180.486 200.594 181.373 201.421C182.259 202.247 182.795 203.375 182.871 204.575L189.7 201.304C191.768 200.312 194.151 200.171 196.324 200.911C198.498 201.652 200.284 203.212 201.289 205.251C202.295 207.289 202.438 209.637 201.688 211.78C200.937 213.922 199.353 215.682 197.285 216.674L185.202 222.467C184.178 222.961 183.066 223.251 181.928 223.319C180.791 223.388 179.651 223.234 178.574 222.867C177.497 222.501 176.504 221.927 175.652 221.181C174.8 220.435 174.106 219.53 173.611 218.518C172.664 216.53 172.623 213.272 172.664 212.81Z" fill="white"/>
</mask>
<g mask="url(#mask4_282_127)">
<path d="M197.326 216.597C194.005 218.257 190.449 219.416 186.778 220.035C183.135 220.717 179.147 220.187 176.306 217.751C175.067 216.638 174.119 215.246 173.544 213.694C172.968 212.142 172.782 210.476 173.001 208.838C171.375 211.692 170.442 215.933 171.503 219.052C172.022 220.59 172.872 221.999 173.994 223.184C175.116 224.369 176.484 225.301 178.004 225.918C181.647 227.345 185.89 226.618 189.354 224.715C192.819 222.813 194.85 219.748 197.326 216.597Z" fill="#EF7F48"/>
<path d="M184.956 198.391C186.04 200.038 182.015 205.455 181.405 207.321L185.708 204.746C187.281 203.74 188.943 202.878 190.675 202.17C192.428 201.514 194.349 200.734 196.193 201.079C196.198 200.537 196.07 200.001 195.819 199.518C195.569 199.035 195.203 198.619 194.754 198.306C193.876 197.75 192.872 197.417 191.831 197.337C187.688 196.825 188.039 195.586 184.956 198.391Z" fill="#EF7F48"/>
</g>
</g>
<defs>
<filter id="filter0_d_282_127" x="-4" y="0" width="298" height="298" filterUnits="userSpaceOnUse" color-interpolation-filters="sRGB">
<feFlood flood-opacity="0" result="BackgroundImageFix"/>
<feColorMatrix in="SourceAlpha" type="matrix" values="0 0 0 0 0 0 0 0 0 0 0 0 0 0 0 0 0 0 127 0" result="hardAlpha"/>
<feOffset dy="4"/>
<feGaussianBlur stdDeviation="2"/>
<feComposite in2="hardAlpha" operator="out"/>
<feColorMatrix type="matrix" values="0 0 0 0 0 0 0 0 0 0 0 0 0 0 0 0 0 0 0.25 0"/>
<feBlend mode="normal" in2="BackgroundImageFix" result="effect1_dropShadow_282_127"/>
<feBlend mode="normal" in="SourceGraphic" in2="effect1_dropShadow_282_127" result="shape"/>
</filter>
<clipPath id="clip0_282_127">
<rect width="290" height="290" rx="8" fill="white"/>
</clipPath>
</defs>
</svg>
