<svg width="290" height="290" viewBox="0 0 290 290" fill="none" xmlns="http://www.w3.org/2000/svg">
<rect width="290" height="290" fill="#1E1E1E"/>
<g clip-path="url(#clip0_0_1)">
<rect width="290" height="290" rx="8" fill="white" fill-opacity="0.05"/>
<rect width="290" height="290" rx="4" fill="#FFD2CC"/>
<path opacity="0.07" d="M190.378 70.1329L224.146 56.6249L208.106 80.2623L256.226 87.8606L213.171 111.5L268.046 141.892L234.277 149.491L270.578 188.325L224.146 184.103L248.63 214.496L209.796 215.341L230.058 265.15L176.027 228.849C176.027 228.849 185.314 275.281 181.937 271.059C178.56 266.838 144.792 230.537 144.792 230.537L137.193 261.773L116.087 228.849L100.891 267.682L91.6039 216.185C91.6039 216.185 32.508 247.422 35.0407 247.422C37.5735 247.422 77.2516 184.949 74.7189 184.949C72.1861 184.949 33.3522 192.547 33.3522 192.547L70.4976 160.466L21.5327 158.777L60.3666 125.008L19 108.967L78.9401 90.3933C78.9401 90.3933 40.1062 51.5594 42.639 52.4036C45.1717 53.2479 110.177 66.7559 110.177 66.7559L91.6039 33.8302C91.6039 33.8302 135.503 60.0003 138.88 56.6249C142.257 53.2479 164.208 28.6498 164.208 31.1826C164.208 33.7153 170.117 65.0674 170.117 65.0674C170.117 65.0674 208.951 32.1432 205.574 34.676C202.197 37.2072 190.378 70.1329 190.378 70.1329Z" fill="#F47F2A"/>
<path opacity="0.07" d="M175.673 254.832C165.4 243.613 151.449 228.611 149.171 226.16L142.209 218.677L135.235 247.347L115.244 216.163L103.205 246.931L96.0362 207.174L89.3831 210.691C88.1881 211.322 70.3502 220.755 54.9194 229.143C57.7703 224.79 60.7097 220.209 63.4643 215.842C82.0782 186.319 81.5241 185.09 80.1848 182.121C79.28 180.115 77.2718 178.817 75.0696 178.817C73.4665 178.817 64.1068 180.492 52.9003 182.612L85.0765 154.823L36.0417 153.131L71.2115 122.549L36.0712 108.923L89.6298 92.3268L83.1816 85.877C75.5445 78.2369 65.8729 68.4457 58.5199 60.8413C74.3464 64.2198 97.0698 68.9548 109.406 71.5186L121.277 73.9846L106.568 47.9091C107.576 48.4662 108.601 49.028 109.631 49.5883C132.105 61.8035 136.213 61.8035 138.188 61.8035C140.685 61.8035 142.25 60.7637 143.122 59.8915C144.039 58.9743 145.96 56.8947 148.619 54.0175C151.434 50.9695 156.49 45.4974 160.629 41.2141C161.827 48.1574 163.525 57.3293 165.058 65.4614L166.81 74.7574L174.027 68.6397C174.643 68.1183 182.269 61.6498 190.327 54.7903C188.26 60.1584 186.492 65.0175 185.548 67.6481L181.416 79.1603L209.847 67.7877L199.035 83.7214L239.815 90.1603L202.126 110.852L253.077 139.071L224.049 145.603L257.053 180.909L212.071 176.82L237.678 208.61L202.038 209.384L218.521 249.903L168.362 216.203L170.982 229.3C172.686 237.834 174.418 247.233 175.673 254.832Z" fill="#F47F2A"/>
<path opacity="0.07" d="M164.655 232.741C159.279 226.937 155.031 222.371 154.203 221.479L138.547 204.648L132.351 230.114L113.756 201.103L105.658 221.8L101.133 196.705L86.1706 204.614C86.0806 204.662 81.4528 207.106 74.8384 210.631C88.2347 189.045 89.2031 185.398 86.4515 179.294C84.5302 175.034 80.3788 172.213 75.7479 171.96L102.848 148.555L53.726 146.862L84.3207 120.257L56.954 109.645L102.545 95.518L88.0423 81.0137C85.5173 78.4871 82.5189 75.4764 79.3375 72.2623C90.187 74.539 100.902 76.7691 108.006 78.2466L134.701 83.7932L123.794 64.4577C133.155 68.6743 136.046 68.6743 138.187 68.6743C141.97 68.6743 145.45 67.2806 147.981 64.7479C148.999 63.7298 150.855 61.7201 153.667 58.6768C154.39 57.893 155.281 56.9293 156.274 55.8585C156.884 59.1718 157.561 62.8002 158.303 66.7297L162.241 87.6357L174.927 76.8809L169.782 91.2114L191.548 82.5051L187.263 88.8183L218.874 93.8093L187.887 110.822L233.937 136.327L210.828 141.528L239.714 172.428L196.542 168.504L223.555 202.038L191.905 202.725L203.669 231.644L158.346 201.193C158.349 201.197 164.517 232.041 164.655 232.741Z" fill="#F47F2A"/>
<path d="M173.417 219.653C173.417 219.653 169.898 215.744 163.894 217.54C157.889 219.336 153.248 216.906 147.612 218.913C141.976 220.921 137.813 216.857 133.943 218.36C130.072 219.864 121.435 217.279 119.024 218.36C117.779 211.307 117.44 199.463 117.44 199.463C117.44 199.463 127.329 197.002 130.035 178.113C139.796 177.019 158.825 177.838 158.825 177.838C158.825 177.838 158.17 192.624 171.357 199.853C171.357 203.701 173.417 219.653 173.417 219.653Z" fill="#945711"/>
<path d="M159.665 178.93C159.665 179.507 161.818 190.515 172.402 198.655C172.402 205.074 173.417 219.653 173.417 219.653C173.417 219.653 166.679 223.488 163.276 220.709C167.596 213.948 170.374 199.894 170.374 199.894C170.374 199.894 160.379 193.143 158.487 178.93" fill="#FFFF00"/>
<path d="M129.061 178.93C129.061 179.507 127.007 186.916 116.325 198.655C116.325 205.074 115.309 219.653 115.309 219.653C115.309 219.653 122.047 223.488 125.451 220.709C121.131 213.948 118.352 199.894 118.352 199.894C118.352 199.894 128.347 193.143 130.239 178.93" fill="#FFFF00"/>
<path d="M145.429 197.078C145.429 197.078 146.003 198.192 145.429 199.27" stroke="#333333" stroke-width="0.4567" stroke-miterlimit="10" stroke-linecap="round" stroke-linejoin="round"/>
<path d="M141.708 196.872C141.708 196.872 141.708 198.058 141.708 199.071" stroke="#333333" stroke-width="0.4567" stroke-miterlimit="10" stroke-linecap="round" stroke-linejoin="round"/>
<path d="M160.208 192.669C160.208 192.669 163.894 210.181 163.894 217.54" stroke="#333333" stroke-width="0.4567" stroke-miterlimit="10" stroke-linecap="round" stroke-linejoin="round"/>
<path d="M129.652 190.335C129.652 190.335 125.593 209.583 125.593 218.65" stroke="#333333" stroke-width="0.4567" stroke-miterlimit="10" stroke-linecap="round" stroke-linejoin="round"/>
<path d="M126.805 192.515C126.805 192.515 123.167 203.671 122.04 210.955" stroke="#333333" stroke-width="0.4567" stroke-miterlimit="10" stroke-linecap="round" stroke-linejoin="round"/>
<path d="M163.276 198.164C163.276 198.164 163.43 208.68 163.43 212.564" stroke="#333333" stroke-width="0.4567" stroke-miterlimit="10" stroke-linecap="round" stroke-linejoin="round"/>
<path d="M159.023 186.859C159.023 186.859 158.403 193.58 159.535 197.971" stroke="#333333" stroke-width="0.4567" stroke-miterlimit="10" stroke-linecap="round" stroke-linejoin="round"/>
<path d="M209.167 103.204C206.815 94.3748 206.035 86.4318 210.493 79.3262C206.266 78.7807 201.844 80.7161 199.555 83.8189C192.949 65.1394 179.377 55.1603 154.004 45.4939C150.147 44.0241 146.331 42.3042 143.226 39.8233C140.122 37.3424 138.024 33.5342 138.785 29.9206C135.203 30.2334 132.277 32.8428 131.095 35.8275C129.913 38.8122 130.18 42.0609 130.848 45.1534C131.517 48.2458 132.56 51.2791 132.894 54.4097C133.603 61.0775 131.171 66.9184 125.881 71.7585C124.421 69.3645 125.969 66.5014 126.753 63.8746C128.377 58.4438 126.291 53.0338 121.555 49.243C122.08 53.1693 119.665 57.0088 116.473 59.8128C113.281 62.6168 109.309 64.6494 105.727 67.0504C92.9308 75.5875 85.5638 88.9405 84.8116 102.974C83.4902 101.112 82.4753 99.4999 81.1499 97.6479C75.745 114.131 81.2016 132.985 94.9287 145.25C119.358 167.071 172.73 166.4 194.429 142.47C196.316 140.379 197.993 138.15 199.44 135.806C207.102 126.275 211.344 111.376 209.167 103.204Z" fill="#FF9A35"/>
<mask id="mask0_0_1" style="mask-type:luminance" maskUnits="userSpaceOnUse" x="79" y="29" width="132" height="133">
<path d="M209.167 103.204C206.815 94.3748 206.035 86.4318 210.493 79.3262C206.266 78.7807 201.844 80.7161 199.555 83.8189C192.949 65.1394 179.377 55.1603 154.004 45.4939C150.147 44.0241 146.331 42.3042 143.226 39.8233C140.122 37.3424 138.024 33.5342 138.785 29.9206C135.203 30.2334 132.277 32.8428 131.095 35.8275C129.913 38.8122 130.18 42.0609 130.848 45.1534C131.517 48.2458 132.56 51.2791 132.894 54.4097C133.603 61.0775 131.171 66.9184 125.881 71.7585C124.421 69.3645 125.969 66.5014 126.753 63.8746C128.377 58.4438 126.291 53.0338 121.555 49.243C122.08 53.1693 119.665 57.0088 116.473 59.8128C113.281 62.6168 109.309 64.6494 105.727 67.0504C92.9308 75.5875 85.5638 88.9405 84.8116 102.974C83.4902 101.112 82.4753 99.4999 81.1499 97.6479C75.745 114.131 81.2016 132.985 94.9287 145.25C119.358 167.071 172.73 166.4 194.429 142.47C196.316 140.379 197.993 138.15 199.44 135.806C207.102 126.275 211.344 111.376 209.167 103.204Z" fill="white"/>
</mask>
<g mask="url(#mask0_0_1)">
<path d="M121.555 49.2258C123.943 55.8276 121.997 62.5579 114.761 68.7219C109.097 73.5516 101.416 80.4522 97.6032 86.5084C79.6931 115 107.127 134.681 120.739 136.967C129.439 138.43 137.889 133.041 142.629 126.501C146.041 121.71 148.182 116.314 148.895 110.707C149.607 105.1 148.874 99.4245 146.748 94.097C150.919 100.608 153.548 107.785 154.479 115.201C155.409 122.617 154.623 130.121 152.165 137.266C158.402 139.186 165.052 139.861 171.627 139.241C178.202 138.622 184.535 136.724 190.159 133.686C195.783 130.649 200.556 126.55 204.126 121.69C207.697 116.831 209.974 111.334 210.791 105.605C209.509 120.782 208.164 136.213 201.892 150.428C195.619 164.642 183.583 177.665 167.043 182.446C153.296 186.418 138.315 184.319 124.106 181.887C113.678 180.104 103.012 178.065 94.1167 172.999C83.7686 167.116 76.728 157.589 72.4415 147.491C68.155 137.394 66.3799 126.644 64.6327 115.973C62.8536 105.115 61.3054 93.2179 67.9401 83.9059C73.6514 75.9143 84.1229 71.6822 93.8739 67.6204C103.625 63.5586 117.061 57.8046 121.555 49.2258Z" fill="#F7802F"/>
<path d="M138.466 28.9933C135.64 31.6687 135.581 35.9182 137.236 39.2608C138.892 42.6033 141.949 45.2336 144.969 47.7423C147.99 50.251 151.115 52.7909 152.973 56.0571C154.832 59.3232 155.17 63.5032 152.691 66.4288C152.961 59.5247 145.395 54.0418 137.913 51.7937C140.79 55.8451 140.054 60.4594 137.742 64.7784C135.429 69.0973 131.286 71.0674 125.881 71.7276C129.563 68.7672 128.838 65.7026 128.862 61.3315C128.886 56.9605 127.668 52.6728 126.916 48.3538C126.164 44.0349 125.822 39.5075 127.529 35.4005C129.236 31.2935 133.471 29.2434 138.466 28.9933Z" fill="#F7802F"/>
<path d="M210.118 79.9697C205.784 82.2803 204.296 87.0718 203.352 91.436C202.409 95.8001 203.149 98.4929 199.213 101.293C201.72 95.2306 201.72 88.5933 199.213 82.5305C200.116 80.7619 200.857 78.903 202.52 77.6244C204.184 76.3457 206.656 75.6786 208.67 76.4916C210.683 77.3047 212.009 78.9621 210.118 79.9697Z" fill="#F7802F"/>
</g>
<path d="M109.627 49.156C109.925 47.3839 109.77 45.4868 108.735 43.944C107.701 42.4013 105.651 41.286 103.621 41.5466C100.923 41.894 99.2431 44.3923 98.8849 46.7585C98.5267 49.1247 99.0839 51.5187 98.857 53.8919C98.5028 57.5506 94.7855 62.0538 102.129 58.4888C106.021 56.5847 108.982 53.0128 109.627 49.156Z" fill="#FF9A35"/>
<path d="M197.442 126.126C197.366 151.324 192.415 171.643 144.583 171.643C99.3663 171.643 91.7247 150.983 91.7247 125.497C91.7245 113.627 96.9631 102.213 106.352 93.6279C115.741 85.0424 128.558 79.9453 142.14 79.3957C172.388 78.1969 197.526 99.6874 197.462 126.119" fill="#E84D4D"/>
<mask id="mask1_0_1" style="mask-type:luminance" maskUnits="userSpaceOnUse" x="91" y="79" width="107" height="93">
<path d="M197.442 126.126C197.366 151.324 192.415 171.643 144.583 171.643C99.3663 171.643 91.7247 150.983 91.7247 125.497C91.7245 113.627 96.9631 102.213 106.352 93.6279C115.741 85.0424 128.558 79.9453 142.14 79.3957C172.388 78.1969 197.526 99.6874 197.462 126.119" fill="white"/>
</mask>
<g mask="url(#mask1_0_1)">
<path d="M156.094 171.066C147.481 170.243 138.816 169.413 130.486 167.328C122.156 165.243 114.1 161.814 108.007 156.435C101.241 150.476 97.2888 142.429 95.4818 134.197C93.6749 125.966 93.8899 117.495 94.5744 109.131C90.3994 123.318 88.5049 138.047 92.5844 152.251C95.0003 160.629 99.2629 169.166 107.482 173.975C113.981 177.779 122.172 178.749 129.981 178.384C139.413 177.939 147.755 174.92 156.094 171.066Z" fill="#D83939"/>
</g>
<path d="M109.778 99.9305C109.435 99.9308 109.1 99.8452 108.811 99.684C108.522 99.5227 108.293 99.2925 108.149 99.0207C108.006 98.7489 107.955 98.4469 108.003 98.1505C108.05 97.8542 108.194 97.576 108.417 97.3488C110.409 95.3345 112.881 93.7239 115.659 92.6293C118.438 91.5346 121.456 90.9824 124.504 91.0111C124.979 91.0176 125.432 91.1885 125.763 91.4863C126.093 91.7841 126.275 92.1844 126.267 92.599C126.26 93.0137 126.064 93.4089 125.723 93.6975C125.382 93.9862 124.924 94.1447 124.449 94.1383H124.206C121.727 94.1483 119.279 94.6217 117.027 95.5267C114.775 96.4317 112.772 97.7473 111.151 99.385C110.982 99.5578 110.771 99.6962 110.534 99.7904C110.297 99.8847 110.039 99.9325 109.778 99.9305Z" fill="#280800"/>
<path d="M179.377 99.9304C179.118 99.9304 178.862 99.8813 178.627 99.7865C178.392 99.6918 178.183 99.5535 178.015 99.3814C176.366 97.7154 174.321 96.3833 172.021 95.4778C169.722 94.5723 167.224 94.1151 164.702 94.1382C164.467 94.1412 164.234 94.1036 164.015 94.0278C163.796 93.952 163.597 93.8393 163.428 93.6962C163.26 93.5531 163.125 93.3824 163.032 93.1938C162.938 93.0053 162.889 92.8025 162.885 92.5972C162.882 92.3919 162.925 92.188 163.012 91.9971C163.099 91.8063 163.228 91.6323 163.392 91.485C163.556 91.3377 163.751 91.22 163.967 91.1387C164.183 91.0574 164.415 91.014 164.651 91.011C167.697 90.9838 170.713 91.5368 173.489 92.6314C176.266 93.7259 178.735 95.3358 180.726 97.3487C180.947 97.5763 181.09 97.8544 181.136 98.1502C181.183 98.446 181.131 98.7473 180.988 99.0186C180.845 99.2898 180.617 99.5197 180.329 99.6813C180.041 99.8428 179.707 99.9292 179.365 99.9304H179.377Z" fill="#280800"/>
<path d="M192.144 98.2666C178.996 78.6843 121.279 68.6278 99.5783 96.1715C94.8298 102.909 86.5765 124.896 96.492 140.823C106.955 144.019 126.667 143.321 131.472 134.998C137.736 124.147 147.435 128.24 150.891 134.998C153.548 140.192 177.588 144.714 192.322 141.977C201.971 131.186 199.003 108.483 192.144 98.2666Z" fill="#B367AA"/>
<path d="M119.402 138.416C127.379 138.416 133.845 131.645 133.845 123.294C133.845 114.943 127.379 108.172 119.402 108.172C111.425 108.172 104.958 114.943 104.958 123.294C104.958 131.645 111.425 138.416 119.402 138.416Z" fill="white"/>
<path d="M119.402 135.941C125.046 135.941 129.622 131.151 129.622 125.243C129.622 119.334 125.046 114.545 119.402 114.545C113.757 114.545 109.181 119.334 109.181 125.243C109.181 131.151 113.757 135.941 119.402 135.941Z" fill="#280800"/>
<path d="M112.461 121.417C114.274 121.417 115.744 119.879 115.744 117.981C115.744 116.083 114.274 114.545 112.461 114.545C110.647 114.545 109.177 116.083 109.177 117.981C109.177 119.879 110.647 121.417 112.461 121.417Z" fill="white"/>
<path d="M169.765 138.416C177.742 138.416 184.208 131.645 184.208 123.294C184.208 114.943 177.742 108.172 169.765 108.172C161.788 108.172 155.321 114.943 155.321 123.294C155.321 131.645 161.788 138.416 169.765 138.416Z" fill="white"/>
<path d="M169.765 135.941C175.41 135.941 179.986 131.151 179.986 125.243C179.986 119.334 175.41 114.545 169.765 114.545C164.12 114.545 159.544 119.334 159.544 125.243C159.544 131.151 164.12 135.941 169.765 135.941Z" fill="#280800"/>
<path d="M162.828 121.417C164.641 121.417 166.111 119.879 166.111 117.981C166.111 116.083 164.641 114.545 162.828 114.545C161.014 114.545 159.544 116.083 159.544 117.981C159.544 119.879 161.014 121.417 162.828 121.417Z" fill="white"/>
<path d="M144.583 147.599C137.956 147.596 131.358 146.833 124.958 145.33C121.774 144.59 119.784 149.813 121.993 153.009C127.68 161.202 135.696 166.307 144.583 166.307C153.471 166.307 161.487 161.202 167.174 153.009C169.395 149.813 167.373 144.59 164.209 145.33C157.809 146.834 151.211 147.596 144.583 147.599Z" fill="#6F0904"/>
<path d="M144.583 155.782C160.01 155.782 163.982 148.77 165.005 145.282C164.738 145.255 164.469 145.271 164.209 145.33C151.355 148.355 137.812 148.355 124.958 145.33C124.568 145.234 124.154 145.234 123.764 145.33C124.866 148.84 128.986 155.782 144.583 155.782Z" fill="white"/>
<path d="M132.926 163.2C136.354 165.216 140.391 166.297 144.524 166.307C148.657 166.317 152.701 165.255 156.141 163.256C152.806 160.209 148.806 158.43 144.504 158.43C140.201 158.43 136.249 160.188 132.926 163.2Z" fill="#FF6E6E"/>
<path d="M153.212 176.536H135.859C134.586 176.536 133.329 176.78 132.176 177.252C131.023 177.724 130.004 178.411 129.189 179.265C128.375 180.119 127.786 181.12 127.464 182.195C127.142 183.27 127.095 184.394 127.326 185.487L133.471 214.58C133.836 216.303 134.88 217.86 136.423 218.981C137.966 220.102 139.91 220.716 141.917 220.716H146.765C148.779 220.715 150.731 220.102 152.285 218.983C153.839 217.863 154.898 216.306 155.282 214.58L161.729 185.556C161.974 184.459 161.937 183.329 161.622 182.246C161.307 181.163 160.721 180.155 159.907 179.293C159.093 178.431 158.071 177.736 156.913 177.26C155.756 176.783 154.492 176.536 153.212 176.536Z" fill="#B367AA"/>
<mask id="mask2_0_1" style="mask-type:luminance" maskUnits="userSpaceOnUse" x="127" y="176" width="35" height="45">
<path d="M153.212 176.536H135.859C134.586 176.536 133.329 176.78 132.176 177.252C131.023 177.724 130.004 178.411 129.189 179.265C128.375 180.119 127.786 181.12 127.464 182.195C127.142 183.27 127.095 184.394 127.326 185.487L133.471 214.58C133.836 216.303 134.88 217.86 136.423 218.981C137.966 220.102 139.91 220.716 141.917 220.716H146.765C148.779 220.715 150.731 220.102 152.285 218.983C153.839 217.863 154.898 216.306 155.282 214.58L161.729 185.556C161.974 184.459 161.937 183.329 161.622 182.246C161.307 181.163 160.721 180.155 159.907 179.293C159.093 178.431 158.071 177.736 156.913 177.26C155.756 176.783 154.492 176.536 153.212 176.536Z" fill="white"/>
</mask>
<g mask="url(#mask2_0_1)">
<path d="M148.783 220.698C146.912 220.756 145.054 220.4 143.384 219.661C141.713 218.923 140.284 217.827 139.231 216.477C138.005 214.871 137.376 213.002 136.759 211.133C134.001 202.832 131.513 193.245 128.759 184.944C128.039 182.773 129.555 179.684 131.008 177.818C126.773 178.86 124.799 185.295 124.548 188.523C124.298 191.751 124.807 194.979 125.316 198.183L127.306 210.764C127.752 213.575 128.274 216.543 130.331 218.756C131.923 220.465 134.311 221.511 136.783 222.012C139.254 222.512 141.81 222.509 144.345 222.425C146.164 222.352 147.696 221.956 148.783 220.698Z" fill="#9F3E94"/>
</g>
<path d="M143.716 184.541L137.199 192.697L144.523 205.404L150.451 194.309L143.716 184.541Z" fill="#FFFF00"/>
<path d="M139.046 185.503L144.523 193.261L149.472 184.541L151.646 185.503L143.825 197.438L137.199 186.153L139.046 185.503Z" fill="#FBB03B"/>
<path d="M153.749 176.485L152.281 179.796L148.812 180.257L147.477 176.506L153.749 176.485Z" fill="#FFFF00"/>
<path d="M152.082 177.429C152.082 177.429 151.976 179.081 151.392 179.215C150.809 179.349 151.146 177.082 151.146 177.082" stroke="#333333" stroke-width="0.4567" stroke-miterlimit="10" stroke-linecap="round" stroke-linejoin="round"/>
<path d="M149.654 177.107C149.654 177.107 150.15 179.051 149.796 179.58C149.442 180.109 148.617 176.931 148.617 176.931" stroke="#333333" stroke-width="0.4567" stroke-miterlimit="10" stroke-linecap="round" stroke-linejoin="round"/>
<path d="M153.018 179.071C152.679 178.898 148.074 179.783 148.074 179.783L147.987 180.78L153.268 179.903L153.018 179.071Z" fill="#F0C124"/>
<path d="M134.962 176.51L136.432 179.82L139.901 180.279L141.234 176.528L134.962 176.51Z" fill="#FFFF00"/>
<path d="M136.629 177.452C136.629 177.452 136.736 179.104 137.32 179.238C137.904 179.371 137.565 177.105 137.565 177.105" stroke="#333333" stroke-width="0.4567" stroke-miterlimit="10" stroke-linecap="round" stroke-linejoin="round"/>
<path d="M139.056 177.129C139.056 177.129 138.562 179.074 138.917 179.603C139.271 180.131 140.094 176.954 140.094 176.954" stroke="#333333" stroke-width="0.4567" stroke-miterlimit="10" stroke-linecap="round" stroke-linejoin="round"/>
<path d="M135.694 179.095C136.033 178.922 140.639 179.805 140.639 179.805L140.727 180.802L135.444 179.927L135.694 179.095Z" fill="#F0C124"/>
<path d="M121.989 182.293L121.467 175.872C121.388 174.943 120.907 174.075 120.123 173.444C119.339 172.812 118.309 172.464 117.242 172.47C116.176 172.476 115.151 172.835 114.376 173.475C113.6 174.115 113.132 174.988 113.066 175.917L107.096 173.384C106.201 173.004 105.229 172.782 104.235 172.729C103.241 172.677 102.246 172.797 101.305 173.08C99.4051 173.653 97.8438 174.862 96.9645 176.44C96.0852 178.018 95.96 179.837 96.6165 181.495C97.2729 183.154 98.6573 184.517 100.465 185.285L111.028 189.77C111.923 190.153 112.895 190.377 113.89 190.43C114.884 190.483 115.881 190.364 116.822 190.08C117.764 189.796 118.632 189.352 119.377 188.774C120.121 188.197 120.728 187.496 121.161 186.713C121.993 185.174 122.017 182.651 121.989 182.293Z" fill="#FC965E"/>
<mask id="mask3_0_1" style="mask-type:luminance" maskUnits="userSpaceOnUse" x="96" y="172" width="26" height="19">
<path d="M121.989 182.293L121.467 175.872C121.388 174.943 120.907 174.075 120.123 173.444C119.339 172.812 118.309 172.464 117.242 172.47C116.176 172.476 115.151 172.835 114.376 173.475C113.6 174.115 113.132 174.988 113.066 175.917L107.096 173.384C106.201 173.004 105.229 172.782 104.235 172.729C103.241 172.677 102.246 172.797 101.305 173.08C99.4051 173.653 97.8438 174.862 96.9645 176.44C96.0852 178.018 95.96 179.837 96.6165 181.495C97.2729 183.154 98.6573 184.517 100.465 185.285L111.028 189.77C111.923 190.153 112.895 190.377 113.89 190.43C114.884 190.483 115.881 190.364 116.822 190.08C117.764 189.796 118.632 189.352 119.377 188.774C120.121 188.197 120.728 187.496 121.161 186.713C121.993 185.174 122.017 182.651 121.989 182.293Z" fill="white"/>
</mask>
<g mask="url(#mask3_0_1)">
<path d="M121.834 180.428C122.184 183.77 118.713 186.737 114.928 187.325C111.143 187.912 106.968 185.768 103.685 184.052C100.401 182.335 97.6431 180.97 95.1396 178.378C97.5277 185.174 103.231 190.765 111.151 192.384C113.539 192.877 116.174 193.013 118.379 192.061C120.823 191.018 122.359 188.735 122.809 186.39C123.258 184.045 122.773 182.658 121.834 180.428Z" fill="#EF7F48"/>
</g>
<path d="M167.09 182.293L167.612 175.872C167.691 174.943 168.172 174.075 168.956 173.444C169.74 172.812 170.77 172.464 171.837 172.47C172.904 172.476 173.928 172.835 174.704 173.475C175.479 174.115 175.947 174.988 176.014 175.917L181.984 173.384C183.791 172.617 185.874 172.507 187.774 173.08C189.674 173.653 191.235 174.862 192.115 176.44C192.994 178.018 193.119 179.837 192.463 181.495C191.806 183.154 190.422 184.517 188.614 185.285L178.051 189.77C177.157 190.153 176.184 190.377 175.19 190.43C174.195 190.483 173.198 190.364 172.257 190.08C171.315 189.796 170.447 189.352 169.703 188.774C168.958 188.197 168.352 187.496 167.918 186.713C167.09 185.174 167.055 182.651 167.09 182.293Z" fill="#FC965E"/>
<mask id="mask4_0_1" style="mask-type:luminance" maskUnits="userSpaceOnUse" x="167" y="172" width="26" height="19">
<path d="M167.09 182.293L167.612 175.872C167.691 174.943 168.172 174.075 168.956 173.444C169.74 172.812 170.77 172.464 171.837 172.47C172.904 172.476 173.928 172.835 174.704 173.475C175.479 174.115 175.947 174.988 176.014 175.917L181.984 173.384C183.791 172.617 185.874 172.507 187.774 173.08C189.674 173.653 191.235 174.862 192.115 176.44C192.994 178.018 193.119 179.837 192.463 181.495C191.806 183.154 190.422 184.517 188.614 185.285L178.051 189.77C177.157 190.153 176.184 190.377 175.19 190.43C174.195 190.483 173.198 190.364 172.257 190.08C171.315 189.796 170.447 189.352 169.703 188.774C168.958 188.197 168.352 187.496 167.918 186.713C167.09 185.174 167.055 182.651 167.09 182.293Z" fill="white"/>
</mask>
<g mask="url(#mask4_0_1)">
<path d="M188.65 185.226C185.747 186.511 182.638 187.408 179.429 187.887C176.245 188.416 172.758 188.006 170.275 186.119C169.191 185.257 168.363 184.18 167.86 182.978C167.356 181.777 167.194 180.487 167.385 179.218C165.964 181.428 165.148 184.712 166.076 187.126C166.53 188.317 167.272 189.408 168.253 190.326C169.234 191.243 170.43 191.965 171.759 192.443C174.943 193.548 178.653 192.985 181.681 191.511C184.71 190.038 186.485 187.665 188.65 185.226Z" fill="#EF7F48"/>
<path d="M177.837 171.129C178.784 172.404 175.266 176.598 174.732 178.044L178.493 176.049C179.869 175.271 181.322 174.603 182.836 174.055C184.368 173.547 186.047 172.943 187.659 173.21C187.664 172.79 187.552 172.376 187.333 172.002C187.114 171.628 186.794 171.306 186.402 171.063C185.634 170.633 184.756 170.375 183.846 170.312C180.225 169.916 180.531 168.957 177.837 171.129Z" fill="#EF7F48"/>
</g>
</g>
<defs>
<clipPath id="clip0_0_1">
<rect width="290" height="290" rx="8" fill="white"/>
</clipPath>
</defs>
</svg>
