<svg width="574" height="580" viewBox="0 0 574 580" fill="none" xmlns="http://www.w3.org/2000/svg">
<g clip-path="url(#clip0_687_2)">
<g filter="url(#filter0_d_687_2)">
<path d="M480.946 294.981C509.677 286.301 526.747 258.673 519.074 233.272C511.401 207.87 481.889 194.314 453.158 202.993C424.427 211.673 407.356 239.3 415.029 264.702C422.703 290.104 452.214 303.66 480.946 294.981Z" fill="#FED420"/>
</g>
<path d="M450.126 284.998C468.137 281.744 480.1 264.505 476.847 246.494C473.593 228.483 456.354 216.52 438.343 219.773C420.332 223.027 408.369 240.266 411.622 258.277C414.876 276.288 432.115 288.251 450.126 284.998Z" fill="#485AA8"/>
<g style="mix-blend-mode:multiply" opacity="0.49">
<path d="M449.39 219.65C443.233 218.664 436.924 219.443 431.191 221.896C425.459 224.349 420.539 228.375 417.001 233.509C413.463 238.643 411.452 244.674 411.2 250.904C410.949 257.134 412.467 263.308 415.58 268.71C416.561 270.411 417.675 272.033 418.91 273.56L421.14 272.34C430.314 267.088 437.827 259.363 442.822 250.047C447.818 240.731 450.093 230.198 449.39 219.65Z" fill="#485AA8"/>
</g>
<path style="mix-blend-mode:screen" opacity="0.72" d="M543.595 310.785C573.126 274.343 567.333 220.706 530.655 190.983C493.977 161.261 440.303 166.708 410.772 203.15C381.24 239.592 387.034 293.229 423.712 322.952C460.39 352.675 514.064 347.227 543.595 310.785Z" fill="url(#paint0_radial_687_2)"/>
<path opacity="0.8" d="M384.24 127C428.38 88.71 432.24 199.23 432.24 199.23C432.24 199.23 356.69 151.08 384.24 127Z" fill="white"/>
<path opacity="0.8" d="M471.8 133C524.51 158.29 424.43 205.57 424.43 205.57C424.43 205.57 438.81 117.18 471.8 133Z" fill="white"/>
<path d="M426.281 213.591C437.287 204.619 430.099 177.587 410.228 153.213C390.357 128.84 365.327 116.355 354.321 125.328C343.316 134.3 350.504 161.332 370.375 185.705C390.246 210.079 415.276 222.564 426.281 213.591Z" fill="#485AA8"/>
<mask id="mask0_687_2" style="mask-type:luminance" maskUnits="userSpaceOnUse" x="349" y="122" width="83" height="95">
<path d="M426.281 213.591C437.287 204.619 430.099 177.587 410.228 153.213C390.357 128.84 365.327 116.355 354.321 125.328C343.316 134.3 350.504 161.332 370.375 185.705C390.246 210.079 415.276 222.564 426.281 213.591Z" fill="white"/>
</mask>
<g mask="url(#mask0_687_2)">
<g style="mix-blend-mode:multiply" opacity="0.49">
<path d="M390 165.75C406.526 168.169 421.869 175.733 433.85 187.37C439.34 195.37 432.7 226.31 420.95 227.53C409.2 228.75 380.68 202.12 370.55 196.03C364.312 192.138 358.438 187.69 353 182.74C347.38 177.81 342.64 176.14 348.16 171.15C356.9 163.27 379.4 164.22 390 165.75Z" fill="#485AA8"/>
</g>
</g>
<path d="M479.336 201.169C503.699 181.285 516.171 156.248 507.193 145.248C498.214 134.247 471.186 141.449 446.823 161.333C422.461 181.217 409.989 206.254 418.967 217.254C427.945 228.255 454.973 221.053 479.336 201.169Z" fill="#6371B5"/>
<path d="M385.62 283.17C416.819 283.17 442.11 257.879 442.11 226.68C442.11 195.481 416.819 170.19 385.62 170.19C354.421 170.19 329.13 195.481 329.13 226.68C329.13 257.879 354.421 283.17 385.62 283.17Z" fill="#6371B5"/>
<path d="M357.68 177.73C357.18 177.96 356.83 178.29 356.33 178.52C369.409 175.438 383.159 177.12 395.11 183.263C407.06 189.407 416.429 199.611 421.533 212.041C426.637 224.472 427.142 238.315 422.957 251.084C418.772 263.853 410.171 274.712 398.7 281.71C403.967 280.455 409.021 278.433 413.7 275.71C420.23 272.083 425.976 267.196 430.603 261.333C435.231 255.469 438.648 248.745 440.657 241.551C442.667 234.356 443.228 226.835 442.308 219.422C441.389 212.009 439.007 204.852 435.301 198.366C431.595 191.881 426.639 186.196 420.719 181.64C414.799 177.084 408.034 173.749 400.816 171.828C393.597 169.906 386.069 169.437 378.668 170.447C371.267 171.456 364.14 173.925 357.7 177.71L357.68 177.73Z" fill="#485AA8"/>
<path d="M406.3 243.06C412.972 243.06 418.38 237.652 418.38 230.98C418.38 224.308 412.972 218.9 406.3 218.9C399.628 218.9 394.22 224.308 394.22 230.98C394.22 237.652 399.628 243.06 406.3 243.06Z" fill="#96A1D2"/>
<path d="M337.85 256.58C341.673 262.74 346.668 268.091 352.55 272.33C353.348 270.233 353.542 267.955 353.11 265.753C352.678 263.552 351.638 261.515 350.107 259.875C348.576 258.235 346.616 257.057 344.45 256.475C342.283 255.892 339.997 255.929 337.85 256.58Z" fill="#96A1D2"/>
<path d="M340.71 265.42C351.828 265.42 360.84 256.407 360.84 245.29C360.84 234.173 351.828 225.16 340.71 225.16C329.593 225.16 320.58 234.173 320.58 245.29C320.58 256.407 329.593 265.42 340.71 265.42Z" fill="white"/>
<mask id="mask1_687_2" style="mask-type:luminance" maskUnits="userSpaceOnUse" x="320" y="225" width="41" height="41">
<path d="M340.71 265.42C351.828 265.42 360.84 256.407 360.84 245.29C360.84 234.173 351.828 225.16 340.71 225.16C329.593 225.16 320.58 234.173 320.58 245.29C320.58 256.407 329.593 265.42 340.71 265.42Z" fill="white"/>
</mask>
<g mask="url(#mask1_687_2)">
<path d="M353.875 263.504C357.86 258.817 356.421 251.047 350.661 246.15C344.9 241.252 337 241.082 333.015 245.77C329.03 250.457 330.469 258.227 336.229 263.124C341.99 268.022 349.89 268.192 353.875 263.504Z" fill="#263360"/>
<path d="M340.523 258.488C342.587 256.061 341.879 252.068 338.942 249.571C336.005 247.074 331.951 247.018 329.887 249.446C327.823 251.874 328.531 255.867 331.468 258.363C334.405 260.86 338.459 260.916 340.523 258.488Z" fill="white"/>
</g>
<path d="M386.69 238.7C397.808 238.7 406.82 229.688 406.82 218.57C406.82 207.453 397.808 198.44 386.69 198.44C375.573 198.44 366.56 207.453 366.56 218.57C366.56 229.688 375.573 238.7 386.69 238.7Z" fill="white"/>
<mask id="mask2_687_2" style="mask-type:luminance" maskUnits="userSpaceOnUse" x="366" y="198" width="41" height="41">
<path d="M386.69 238.7C397.808 238.7 406.82 229.688 406.82 218.57C406.82 207.453 397.808 198.44 386.69 198.44C375.573 198.44 366.56 207.453 366.56 218.57C366.56 229.688 375.573 238.7 386.69 238.7Z" fill="white"/>
</mask>
<g mask="url(#mask2_687_2)">
<path d="M399.85 236.776C403.835 232.089 402.396 224.319 396.635 219.421C390.875 214.524 382.975 214.354 378.99 219.041C375.005 223.729 376.444 231.499 382.204 236.396C387.965 241.293 395.865 241.464 399.85 236.776Z" fill="#263360"/>
<path d="M386.491 231.768C388.555 229.34 387.848 225.348 384.911 222.851C381.974 220.354 377.919 220.298 375.855 222.726C373.791 225.154 374.499 229.146 377.436 231.643C380.373 234.14 384.427 234.196 386.491 231.768Z" fill="white"/>
</g>
<path d="M302.12 171.27C304.72 168.01 308.12 165.51 311.71 165.27C314.93 165.04 318.11 166.39 321.04 168.11C331.49 174.27 341.33 181.17 351.95 187.92C352.66 188.37 351.48 190.54 350.75 190.12C342.38 185.28 321.44 170.99 319.28 170.33C313.03 168.39 310.92 175.73 308.7 180.63C307.18 184.02 304.99 187.29 302 188.14C299.57 188.82 295.55 186.77 295.58 183.01C295.6 179.63 300.33 173.52 302.12 171.27Z" fill="#485AA8"/>
<path d="M319.35 144.73C322.66 142.79 326.48 141.9 329.97 143.23C333.06 144.41 335.69 147.06 337.97 149.95C346.15 160.26 353.57 171.02 361.75 181.95C362.3 182.69 360.61 184.21 360.04 183.5C353.46 175.32 337.57 152.81 335.72 151.25C330.36 146.71 326.41 152.7 323.03 156.36C320.69 158.88 317.76 161.01 314.72 160.51C312.25 160.1 309.02 156.43 310.05 152.9C311 149.78 317.06 146.07 319.35 144.73Z" fill="#485AA8"/>
<path d="M382.779 271.007C385.529 267.705 384.157 262.029 379.713 258.328C375.27 254.628 369.439 254.304 366.689 257.606C363.939 260.907 365.312 266.584 369.755 270.284C374.199 273.985 380.03 274.308 382.779 271.007Z" fill="#6D0F0F"/>
<path d="M381.06 259.54C376.99 258.91 372.71 262.41 371.38 267.84C371.07 268.921 370.952 270.048 371.03 271.17C375.21 273.96 380.26 274 382.85 270.95C385.19 268.07 384.44 263.16 381.06 259.54Z" fill="#F26E6F"/>
<path d="M179 545.7L161.87 547.22C150.31 548.22 140.18 539.38 138.94 527.28L127.94 430.28C126.58 417.01 136.39 405.28 149.1 405.01L192.1 404.06C205.47 403.76 215.76 416.21 213.61 430.06L198.75 526.46C197.15 536.94 189 544.87 179 545.7Z" fill="#F79560"/>
<mask id="mask3_687_2" style="mask-type:luminance" maskUnits="userSpaceOnUse" x="127" y="404" width="87" height="144">
<path d="M179 545.7L161.87 547.22C150.31 548.22 140.18 539.38 138.94 527.28L127.94 430.28C126.58 417.01 136.39 405.28 149.1 405.01L192.1 404.06C205.47 403.76 215.76 416.21 213.61 430.06L198.75 526.46C197.15 536.94 189 544.87 179 545.7Z" fill="white"/>
</mask>
<g mask="url(#mask3_687_2)">
<path d="M179.58 545.07C174.389 544.75 169.363 543.121 164.971 540.336C160.579 537.551 156.963 533.699 154.46 529.14C151.56 523.72 150.38 517.57 149.24 511.52C144.14 484.45 140.18 453.37 135.08 426.29C133.75 419.21 138.87 409.81 143.49 404.29C131.49 406.47 124.01 426.36 122.33 436.53C120.65 446.7 121.07 457.09 121.5 467.39L123.19 507.84C123.56 516.84 124.1 526.43 129.13 533.95C133 539.79 139.34 543.75 146 546C152.66 548.25 159.77 548.91 166.8 549.32C171.83 549.61 176.19 548.78 179.58 545.07Z" fill="#EE7F48"/>
</g>
<path d="M97.16 40.92C98.07 35.92 97.87 30.5 95.45 26.02C93.03 21.54 88.06 18.22 83 18.79C76.28 19.54 71.88 26.5 70.77 33.17C69.66 39.84 70.77 46.7 70.02 53.42C68.8 63.79 59.15 76.26 77.69 66.74C82.6592 64.1656 86.9878 60.5096 90.3573 56.0412C93.7268 51.5727 96.0514 46.4056 97.16 40.92Z" fill="#F89A3A"/>
<path d="M283.42 142.87C287.851 139.188 293.271 136.899 299 136.29C292.7 147.23 293.31 159.03 297.22 171.5C301.13 183.97 307.49 195.62 311.22 208.14C320.36 238.75 311.68 273.32 290.11 294.96C216 324.53 135.65 363.55 60.41 336.35C33.47 326.6 13.5 300.94 5.3 273C-2.9 245.06 -1.7 213.36 9.51 186.26C12.58 187.74 17.85 195.49 20.37 197.84C23.74 160.23 42.72 130.75 73 106.5C81 100.14 90.06 95 97.16 87.67C104.26 80.34 107.46 66.1 102.36 56.77C108.216 59.0301 113.278 62.9627 116.916 68.0783C120.554 73.1938 122.607 79.2664 122.82 85.54C123 91.73 121.37 97.75 121.11 103.92C120.89 107.699 121.497 111.48 122.89 115C128.626 105.65 131.578 94.8581 131.4 83.89C131.16 70.2 122.7 57.43 123.02 43.75C123.43 25.8 137.27 8 152.67 0C153.32 17.58 164.67 32.17 178.8 42.62C192.93 53.07 209.34 59.62 224.49 68.44C244.27 79.92 262.3 95.72 273.58 116C278.255 124.382 281.576 133.451 283.42 142.87Z" fill="#F89A3A"/>
<mask id="mask4_687_2" style="mask-type:luminance" maskUnits="userSpaceOnUse" x="-1" y="0" width="315" height="346">
<path d="M282.16 142.87C286.576 139.189 291.984 136.899 297.7 136.29C291.43 147.23 292.07 159.03 296.02 171.5C299.97 183.97 306.36 195.62 310.13 208.14C319.36 238.75 310.79 273.32 289.29 294.96C215.29 324.53 135.11 363.55 59.81 336.35C32.81 326.6 12.81 300.94 4.50003 273.03C-3.80998 245.12 -2.66998 213.39 8.42002 186.29C11.49 187.77 16.79 195.52 19.31 197.87C22.56 160.23 41.44 130.75 71.66 106.5C79.59 100.14 88.66 95 95.76 87.67C102.86 80.34 106 66.1 100.85 56.77C106.717 59.0267 111.792 62.9557 115.447 68.0699C119.102 73.1841 121.175 79.2585 121.41 85.54C121.61 91.73 120 97.75 119.76 103.92C119.546 107.699 120.153 111.479 121.54 115C127.264 105.662 130.2 94.8814 130 83.93C129.71 70.24 121.21 57.47 121.48 43.79C121.8 25.8 135.58 8 151 0C151.71 17.58 163.07 32.17 177.26 42.62C191.45 53.07 207.86 59.62 223.04 68.44C242.85 79.92 260.94 95.72 272.27 115.99C276.956 124.376 280.293 133.447 282.16 142.87Z" fill="white"/>
</mask>
<g mask="url(#mask4_687_2)">
<path d="M102.75 98.09C93 113.33 77.4 128.24 66.65 141.92C42 173.27 44.2 187 39.39 211.66C34.58 236.32 41.57 265.3 61.86 280.74C53.86 282.64 51.14 293.57 54.14 301.63C57.14 309.69 63.84 315.7 69.55 322.13C75.26 328.56 80.47 336.73 79.25 345.13C77.85 354.73 67.97 360.92 58.4 360.91C48.83 360.9 39.72 356 31.63 350.48C-3.28997 326.48 -27.02 285.88 -30.78 243.71C-34.54 201.54 -18.31 158.71 11.85 131.25C26.23 118.12 43.3 108.51 59.06 97.16C66.4129 91.9996 73.2932 86.1969 79.62 79.82C83.79 75.52 90.75 58.53 95.43 56.74C111.71 50.52 112.11 83.43 102.75 98.09Z" fill="#F58030"/>
<path d="M125.17 12.63C116.85 27.79 118.31 46.79 120.8 64.43C123.29 82.07 126.53 100.49 121.12 117.08C142.02 102.65 151.73 73.44 144.12 47.95C156.3 52.36 166.12 63.64 168.99 76.52C172.25 67.23 167.9 56.63 162.33 48.18C156.76 39.73 149.75 31.92 146.72 22.27C143.69 12.62 146.48 0.169987 155.62 -2.88001C142.11 -6.31001 132 0.389988 125.17 12.63Z" fill="#F58030"/>
<path d="M288.65 271.66C284.98 275.66 280.89 279.33 278.32 284.15C275.75 288.97 275.01 295.35 278.17 300.05C281.17 304.56 287.17 306.34 292.3 305.49C297.43 304.64 301.89 301.59 305.78 298.18C320.3 285.46 329.21 266.35 329.93 246.42C330.236 236.735 328.741 227.078 325.52 217.94C324.33 214.53 315.25 192.06 310.92 193.1C309.69 193.4 311.37 216.1 311.12 219.1C310.345 228.293 308.205 237.318 304.77 245.88C300.997 255.376 295.535 264.11 288.65 271.66Z" fill="#F58030"/>
<path d="M304.11 134C296.91 134.44 291.42 140.66 288.75 147.43C286.08 154.2 285.5 161.71 283.59 168.77C284.652 159.895 284.018 150.898 281.72 142.26C284.717 139.466 288.24 137.297 292.085 135.879C295.929 134.461 300.017 133.822 304.11 134Z" fill="#F58030"/>
</g>
<path d="M296.81 274.77C293.75 344.37 279.49 400.03 164.15 395.27C55.11 390.77 39 332.94 41.93 262.54C43.2825 229.753 57.2166 198.748 80.8364 175.968C104.456 153.188 135.945 140.385 168.76 140.22C241.84 139.9 300.01 201.77 296.81 274.77Z" fill="#E74F4E"/>
<mask id="mask5_687_2" style="mask-type:luminance" maskUnits="userSpaceOnUse" x="41" y="140" width="256" height="256">
<path d="M296.81 274.77C293.75 344.37 279.49 400.03 164.15 395.27C55.11 390.77 39 332.94 41.93 262.54C43.2825 229.753 57.2166 198.748 80.8364 175.968C104.456 153.188 135.945 140.385 168.76 140.22C241.84 139.9 300.01 201.77 296.81 274.77Z" fill="white"/>
</mask>
<g mask="url(#mask5_687_2)">
<path d="M198.87 395.62C175.01 392.19 151 388.74 128.06 381.31C105.12 373.88 83.06 362.21 66.7 344.51C48.55 324.89 38.39 298.88 34.25 272.51C30.11 246.14 31.62 219.15 34.41 192.57C21.27 237.37 14.41 284.12 24.29 329.75C30.11 356.66 41.05 384.27 63.39 400.36C81.06 413.08 103.74 416.94 125.5 416.51C151.75 416 175.27 407.11 198.87 395.62Z" fill="#D83A3A"/>
</g>
<path d="M117.66 199.69C116.759 199.692 115.878 199.418 115.136 198.906C114.394 198.394 113.826 197.668 113.507 196.825C113.189 195.981 113.135 195.061 113.354 194.186C113.572 193.312 114.052 192.525 114.73 191.93C120.192 187.177 126.624 183.672 133.579 181.66C140.534 179.648 147.844 179.177 155 180.28C155.578 180.367 156.133 180.568 156.634 180.871C157.134 181.173 157.569 181.572 157.915 182.044C158.26 182.516 158.509 183.051 158.646 183.62C158.783 184.188 158.807 184.778 158.715 185.356C158.623 185.933 158.418 186.487 158.111 186.984C157.805 187.482 157.402 187.914 156.928 188.256C156.453 188.598 155.916 188.842 155.346 188.975C154.777 189.108 154.187 189.126 153.61 189.03C147.745 188.129 141.755 188.518 136.055 190.169C130.356 191.82 125.085 194.694 120.61 198.59C119.794 199.304 118.745 199.695 117.66 199.69Z" fill="#28110C"/>
<path d="M270.55 199.69C271.167 199.689 271.777 199.554 272.337 199.293C272.897 199.032 273.393 198.652 273.79 198.18C274.545 197.289 274.925 196.142 274.853 194.977C274.78 193.812 274.259 192.72 273.4 191.93C268.165 187.203 261.941 183.704 255.182 181.689C248.423 179.673 241.299 179.192 234.33 180.28C233.187 180.485 232.172 181.132 231.504 182.082C230.835 183.031 230.568 184.205 230.76 185.35C230.836 185.917 231.024 186.464 231.314 186.957C231.603 187.451 231.988 187.881 232.447 188.224C232.905 188.567 233.427 188.815 233.982 188.953C234.537 189.091 235.115 189.118 235.68 189.03C241.389 188.143 247.224 188.541 252.76 190.195C258.296 191.849 263.393 194.717 267.68 198.59C268.465 199.303 269.489 199.695 270.55 199.69Z" fill="#28110C"/>
<path d="M231.48 365C224.61 372.79 213.96 376.42 203.53 377.63C189.03 379.31 173.74 376.73 161.62 368.75C149.5 360.77 141.01 347.08 141.17 332.75C141.17 329.54 141.77 326.11 144.01 323.75C147.69 319.89 154.01 320.6 159.34 321.42C180.7 324.684 202.422 324.816 223.82 321.81C228.6 321.14 244.82 316.49 248.07 320.89C251.13 325 243.19 339.19 241.83 343.12C238.68 352.19 238 357.57 231.48 365Z" fill="#6D0F0F"/>
<mask id="mask6_687_2" style="mask-type:luminance" maskUnits="userSpaceOnUse" x="141" y="319" width="108" height="60">
<path d="M231.48 365C224.61 372.79 213.96 376.42 203.53 377.63C189.03 379.31 173.74 376.73 161.62 368.75C149.5 360.77 141.01 347.08 141.17 332.75C141.17 329.54 141.77 326.11 144.01 323.75C147.69 319.89 154.01 320.6 159.34 321.42C180.7 324.684 202.422 324.816 223.82 321.81C228.6 321.14 244.82 316.49 248.07 320.89C251.13 325 243.19 339.19 241.83 343.12C238.68 352.19 238 357.57 231.48 365Z" fill="white"/>
</mask>
<g mask="url(#mask6_687_2)">
<path d="M159 334C164.07 337.19 170 338.81 175.92 339.93C188.815 342.368 202.025 342.642 215.01 340.74C222.2 339.68 229.54 337.85 235.25 333.44C240.96 329.03 244.69 321.51 242.72 314.64C222.558 313.413 202.336 313.597 182.2 315.19C173.76 315.86 160.4 315.04 152.7 318.53C144.83 322.12 153.85 330.81 159 334Z" fill="white"/>
<path d="M148.51 363.8C157.24 352.16 179.23 347.59 194.58 349.11C216.14 351.24 224.99 361.51 231.58 372.76C204.41 385.43 172.94 381.08 148.51 363.8Z" fill="#F26E6F"/>
</g>
<path d="M181.47 141.85C187.2 142.12 193.27 142.66 199.74 143.48C193.697 142.502 187.591 141.958 181.47 141.85Z" fill="#F89A3A"/>
<path d="M162.93 126.65C119.23 127.48 76.46 150.96 51.52 187.81C26.58 224.66 10.89 276.52 33.52 314.81C38.0836 322.515 44.6268 328.858 52.47 333.18C53.25 333.6 54.02 334.03 54.82 334.42C57.4 327.42 54.82 319.89 51.51 313.29C48.2 306.69 43.81 300.48 42.03 293.29C41.4278 290.791 41.2386 288.21 41.47 285.65C41.87 281.31 43.54 277.2 46.7 274.59C47.1807 274.184 47.6923 273.816 48.23 273.49C50.0922 272.497 52.185 272.018 54.2937 272.1C56.4023 272.183 58.4511 272.825 60.23 273.96C60.6556 274.213 61.144 274.341 61.6391 274.329C62.1342 274.317 62.6158 274.165 63.0285 273.891C63.4412 273.618 63.7682 273.233 63.9719 272.782C64.1756 272.33 64.2478 271.831 64.18 271.34C62.739 258.042 63.136 244.609 65.36 231.42C67.2769 219.896 70.752 208.687 75.69 198.1C85.2862 183.051 98.0368 170.266 113.06 160.63C123.465 154.059 134.817 149.125 146.72 146C164.014 141.452 182.069 140.58 199.72 143.44H199.94C192.51 132.59 175.94 126.4 162.93 126.65Z" fill="#F89A3A"/>
<mask id="mask7_687_2" style="mask-type:luminance" maskUnits="userSpaceOnUse" x="22" y="126" width="178" height="209">
<path d="M162.93 126.65C119.23 127.48 76.46 150.96 51.52 187.81C26.58 224.66 10.89 276.52 33.52 314.81C38.0836 322.515 44.6268 328.858 52.47 333.18C53.25 333.6 54.02 334.03 54.82 334.42C57.4 327.42 54.82 319.89 51.51 313.29C48.2 306.69 43.81 300.48 42.03 293.29C41.4278 290.791 41.2386 288.21 41.47 285.65C41.87 281.31 43.54 277.2 46.7 274.59C47.1807 274.184 47.6923 273.816 48.23 273.49C50.0922 272.497 52.185 272.018 54.2937 272.1C56.4023 272.183 58.4511 272.825 60.23 273.96C60.6556 274.213 61.144 274.341 61.6391 274.329C62.1342 274.317 62.6158 274.165 63.0285 273.891C63.4412 273.618 63.7682 273.233 63.9719 272.782C64.1756 272.33 64.2478 271.831 64.18 271.34C62.739 258.042 63.136 244.609 65.36 231.42C67.2769 219.896 70.752 208.687 75.69 198.1C85.2862 183.051 98.0368 170.266 113.06 160.63C123.465 154.059 134.817 149.125 146.72 146C164.014 141.452 182.069 140.58 199.72 143.44H199.94C192.51 132.59 175.94 126.4 162.93 126.65Z" fill="white"/>
</mask>
<g mask="url(#mask7_687_2)">
<path d="M133.82 102.66C124.97 118.42 110.95 130.28 97.92 142.66C79.47 160.09 62 180 54 204.32C46 228.64 49.18 258.47 67.59 275.91C59.2 277.06 55.07 287.8 57 296.19C58.93 304.58 65 311.25 69.86 318.25C74.72 325.25 78.92 333.96 76.6 342.25C73.92 351.78 63.18 357.08 53.6 356.16C44.02 355.24 35.45 349.53 28.04 343.16C-3.95997 315.75 -22.59 272.66 -20.96 229.89C-19.33 187.12 2.62003 145.67 36.66 120.85C52.89 109 71.4 101 88.82 91C96.9329 86.4975 104.647 81.3121 111.88 75.5C116.66 71.61 127 55.23 132 53.87C149.3 49.16 137.65 95.85 133.82 102.66Z" fill="#F58030"/>
</g>
<path d="M135.86 308.81C156.245 308.81 172.77 288.994 172.77 264.55C172.77 240.106 156.245 220.29 135.86 220.29C115.475 220.29 98.95 240.106 98.95 264.55C98.95 288.994 115.475 308.81 135.86 308.81Z" fill="white"/>
<mask id="mask8_687_2" style="mask-type:luminance" maskUnits="userSpaceOnUse" x="98" y="220" width="75" height="89">
<path d="M135.86 308.81C156.245 308.81 172.77 288.994 172.77 264.55C172.77 240.106 156.245 220.29 135.86 220.29C115.475 220.29 98.95 240.106 98.95 264.55C98.95 288.994 115.475 308.81 135.86 308.81Z" fill="white"/>
</mask>
<g mask="url(#mask8_687_2)">
<path d="M139.18 317.07C153.606 317.07 165.3 303.048 165.3 285.75C165.3 268.452 153.606 254.43 139.18 254.43C124.754 254.43 113.06 268.452 113.06 285.75C113.06 303.048 124.754 317.07 139.18 317.07Z" fill="#28110C"/>
<path d="M121.45 274.55C126.084 274.55 129.84 270.046 129.84 264.49C129.84 258.934 126.084 254.43 121.45 254.43C116.816 254.43 113.06 258.934 113.06 264.49C113.06 270.046 116.816 274.55 121.45 274.55Z" fill="white"/>
</g>
<path d="M253.44 308.81C272.295 308.81 287.58 288.994 287.58 264.55C287.58 240.106 272.295 220.29 253.44 220.29C234.585 220.29 219.3 240.106 219.3 264.55C219.3 288.994 234.585 308.81 253.44 308.81Z" fill="white"/>
<mask id="mask9_687_2" style="mask-type:luminance" maskUnits="userSpaceOnUse" x="219" y="220" width="69" height="89">
<path d="M253.44 308.81C272.295 308.81 287.58 288.994 287.58 264.55C287.58 240.106 272.295 220.29 253.44 220.29C234.585 220.29 219.3 240.106 219.3 264.55C219.3 288.994 234.585 308.81 253.44 308.81Z" fill="white"/>
</mask>
<g mask="url(#mask9_687_2)">
<path d="M256.76 317.07C270.103 317.07 280.92 303.048 280.92 285.75C280.92 268.452 270.103 254.43 256.76 254.43C243.417 254.43 232.6 268.452 232.6 285.75C232.6 303.048 243.417 317.07 256.76 317.07Z" fill="#28110C"/>
<path d="M240.37 274.55C244.656 274.55 248.13 270.046 248.13 264.49C248.13 258.934 244.656 254.43 240.37 254.43C236.084 254.43 232.61 258.934 232.61 264.49C232.61 270.046 236.084 274.55 240.37 274.55Z" fill="white"/>
</g>
<path d="M85.09 425.39L106.96 399.51L204.56 431.42L293.44 386.82L315.69 408.93L230.97 495.74L147.41 471.09L101.46 456.49L85.09 425.39Z" fill="#EEE6DD"/>
<g style="mix-blend-mode:multiply">
<path d="M226.14 442.56C227.73 444.74 229.52 447.2 229.03 449.85C228.42 453.2 224.64 454.78 221.39 455.8L200.63 462.28C212.6 462.586 224.481 460.144 235.36 455.14C238.08 453.88 240.9 452.29 242.18 449.58C244.12 445.46 241.5 440.35 237.61 437.97C234.85 436.27 227.61 434.27 223.9 435.49C223.697 438.048 224.501 440.585 226.14 442.56Z" fill="#EFD5C0"/>
</g>
<path d="M321.16 403.61L228.62 440.36C231.54 442.6 234.76 445.79 233.94 449.58C233.33 452.4 230.72 454.02 228.21 455.1L227.77 455.29C220.12 458.39 212 459.82 203.9 460.83C200.39 461.27 196.73 461.62 193.4 460.36C190.07 459.1 187.13 455.79 187.24 451.93C180.45 449.93 81.4 421.29 81.4 421.29L81.59 534.5L180.65 571.87L181.65 575.23C182.835 576.743 184.407 577.907 186.2 578.6C189.71 579.92 193.54 579.55 197.2 579.09C205.7 578.03 214.2 576.53 222.26 573.27C225.03 572.15 228.05 570.41 228.73 567.27C228.86 566.686 228.897 566.085 228.84 565.49V559.69L305.46 526.07L321.16 403.61Z" fill="#4878BC"/>
<mask id="mask10_687_2" style="mask-type:luminance" maskUnits="userSpaceOnUse" x="81" y="403" width="241" height="177">
<path d="M321.16 403.61L228.62 440.36C231.54 442.6 234.76 445.79 233.94 449.58C233.33 452.4 230.72 454.02 228.21 455.1L227.77 455.29C220.12 458.39 212 459.82 203.9 460.83C200.39 461.27 196.73 461.62 193.4 460.36C190.07 459.1 187.13 455.79 187.24 451.93C180.45 449.93 81.4 421.29 81.4 421.29L81.59 534.5L180.65 571.87L181.65 575.23C182.835 576.743 184.407 577.907 186.2 578.6C189.71 579.92 193.54 579.55 197.2 579.09C205.7 578.03 214.2 576.53 222.26 573.27C225.03 572.15 228.05 570.41 228.73 567.27C228.86 566.686 228.897 566.085 228.84 565.49V559.69L305.46 526.07L321.16 403.61Z" fill="white"/>
</mask>
<g mask="url(#mask10_687_2)">
<path d="M110.23 425.6L177.59 442.12C183.23 443.5 189.51 445.35 192.31 450.45C194.59 454.61 189.6 452.72 189.31 457.45C186.7 500.14 184.76 540.78 182.71 578.37C178.01 571.43 168.02 571.5 159.65 571.73C134.578 572.425 109.63 567.966 86.35 558.63C78.61 555.52 70.6 551.43 66.64 544.09C62.15 535.76 64.06 525.6 65.81 516.29C70.2328 492.76 72.8604 468.928 73.67 445C73.89 438.43 70.45 419.6 77.67 417.42C81.43 416.29 88.31 419.91 91.89 420.9C98 422.61 104.11 424.1 110.23 425.6Z" fill="#2D58A8"/>
<path d="M197 475.24C194.353 475.238 191.768 474.44 189.58 472.95L190.24 472.06C193.15 474.22 197.11 474.31 200.95 474.06C208.315 473.622 215.618 472.449 222.75 470.56C226.35 469.61 229.94 468.33 231.84 465.43L232.76 466.04C230.66 469.25 226.84 470.63 223.04 471.63C215.843 473.537 208.473 474.72 201.04 475.16C199.696 475.262 198.347 475.289 197 475.24Z" fill="#FDB515"/>
<path d="M196.69 481.73C194.044 481.719 191.462 480.922 189.27 479.44L189.93 478.55C192.84 480.71 196.8 480.79 200.64 480.55C208.008 480.115 215.314 478.946 222.45 477.06C226.04 476.11 229.63 474.83 231.53 471.93L232.46 472.54C230.35 475.75 226.54 477.12 222.73 478.13C215.532 480.032 208.162 481.215 200.73 481.66C199.385 481.754 198.037 481.777 196.69 481.73Z" fill="#FDB515"/>
<path d="M192.65 559.13C190.003 559.128 187.418 558.33 185.23 556.84L185.89 555.95C188.8 558.11 192.76 558.2 196.6 557.95C203.968 557.515 211.274 556.346 218.41 554.46C222 553.46 225.59 552.23 227.49 549.33L228.41 549.93C226.31 553.15 222.5 554.52 218.69 555.53C211.492 557.432 204.122 558.615 196.69 559.06C195.346 559.159 193.997 559.182 192.65 559.13Z" fill="#FDB515"/>
<path d="M192.33 565.62C189.683 565.618 187.098 564.82 184.91 563.33L185.57 562.44C188.48 564.6 192.44 564.69 196.29 564.44C203.655 564 210.958 562.828 218.09 560.94C221.68 559.94 225.27 558.71 227.17 555.81L228.1 556.42C225.99 559.63 222.18 561 218.37 562.01C211.173 563.917 203.803 565.099 196.37 565.54C195.026 565.637 193.677 565.664 192.33 565.62Z" fill="#FDB515"/>
<path d="M229.75 561.21L228.92 561.16L233.11 449.53L234.77 449.63L229.75 561.21Z" fill="#2D58A8"/>
<g style="mix-blend-mode:multiply">
<path d="M91.24 530.49C94.1965 531.401 96.8288 533.143 98.8233 535.509C100.818 537.874 102.091 540.762 102.49 543.83C96.4644 542.898 90.5295 541.453 84.75 539.51C82.27 538.68 79.57 537.51 78.55 535.12C78.0352 533.503 77.9491 531.78 78.3 530.12C78.78 526.4 79.23 522.68 79.74 518.97C80.25 515.26 81.05 514.08 84.43 516.34C86.7032 517.912 88.5239 520.054 89.71 522.55C90 523.11 91.73 530.63 91.24 530.49Z" fill="#34A1DB"/>
</g>
<path d="M90.13 530.44C93.0884 531.348 95.7226 533.089 97.7177 535.455C99.7127 537.821 100.984 540.711 101.38 543.78C95.3556 542.842 89.4211 541.397 83.64 539.46C81.16 538.63 78.46 537.46 77.44 535.07C76.9129 533.431 76.8301 531.681 77.2 530C77.67 526.29 78.12 522.57 78.63 518.85C79.14 515.13 79.94 513.96 83.33 516.22C85.6004 517.799 87.4202 519.943 88.61 522.44C88.9 523.06 90.62 530.57 90.13 530.44Z" fill="#FAA31B"/>
<g style="mix-blend-mode:multiply">
<path d="M106.2 429.52C104.176 431.534 101.532 432.806 98.6947 433.13C95.8577 433.453 92.9947 432.808 90.57 431.3C90.6138 434.402 89.6259 437.431 87.7616 439.91C85.8973 442.39 83.2621 444.18 80.27 445C80.59 437.75 80.27 431.6 80.54 424.36C80.54 423.36 80.71 422.16 81.54 421.59C81.9845 421.382 82.4693 421.274 82.96 421.274C83.4508 421.274 83.9355 421.382 84.38 421.59C91.62 423.81 99 427.31 106.2 429.52Z" fill="#34A1DB"/>
</g>
<path d="M105.1 429.46C103.074 431.474 100.429 432.746 97.5908 433.07C94.7529 433.395 91.8884 432.754 89.46 431.25C89.5149 434.361 88.5322 437.401 86.6671 439.891C84.8019 442.381 82.1605 444.178 79.16 445C79.48 437.76 79.16 431.61 79.43 424.36C79.43 423.36 79.6 422.17 80.43 421.59C80.8752 421.385 81.3597 421.278 81.85 421.278C82.3403 421.278 82.8248 421.385 83.27 421.59C90.51 423.76 97.87 427.26 105.1 429.46Z" fill="#FAA31B"/>
<g style="mix-blend-mode:multiply">
<path d="M312.68 413.33C310.68 419.24 313.38 426.33 319 429.68C321 421.42 321.79 414.13 323.77 405.87C324.12 404.41 324.4 402.68 323.3 401.57C322.2 400.46 320.75 400.57 319.3 400.57L306.83 400.68C304.07 400.68 301.17 400.76 298.78 402.03C295.22 403.92 293.05 410.03 295.69 413.35C299 417.4 308.74 415.64 312.68 413.33Z" fill="#34A1DB"/>
</g>
<path d="M313.79 413.38C311.79 419.29 314.48 426.38 320.1 429.73C322.1 421.47 322.9 414.19 324.87 405.93C325.22 404.46 325.5 402.74 324.41 401.62C323.32 400.5 321.86 400.62 320.41 400.62L307.93 400.74C305.17 400.74 302.28 400.82 299.88 402.09C296.33 403.97 294.16 410.09 296.8 413.4C300.09 417.45 309.85 415.7 313.79 413.38Z" fill="#FDB515"/>
<g style="mix-blend-mode:multiply">
<path d="M308.14 504.94C303.07 508.6 300.03 514.46 299.38 521.94C292.38 523.16 284.59 529.14 285.26 535.11C291.105 535.056 296.899 534.004 302.39 532C304.39 531.3 306.52 530.41 307.67 528.84C308.82 527.27 308.83 525.54 308.87 523.84C309 517.88 308 510.87 308.14 504.94Z" fill="#34A1DB"/>
</g>
<path d="M309.25 505C304.18 508.66 301.14 514.53 300.49 522C293.49 523.21 285.69 529.2 286.37 535.17C292.217 535.109 298.01 534.051 303.5 532.04C305.5 531.34 307.63 530.46 308.78 528.89C309.93 527.32 309.93 525.59 309.98 523.89C310.13 517.93 309.09 510.92 309.25 505Z" fill="#FDB515"/>
</g>
<path d="M321.12 402.91C320.954 402.513 320.639 402.196 320.244 402.027C319.848 401.857 319.402 401.847 319 402L228 438.82C227.728 438.929 227.489 439.108 227.309 439.34C227.128 439.571 227.013 439.846 226.973 440.137C226.933 440.427 226.971 440.723 227.083 440.994C227.195 441.265 227.377 441.502 227.61 441.68C231.27 444.48 232.81 446.95 232.31 449.23C231.94 450.96 230.43 452.34 227.56 453.57H227.51L227.16 453.73C219.29 456.92 210.89 458.27 203.71 459.16C200.26 459.6 196.91 459.89 193.99 458.78C191.4 457.78 188.82 455.14 188.91 451.95C188.92 451.585 188.809 451.227 188.593 450.932C188.378 450.637 188.071 450.422 187.72 450.32C181.01 448.32 84.28 420.37 83.3 420.08C82.8757 419.958 82.4202 420.01 82.0339 420.223C81.6476 420.437 81.362 420.796 81.24 421.22C81.118 421.644 81.1696 422.1 81.3834 422.486C81.5972 422.872 81.9557 423.158 82.38 423.28C83.32 423.55 172.92 449.44 185.64 453.17C186.13 457.47 189.56 460.66 192.82 461.89C194.374 462.477 196.011 462.814 197.67 462.89C199.827 462.942 201.985 462.812 204.12 462.5C211.51 461.58 220.18 460.18 228.41 456.84L228.85 456.66C232.74 455 234.93 452.81 235.54 449.97C236.38 446.09 233.92 442.9 231.79 440.9L320.18 405.12C320.388 405.039 320.578 404.916 320.739 404.761C320.899 404.605 321.027 404.419 321.115 404.213C321.202 404.007 321.248 403.786 321.249 403.562C321.25 403.338 321.206 403.117 321.12 402.91Z" fill="#3393D0"/>
<mask id="mask11_687_2" style="mask-type:luminance" maskUnits="userSpaceOnUse" x="85" y="386" width="231" height="110">
<path d="M85.09 425.39L106.96 399.51L204.56 431.42L293.44 386.82L315.69 408.93L230.97 495.74L147.41 471.09L101.46 456.49L85.09 425.39Z" fill="white"/>
</mask>
<g mask="url(#mask11_687_2)">
<g opacity="0.58">
<g style="mix-blend-mode:multiply">
<path d="M83.6 417.68L184.6 446.8C184.6 446.8 104.29 421.57 83.6 417.68Z" fill="#E9D3C1"/>
</g>
<g style="mix-blend-mode:multiply">
<path d="M84.77 415L185.34 444.93C185.34 444.93 105.46 418.4 84.77 415Z" fill="#E9D3C1"/>
</g>
<g style="mix-blend-mode:multiply">
<path d="M86.38 411.46L186 443.07C186 443.07 107 415.2 86.38 411.46Z" fill="#E9D3C1"/>
</g>
<g style="mix-blend-mode:multiply">
<path d="M87.46 408.9L187.11 440.49C187.11 440.49 108 412.64 87.46 408.9Z" fill="#E9D3C1"/>
</g>
<g style="mix-blend-mode:multiply">
<path d="M88.84 405.76L188.05 438.14C188.05 438.14 109.36 409.67 88.84 405.76Z" fill="#E9D3C1"/>
</g>
<g style="mix-blend-mode:multiply">
<path d="M90.08 402.83L189.29 435.21C189.29 435.21 110.59 406.74 90.08 402.83Z" fill="#E9D3C1"/>
</g>
<g style="mix-blend-mode:multiply">
<path d="M91.41 399.85L190.12 433.08C190.12 433.08 111.86 403.93 91.41 399.85Z" fill="#E9D3C1"/>
</g>
<g style="mix-blend-mode:multiply">
<path d="M92.36 396.42L191.08 429.65C191.08 429.65 112.82 400.49 92.36 396.42Z" fill="#E9D3C1"/>
</g>
</g>
<g opacity="0.58">
<g style="mix-blend-mode:multiply">
<path d="M320 397.44L222.85 440.88C222.85 440.88 299.91 404.28 320 397.44Z" fill="#E9D3C1"/>
</g>
<g style="mix-blend-mode:multiply">
<path d="M318.59 395L221.93 439.18C221.93 439.18 298.42 401.3 318.59 395Z" fill="#E9D3C1"/>
</g>
<g style="mix-blend-mode:multiply">
<path d="M316.63 391.66L221.06 437.38C221.06 437.38 296.6 398.34 316.63 391.66Z" fill="#E9D3C1"/>
</g>
<g style="mix-blend-mode:multiply">
<path d="M315.29 389.28L219.71 435C219.71 435 295.26 396 315.29 389.28Z" fill="#E9D3C1"/>
</g>
<g style="mix-blend-mode:multiply">
<path d="M313.59 386.37L218.53 432.79C218.53 432.79 293.63 393.19 313.59 386.37Z" fill="#E9D3C1"/>
</g>
<g style="mix-blend-mode:multiply">
<path d="M312.05 383.64L217 430.06C217 430.06 292.1 390.46 312.05 383.64Z" fill="#E9D3C1"/>
</g>
<g style="mix-blend-mode:multiply">
<path d="M310.42 380.86L216 428.06C216 428.06 290.54 387.86 310.42 380.86Z" fill="#E9D3C1"/>
</g>
<g style="mix-blend-mode:multiply">
<path d="M309.1 377.6L214.64 424.79C214.64 424.79 289.23 384.59 309.1 377.6Z" fill="#E9D3C1"/>
</g>
</g>
</g>
<g style="mix-blend-mode:multiply">
<path d="M262.62 511.18C263.2 510.39 263.85 509.64 264.34 508.81C265.854 505.917 266.885 502.796 267.39 499.57C269.19 491.18 270.87 482.78 272.75 474.41C274.09 468.5 275.86 462.68 279.14 457.33C280.75 454.391 283.206 452.005 286.19 450.48C287.318 449.858 288.557 449.464 289.837 449.322C291.117 449.179 292.413 449.291 293.65 449.65C296.24 450.5 297.34 452.7 296.38 454.99C295.981 455.9 295.27 456.637 294.375 457.068C293.48 457.499 292.46 457.596 291.5 457.34C290.579 457.153 289.761 456.63 289.206 455.871C288.651 455.113 288.399 454.174 288.5 453.24C288.552 452.98 288.509 452.711 288.38 452.48C287.956 452.926 287.559 453.397 287.19 453.89C285.632 456.372 284.55 459.122 284 462C281.91 471.35 279.93 480.72 277.81 490.06C276.67 495.06 275.49 500.11 272.9 504.75C271.294 507.969 268.835 510.684 265.79 512.6C264.607 513.366 263.283 513.887 261.895 514.133C260.507 514.378 259.084 514.343 257.71 514.03C255.04 513.36 253.71 511.09 254.52 508.81C254.861 507.86 255.54 507.069 256.427 506.588C257.315 506.107 258.348 505.969 259.33 506.2C260.293 506.351 261.159 506.871 261.745 507.649C262.331 508.427 262.591 509.403 262.47 510.37C262.47 510.59 262.37 510.81 262.33 511.02L262.62 511.18Z" fill="#34A1DB"/>
</g>
<path d="M262.53 509.93C263.144 509.167 263.719 508.373 264.25 507.55C265.95 504.66 266.63 501.48 267.31 498.32C269.1 489.93 270.78 481.53 272.66 473.16C274 467.24 275.77 461.42 279.05 456.07C280.666 453.136 283.121 450.751 286.1 449.22C287.228 448.599 288.468 448.207 289.748 448.067C291.028 447.926 292.324 448.039 293.56 448.4C296.15 449.25 297.25 451.45 296.3 453.73C295.899 454.641 295.187 455.379 294.29 455.812C293.394 456.245 292.373 456.343 291.41 456.09C290.49 455.901 289.673 455.377 289.119 454.619C288.564 453.861 288.311 452.924 288.41 451.99C288.462 451.73 288.419 451.461 288.29 451.23C287.869 451.675 287.472 452.143 287.1 452.63C285.55 455.104 284.472 457.843 283.92 460.71C281.83 470.06 279.85 479.44 277.73 488.78C276.59 493.78 275.41 498.83 272.82 503.47C271.22 506.693 268.76 509.41 265.71 511.32C264.526 512.083 263.201 512.603 261.814 512.849C260.427 513.094 259.004 513.061 257.63 512.75C254.96 512.08 253.63 509.81 254.44 507.53C254.781 506.58 255.46 505.789 256.347 505.308C257.235 504.827 258.268 504.689 259.25 504.92C260.216 505.064 261.087 505.582 261.674 506.362C262.262 507.142 262.519 508.122 262.39 509.09C262.39 509.31 262.3 509.52 262.25 509.74L262.53 509.93Z" fill="#FDB515"/>
<g style="mix-blend-mode:multiply">
<path d="M133.89 510.71L123.23 507.08C120.19 506.054 117.594 504.016 115.878 501.305C114.161 498.595 113.428 495.377 113.8 492.19C114.036 490.108 114.735 488.106 115.848 486.33C116.96 484.555 118.457 483.052 120.227 481.932C121.998 480.812 123.997 480.104 126.078 479.859C128.159 479.615 130.268 479.841 132.25 480.52L142.91 484.14C146.055 485.203 148.72 487.35 150.429 490.196C152.138 493.043 152.78 496.404 152.24 499.68C151.917 501.693 151.158 503.612 150.016 505.301C148.874 506.991 147.377 508.411 145.629 509.461C143.882 510.512 141.926 511.168 139.898 511.384C137.87 511.599 135.82 511.369 133.89 510.71Z" stroke="#34A1DB" stroke-width="3" stroke-miterlimit="10"/>
<path d="M120.32 523.68C120.9 522.89 121.55 522.14 122.04 521.31C123.75 518.41 124.42 515.23 125.1 512.07C126.89 503.68 128.57 495.28 130.45 486.91C131.79 481 133.57 475.17 136.84 469.82C138.443 466.893 140.879 464.509 143.84 462.97C146.12 461.721 148.803 461.426 151.3 462.15C153.9 463 154.99 465.2 154.04 467.49C153.638 468.399 152.924 469.135 152.028 469.566C151.132 469.997 150.111 470.094 149.15 469.84C148.229 469.653 147.411 469.13 146.856 468.371C146.301 467.613 146.049 466.674 146.15 465.74C146.208 465.481 146.165 465.209 146.03 464.98C145.606 465.427 145.209 465.897 144.84 466.39C143.293 468.865 142.215 471.604 141.66 474.47C139.57 483.82 137.59 493.19 135.47 502.53C134.33 507.53 133.16 512.58 130.56 517.22C128.96 520.443 126.5 523.16 123.45 525.07C122.267 525.836 120.943 526.357 119.555 526.603C118.167 526.848 116.744 526.813 115.37 526.5C112.7 525.83 111.37 523.56 112.18 521.28C112.521 520.33 113.2 519.539 114.087 519.058C114.975 518.577 116.008 518.439 116.99 518.67C117.955 518.816 118.824 519.335 119.411 520.114C119.998 520.894 120.256 521.872 120.13 522.84C120.13 523.06 120.04 523.28 119.99 523.49L120.32 523.68Z" fill="#34A1DB"/>
</g>
<path d="M133.89 509.6L123.23 506C120.188 504.974 117.591 502.934 115.874 500.221C114.158 497.509 113.425 494.288 113.8 491.1C114.036 489.018 114.735 487.016 115.848 485.24C116.96 483.465 118.457 481.962 120.227 480.842C121.998 479.722 123.997 479.014 126.078 478.769C128.159 478.525 130.268 478.751 132.25 479.43L142.91 483C146.053 484.063 148.717 486.208 150.426 489.052C152.135 491.897 152.778 495.256 152.24 498.53C151.922 500.547 151.167 502.47 150.027 504.164C148.887 505.858 147.391 507.283 145.643 508.338C143.894 509.392 141.936 510.052 139.906 510.27C137.876 510.488 135.823 510.259 133.89 509.6Z" stroke="#FAA31B" stroke-width="3" stroke-miterlimit="10"/>
<path d="M120.32 522.58C120.9 521.79 121.55 521.03 122.04 520.2C123.75 517.3 124.42 514.13 125.1 510.96C126.89 502.58 128.57 494.17 130.45 485.8C131.79 479.89 133.57 474.07 136.84 468.72C138.44 465.791 140.877 463.406 143.84 461.87C146.119 460.619 148.801 460.32 151.3 461.04C153.9 461.89 154.99 464.1 154.04 466.38C153.638 467.289 152.924 468.025 152.028 468.456C151.132 468.887 150.111 468.984 149.15 468.73C148.229 468.544 147.411 468.02 146.856 467.261C146.301 466.503 146.049 465.564 146.15 464.63C146.207 464.371 146.164 464.099 146.03 463.87C145.609 464.319 145.211 464.789 144.84 465.28C143.293 467.755 142.215 470.494 141.66 473.36C139.57 482.71 137.59 492.08 135.47 501.43C134.33 506.43 133.16 511.43 130.56 516.11C128.83 519.21 126.75 522.06 123.45 523.96C122.267 524.726 120.943 525.247 119.555 525.493C118.167 525.738 116.744 525.703 115.37 525.39C112.7 524.73 111.37 522.45 112.18 520.17C112.521 519.221 113.201 518.431 114.088 517.951C114.976 517.471 116.009 517.336 116.99 517.57C117.955 517.711 118.826 518.227 119.414 519.006C120.001 519.784 120.259 520.763 120.13 521.73C120.13 521.95 120.04 522.17 119.99 522.39L120.32 522.58Z" fill="#FAA31B"/>
<path d="M223.9 435.49C223.9 435.49 235.25 438.35 241.33 462.56C245.2 457.56 247.91 454.29 247.91 454.29L257.43 456.36C257.43 456.36 244.71 431.23 237.22 429.12C227.36 433.23 223.9 435.49 223.9 435.49Z" fill="#E74F4E"/>
<path d="M109.35 478.57C107.58 475.73 104.35 474.63 101.4 473.9C94.886 472.292 88.188 471.552 81.48 471.7C81.48 466.11 81.48 455.7 81.48 455.7V453.7C80.8902 452.645 79.9326 451.844 78.79 451.45C75.98 450.36 71.89 451.04 70.79 454.72C70.3013 456.896 70.4969 459.17 71.35 461.23C72.48 464.38 71.45 466.9 69.76 469.61C68.799 470.847 67.9363 472.158 67.18 473.53C64.96 477.63 63.99 482.22 64.5 488.77C64.92 494.16 69.73 499.23 72.72 500.77C80.08 504.52 91.72 506.33 97.85 503.77C103.98 501.21 109.98 493.25 110.74 485.86C111.079 483.344 110.591 480.785 109.35 478.57Z" fill="#F79560"/>
<mask id="mask12_687_2" style="mask-type:luminance" maskUnits="userSpaceOnUse" x="64" y="450" width="47" height="55">
<path d="M109.35 478.57C107.58 475.73 104.35 474.63 101.4 473.9C94.886 472.292 88.188 471.552 81.48 471.7C81.48 466.11 81.48 455.7 81.48 455.7V453.7C80.8902 452.645 79.9326 451.844 78.79 451.45C75.98 450.36 71.89 451.04 70.79 454.72C70.3013 456.896 70.4969 459.17 71.35 461.23C72.48 464.38 71.45 466.9 69.76 469.61C68.799 470.847 67.9363 472.158 67.18 473.53C64.96 477.63 63.99 482.22 64.5 488.77C64.92 494.16 69.73 499.23 72.72 500.77C80.08 504.52 91.72 506.33 97.85 503.77C103.98 501.21 109.98 493.25 110.74 485.86C111.079 483.344 110.591 480.785 109.35 478.57Z" fill="white"/>
</mask>
<g mask="url(#mask12_687_2)">
<path d="M76.58 472C79.32 471.69 82.52 472.27 84.4 470C85.8 468.3 86 465.73 85.91 463.4C85.7938 460.607 85.2648 457.848 84.34 455.21C83.91 454.02 75.91 447.73 77.51 449.51C79.62 451.93 83.63 468.29 76.58 472Z" fill="#EE7F48"/>
<path d="M63.64 481.65C64.2 492.52 73.46 494.95 80.75 496.57C89.85 498.57 98.05 487.24 100.82 481.29C102.57 477.55 104.27 473.53 103.82 469.29C106 472.56 108.97 474.92 110.18 479.29C111.39 483.66 110.66 490.65 109.35 494.94C108.455 497.717 106.998 500.28 105.07 502.47C99.52 508.99 91.24 512.34 83.33 511.27C75.42 510.2 68 504.74 64 496.92C61.74 492.67 64.88 486.39 63.64 481.65Z" fill="#EE7F48"/>
</g>
<path d="M284.36 472C286.47 469.4 289.78 468.71 292.83 468.35C299.48 467.565 306.205 467.663 312.83 468.64C313.51 463.09 314.83 452.75 314.83 452.79L315.07 450.85C315.792 449.881 316.839 449.206 318.02 448.95C320.94 448.22 324.91 449.4 325.53 453.18C325.751 455.4 325.276 457.633 324.17 459.57C322.66 462.57 323.37 465.19 324.72 468.09C325.518 469.438 326.21 470.845 326.79 472.3C328.49 476.64 328.89 481.3 327.57 487.76C326.48 493.05 321.08 497.48 317.93 498.62C310.15 501.43 298.35 501.78 292.62 498.45C286.89 495.12 282 486.49 282.13 479.06C282.096 476.528 282.878 474.053 284.36 472Z" fill="#F79560"/>
<mask id="mask13_687_2" style="mask-type:luminance" maskUnits="userSpaceOnUse" x="282" y="448" width="47" height="53">
<path d="M284.36 472C286.47 469.4 289.78 468.71 292.83 468.35C299.48 467.565 306.205 467.663 312.83 468.64C313.51 463.09 314.83 452.75 314.83 452.79L315.07 450.85C315.792 449.881 316.839 449.206 318.02 448.95C320.94 448.22 324.91 449.4 325.53 453.18C325.751 455.4 325.276 457.633 324.17 459.57C322.66 462.57 323.37 465.19 324.72 468.09C325.518 469.438 326.21 470.845 326.79 472.3C328.49 476.64 328.89 481.3 327.57 487.76C326.48 493.05 321.08 497.48 317.93 498.62C310.15 501.43 298.35 501.78 292.62 498.45C286.89 495.12 282 486.49 282.13 479.06C282.096 476.528 282.878 474.053 284.36 472Z" fill="white"/>
</mask>
<g mask="url(#mask13_687_2)">
<path d="M317.69 469.54C315.02 468.89 311.77 469.07 310.18 466.54C309 464.69 309.12 462.11 309.5 459.81C309.958 457.052 310.828 454.379 312.08 451.88C312.64 450.75 321.36 445.5 319.56 447.07C317.16 449.21 311.16 465 317.69 469.54Z" fill="#EE7F48"/>
<path d="M329.34 480.68C327.44 491.39 317.95 492.68 310.51 493.36C301.24 494.24 294.51 481.96 292.51 475.72C291.24 471.79 290.05 467.59 291.03 463.47C288.47 466.47 285.23 468.42 283.49 472.57C281.75 476.72 281.61 483.78 282.38 488.2C282.926 491.065 284.053 493.787 285.69 496.2C290.4 503.35 298.2 507.71 306.18 507.63C314.16 507.55 322.18 503.04 327.18 495.79C329.87 491.85 327.53 485.23 329.34 480.68Z" fill="#EE7F48"/>
</g>
</g>
<defs>
<filter id="filter0_d_687_2" x="377.09" y="164.267" width="179.923" height="169.44" filterUnits="userSpaceOnUse" color-interpolation-filters="sRGB">
<feFlood flood-opacity="0" result="BackgroundImageFix"/>
<feColorMatrix in="SourceAlpha" type="matrix" values="0 0 0 0 0 0 0 0 0 0 0 0 0 0 0 0 0 0 127 0" result="hardAlpha"/>
<feOffset/>
<feGaussianBlur stdDeviation="18.0512"/>
<feColorMatrix type="matrix" values="0 0 0 0 1 0 0 0 0 0.792157 0 0 0 0 0.109804 0 0 0 1 0"/>
<feBlend mode="normal" in2="BackgroundImageFix" result="effect1_dropShadow_687_2"/>
<feBlend mode="normal" in="SourceGraphic" in2="effect1_dropShadow_687_2" result="shape"/>
</filter>
<radialGradient id="paint0_radial_687_2" cx="0" cy="0" r="1" gradientUnits="userSpaceOnUse" gradientTransform="translate(475.381 252.811) rotate(39.02) scale(75.0772 70.8492)">
<stop stop-color="#FFC840"/>
<stop offset="0.18" stop-color="#FFCF4E" stop-opacity="0.83"/>
<stop offset="0.6" stop-color="#FEE16F" stop-opacity="0.42"/>
<stop offset="1" stop-color="#FEF492" stop-opacity="0"/>
</radialGradient>
<clipPath id="clip0_687_2">
<rect width="573.3" height="579.51" fill="white"/>
</clipPath>
</defs>
</svg>
