<svg width="80" height="80" viewBox="0 0 80 80" fill="none" xmlns="http://www.w3.org/2000/svg">
<mask id="mask0_675_5" style="mask-type:luminance" maskUnits="userSpaceOnUse" x="0" y="0" width="80" height="80">
<path d="M80 0H0V80H80V0Z" fill="white"/>
</mask>
<g mask="url(#mask0_675_5)">
<path d="M80 0H0V80H80V0Z" fill="white"/>
<path d="M2.96289 2.96289H5.92585V5.92585H2.96289V2.96289ZM5.92585 2.96289H8.88882V5.92585H5.92585V2.96289ZM8.88882 2.96289H11.8517V5.92585H8.88882V2.96289ZM11.8517 2.96289H14.8147V5.92585H11.8517V2.96289ZM14.8147 2.96289H17.7777V5.92585H14.8147V2.96289ZM17.7777 2.96289H20.7406V5.92585H17.7777V2.96289ZM20.7406 2.96289H23.7036V5.92585H20.7406V2.96289ZM32.5925 2.96289H35.5554V5.92585H32.5925V2.96289ZM41.4814 2.96289H44.4443V5.92585H41.4814V2.96289ZM44.4443 2.96289H47.4073V5.92585H44.4443V2.96289ZM47.4073 2.96289H50.3703V5.92585H47.4073V2.96289ZM56.2962 2.96289H59.2591V5.92585H56.2962V2.96289ZM59.2591 2.96289H62.2221V5.92585H59.2591V2.96289ZM62.2221 2.96289H65.1851V5.92585H62.2221V2.96289ZM65.1851 2.96289H68.148V5.92585H65.1851V2.96289ZM68.148 2.96289H71.111V5.92585H68.148V2.96289ZM71.111 2.96289H74.074V5.92585H71.111V2.96289ZM74.074 2.96289H77.0369V5.92585H74.074V2.96289ZM2.96289 5.92585H5.92585V8.88882H2.96289V5.92585ZM20.7406 5.92585H23.7036V8.88882H20.7406V5.92585ZM29.6295 5.92585H32.5925V8.88882H29.6295V5.92585ZM44.4443 5.92585H47.4073V8.88882H44.4443V5.92585ZM47.4073 5.92585H50.3703V8.88882H47.4073V5.92585ZM56.2962 5.92585H59.2591V8.88882H56.2962V5.92585ZM74.074 5.92585H77.0369V8.88882H74.074V5.92585ZM2.96289 8.88882H5.92585V11.8518H2.96289V8.88882ZM8.88882 8.88882H11.8517V11.8518H8.88882V8.88882ZM11.8517 8.88882H14.8147V11.8518H11.8517V8.88882ZM14.8147 8.88882H17.7777V11.8518H14.8147V8.88882ZM20.7406 8.88882H23.7036V11.8518H20.7406V8.88882ZM26.6666 8.88882H29.6295V11.8518H26.6666V8.88882ZM35.5554 8.88882H38.5184V11.8518H35.5554V8.88882ZM56.2962 8.88882H59.2591V11.8518H56.2962V8.88882ZM62.2221 8.88882H65.1851V11.8518H62.2221V8.88882ZM65.1851 8.88882H68.148V11.8518H65.1851V8.88882ZM68.148 8.88882H71.111V11.8518H68.148V8.88882ZM74.074 8.88882H77.0369V11.8518H74.074V8.88882ZM2.96289 11.8518H5.92585V14.8147H2.96289V11.8518ZM8.88882 11.8518H11.8517V14.8147H8.88882V11.8518ZM11.8517 11.8518H14.8147V14.8147H11.8517V11.8518ZM14.8147 11.8518H17.7777V14.8147H14.8147V11.8518ZM20.7406 11.8518H23.7036V14.8147H20.7406V11.8518ZM29.6295 11.8518H32.5925V14.8147H29.6295V11.8518ZM47.4073 11.8518H50.3703V14.8147H47.4073V11.8518ZM50.3703 11.8518H53.3332V14.8147H50.3703V11.8518ZM56.2962 11.8518H59.2591V14.8147H56.2962V11.8518ZM62.2221 11.8518H65.1851V14.8147H62.2221V11.8518ZM65.1851 11.8518H68.148V14.8147H65.1851V11.8518ZM68.148 11.8518H71.111V14.8147H68.148V11.8518ZM74.074 11.8518H77.0369V14.8147H74.074V11.8518ZM2.96289 14.8147H5.92585V17.7777H2.96289V14.8147ZM8.88882 14.8147H11.8517V17.7777H8.88882V14.8147ZM11.8517 14.8147H14.8147V17.7777H11.8517V14.8147ZM14.8147 14.8147H17.7777V17.7777H14.8147V14.8147ZM20.7406 14.8147H23.7036V17.7777H20.7406V14.8147ZM29.6295 14.8147H32.5925V17.7777H29.6295V14.8147ZM38.5184 14.8147H41.4814V17.7777H38.5184V14.8147ZM41.4814 14.8147H44.4443V17.7777H41.4814V14.8147ZM44.4443 14.8147H47.4073V17.7777H44.4443V14.8147ZM47.4073 14.8147H50.3703V17.7777H47.4073V14.8147ZM56.2962 14.8147H59.2591V17.7777H56.2962V14.8147ZM62.2221 14.8147H65.1851V17.7777H62.2221V14.8147ZM65.1851 14.8147H68.148V17.7777H65.1851V14.8147ZM68.148 14.8147H71.111V17.7777H68.148V14.8147ZM74.074 14.8147H77.0369V17.7777H74.074V14.8147ZM2.96289 17.7777H5.92585V20.7407H2.96289V17.7777ZM20.7406 17.7777H23.7036V20.7407H20.7406V17.7777ZM32.5925 17.7777H35.5554V20.7407H32.5925V17.7777ZM35.5554 17.7777H38.5184V20.7407H35.5554V17.7777ZM44.4443 17.7777H47.4073V20.7407H44.4443V17.7777ZM47.4073 17.7777H50.3703V20.7407H47.4073V17.7777ZM56.2962 17.7777H59.2591V20.7407H56.2962V17.7777ZM74.074 17.7777H77.0369V20.7407H74.074V17.7777ZM2.96289 20.7407H5.92585V23.7036H2.96289V20.7407ZM5.92585 20.7407H8.88882V23.7036H5.92585V20.7407ZM8.88882 20.7407H11.8517V23.7036H8.88882V20.7407ZM11.8517 20.7407H14.8147V23.7036H11.8517V20.7407ZM14.8147 20.7407H17.7777V23.7036H14.8147V20.7407ZM17.7777 20.7407H20.7406V23.7036H17.7777V20.7407ZM20.7406 20.7407H23.7036V23.7036H20.7406V20.7407ZM26.6666 20.7407H29.6295V23.7036H26.6666V20.7407ZM32.5925 20.7407H35.5554V23.7036H32.5925V20.7407ZM38.5184 20.7407H41.4814V23.7036H38.5184V20.7407ZM44.4443 20.7407H47.4073V23.7036H44.4443V20.7407ZM50.3703 20.7407H53.3332V23.7036H50.3703V20.7407ZM56.2962 20.7407H59.2591V23.7036H56.2962V20.7407ZM59.2591 20.7407H62.2221V23.7036H59.2591V20.7407ZM62.2221 20.7407H65.1851V23.7036H62.2221V20.7407ZM65.1851 20.7407H68.148V23.7036H65.1851V20.7407ZM68.148 20.7407H71.111V23.7036H68.148V20.7407ZM71.111 20.7407H74.074V23.7036H71.111V20.7407ZM74.074 20.7407H77.0369V23.7036H74.074V20.7407ZM26.6666 23.7036H29.6295V26.6666H26.6666V23.7036ZM35.5554 23.7036H38.5184V26.6666H35.5554V23.7036ZM41.4814 23.7036H44.4443V26.6666H41.4814V23.7036ZM44.4443 23.7036H47.4073V26.6666H44.4443V23.7036ZM50.3703 23.7036H53.3332V26.6666H50.3703V23.7036ZM2.96289 26.6666H5.92585V29.6296H2.96289V26.6666ZM5.92585 26.6666H8.88882V29.6296H5.92585V26.6666ZM8.88882 26.6666H11.8517V29.6296H8.88882V26.6666ZM14.8147 26.6666H17.7777V29.6296H14.8147V26.6666ZM17.7777 26.6666H20.7406V29.6296H17.7777V26.6666ZM20.7406 26.6666H23.7036V29.6296H20.7406V26.6666ZM23.7036 26.6666H26.6666V29.6296H23.7036V26.6666ZM26.6666 26.6666H29.6295V29.6296H26.6666V26.6666ZM41.4814 26.6666H44.4443V29.6296H41.4814V26.6666ZM47.4073 26.6666H50.3703V29.6296H47.4073V26.6666ZM50.3703 26.6666H53.3332V29.6296H50.3703V26.6666ZM53.3332 26.6666H56.2962V29.6296H53.3332V26.6666ZM56.2962 26.6666H59.2591V29.6296H56.2962V26.6666ZM68.148 26.6666H71.111V29.6296H68.148V26.6666ZM14.8147 29.6296H17.7777V32.5925H14.8147V29.6296ZM23.7036 29.6296H26.6666V32.5925H23.7036V29.6296ZM29.6295 29.6296H32.5925V32.5925H29.6295V29.6296ZM38.5184 29.6296H41.4814V32.5925H38.5184V29.6296ZM53.3332 29.6296H56.2962V32.5925H53.3332V29.6296ZM56.2962 29.6296H59.2591V32.5925H56.2962V29.6296ZM74.074 29.6296H77.0369V32.5925H74.074V29.6296ZM8.88882 32.5925H11.8517V35.5555H8.88882V32.5925ZM14.8147 32.5925H17.7777V35.5555H14.8147V32.5925ZM20.7406 32.5925H23.7036V35.5555H20.7406V32.5925ZM23.7036 32.5925H26.6666V35.5555H23.7036V32.5925ZM32.5925 32.5925H35.5554V35.5555H32.5925V32.5925ZM38.5184 32.5925H41.4814V35.5555H38.5184V32.5925ZM53.3332 32.5925H56.2962V35.5555H53.3332V32.5925ZM59.2591 32.5925H62.2221V35.5555H59.2591V32.5925ZM68.148 32.5925H71.111V35.5555H68.148V32.5925ZM71.111 32.5925H74.074V35.5555H71.111V32.5925ZM74.074 32.5925H77.0369V35.5555H74.074V32.5925ZM2.96289 35.5555H5.92585V38.5184H2.96289V35.5555ZM8.88882 35.5555H11.8517V38.5184H8.88882V35.5555ZM14.8147 35.5555H17.7777V38.5184H14.8147V35.5555ZM23.7036 35.5555H26.6666V38.5184H23.7036V35.5555ZM26.6666 35.5555H29.6295V38.5184H26.6666V35.5555ZM29.6295 35.5555H32.5925V38.5184H29.6295V35.5555ZM32.5925 35.5555H35.5554V38.5184H32.5925V35.5555ZM35.5554 35.5555H38.5184V38.5184H35.5554V35.5555ZM41.4814 35.5555H44.4443V38.5184H41.4814V35.5555ZM44.4443 35.5555H47.4073V38.5184H44.4443V35.5555ZM53.3332 35.5555H56.2962V38.5184H53.3332V35.5555ZM56.2962 35.5555H59.2591V38.5184H56.2962V35.5555ZM62.2221 35.5555H65.1851V38.5184H62.2221V35.5555ZM71.111 35.5555H74.074V38.5184H71.111V35.5555ZM11.8517 38.5184H14.8147V41.4814H11.8517V38.5184ZM17.7777 38.5184H20.7406V41.4814H17.7777V38.5184ZM20.7406 38.5184H23.7036V41.4814H20.7406V38.5184ZM32.5925 38.5184H35.5554V41.4814H32.5925V38.5184ZM41.4814 38.5184H44.4443V41.4814H41.4814V38.5184ZM47.4073 38.5184H50.3703V41.4814H47.4073V38.5184ZM50.3703 38.5184H53.3332V41.4814H50.3703V38.5184ZM53.3332 38.5184H56.2962V41.4814H53.3332V38.5184ZM56.2962 38.5184H59.2591V41.4814H56.2962V38.5184ZM65.1851 38.5184H68.148V41.4814H65.1851V38.5184ZM71.111 38.5184H74.074V41.4814H71.111V38.5184ZM74.074 38.5184H77.0369V41.4814H74.074V38.5184ZM5.92585 41.4814H8.88882V44.4444H5.92585V41.4814ZM14.8147 41.4814H17.7777V44.4444H14.8147V41.4814ZM17.7777 41.4814H20.7406V44.4444H17.7777V41.4814ZM23.7036 41.4814H26.6666V44.4444H23.7036V41.4814ZM32.5925 41.4814H35.5554V44.4444H32.5925V41.4814ZM38.5184 41.4814H41.4814V44.4444H38.5184V41.4814ZM44.4443 41.4814H47.4073V44.4444H44.4443V41.4814ZM50.3703 41.4814H53.3332V44.4444H50.3703V41.4814ZM53.3332 41.4814H56.2962V44.4444H53.3332V41.4814ZM56.2962 41.4814H59.2591V44.4444H56.2962V41.4814ZM65.1851 41.4814H68.148V44.4444H65.1851V41.4814ZM74.074 41.4814H77.0369V44.4444H74.074V41.4814ZM2.96289 44.4444H5.92585V47.4073H2.96289V44.4444ZM8.88882 44.4444H11.8517V47.4073H8.88882V44.4444ZM17.7777 44.4444H20.7406V47.4073H17.7777V44.4444ZM20.7406 44.4444H23.7036V47.4073H20.7406V44.4444ZM29.6295 44.4444H32.5925V47.4073H29.6295V44.4444ZM32.5925 44.4444H35.5554V47.4073H32.5925V44.4444ZM44.4443 44.4444H47.4073V47.4073H44.4443V44.4444ZM50.3703 44.4444H53.3332V47.4073H50.3703V44.4444ZM53.3332 44.4444H56.2962V47.4073H53.3332V44.4444ZM56.2962 44.4444H59.2591V47.4073H56.2962V44.4444ZM59.2591 44.4444H62.2221V47.4073H59.2591V44.4444ZM68.148 44.4444H71.111V47.4073H68.148V44.4444ZM71.111 44.4444H74.074V47.4073H71.111V44.4444ZM74.074 44.4444H77.0369V47.4073H74.074V44.4444ZM5.92585 47.4073H8.88882V50.3703H5.92585V47.4073ZM26.6666 47.4073H29.6295V50.3703H26.6666V47.4073ZM29.6295 47.4073H32.5925V50.3703H29.6295V47.4073ZM32.5925 47.4073H35.5554V50.3703H32.5925V47.4073ZM35.5554 47.4073H38.5184V50.3703H35.5554V47.4073ZM41.4814 47.4073H44.4443V50.3703H41.4814V47.4073ZM44.4443 47.4073H47.4073V50.3703H44.4443V47.4073ZM50.3703 47.4073H53.3332V50.3703H50.3703V47.4073ZM62.2221 47.4073H65.1851V50.3703H62.2221V47.4073ZM71.111 47.4073H74.074V50.3703H71.111V47.4073ZM2.96289 50.3703H5.92585V53.3333H2.96289V50.3703ZM14.8147 50.3703H17.7777V53.3333H14.8147V50.3703ZM20.7406 50.3703H23.7036V53.3333H20.7406V50.3703ZM29.6295 50.3703H32.5925V53.3333H29.6295V50.3703ZM38.5184 50.3703H41.4814V53.3333H38.5184V50.3703ZM41.4814 50.3703H44.4443V53.3333H41.4814V50.3703ZM47.4073 50.3703H50.3703V53.3333H47.4073V50.3703ZM50.3703 50.3703H53.3332V53.3333H50.3703V50.3703ZM53.3332 50.3703H56.2962V53.3333H53.3332V50.3703ZM56.2962 50.3703H59.2591V53.3333H56.2962V50.3703ZM59.2591 50.3703H62.2221V53.3333H59.2591V50.3703ZM62.2221 50.3703H65.1851V53.3333H62.2221V50.3703ZM65.1851 50.3703H68.148V53.3333H65.1851V50.3703ZM26.6666 53.3333H29.6295V56.2962H26.6666V53.3333ZM38.5184 53.3333H41.4814V56.2962H38.5184V53.3333ZM41.4814 53.3333H44.4443V56.2962H41.4814V53.3333ZM47.4073 53.3333H50.3703V56.2962H47.4073V53.3333ZM50.3703 53.3333H53.3332V56.2962H50.3703V53.3333ZM62.2221 53.3333H65.1851V56.2962H62.2221V53.3333ZM65.1851 53.3333H68.148V56.2962H65.1851V53.3333ZM71.111 53.3333H74.074V56.2962H71.111V53.3333ZM74.074 53.3333H77.0369V56.2962H74.074V53.3333ZM2.96289 56.2962H5.92585V59.2592H2.96289V56.2962ZM5.92585 56.2962H8.88882V59.2592H5.92585V56.2962ZM8.88882 56.2962H11.8517V59.2592H8.88882V56.2962ZM11.8517 56.2962H14.8147V59.2592H11.8517V56.2962ZM14.8147 56.2962H17.7777V59.2592H14.8147V56.2962ZM17.7777 56.2962H20.7406V59.2592H17.7777V56.2962ZM20.7406 56.2962H23.7036V59.2592H20.7406V56.2962ZM26.6666 56.2962H29.6295V59.2592H26.6666V56.2962ZM32.5925 56.2962H35.5554V59.2592H32.5925V56.2962ZM41.4814 56.2962H44.4443V59.2592H41.4814V56.2962ZM44.4443 56.2962H47.4073V59.2592H44.4443V56.2962ZM47.4073 56.2962H50.3703V59.2592H47.4073V56.2962ZM50.3703 56.2962H53.3332V59.2592H50.3703V56.2962ZM56.2962 56.2962H59.2591V59.2592H56.2962V56.2962ZM62.2221 56.2962H65.1851V59.2592H62.2221V56.2962ZM65.1851 56.2962H68.148V59.2592H65.1851V56.2962ZM71.111 56.2962H74.074V59.2592H71.111V56.2962ZM74.074 56.2962H77.0369V59.2592H74.074V56.2962ZM2.96289 59.2592H5.92585V62.2221H2.96289V59.2592ZM20.7406 59.2592H23.7036V62.2221H20.7406V59.2592ZM26.6666 59.2592H29.6295V62.2221H26.6666V59.2592ZM41.4814 59.2592H44.4443V62.2221H41.4814V59.2592ZM50.3703 59.2592H53.3332V62.2221H50.3703V59.2592ZM62.2221 59.2592H65.1851V62.2221H62.2221V59.2592ZM65.1851 59.2592H68.148V62.2221H65.1851V59.2592ZM71.111 59.2592H74.074V62.2221H71.111V59.2592ZM2.96289 62.2221H5.92585V65.1851H2.96289V62.2221ZM8.88882 62.2221H11.8517V65.1851H8.88882V62.2221ZM11.8517 62.2221H14.8147V65.1851H11.8517V62.2221ZM14.8147 62.2221H17.7777V65.1851H14.8147V62.2221ZM20.7406 62.2221H23.7036V65.1851H20.7406V62.2221ZM26.6666 62.2221H29.6295V65.1851H26.6666V62.2221ZM32.5925 62.2221H35.5554V65.1851H32.5925V62.2221ZM35.5554 62.2221H38.5184V65.1851H35.5554V62.2221ZM38.5184 62.2221H41.4814V65.1851H38.5184V62.2221ZM41.4814 62.2221H44.4443V65.1851H41.4814V62.2221ZM50.3703 62.2221H53.3332V65.1851H50.3703V62.2221ZM53.3332 62.2221H56.2962V65.1851H53.3332V62.2221ZM56.2962 62.2221H59.2591V65.1851H56.2962V62.2221ZM59.2591 62.2221H62.2221V65.1851H59.2591V62.2221ZM62.2221 62.2221H65.1851V65.1851H62.2221V62.2221ZM65.1851 62.2221H68.148V65.1851H65.1851V62.2221ZM71.111 62.2221H74.074V65.1851H71.111V62.2221ZM2.96289 65.1851H5.92585V68.1481H2.96289V65.1851ZM8.88882 65.1851H11.8517V68.1481H8.88882V65.1851ZM11.8517 65.1851H14.8147V68.1481H11.8517V65.1851ZM14.8147 65.1851H17.7777V68.1481H14.8147V65.1851ZM20.7406 65.1851H23.7036V68.1481H20.7406V65.1851ZM29.6295 65.1851H32.5925V68.1481H29.6295V65.1851ZM32.5925 65.1851H35.5554V68.1481H32.5925V65.1851ZM38.5184 65.1851H41.4814V68.1481H38.5184V65.1851ZM41.4814 65.1851H44.4443V68.1481H41.4814V65.1851ZM59.2591 65.1851H62.2221V68.1481H59.2591V65.1851ZM62.2221 65.1851H65.1851V68.1481H62.2221V65.1851ZM65.1851 65.1851H68.148V68.1481H65.1851V65.1851ZM68.148 65.1851H71.111V68.1481H68.148V65.1851ZM2.96289 68.1481H5.92585V71.111H2.96289V68.1481ZM8.88882 68.1481H11.8517V71.111H8.88882V68.1481ZM11.8517 68.1481H14.8147V71.111H11.8517V68.1481ZM14.8147 68.1481H17.7777V71.111H14.8147V68.1481ZM20.7406 68.1481H23.7036V71.111H20.7406V68.1481ZM26.6666 68.1481H29.6295V71.111H26.6666V68.1481ZM29.6295 68.1481H32.5925V71.111H29.6295V68.1481ZM32.5925 68.1481H35.5554V71.111H32.5925V68.1481ZM38.5184 68.1481H41.4814V71.111H38.5184V68.1481ZM44.4443 68.1481H47.4073V71.111H44.4443V68.1481ZM62.2221 68.1481H65.1851V71.111H62.2221V68.1481ZM74.074 68.1481H77.0369V71.111H74.074V68.1481ZM2.96289 71.111H5.92585V74.074H2.96289V71.111ZM20.7406 71.111H23.7036V74.074H20.7406V71.111ZM26.6666 71.111H29.6295V74.074H26.6666V71.111ZM29.6295 71.111H32.5925V74.074H29.6295V71.111ZM38.5184 71.111H41.4814V74.074H38.5184V71.111ZM41.4814 71.111H44.4443V74.074H41.4814V71.111ZM44.4443 71.111H47.4073V74.074H44.4443V71.111ZM47.4073 71.111H50.3703V74.074H47.4073V71.111ZM50.3703 71.111H53.3332V74.074H50.3703V71.111ZM56.2962 71.111H59.2591V74.074H56.2962V71.111ZM62.2221 71.111H65.1851V74.074H62.2221V71.111ZM65.1851 71.111H68.148V74.074H65.1851V71.111ZM71.111 71.111H74.074V74.074H71.111V71.111ZM2.96289 74.074H5.92585V77.037H2.96289V74.074ZM5.92585 74.074H8.88882V77.037H5.92585V74.074ZM8.88882 74.074H11.8517V77.037H8.88882V74.074ZM11.8517 74.074H14.8147V77.037H11.8517V74.074ZM14.8147 74.074H17.7777V77.037H14.8147V74.074ZM17.7777 74.074H20.7406V77.037H17.7777V74.074ZM20.7406 74.074H23.7036V77.037H20.7406V74.074ZM26.6666 74.074H29.6295V77.037H26.6666V74.074ZM29.6295 74.074H32.5925V77.037H29.6295V74.074ZM35.5554 74.074H38.5184V77.037H35.5554V74.074ZM38.5184 74.074H41.4814V77.037H38.5184V74.074ZM41.4814 74.074H44.4443V77.037H41.4814V74.074ZM47.4073 74.074H50.3703V77.037H47.4073V74.074ZM50.3703 74.074H53.3332V77.037H50.3703V74.074ZM56.2962 74.074H59.2591V77.037H56.2962V74.074ZM59.2591 74.074H62.2221V77.037H59.2591V74.074ZM71.111 74.074H74.074V77.037H71.111V74.074ZM74.074 74.074H77.0369V77.037H74.074V74.074Z" fill="black"/>
</g>
</svg>
