<svg width="521" height="697" viewBox="0 0 521 697" fill="none" xmlns="http://www.w3.org/2000/svg">
<g clip-path="url(#clip0_690_2)">
<g filter="url(#filter0_d_690_2)">
<path d="M427.052 175.769C455.705 167.124 472.736 139.58 465.092 114.248C457.449 88.9159 428.026 75.3886 399.373 84.0338C370.721 92.6791 353.689 120.223 361.333 145.555C368.976 170.887 398.4 184.414 427.052 175.769Z" fill="#FED420"/>
</g>
<path d="M397.8 166.017C415.811 162.763 427.775 145.525 424.521 127.514C421.267 109.502 404.029 97.5391 386.017 100.793C368.006 104.046 356.043 121.285 359.297 139.296C362.55 157.307 379.789 169.271 397.8 166.017Z" fill="#485AA8"/>
<g style="mix-blend-mode:multiply" opacity="0.49">
<path d="M397.05 100.68C390.893 99.6921 384.581 100.469 378.848 102.921C373.114 105.373 368.192 109.399 364.652 114.534C361.113 119.668 359.101 125.7 358.849 131.931C358.597 138.162 360.116 144.337 363.23 149.74C364.218 151.443 365.335 153.067 366.57 154.6L368.8 153.37C377.975 148.119 385.489 140.394 390.484 131.078C395.479 121.761 397.754 111.228 397.05 100.68Z" fill="#485AA8"/>
</g>
<path style="mix-blend-mode:screen" opacity="0.72" d="M491.251 191.817C520.783 155.375 514.989 101.738 478.311 72.0151C441.633 42.2925 387.959 47.7398 358.428 84.182C328.897 120.624 334.69 174.261 371.368 203.984C408.047 233.706 461.72 228.259 491.251 191.817Z" fill="url(#paint0_radial_690_2)"/>
<path opacity="0.8" d="M331.9 8.06002C376.04 -30.23 379.9 80.29 379.9 80.29C379.9 80.29 304.35 32.12 331.9 8.06002Z" fill="white"/>
<path opacity="0.8" d="M419.45 14C472.17 39.29 372.09 86.57 372.09 86.57C372.09 86.57 386.47 -1.78996 419.45 14Z" fill="white"/>
<path d="M373.929 94.6262C384.934 85.6538 377.746 58.6218 357.875 34.2486C338.004 9.87534 312.974 -2.60949 301.969 6.36293C290.963 15.3353 298.151 42.3673 318.022 66.7405C337.893 91.1138 362.923 103.599 373.929 94.6262Z" fill="#485AA8"/>
<mask id="mask0_690_2" style="mask-type:luminance" maskUnits="userSpaceOnUse" x="296" y="3" width="84" height="95">
<path d="M373.929 94.6262C384.934 85.6538 377.746 58.6218 357.875 34.2486C338.004 9.87534 312.974 -2.60949 301.969 6.36293C290.963 15.3353 298.151 42.3673 318.022 66.7405C337.893 91.1138 362.923 103.599 373.929 94.6262Z" fill="white"/>
</mask>
<g mask="url(#mask0_690_2)">
<g style="mix-blend-mode:multiply" opacity="0.49">
<path d="M337.7 46.78C354.224 49.2031 369.566 56.7674 381.55 68.4C387.03 76.4 380.4 107.34 368.65 108.56C356.9 109.78 328.38 83.16 318.25 77.07C312.007 73.1754 306.127 68.7275 300.68 63.78C295.06 58.84 290.32 57.17 295.84 52.19C304.56 44.31 327.06 45.25 337.7 46.78Z" fill="#485AA8"/>
</g>
</g>
<path d="M426.992 82.2049C451.355 62.3209 463.827 37.2841 454.849 26.2836C445.871 15.2831 418.842 22.4846 394.48 42.3686C370.117 62.2526 357.645 87.2894 366.623 98.2899C375.601 109.29 402.63 102.089 426.992 82.2049Z" fill="#6371B5"/>
<path d="M333.28 164.2C364.479 164.2 389.77 138.909 389.77 107.71C389.77 76.5115 364.479 51.22 333.28 51.22C302.081 51.22 276.79 76.5115 276.79 107.71C276.79 138.909 302.081 164.2 333.28 164.2Z" fill="#6371B5"/>
<path d="M305.34 58.76C304.84 58.99 304.49 59.33 303.98 59.55C317.059 56.4723 330.807 58.1571 342.755 64.3021C354.704 70.4471 364.071 80.6499 369.175 93.0789C374.279 105.508 374.786 119.349 370.605 132.118C366.423 144.887 357.827 155.748 346.36 162.75C351.625 161.49 356.678 159.468 361.36 156.75C374.162 149.226 383.483 136.959 387.303 122.61C391.123 108.26 389.134 92.9824 381.766 80.0894C374.399 67.1963 362.247 57.7262 347.944 53.7317C333.642 49.7373 318.342 51.5403 305.36 58.75L305.34 58.76Z" fill="#485AA8"/>
<path d="M353.96 124.1C360.632 124.1 366.04 118.692 366.04 112.02C366.04 105.348 360.632 99.94 353.96 99.94C347.288 99.94 341.88 105.348 341.88 112.02C341.88 118.692 347.288 124.1 353.96 124.1Z" fill="#96A1D2"/>
<path d="M285.5 137.61C289.324 143.773 294.322 149.124 300.21 153.36C301.009 151.262 301.203 148.982 300.771 146.78C300.339 144.577 299.298 142.539 297.765 140.899C296.233 139.258 294.272 138.08 292.103 137.499C289.935 136.918 287.647 136.956 285.5 137.61Z" fill="#96A1D2"/>
<path d="M288.37 146.45C299.487 146.45 308.5 137.437 308.5 126.32C308.5 115.203 299.487 106.19 288.37 106.19C277.253 106.19 268.24 115.203 268.24 126.32C268.24 137.437 277.253 146.45 288.37 146.45Z" fill="white"/>
<mask id="mask1_690_2" style="mask-type:luminance" maskUnits="userSpaceOnUse" x="268" y="106" width="41" height="41">
<path d="M288.37 146.45C299.487 146.45 308.5 137.437 308.5 126.32C308.5 115.203 299.487 106.19 288.37 106.19C277.253 106.19 268.24 115.203 268.24 126.32C268.24 137.437 277.253 146.45 288.37 146.45Z" fill="white"/>
</mask>
<g mask="url(#mask1_690_2)">
<path d="M301.54 144.528C305.525 139.841 304.086 132.071 298.326 127.173C292.566 122.276 284.665 122.106 280.68 126.793C276.695 131.481 278.134 139.251 283.895 144.148C289.655 149.045 297.555 149.216 301.54 144.528Z" fill="#263360"/>
<path d="M288.174 139.523C290.238 137.096 289.531 133.103 286.594 130.606C283.657 128.109 279.602 128.053 277.538 130.481C275.474 132.909 276.182 136.901 279.119 139.398C282.056 141.895 286.11 141.951 288.174 139.523Z" fill="white"/>
</g>
<path d="M334.35 119.73C345.467 119.73 354.48 110.718 354.48 99.6C354.48 88.4825 345.467 79.47 334.35 79.47C323.232 79.47 314.22 88.4825 314.22 99.6C314.22 110.718 323.232 119.73 334.35 119.73Z" fill="white"/>
<mask id="mask2_690_2" style="mask-type:luminance" maskUnits="userSpaceOnUse" x="314" y="79" width="41" height="41">
<path d="M334.35 119.73C345.467 119.73 354.48 110.718 354.48 99.6C354.48 88.4825 345.467 79.47 334.35 79.47C323.232 79.47 314.22 88.4825 314.22 99.6C314.22 110.718 323.232 119.73 334.35 119.73Z" fill="white"/>
</mask>
<g mask="url(#mask2_690_2)">
<path d="M347.519 117.818C351.504 113.13 350.065 105.36 344.304 100.463C338.544 95.5656 330.644 95.3955 326.658 100.083C322.673 104.77 324.113 112.54 329.873 117.438C335.633 122.335 343.534 122.505 347.519 117.818Z" fill="#263360"/>
<path d="M334.159 112.795C336.223 110.367 335.515 106.375 332.578 103.878C329.641 101.381 325.587 101.325 323.523 103.753C321.459 106.181 322.167 110.173 325.104 112.67C328.041 115.167 332.095 115.223 334.159 112.795Z" fill="white"/>
</g>
<path d="M249.78 52.3C252.38 49.04 255.73 46.54 259.37 46.3C262.59 46.07 265.77 47.42 268.7 49.15C279.14 55.3 288.99 62.21 299.61 68.95C300.32 69.41 299.14 71.57 298.41 71.15C290 66.29 269.1 52 266.94 51.34C260.69 49.4 258.57 56.74 256.36 61.65C254.84 65.03 252.65 68.31 249.66 69.15C248.891 69.2964 248.1 69.2744 247.341 69.0855C246.582 68.8965 245.873 68.5452 245.262 68.0556C244.652 67.566 244.155 66.9499 243.806 66.2498C243.457 65.5496 243.264 64.782 243.24 64C243.26 60.67 248 54.55 249.78 52.3Z" fill="#485AA8"/>
<path d="M267 25.77C270.31 23.83 274.13 22.93 277.62 24.26C280.71 25.44 283.34 28.09 285.62 30.98C293.81 41.3 301.22 52.06 309.41 62.98C309.96 63.72 308.27 65.25 307.7 64.53C301.12 56.35 285.23 33.84 283.38 32.28C278.02 27.75 274.07 33.73 270.68 37.39C268.34 39.91 265.41 42.04 262.38 41.54C259.91 41.13 256.68 37.46 257.71 33.93C258.65 30.81 264.72 27.11 267 25.77Z" fill="#485AA8"/>
<path d="M330.427 152.037C333.177 148.735 331.804 143.059 327.361 139.358C322.918 135.658 317.087 135.334 314.337 138.636C311.587 141.937 312.96 147.614 317.403 151.314C321.846 155.015 327.677 155.338 330.427 152.037Z" fill="#6D0F0F"/>
<path d="M328.72 140.58C324.65 139.95 320.37 143.45 319.04 148.87C318.733 149.955 318.611 151.084 318.68 152.21C322.87 154.99 327.92 155.04 330.51 151.98C332.85 149.1 332.1 144.19 328.72 140.58Z" fill="#F26E6F"/>
<path d="M232.38 518.62H184.1C180.558 518.62 177.058 519.399 173.851 520.903C170.643 522.406 167.805 524.597 165.539 527.319C163.273 530.042 161.633 533.23 160.736 536.657C159.839 540.084 159.708 543.666 160.35 547.15L177.46 639.89C178.474 645.389 181.386 650.358 185.687 653.931C189.989 657.503 195.408 659.453 201 659.44H214.49C220.098 659.442 225.531 657.493 229.858 653.925C234.184 650.358 237.134 645.395 238.2 639.89L256.2 547.37C256.88 543.865 256.775 540.252 255.891 536.792C255.007 533.332 253.367 530.112 251.089 527.362C248.811 524.613 245.951 522.402 242.716 520.891C239.481 519.379 235.951 518.603 232.38 518.62Z" fill="#F79560"/>
<mask id="mask3_690_2" style="mask-type:luminance" maskUnits="userSpaceOnUse" x="159" y="518" width="98" height="142">
<path d="M232.38 518.62H184.1C180.558 518.62 177.058 519.399 173.851 520.903C170.643 522.406 167.805 524.597 165.539 527.319C163.273 530.042 161.633 533.23 160.736 536.657C159.839 540.084 159.708 543.666 160.35 547.15L177.46 639.89C178.474 645.389 181.386 650.358 185.687 653.931C189.989 657.503 195.408 659.453 201 659.44H214.49C220.098 659.442 225.531 657.493 229.858 653.925C234.184 650.358 237.134 645.395 238.2 639.89L256.2 547.37C256.88 543.865 256.775 540.252 255.891 536.792C255.007 533.332 253.367 530.112 251.089 527.362C248.811 524.613 245.951 522.402 242.716 520.891C239.481 519.379 235.951 518.603 232.38 518.62Z" fill="white"/>
</mask>
<g mask="url(#mask3_690_2)">
<path d="M220.06 659.39C214.861 659.569 209.701 658.429 205.061 656.077C200.42 653.726 196.45 650.238 193.52 645.94C190.12 640.82 188.36 634.81 186.64 628.94C178.97 602.48 172.05 571.94 164.38 545.47C162.38 538.54 166.57 528.69 170.64 522.75C158.86 526.07 153.36 546.58 152.64 556.87C151.92 567.16 153.36 577.45 154.77 587.66L160.33 627.76C161.57 636.76 163.02 646.18 168.74 653.19C173.2 658.64 179.85 661.97 186.74 663.57C193.63 665.17 200.74 665.15 207.74 664.88C212.78 664.65 217 663.4 220.06 659.39Z" fill="#EE7F48"/>
</g>
<path d="M101.81 542L123.68 516.12L221.28 548.02L310.16 503.43L332.41 525.54L247.69 612.34L164.13 587.7L118.18 573.1L101.81 542Z" fill="#EEE6DD"/>
<g style="mix-blend-mode:multiply">
<path d="M242.86 559.17C244.44 561.34 246.24 563.81 245.75 566.46C245.14 569.81 241.36 571.39 238.11 572.4L217.34 578.89C229.315 579.197 241.2 576.751 252.08 571.74C254.8 570.49 257.62 568.9 258.9 566.19C260.84 562.06 258.22 556.95 254.33 554.57C251.57 552.88 244.33 550.87 240.62 552.09C240.417 554.652 241.22 557.192 242.86 559.17Z" fill="#EFD5C0"/>
</g>
<path d="M337.88 520.22L245.34 557C248.26 559.23 251.48 562.43 250.66 566.22C250.05 569.03 247.44 570.66 244.93 571.73L244.49 571.92C236.84 575.03 228.72 576.46 220.62 577.47C217.1 577.91 213.45 578.26 210.11 577C206.77 575.74 203.85 572.43 203.95 568.56C197.17 566.56 98.12 537.92 98.12 537.92L98.31 651.14L197.37 688.51L198.37 691.87C199.556 693.38 201.128 694.541 202.92 695.23C206.42 696.56 210.26 696.23 213.92 695.73C222.42 694.67 230.92 693.17 238.98 689.91C241.74 688.78 244.77 687.04 245.45 683.91C245.575 683.325 245.612 682.726 245.56 682.13V676.34L322.18 642.72L337.88 520.22Z" fill="#4878BC"/>
<mask id="mask4_690_2" style="mask-type:luminance" maskUnits="userSpaceOnUse" x="98" y="520" width="240" height="177">
<path d="M337.88 520.22L245.34 557C248.26 559.23 251.48 562.43 250.66 566.22C250.05 569.03 247.44 570.66 244.93 571.73L244.49 571.92C236.84 575.03 228.72 576.46 220.62 577.47C217.1 577.91 213.45 578.26 210.11 577C206.77 575.74 203.85 572.43 203.95 568.56C197.17 566.56 98.12 537.92 98.12 537.92L98.31 651.14L197.37 688.51L198.37 691.87C199.556 693.38 201.128 694.541 202.92 695.23C206.42 696.56 210.26 696.23 213.92 695.73C222.42 694.67 230.92 693.17 238.98 689.91C241.74 688.78 244.77 687.04 245.45 683.91C245.575 683.325 245.612 682.726 245.56 682.13V676.34L322.18 642.72L337.88 520.22Z" fill="white"/>
</mask>
<g mask="url(#mask4_690_2)">
<path d="M126.94 542.21L194.31 558.72C199.95 560.11 206.23 561.96 209.02 567.05C211.31 571.22 206.32 569.33 206.02 574.05C203.41 616.74 201.47 657.37 199.42 694.96C194.72 688.03 184.73 688.09 176.36 688.33C151.288 689.025 126.34 684.566 103.06 675.23C95.32 672.12 87.31 668.03 83.35 660.69C78.86 652.36 80.77 642.19 82.52 632.89C86.9429 609.367 89.5672 585.542 90.37 561.62C90.6 555.06 87.16 536.22 94.42 534.05C98.18 532.92 105.06 536.54 108.64 537.53C114.72 539.22 120.83 540.71 126.94 542.21Z" fill="#2D58A8"/>
<path d="M213.73 591.85C211.08 591.848 208.491 591.05 206.3 589.56L206.97 588.67C209.88 590.83 213.84 590.91 217.68 590.67C225.044 590.227 232.347 589.054 239.48 587.17C243.08 586.17 246.66 584.94 248.57 582.04L249.49 582.65C247.39 585.86 243.57 587.23 239.77 588.24C232.572 590.142 225.202 591.325 217.77 591.77C216.426 591.867 215.077 591.894 213.73 591.85Z" fill="#FDB515"/>
<path d="M213.41 598.33C210.762 598.314 208.18 597.502 206 596L206.66 595.11C209.57 597.28 213.53 597.36 217.37 597.11C224.738 596.675 232.044 595.506 239.18 593.62C242.77 592.62 246.36 591.39 248.26 588.49L249.19 589.1C247.08 592.3 243.27 593.68 239.46 594.69C232.262 596.592 224.892 597.775 217.46 598.22C216.113 598.333 214.761 598.369 213.41 598.33Z" fill="#FDB515"/>
<path d="M209.37 675.74C206.723 675.74 204.137 674.942 201.95 673.45L202.61 672.56C205.52 674.72 209.48 674.81 213.32 674.56C220.685 674.122 227.988 672.949 235.12 671.06C238.72 670.06 242.31 668.83 244.21 665.93L245.13 666.54C243.03 669.75 239.21 671.13 235.41 672.13C228.212 674.032 220.842 675.215 213.41 675.66C212.066 675.757 210.717 675.784 209.37 675.74Z" fill="#FDB515"/>
<path d="M209.05 682.22C206.405 682.217 203.821 681.423 201.63 679.94L202.29 679.05C205.2 681.21 209.16 681.29 213 681.05C220.368 680.615 227.674 679.446 234.81 677.56C238.4 676.56 241.99 675.33 243.89 672.43L244.82 673.04C242.71 676.25 238.9 677.62 235.09 678.63C227.892 680.532 220.522 681.715 213.09 682.16C211.746 682.256 210.397 682.276 209.05 682.22Z" fill="#FDB515"/>
<path d="M246.47 677.82L245.64 677.77L249.83 566.14L251.49 566.23L246.47 677.82Z" fill="#2D58A8"/>
<g style="mix-blend-mode:multiply">
<path d="M108 647.1C110.96 648.008 113.595 649.748 115.592 652.114C117.589 654.48 118.862 657.37 119.26 660.44C113.232 659.502 107.294 658.057 101.51 656.12C99.04 655.29 96.34 654.12 95.32 651.73C94.7908 650.095 94.7045 648.349 95.07 646.67C95.55 642.96 96 639.24 96.5 635.52C97 631.8 97.81 630.63 101.2 632.89C103.476 634.464 105.297 636.609 106.48 639.11C106.73 639.72 108.44 647.23 108 647.1Z" fill="#34A1DB"/>
</g>
<path d="M106.85 647C109.807 647.91 112.44 649.652 114.435 652.017C116.429 654.383 117.702 657.272 118.1 660.34C112.075 659.407 106.14 657.962 100.36 656.02C97.88 655.19 95.18 654.02 94.16 651.63C93.6434 650.013 93.5607 648.289 93.92 646.63C94.39 642.91 94.84 639.19 95.35 635.48C95.86 631.77 96.66 630.59 100.04 632.85C102.316 634.424 104.137 636.569 105.32 639.07C105.62 639.67 107.34 647.18 106.85 647Z" fill="#FAA31B"/>
<g style="mix-blend-mode:multiply">
<path d="M122.92 546.12C120.897 548.135 118.253 549.407 115.416 549.732C112.58 550.057 109.716 549.415 107.29 547.91C107.347 551.015 106.366 554.05 104.501 556.534C102.637 559.017 99.9972 560.807 97 561.62C97.32 554.38 97 548.23 97.27 540.98C97.1302 540.482 97.1472 539.953 97.3186 539.465C97.49 538.976 97.8076 538.553 98.2281 538.251C98.6486 537.95 99.1517 537.785 99.6691 537.78C100.187 537.774 100.693 537.928 101.12 538.22C108.33 540.42 115.7 543.92 122.92 546.12Z" fill="#34A1DB"/>
</g>
<path d="M121.81 546.07C119.786 548.085 117.142 549.356 114.305 549.68C111.468 550.003 108.605 549.358 106.18 547.85C106.228 550.955 105.242 553.989 103.378 556.473C101.513 558.956 98.8754 560.75 95.8799 561.57C96.1999 554.33 95.8799 548.17 96.1499 540.93C96.1499 539.93 96.3199 538.73 97.1499 538.16C97.5952 537.955 98.0796 537.848 98.5699 537.848C99.0603 537.848 99.5447 537.955 99.9899 538.16C107.23 540.37 114.59 543.87 121.81 546.07Z" fill="#FAA31B"/>
<g style="mix-blend-mode:multiply">
<path d="M329.4 529.94C327.4 535.84 330.1 542.94 335.72 546.29C337.72 538.03 338.51 530.74 340.48 522.48C340.83 521.02 341.11 519.29 340.02 518.18C338.93 517.07 337.47 517.18 336.02 517.18L323.55 517.29C320.79 517.29 317.89 517.37 315.55 518.64C311.99 520.53 309.82 526.64 312.46 529.95C315.7 534 325.46 532.25 329.4 529.94Z" fill="#34A1DB"/>
</g>
<path d="M330.5 530C328.5 535.91 331.2 543 336.82 546.35C338.82 538.09 339.62 530.8 341.59 522.54C341.94 521.08 342.22 519.35 341.13 518.24C340.04 517.13 338.58 517.24 337.13 517.24L324.65 517.35C321.89 517.35 318.99 517.44 316.6 518.71C313.05 520.59 310.88 526.71 313.52 530.02C316.81 534.06 326.57 532.3 330.5 530Z" fill="#FDB515"/>
<g style="mix-blend-mode:multiply">
<path d="M324.86 621.54C319.79 625.21 316.75 631.07 316.1 638.54C309.1 639.75 301.31 645.74 301.98 651.71C307.827 651.649 313.62 650.591 319.11 648.58C321.11 647.88 323.24 647 324.39 645.43C325.54 643.86 325.54 642.13 325.59 640.43C325.74 634.48 324.71 627.48 324.86 621.54Z" fill="#34A1DB"/>
</g>
<path d="M326 621.6C320.94 625.26 317.89 631.12 317.25 638.6C310.25 639.82 302.45 645.8 303.13 651.77C308.976 651.712 314.769 650.657 320.26 648.65C322.26 647.95 324.39 647.06 325.54 645.49C326.437 643.984 326.852 642.239 326.73 640.49C326.85 634.54 325.81 627.53 326 621.6Z" fill="#FDB515"/>
</g>
<path d="M337.84 519.52C337.671 519.113 337.349 518.788 336.943 518.616C336.537 518.443 336.08 518.438 335.67 518.6L244.67 555.43C244.398 555.54 244.161 555.72 243.981 555.952C243.802 556.184 243.687 556.459 243.649 556.749C243.61 557.04 243.649 557.336 243.762 557.606C243.874 557.877 244.057 558.113 244.29 558.29C247.95 561.09 249.49 563.55 248.99 565.83C248.62 567.57 247.11 568.95 244.24 570.18H244.18L243.83 570.33C235.96 573.53 227.56 574.87 220.38 575.77C216.92 576.2 213.58 576.5 210.66 575.39C208.07 574.39 205.49 571.75 205.57 568.56C205.579 568.195 205.469 567.837 205.256 567.541C205.043 567.245 204.739 567.027 204.39 566.92C197.68 564.92 100.95 536.92 99.97 536.69C99.7605 536.63 99.5412 536.611 99.3246 536.635C99.108 536.66 98.8982 536.726 98.7074 536.832C98.5166 536.937 98.3484 537.079 98.2124 537.25C98.0765 537.42 97.9754 537.616 97.915 537.825C97.8546 538.034 97.836 538.254 97.8604 538.47C97.8847 538.687 97.9515 538.897 98.0569 539.088C98.1623 539.278 98.3042 539.447 98.4746 539.583C98.645 539.719 98.8405 539.82 99.05 539.88C99.99 540.15 189.59 566.04 202.31 569.77C202.8 574.08 206.23 577.27 209.49 578.5C211.044 579.087 212.681 579.424 214.34 579.5C216.497 579.552 218.655 579.422 220.79 579.11C228.18 578.19 236.85 576.79 245.08 573.45L245.52 573.26C249.4 571.6 251.6 569.41 252.21 566.57C253.05 562.69 250.59 559.5 248.46 557.5L336.85 521.71C337.062 521.636 337.257 521.519 337.423 521.367C337.588 521.216 337.721 521.032 337.814 520.827C337.907 520.622 337.957 520.401 337.961 520.176C337.966 519.952 337.924 519.728 337.84 519.52Z" fill="#3393D0"/>
<mask id="mask5_690_2" style="mask-type:luminance" maskUnits="userSpaceOnUse" x="101" y="503" width="232" height="110">
<path d="M101.81 542L123.68 516.12L221.28 548.02L310.16 503.43L332.41 525.54L247.69 612.34L164.13 587.7L118.18 573.1L101.81 542Z" fill="white"/>
</mask>
<g mask="url(#mask5_690_2)">
<g opacity="0.58">
<g style="mix-blend-mode:multiply">
<path d="M100.32 534.28L201.32 563.41C201.32 563.41 121 538.18 100.32 534.28Z" fill="#E9D3C1"/>
</g>
<g style="mix-blend-mode:multiply">
<path d="M101.49 531.61L202.06 561.53C202.06 561.53 122.18 535 101.49 531.61Z" fill="#E9D3C1"/>
</g>
<g style="mix-blend-mode:multiply">
<path d="M103.09 528.06L202.74 559.67C202.74 559.67 123.67 531.81 103.09 528.06Z" fill="#E9D3C1"/>
</g>
<g style="mix-blend-mode:multiply">
<path d="M104.17 525.51L203.83 557.1C203.83 557.1 124.75 529.25 104.17 525.51Z" fill="#E9D3C1"/>
</g>
<g style="mix-blend-mode:multiply">
<path d="M105.56 522.37L204.77 554.75C204.77 554.75 126.07 526.27 105.56 522.37Z" fill="#E9D3C1"/>
</g>
<g style="mix-blend-mode:multiply">
<path d="M106.79 519.44L206 551.82C206 551.82 127.31 523.34 106.79 519.44Z" fill="#E9D3C1"/>
</g>
<g style="mix-blend-mode:multiply">
<path d="M108.12 516.45L206.84 549.69C206.84 549.69 128.58 520.53 108.12 516.45Z" fill="#E9D3C1"/>
</g>
<g style="mix-blend-mode:multiply">
<path d="M109.08 513L207.79 546.23C207.79 546.23 129.54 517.1 109.08 513Z" fill="#E9D3C1"/>
</g>
</g>
<g opacity="0.58">
<g style="mix-blend-mode:multiply">
<path d="M336.75 514L239.6 557.49C239.6 557.49 316.63 520.89 336.75 514Z" fill="#E9D3C1"/>
</g>
<g style="mix-blend-mode:multiply">
<path d="M335.31 511.56L238.65 555.74C238.65 555.74 315.14 517.91 335.31 511.56Z" fill="#E9D3C1"/>
</g>
<g style="mix-blend-mode:multiply">
<path d="M333.35 508.27L237.78 554C237.78 554 313.32 515 333.35 508.27Z" fill="#E9D3C1"/>
</g>
<g style="mix-blend-mode:multiply">
<path d="M332 505.89L236.42 551.59C236.42 551.59 312 512.56 332 505.89Z" fill="#E9D3C1"/>
</g>
<g style="mix-blend-mode:multiply">
<path d="M330.3 503L235.25 549.42C235.25 549.42 310.35 509.8 330.3 503Z" fill="#E9D3C1"/>
</g>
<g style="mix-blend-mode:multiply">
<path d="M328.77 500.24L233.77 546.66C233.77 546.66 308.82 507.07 328.77 500.24Z" fill="#E9D3C1"/>
</g>
<g style="mix-blend-mode:multiply">
<path d="M327.13 497.47L232.67 544.67C232.67 544.67 307.26 504.46 327.13 497.47Z" fill="#E9D3C1"/>
</g>
<g style="mix-blend-mode:multiply">
<path d="M325.82 494.2L231.36 541.4C231.36 541.4 306 501.2 325.82 494.2Z" fill="#E9D3C1"/>
</g>
</g>
</g>
<g style="mix-blend-mode:multiply">
<path d="M279.34 627.79C279.954 627.027 280.528 626.233 281.06 625.41C282.574 622.521 283.605 619.403 284.11 616.18C285.9 607.79 287.58 599.39 289.47 591.02C290.8 585.1 292.58 579.28 295.85 573.93C297.47 570.995 299.928 568.61 302.91 567.08C304.038 566.459 305.278 566.067 306.558 565.926C307.838 565.785 309.134 565.899 310.37 566.26C312.96 567.11 314.06 569.26 313.1 571.59C312.703 572.502 311.992 573.241 311.097 573.674C310.202 574.107 309.181 574.205 308.22 573.95C307.3 573.761 306.483 573.237 305.928 572.479C305.374 571.721 305.121 570.784 305.22 569.85C305.273 569.589 305.226 569.318 305.09 569.09C304.672 569.535 304.278 570.003 303.91 570.49C302.356 572.962 301.278 575.702 300.73 578.57C298.64 587.92 296.66 597.3 294.54 606.64C293.4 611.64 292.22 616.69 289.62 621.33C288.021 624.55 285.564 627.267 282.52 629.18C281.336 629.943 280.011 630.462 278.624 630.708C277.237 630.953 275.814 630.92 274.44 630.61C271.77 629.94 270.44 627.67 271.25 625.39C271.591 624.44 272.27 623.649 273.157 623.168C274.044 622.687 275.078 622.549 276.06 622.78C277.025 622.926 277.894 623.445 278.481 624.224C279.068 625.004 279.326 625.982 279.2 626.95C279.2 627.17 279.1 627.38 279.05 627.6L279.34 627.79Z" fill="#34A1DB"/>
</g>
<path d="M279.25 626.54C279.83 625.75 280.48 624.99 280.97 624.16C282.468 621.265 283.482 618.143 283.97 614.92C285.77 606.54 287.45 598.13 289.33 589.77C290.67 583.85 292.44 578.03 295.72 572.68C297.33 569.741 299.786 567.355 302.77 565.83C305.049 564.579 307.731 564.28 310.23 565C312.82 565.85 313.92 568.06 312.96 570.34C312.561 571.25 311.85 571.988 310.956 572.421C310.061 572.854 309.041 572.953 308.08 572.7C307.159 572.509 306.342 571.983 305.788 571.223C305.233 570.464 304.981 569.525 305.08 568.59C305.132 568.334 305.089 568.067 304.96 567.84C304.534 568.281 304.136 568.748 303.77 569.24C302.22 571.714 301.142 574.453 300.59 577.32C298.5 586.67 296.52 596.04 294.4 605.39C293.26 610.39 292.08 615.39 289.49 620.07C287.75 623.17 285.67 626.02 282.38 627.92C281.197 628.686 279.872 629.207 278.485 629.453C277.097 629.698 275.674 629.663 274.3 629.35C271.63 628.69 270.3 626.41 271.11 624.14C271.448 623.188 272.126 622.394 273.014 621.912C273.902 621.43 274.937 621.294 275.92 621.53C276.885 621.676 277.754 622.195 278.341 622.974C278.928 623.754 279.186 624.732 279.06 625.7C279.06 625.91 278.97 626.13 278.92 626.35L279.25 626.54Z" fill="#FDB515"/>
<g style="mix-blend-mode:multiply">
<path d="M150.61 627.31L139.94 623.69C136.9 622.662 134.305 620.621 132.59 617.909C130.876 615.196 130.145 611.977 130.52 608.79C130.756 606.705 131.457 604.701 132.572 602.924C133.687 601.147 135.187 599.643 136.961 598.523C138.735 597.404 140.738 596.698 142.822 596.456C144.906 596.215 147.017 596.445 149 597.13L159.66 600.75C162.807 601.811 165.474 603.957 167.185 606.804C168.896 609.651 169.54 613.013 169 616.29C168.677 618.307 167.916 620.229 166.771 621.921C165.626 623.613 164.125 625.034 162.372 626.085C160.62 627.135 158.659 627.789 156.627 628C154.595 628.212 152.541 627.976 150.61 627.31Z" stroke="#34A1DB" stroke-width="3" stroke-miterlimit="10"/>
<path d="M137 640.29C137.58 639.5 138.23 638.74 138.72 637.91C140.42 635.02 141.1 631.84 141.78 628.67C143.57 620.29 145.25 611.89 147.13 603.52C148.47 597.6 150.24 591.78 153.52 586.43C155.136 583.496 157.591 581.111 160.57 579.58C162.849 578.329 165.531 578.03 168.03 578.75C170.62 579.61 171.72 581.81 170.77 584.09C170.368 585 169.655 585.737 168.759 586.169C167.863 586.602 166.843 586.701 165.88 586.45C164.96 586.261 164.143 585.737 163.589 584.979C163.034 584.221 162.781 583.284 162.88 582.35C162.933 582.09 162.89 581.821 162.76 581.59C162.336 582.033 161.939 582.501 161.57 582.99C160.02 585.464 158.942 588.203 158.39 591.07C156.3 600.42 154.32 609.79 152.2 619.14C151.06 624.14 149.88 629.19 147.29 633.83C145.69 637.053 143.229 639.77 140.18 641.68C138.995 642.441 137.67 642.96 136.283 643.205C134.896 643.451 133.474 643.418 132.1 643.11C129.43 642.44 128.1 640.11 128.91 637.89C129.25 636.939 129.928 636.147 130.816 635.665C131.703 635.183 132.738 635.046 133.72 635.28C134.686 635.424 135.557 635.942 136.144 636.722C136.732 637.502 136.989 638.482 136.86 639.45C136.86 639.67 136.77 639.88 136.72 640.1L137 640.29Z" fill="#34A1DB"/>
</g>
<path d="M150.61 626.21L139.94 622.58C136.9 621.552 134.305 619.511 132.59 616.799C130.876 614.086 130.145 610.867 130.52 607.68C130.753 605.594 131.452 603.587 132.566 601.807C133.68 600.028 135.179 598.521 136.954 597.4C138.728 596.278 140.732 595.57 142.817 595.328C144.903 595.086 147.016 595.315 149 596L159.66 599.62C162.811 600.682 165.481 602.831 167.193 605.682C168.904 608.533 169.545 611.9 169 615.18C168.678 617.198 167.918 619.121 166.774 620.815C165.63 622.508 164.128 623.93 162.376 624.981C160.623 626.032 158.662 626.687 156.629 626.899C154.596 627.112 152.542 626.876 150.61 626.21Z" stroke="#FAA31B" stroke-width="3" stroke-miterlimit="10"/>
<path d="M137 639.18C137.614 638.417 138.188 637.623 138.72 636.8C140.42 633.91 141.1 630.73 141.78 627.57C143.57 619.18 145.25 610.78 147.13 602.41C148.47 596.49 150.24 590.67 153.52 585.32C155.136 582.386 157.591 580.001 160.57 578.47C161.698 577.849 162.938 577.457 164.218 577.317C165.498 577.176 166.794 577.289 168.03 577.65C170.62 578.5 171.72 580.7 170.77 582.99C170.368 583.899 169.654 584.635 168.758 585.066C167.862 585.497 166.841 585.594 165.88 585.34C164.959 585.154 164.141 584.63 163.586 583.871C163.031 583.113 162.779 582.174 162.88 581.24C162.932 580.98 162.889 580.711 162.76 580.48C162.336 580.926 161.939 581.397 161.57 581.89C160.017 584.362 158.939 587.102 158.39 589.97C156.3 599.32 154.32 608.69 152.2 618.03C151.06 623.03 149.88 628.08 147.29 632.72C145.69 635.943 143.229 638.66 140.18 640.57C138.997 641.336 137.672 641.857 136.285 642.103C134.897 642.348 133.474 642.313 132.1 642C129.43 641.33 128.1 639.06 128.91 636.78C129.251 635.83 129.93 635.039 130.817 634.558C131.704 634.077 132.738 633.939 133.72 634.17C134.686 634.314 135.557 634.832 136.144 635.612C136.732 636.392 136.989 637.372 136.86 638.34C136.86 638.56 136.77 638.77 136.72 638.99L137 639.18Z" fill="#FAA31B"/>
<path d="M240.62 552.09C240.62 552.09 252 555 258.05 579.17C261.92 574.17 264.63 570.89 264.63 570.89L274.15 572.97C274.15 572.97 261.43 547.84 253.94 545.73C244.08 549.84 240.62 552.09 240.62 552.09Z" fill="#E74F4E"/>
<path d="M126.07 595.17C124.3 592.33 121.07 591.24 118.12 590.5C111.605 588.9 104.907 588.164 98.2 588.31C98.2 582.72 98.2 572.31 98.2 572.31V570.31C97.6068 569.26 96.65 568.463 95.51 568.07C92.7 566.98 88.61 567.65 87.51 571.33C86.981 573.517 87.1524 575.815 88 577.9C89.13 581.06 88.1 583.57 86.4 586.29C85.4394 587.524 84.5768 588.831 83.82 590.2C81.6 594.3 80.62 598.89 81.14 605.44C81.56 610.82 86.37 615.89 89.36 617.44C96.72 621.18 108.36 623 114.49 620.44C120.62 617.88 126.62 609.92 127.38 602.53C127.757 599.999 127.297 597.415 126.07 595.17Z" fill="#F79560"/>
<mask id="mask6_690_2" style="mask-type:luminance" maskUnits="userSpaceOnUse" x="81" y="567" width="47" height="55">
<path d="M126.07 595.17C124.3 592.33 121.07 591.24 118.12 590.5C111.605 588.9 104.907 588.164 98.2 588.31C98.2 582.72 98.2 572.31 98.2 572.31V570.31C97.6068 569.26 96.65 568.463 95.51 568.07C92.7 566.98 88.61 567.65 87.51 571.33C86.981 573.517 87.1524 575.815 88 577.9C89.13 581.06 88.1 583.57 86.4 586.29C85.4394 587.524 84.5768 588.831 83.82 590.2C81.6 594.3 80.62 598.89 81.14 605.44C81.56 610.82 86.37 615.89 89.36 617.44C96.72 621.18 108.36 623 114.49 620.44C120.62 617.88 126.62 609.92 127.38 602.53C127.757 599.999 127.297 597.415 126.07 595.17Z" fill="white"/>
</mask>
<g mask="url(#mask6_690_2)">
<path d="M93.3 588.64C96.03 588.33 99.24 588.92 101.12 586.64C102.52 584.95 102.72 582.38 102.63 580.05C102.512 577.257 101.979 574.497 101.05 571.86C100.63 570.66 92.63 564.37 94.22 566.16C96.34 568.54 100.35 584.9 93.3 588.64Z" fill="#EE7F48"/>
<path d="M80.36 598.26C80.92 609.12 90.18 611.56 97.47 613.18C106.57 615.18 114.77 603.84 117.54 597.9C119.29 594.15 120.99 590.14 120.54 585.9C122.72 589.16 125.69 591.53 126.9 595.9C128.11 600.27 127.38 607.25 126.07 611.54C125.173 614.316 123.716 616.879 121.79 619.07C116.24 625.59 107.96 628.95 100.05 627.88C92.14 626.81 84.77 621.35 80.69 613.53C78.45 609.27 81.59 603 80.36 598.26Z" fill="#EE7F48"/>
</g>
<path d="M300.51 593C302.61 590.41 305.92 589.71 308.97 589.36C315.62 588.576 322.344 588.67 328.97 589.64C329.65 584.09 330.97 573.76 330.97 573.79L331.21 571.85C331.946 570.875 333.013 570.202 334.21 569.96C337.13 569.23 341.11 570.4 341.72 574.19C341.941 576.41 341.466 578.643 340.36 580.58C338.85 583.58 339.56 586.19 340.91 589.1C341.712 590.442 342.404 591.847 342.98 593.3C344.68 597.64 345.08 602.3 343.76 608.75C342.67 614.04 337.27 618.48 334.12 619.62C326.35 622.43 314.54 622.78 308.81 619.45C303.08 616.12 298.08 607.45 298.24 600.08C298.213 597.537 299.009 595.053 300.51 593Z" fill="#F79560"/>
<mask id="mask7_690_2" style="mask-type:luminance" maskUnits="userSpaceOnUse" x="298" y="569" width="47" height="53">
<path d="M300.51 593C302.61 590.41 305.92 589.71 308.97 589.36C315.62 588.576 322.344 588.67 328.97 589.64C329.65 584.09 330.97 573.76 330.97 573.79L331.21 571.85C331.946 570.875 333.013 570.202 334.21 569.96C337.13 569.23 341.11 570.4 341.72 574.19C341.941 576.41 341.466 578.643 340.36 580.58C338.85 583.58 339.56 586.19 340.91 589.1C341.712 590.442 342.404 591.847 342.98 593.3C344.68 597.64 345.08 602.3 343.76 608.75C342.67 614.04 337.27 618.48 334.12 619.62C326.35 622.43 314.54 622.78 308.81 619.45C303.08 616.12 298.08 607.45 298.24 600.08C298.213 597.537 299.009 595.053 300.51 593Z" fill="white"/>
</mask>
<g mask="url(#mask7_690_2)">
<path d="M333.84 590.57C331.16 589.93 327.91 590.11 326.32 587.57C325.14 585.72 325.26 583.14 325.64 580.84C326.103 578.084 326.972 575.411 328.22 572.91C328.78 571.77 337.5 566.52 335.7 568.1C333.3 570.25 327.3 586 333.84 590.57Z" fill="#EE7F48"/>
<path d="M345.48 601.72C343.58 612.43 334.09 613.72 326.65 614.4C317.38 615.27 310.65 603 308.65 596.76C307.38 592.83 306.19 588.63 307.18 584.51C304.61 587.51 301.37 589.51 299.64 593.6C297.91 597.69 297.75 604.81 298.52 609.23C299.063 612.096 300.189 614.819 301.83 617.23C306.54 624.39 314.34 628.74 322.32 628.67C330.3 628.6 338.32 624.08 343.32 616.83C346 612.88 343.67 606.27 345.48 601.72Z" fill="#EE7F48"/>
</g>
<path d="M373.28 307.93C367.28 282.08 365.28 258.83 376.67 238.03C365.87 236.44 354.57 242.08 348.67 251.18C331.8 196.51 297.11 167.29 232.27 138.99C222.42 134.69 212.67 129.66 204.73 122.4C196.79 115.14 191.44 103.99 193.38 93.4C184.22 94.32 176.76 101.95 173.73 110.65C170.7 119.35 171.4 128.89 173.1 137.94C174.8 146.99 177.48 155.87 178.33 165.04C180.14 184.55 173.92 201.63 160.41 215.82C156.67 208.82 160.63 200.43 162.64 192.75C166.78 176.85 161.46 161.01 149.35 149.91C150.69 161.41 144.52 172.64 136.35 180.91C128.18 189.18 118.13 195 108.93 202.05C76.23 227.05 57.41 266.1 55.48 307.21C52.11 301.76 49.48 297.07 46.13 291.61C32.31 339.86 46.26 395.05 81.34 430.94C143.77 494.81 280.16 492.84 335.62 422.83C340.443 416.713 344.726 410.189 348.42 403.33C368 375.46 378.84 331.85 373.28 307.93Z" fill="#F89A3A"/>
<mask id="mask8_690_2" style="mask-type:luminance" maskUnits="userSpaceOnUse" x="40" y="93" width="337" height="385">
<path d="M373.28 307.93C367.28 282.08 365.28 258.83 376.67 238.03C365.87 236.44 354.57 242.08 348.67 251.18C331.8 196.51 297.11 167.29 232.27 138.99C222.42 134.69 212.67 129.66 204.73 122.4C196.79 115.14 191.44 103.99 193.38 93.4C184.22 94.32 176.76 101.95 173.73 110.65C170.7 119.35 171.4 128.89 173.1 137.94C174.8 146.99 177.48 155.87 178.33 165.04C180.14 184.55 173.92 201.63 160.41 215.82C156.67 208.82 160.63 200.43 162.64 192.75C166.78 176.85 161.46 161.01 149.35 149.91C150.69 161.41 144.52 172.64 136.35 180.91C128.18 189.18 118.13 195 108.93 202.05C76.23 227.05 57.41 266.1 55.48 307.21C52.11 301.76 49.48 297.07 46.13 291.61C32.31 339.86 46.26 395.05 81.34 430.94C143.77 494.81 280.16 492.84 335.62 422.83C340.443 416.713 344.726 410.189 348.42 403.33C368 375.46 378.84 331.85 373.28 307.93Z" fill="white"/>
</mask>
<g mask="url(#mask8_690_2)">
<path d="M149.39 149.92C155.54 169.19 150.52 188.92 132.03 206.99C117.56 221.13 97.93 241.32 88.19 259.06C42.41 342.42 112.52 400.06 147.3 406.76C169.54 411.04 191.14 395.26 203.24 376.12C211.958 362.096 217.428 346.299 219.248 329.887C221.068 313.475 219.193 296.863 213.76 281.27C224.422 300.328 231.142 321.336 233.52 343.044C235.898 364.752 233.884 386.716 227.6 407.63C243.535 413.254 260.529 415.234 277.33 413.426C294.132 411.617 310.314 406.066 324.688 397.18C339.061 388.293 351.26 376.299 360.388 362.077C369.515 347.855 375.338 331.769 377.43 315C374.16 359.42 370.72 404.59 354.69 446.15C338.66 487.71 307.92 525.88 265.63 539.87C230.5 551.5 192.22 545.36 155.91 538.24C129.26 533 102 527 79.28 512.22C52.87 495 34.84 467.11 23.88 437.55C12.92 407.99 8.39002 376.5 3.93002 345.29C-0.619981 313.51 -4.57998 278.68 12.39 251.43C27 228 53.73 215.64 78.65 203.75C103.57 191.86 137.91 175 149.39 149.92Z" fill="#F58030"/>
<path d="M192.61 90.7C185.39 98.53 185.23 110.97 189.46 120.75C193.69 130.53 201.46 138.24 209.22 145.58C216.98 152.92 224.93 160.38 229.68 169.92C234.43 179.46 235.3 191.71 228.96 200.28C229.65 180.07 210.31 164.02 191.19 157.44C198.55 169.3 196.66 182.81 190.76 195.44C184.86 208.07 174.26 213.85 160.45 215.82C169.86 207.16 168 198.18 168.07 185.39C168.14 172.6 165.07 160.04 163.07 147.39C161.07 134.74 160.27 121.5 164.64 109.48C169.01 97.46 179.84 91.43 192.61 90.7Z" fill="#F58030"/>
<path d="M375.71 239.92C364.64 246.68 360.83 260.71 358.38 273.45C355.93 286.19 357.86 294.11 347.8 302.3C354.215 284.555 354.215 265.125 347.8 247.38C350.11 242.2 352.01 236.76 356.25 233.01C360.49 229.26 366.82 227.33 371.97 229.7C377.12 232.07 380.54 237 375.71 239.92Z" fill="#F58030"/>
</g>
<path d="M118.91 149.72C119.68 144.53 119.28 138.98 116.63 134.44C113.98 129.9 108.75 126.66 103.56 127.44C96.66 128.44 92.37 135.76 91.46 142.67C90.55 149.58 91.97 156.6 91.39 163.55C90.49 174.27 80.99 187.44 99.75 177C109.69 171.47 117.26 161 118.91 149.72Z" fill="#F89A3A"/>
<path d="M343.32 375C343.12 448.77 330.47 508.26 208.24 508.26C92.69 508.28 73.16 447.8 73.16 373.2C73.159 338.454 86.5469 305.044 110.541 279.914C134.536 254.783 167.291 239.865 202 238.26C279.29 234.74 343.53 297.65 343.32 375.02" fill="#E74F4E"/>
<mask id="mask9_690_2" style="mask-type:luminance" maskUnits="userSpaceOnUse" x="73" y="238" width="271" height="271">
<path d="M343.32 375C343.12 448.77 330.47 508.26 208.24 508.26C92.69 508.28 73.16 447.8 73.16 373.2C73.159 338.454 86.5469 305.044 110.541 279.914C134.536 254.783 167.291 239.865 202 238.26C279.29 234.74 343.53 297.65 343.32 375.02" fill="white"/>
</mask>
<g mask="url(#mask9_690_2)">
<path d="M237.65 506.57C215.65 504.17 193.5 501.73 172.22 495.63C150.94 489.53 130.34 479.49 114.77 463.75C97.51 446.3 87.38 422.75 82.77 398.64C78.16 374.53 78.71 349.75 80.46 325.27C69.78 366.79 64.94 409.91 75.4 451.49C81.56 476 92.46 501 113.46 515.08C130.06 526.21 151 529.08 170.96 527.98C195 526.69 216.35 517.85 237.65 506.57Z" fill="#D83A3A"/>
</g>
<path d="M143.89 411C164.275 411 180.8 391.184 180.8 366.74C180.8 342.296 164.275 322.48 143.89 322.48C123.505 322.48 106.98 342.296 106.98 366.74C106.98 391.184 123.505 411 143.89 411Z" fill="white"/>
<mask id="mask10_690_2" style="mask-type:luminance" maskUnits="userSpaceOnUse" x="106" y="322" width="75" height="89">
<path d="M143.89 411C164.275 411 180.8 391.184 180.8 366.74C180.8 342.296 164.275 322.48 143.89 322.48C123.505 322.48 106.98 342.296 106.98 366.74C106.98 391.184 123.505 411 143.89 411Z" fill="white"/>
</mask>
<g mask="url(#mask10_690_2)">
<path d="M143.89 419.27C158.316 419.27 170.01 405.248 170.01 387.95C170.01 370.652 158.316 356.63 143.89 356.63C129.464 356.63 117.77 370.652 117.77 387.95C117.77 405.248 129.464 419.27 143.89 419.27Z" fill="#28110C"/>
<path d="M126.16 376.75C130.794 376.75 134.55 372.246 134.55 366.69C134.55 361.134 130.794 356.63 126.16 356.63C121.526 356.63 117.77 361.134 117.77 366.69C117.77 372.246 121.526 376.75 126.16 376.75Z" fill="white"/>
</g>
<path d="M272.6 411C292.985 411 309.51 391.184 309.51 366.74C309.51 342.296 292.985 322.48 272.6 322.48C252.215 322.48 235.69 342.296 235.69 366.74C235.69 391.184 252.215 411 272.6 411Z" fill="white"/>
<mask id="mask11_690_2" style="mask-type:luminance" maskUnits="userSpaceOnUse" x="235" y="322" width="75" height="89">
<path d="M272.6 411C292.985 411 309.51 391.184 309.51 366.74C309.51 342.296 292.985 322.48 272.6 322.48C252.215 322.48 235.69 342.296 235.69 366.74C235.69 391.184 252.215 411 272.6 411Z" fill="white"/>
</mask>
<g mask="url(#mask11_690_2)">
<path d="M272.6 419.27C287.026 419.27 298.72 405.248 298.72 387.95C298.72 370.652 287.026 356.63 272.6 356.63C258.174 356.63 246.48 370.652 246.48 387.95C246.48 405.248 258.174 419.27 272.6 419.27Z" fill="#28110C"/>
<path d="M254.87 376.75C259.504 376.75 263.26 372.246 263.26 366.69C263.26 361.134 259.504 356.63 254.87 356.63C250.236 356.63 246.48 361.134 246.48 366.69C246.48 372.246 250.236 376.75 254.87 376.75Z" fill="white"/>
</g>
<path d="M208.24 437.88C191.305 437.869 174.444 435.637 158.09 431.24C150 429.07 144.84 444.36 150.51 453.71C165.05 477.71 185.51 492.64 208.24 492.64C230.97 492.64 251.44 477.7 265.97 453.71C271.64 444.36 266.48 429.07 258.39 431.24C242.036 435.638 225.175 437.871 208.24 437.88Z" fill="#6D0F0F"/>
<path d="M208.24 461.84C247.67 461.84 257.82 441.3 260.43 431.09C259.76 431.022 259.083 431.073 258.43 431.24C225.583 440.094 190.977 440.094 158.13 431.24C157.149 430.961 156.111 430.961 155.13 431.24C157.85 441.51 168.38 461.84 208.24 461.84Z" fill="white"/>
<path d="M178.45 483.55C187.212 489.448 197.528 492.612 208.091 492.64C218.653 492.669 228.986 489.561 237.78 483.71C229.25 474.79 219.03 469.58 208.03 469.58C197.03 469.58 186.94 474.73 178.45 483.55Z" fill="#F26E6F"/>
<path d="M119.33 293.77C123.985 288.389 129.752 284.083 136.233 281.147C142.714 278.212 149.755 276.719 156.87 276.77" stroke="#28110C" stroke-width="9" stroke-linecap="round" stroke-linejoin="round"/>
<path d="M297.15 293.77C292.496 288.39 286.731 284.085 280.251 281.15C273.772 278.215 266.733 276.72 259.62 276.77" stroke="#28110C" stroke-width="9" stroke-linecap="round" stroke-linejoin="round"/>
</g>
<defs>
<filter id="filter0_d_690_2" x="323.505" y="45.4231" width="179.415" height="168.957" filterUnits="userSpaceOnUse" color-interpolation-filters="sRGB">
<feFlood flood-opacity="0" result="BackgroundImageFix"/>
<feColorMatrix in="SourceAlpha" type="matrix" values="0 0 0 0 0 0 0 0 0 0 0 0 0 0 0 0 0 0 127 0" result="hardAlpha"/>
<feOffset/>
<feGaussianBlur stdDeviation="18"/>
<feColorMatrix type="matrix" values="0 0 0 0 1 0 0 0 0 0.792157 0 0 0 0 0.109804 0 0 0 1 0"/>
<feBlend mode="normal" in2="BackgroundImageFix" result="effect1_dropShadow_690_2"/>
<feBlend mode="normal" in="SourceGraphic" in2="effect1_dropShadow_690_2" result="shape"/>
</filter>
<radialGradient id="paint0_radial_690_2" cx="0" cy="0" r="1" gradientUnits="userSpaceOnUse" gradientTransform="translate(425.243 135.563) rotate(39.02) scale(75.0772 70.8492)">
<stop stop-color="#FFC840"/>
<stop offset="0.18" stop-color="#FFCF4E" stop-opacity="0.83"/>
<stop offset="0.6" stop-color="#FEE16F" stop-opacity="0.42"/>
<stop offset="1" stop-color="#FEF492" stop-opacity="0"/>
</radialGradient>
<clipPath id="clip0_690_2">
<rect width="520.91" height="696.12" fill="white"/>
</clipPath>
</defs>
</svg>
