<?xml version="1.0" encoding="UTF-8"?>
<!DOCTYPE svg PUBLIC "-//W3C//DTD SVG 1.1//EN" "http://www.w3.org/Graphics/SVG/1.1/DTD/svg11.dtd">
<svg xmlns="http://www.w3.org/2000/svg" version="1.1" width="177px" height="100px" style="shape-rendering:geometricPrecision; text-rendering:geometricPrecision; image-rendering:optimizeQuality; fill-rule:evenodd; clip-rule:evenodd" xmlns:xlink="http://www.w3.org/1999/xlink">
<g><path style="opacity:0.97" fill="#e84d4d" d="M 23.5,-0.5 C 24.1667,-0.5 24.8333,-0.5 25.5,-0.5C 29.811,1.6467 32.9777,4.98004 35,9.5C 35.4687,14.926 34.9687,20.2594 33.5,25.5C 34.552,25.6495 35.552,25.4828 36.5,25C 37.8889,23.0429 39.3889,21.2096 41,19.5C 45.7667,22.27 49.1,26.27 51,31.5C 54.9685,45.2983 52.4685,57.6316 43.5,68.5C 42.8333,68.5 42.5,68.8333 42.5,69.5C 42.5,70.1667 42.1667,70.5 41.5,70.5C 41.5654,70.0618 41.3988,69.7284 41,69.5C 39.1879,70.9771 37.3545,72.3104 35.5,73.5C 17.5214,77.1847 5.52136,70.5181 -0.5,53.5C -0.5,46.8333 -0.5,40.1667 -0.5,33.5C 0.792465,30.2632 2.6258,27.2632 5,24.5C 6.37667,26.7538 7.87667,28.9205 9.5,31C 10.7839,31.6838 11.9505,31.5171 13,30.5C 11.9183,26.9767 11.5849,23.3101 12,19.5C 14.2823,14.8841 17.6156,11.2174 22,8.5C 23.1488,5.6074 23.6488,2.6074 23.5,-0.5 Z"/></g>
<g><path style="opacity:1" fill="#eae9e9" d="M 13.5,45.5 C 15.1765,46.1834 15.8432,47.5168 15.5,49.5C 13.5168,49.8432 12.1834,49.1765 11.5,47.5C 11.8333,46.5 12.5,45.8333 13.5,45.5 Z"/></g>
<g><path style="opacity:1" fill="#19100f" d="M 13.5,45.5 C 15.7569,44.1974 17.5902,44.864 19,47.5C 20.0259,52.9762 17.8592,55.1428 12.5,54C 10.5822,51.8912 10.2488,49.7246 11.5,47.5C 12.1834,49.1765 13.5168,49.8432 15.5,49.5C 15.8432,47.5168 15.1765,46.1834 13.5,45.5 Z"/></g>
<g><path style="opacity:1" fill="#d9d7d7" d="M 34.5,45.5 C 35.5,45.5 36.5,45.5 37.5,45.5C 37.6162,48.9103 35.9496,50.2436 32.5,49.5C 32.2291,47.6203 32.8958,46.287 34.5,45.5 Z"/></g>
<g><path style="opacity:1" fill="#190f0e" d="M 34.5,45.5 C 39.8393,44.368 41.6726,46.7013 40,52.5C 38.1917,54.3959 36.025,54.8959 33.5,54C 32.6198,52.6439 32.2865,51.1439 32.5,49.5C 35.9496,50.2436 37.6162,48.9103 37.5,45.5C 36.5,45.5 35.5,45.5 34.5,45.5 Z"/></g>
<g><path style="opacity:0.95" fill="#f6945f" d="M 114.5,99.5 C 112.167,99.5 109.833,99.5 107.5,99.5C 106.878,98.3734 106.045,97.3734 105,96.5C 104.667,88.8333 104.333,81.1667 104,73.5C 98.4169,88.1242 91.2502,89.1242 82.5,76.5C 72.6998,88.9261 62.1998,89.5928 51,78.5C 42.5713,82.2423 39.4046,79.5756 41.5,70.5C 42.1667,70.5 42.5,70.1667 42.5,69.5C 43.1667,69.5 43.5,69.1667 43.5,68.5C 45.1667,68.5 46.8333,68.5 48.5,68.5C 50.4236,55.1914 58.0902,49.6914 71.5,52C 73.9602,52.3961 75.9602,53.5628 77.5,55.5C 78.2868,54.7579 78.9535,53.9246 79.5,53C 83.1516,52.5014 86.8183,52.3347 90.5,52.5C 92.1667,80.5 93.8333,80.5 95.5,52.5C 104.029,52.9266 112.696,53.0933 121.5,53C 123.624,54.1217 125.457,55.6217 127,57.5C 134.753,49.9336 142.92,49.6003 151.5,56.5C 157.708,51.3066 164.708,50.1399 172.5,53C 175.349,55.5594 176.183,58.7261 175,62.5C 172.128,65.0366 169.628,67.8699 167.5,71C 172.042,70.3303 174.709,72.1637 175.5,76.5C 174.968,78.7411 173.635,80.2411 171.5,81C 165.606,82.0375 159.939,81.3708 154.5,79C 152.951,77.786 151.785,76.286 151,74.5C 150.907,77.0075 150.074,79.1741 148.5,81C 141.845,83.4199 135.512,82.7533 129.5,79C 128.874,78.2496 128.374,77.4162 128,76.5C 125.297,79.9339 121.797,81.9339 117.5,82.5C 117.666,87.1785 117.499,91.8452 117,96.5C 116.302,97.6906 115.469,98.6906 114.5,99.5 Z M 137.5,60.5 C 138.552,60.3505 139.552,60.5172 140.5,61C 137.202,65.5887 136.202,65.4221 137.5,60.5 Z M 161.5,60.5 C 162.552,60.3505 163.552,60.5172 164.5,61C 161.202,65.5887 160.202,65.4221 161.5,60.5 Z M 65.5,62.5 C 71.9889,64.9166 73.3223,68.7499 69.5,74C 62.5619,76.0597 59.7286,73.5597 61,66.5C 62.3968,64.9297 63.8968,63.5964 65.5,62.5 Z M 117.5,63.5 C 119.586,64.1485 120.586,65.6485 120.5,68C 120.612,69.6624 119.946,70.8291 118.5,71.5C 117.52,68.9135 117.187,66.2469 117.5,63.5 Z M 149.5,72.5 C 147.586,71.8153 145.586,71.3153 143.5,71C 144.622,68.8762 146.122,67.0429 148,65.5C 148.44,67.8659 148.94,70.1992 149.5,72.5 Z"/></g>
<g><path style="opacity:0.904" fill="#f6945f" d="M 9.5,72.5 C 15.746,72.5129 18.246,75.5129 17,81.5C 16.5,82.6667 15.6667,83.5 14.5,84C 7,85.8333 4.16667,83 6,75.5C 7.14508,74.3636 8.31174,73.3636 9.5,72.5 Z"/></g>
<g><path style="opacity:0.958" fill="#f6945f" d="M 35.5,73.5 C 36.5,73.5 37.5,73.5 38.5,73.5C 39.8979,81.1417 37.8979,87.6417 32.5,93C 27.1769,94.6675 22.1769,96.8341 17.5,99.5C 16.5,99.5 15.5,99.5 14.5,99.5C 14.4513,93.5765 15.618,87.9098 18,82.5C 23.6634,79.0126 29.4967,76.0126 35.5,73.5 Z"/></g>
</svg>
