<svg width="292" height="250" viewBox="0 0 292 250" fill="none" xmlns="http://www.w3.org/2000/svg">
<g clip-path="url(#clip0_300_3)">
<path opacity="0.3" d="M230.423 135.978C230.423 135.846 230.432 135.718 230.432 135.586C230.443 117.719 224.353 100.163 214.129 85.8105C214.126 85.8065 214.124 85.8018 214.121 85.7978C209.607 79.4629 204.287 73.7601 198.322 68.9304C198.323 68.9288 198.325 68.9273 198.327 68.9249C198.122 68.7591 197.913 68.6005 197.707 68.4371C196.931 67.8217 196.145 67.2214 195.349 66.6361C195.004 66.3823 194.659 66.1302 194.311 65.8819C193.809 65.5251 193.305 65.1706 192.796 64.8264C192.138 64.3823 191.474 63.9485 190.804 63.525C190.291 63.2006 189.772 62.8866 189.252 62.5749C188.866 62.3433 188.476 62.1181 188.086 61.8937C187.273 61.4266 186.453 60.9745 185.623 60.5384C185.23 60.3314 184.836 60.126 184.439 59.9261C183.82 59.6145 183.198 59.3099 182.57 59.0157C181.935 58.7183 181.296 58.4273 180.652 58.1481C180.085 57.9023 179.515 57.6683 178.943 57.4375C178.549 57.2789 178.153 57.1282 177.758 56.9768C176.841 56.6262 175.918 56.2947 174.986 55.9823C174.603 55.8538 174.219 55.7269 173.834 55.6056C172.879 55.3042 171.916 55.0266 170.946 54.7657C170.557 54.6611 170.17 54.5524 169.778 54.4549C169.15 54.2978 168.519 54.1535 167.886 54.0139C167.521 53.9338 167.153 53.8617 166.787 53.7871C162.421 52.9037 157.935 52.4167 153.343 52.4278C110.579 52.3255 76.2265 93.1137 76.2535 135.585C76.2535 135.717 76.2622 135.845 76.263 135.977C76.2622 136.109 76.2535 136.24 76.2535 136.372C76.2527 137.108 76.2876 137.83 76.3074 138.558C76.2876 139.29 76.2535 140.02 76.2535 140.753C76.2416 158.856 82.433 174.347 92.8108 186.209C92.7981 186.243 92.7854 186.278 92.7728 186.312C92.5491 186.907 92.3175 187.5 92.0979 188.096C91.9765 188.424 91.8615 188.755 91.7418 189.084C91.4301 189.938 91.1256 190.795 90.8211 191.65C90.7703 191.793 90.718 191.936 90.6672 192.079C90.6648 192.086 90.6617 192.094 90.6593 192.101C90.5007 192.55 90.3349 192.997 90.1779 193.447C90.0915 193.695 90.0098 193.944 89.9233 194.192C89.9209 194.194 89.9186 194.195 89.9162 194.196C89.848 194.392 89.7853 194.589 89.7171 194.785C89.4864 195.455 89.2643 196.129 89.0383 196.8C88.9526 197.054 88.8662 197.308 88.7813 197.563C88.641 197.983 88.495 198.402 88.3563 198.823C88.3404 198.87 88.3237 198.918 88.3087 198.966C88.2072 199.275 88.1128 199.585 88.0121 199.894C87.7797 200.608 87.5537 201.324 87.3269 202.039C87.1254 202.675 86.9185 203.309 86.721 203.945C86.6924 204.039 86.6623 204.131 86.6337 204.225C86.5299 204.56 86.4331 204.897 86.3308 205.232C86.1286 205.895 85.9295 206.558 85.7321 207.222C85.5449 207.848 85.3561 208.475 85.1737 209.102C85.1198 209.287 85.0635 209.471 85.0104 209.655C84.9128 209.991 84.8216 210.329 84.7257 210.666C84.5615 211.242 84.3981 211.818 84.2364 212.394C84.0595 213.027 83.8834 213.659 83.7106 214.293C83.636 214.566 83.5567 214.839 83.483 215.113C83.3918 215.449 83.3077 215.786 83.2181 216.123C83.0888 216.607 82.9588 217.091 82.8319 217.575C82.6622 218.224 82.4972 218.873 82.3322 219.522C82.2418 219.877 82.1459 220.232 82.0563 220.587C81.9714 220.925 81.8929 221.264 81.8088 221.602C81.7129 221.991 81.6129 222.379 81.5178 222.767C81.3536 223.443 81.1974 224.119 81.0372 224.795C80.9357 225.223 80.8286 225.649 80.7287 226.077C80.6581 226.38 80.5939 226.683 80.5249 226.986C80.2846 228.032 80.0538 229.081 79.8246 230.129C79.7183 230.617 79.6049 231.103 79.5003 231.592C79.4551 231.803 79.4138 232.013 79.3694 232.224C79.3226 232.446 79.2711 232.669 79.2243 232.891C79.2266 232.89 79.229 232.887 79.2314 232.886C79.0665 233.674 78.9102 234.464 78.7516 235.253C78.6271 235.872 78.4947 236.491 78.3733 237.111C78.3059 237.455 78.2456 237.801 78.1798 238.145C78.0125 239.021 77.8523 239.897 77.6929 240.774C77.5858 241.36 77.4693 241.947 77.3654 242.534L77.3677 242.533C77.3543 242.61 77.3384 242.686 77.3249 242.763C77.3289 242.762 77.3328 242.761 77.3368 242.759C77.2305 243.366 77.114 243.971 77.0109 244.579C86.5164 241.048 96.0782 238.114 105.666 235.778C113.728 240.608 121.94 245.343 130.278 250C130.455 248.982 130.649 247.966 130.839 246.951C130.892 246.668 130.946 246.386 131 246.104C131.097 245.598 131.191 245.092 131.29 244.587C131.436 243.853 131.587 243.119 131.739 242.387C131.799 242.094 131.861 241.802 131.923 241.509C132.026 241.017 132.127 240.524 132.234 240.032C132.393 239.301 132.558 238.572 132.723 237.842C132.789 237.547 132.858 237.253 132.926 236.959C133.038 236.47 133.148 235.981 133.264 235.494C133.435 234.769 133.613 234.045 133.792 233.322C133.867 233.015 133.945 232.709 134.021 232.403C134.14 231.929 134.256 231.453 134.377 230.979C134.562 230.26 134.752 229.543 134.943 228.826C135.031 228.496 135.121 228.165 135.211 227.835C135.332 227.387 135.45 226.939 135.574 226.491C135.772 225.776 135.977 225.062 136.181 224.349C136.275 224.02 136.371 223.693 136.466 223.365C136.596 222.919 136.723 222.472 136.855 222.027C137.068 221.312 137.287 220.6 137.506 219.888C137.604 219.567 137.705 219.246 137.805 218.925C137.943 218.481 138.079 218.036 138.219 217.593C138.445 216.882 138.677 216.175 138.909 215.466C139.017 215.137 139.127 214.809 139.237 214.48C139.362 214.102 139.486 213.724 139.614 213.347C139.874 212.58 140.14 211.814 140.407 211.049C140.409 211.049 140.411 211.049 140.412 211.05C140.435 210.985 140.459 210.921 140.482 210.856C144.664 211.443 148.955 211.766 153.341 211.776C157.728 211.766 162.02 211.443 166.201 210.856C166.224 210.921 166.247 210.985 166.27 211.05C166.272 211.05 166.274 211.05 166.275 211.049C166.541 211.809 166.806 212.569 167.063 213.332C167.229 213.822 167.39 214.313 167.553 214.803C167.626 215.025 167.7 215.245 167.772 215.467C168.002 216.167 168.232 216.867 168.454 217.569C168.63 218.12 168.799 218.674 168.971 219.226C169.04 219.448 169.109 219.669 169.177 219.89C169.394 220.597 169.611 221.303 169.822 222.011C169.985 222.561 170.143 223.112 170.302 223.664C170.367 223.889 170.433 224.112 170.497 224.337C170.702 225.05 170.906 225.762 171.104 226.477C171.254 227.018 171.397 227.56 171.543 228.102C171.608 228.342 171.673 228.58 171.737 228.82C171.927 229.535 172.118 230.251 172.302 230.969C172.44 231.505 172.572 232.043 172.706 232.58C172.768 232.827 172.83 233.075 172.892 233.322C173.069 234.042 173.246 234.762 173.417 235.483C173.543 236.018 173.664 236.555 173.787 237.091C173.845 237.341 173.903 237.592 173.96 237.842C174.125 238.57 174.289 239.297 174.447 240.025C174.564 240.565 174.675 241.106 174.789 241.647C174.84 241.892 174.892 242.136 174.943 242.381C175.095 243.114 175.246 243.847 175.391 244.581C175.497 245.115 175.597 245.652 175.699 246.187C175.747 246.44 175.797 246.693 175.843 246.946C176.034 247.963 176.228 248.979 176.406 249.999C184.744 245.342 192.956 240.606 201.017 235.777C210.605 238.113 220.167 241.047 229.672 244.578C229.569 243.971 229.454 243.365 229.346 242.759C229.35 242.76 229.354 242.761 229.358 242.762C229.345 242.686 229.329 242.609 229.316 242.533L229.318 242.533C229.214 241.946 229.097 241.36 228.99 240.773C228.829 239.893 228.669 239.014 228.501 238.135C228.436 237.796 228.377 237.457 228.311 237.118C228.19 236.498 228.057 235.879 227.932 235.259C227.773 234.468 227.617 233.676 227.452 232.885C227.454 232.887 227.457 232.889 227.458 232.891C227.411 232.665 227.359 232.439 227.312 232.214C227.268 232.009 227.228 231.803 227.184 231.599C227.079 231.109 226.965 230.619 226.858 230.129C226.628 229.076 226.396 228.023 226.154 226.971C226.087 226.678 226.024 226.383 225.956 226.089C225.855 225.654 225.746 225.22 225.643 224.785C225.484 224.115 225.33 223.445 225.167 222.777C225.07 222.379 224.968 221.984 224.871 221.587C224.789 221.258 224.713 220.928 224.63 220.599C224.539 220.235 224.441 219.873 224.348 219.509C224.185 218.868 224.022 218.226 223.854 217.586C223.725 217.092 223.593 216.601 223.461 216.108C223.374 215.781 223.292 215.452 223.204 215.125C223.127 214.844 223.047 214.564 222.97 214.283C222.799 213.657 222.625 213.03 222.45 212.404C222.287 211.819 222.121 211.236 221.954 210.653C221.861 210.326 221.773 209.998 221.678 209.671C221.623 209.479 221.564 209.287 221.508 209.094C221.326 208.469 221.138 207.846 220.951 207.222C220.752 206.555 220.552 205.888 220.349 205.223C220.249 204.895 220.155 204.567 220.054 204.24C220.023 204.139 219.991 204.039 219.96 203.938C219.763 203.303 219.557 202.672 219.356 202.039C219.13 201.324 218.904 200.609 218.672 199.896C218.571 199.585 218.475 199.272 218.374 198.961C218.36 198.919 218.345 198.877 218.331 198.834C218.187 198.394 218.034 197.955 217.887 197.516C217.806 197.275 217.724 197.034 217.643 196.793C217.419 196.126 217.198 195.457 216.969 194.791C216.9 194.593 216.837 194.394 216.768 194.197C216.766 194.195 216.763 194.194 216.761 194.192C216.676 193.946 216.594 193.699 216.509 193.454C216.295 192.842 216.071 192.233 215.854 191.623C215.553 190.779 215.253 189.934 214.945 189.093C214.825 188.763 214.71 188.432 214.589 188.102C214.363 187.492 214.127 186.887 213.899 186.279C213.89 186.256 213.881 186.232 213.872 186.209C224.25 174.347 230.441 158.856 230.43 140.753C230.431 140.02 230.396 139.289 230.376 138.558C230.396 137.83 230.43 137.108 230.43 136.372C230.432 136.241 230.423 136.11 230.423 135.978Z" fill="#0054CA"/>
<path d="M176.343 248.834C172.084 224.561 164.182 201.152 152.865 179.272C169.185 171.351 185.506 163.429 201.827 155.508C215.247 181.457 224.619 209.219 229.671 238.005C220.108 235.965 210.521 234.245 200.929 232.841C192.863 238.454 184.663 243.787 176.343 248.834Z" fill="#FF9728"/>
<path d="M176.077 247.346C171.669 223.109 163.622 199.749 152.166 177.931C168.443 169.927 184.72 161.922 200.997 153.918C214.584 179.793 224.126 207.496 229.354 236.24C219.777 234.251 210.176 232.583 200.572 231.231C192.539 236.884 184.368 242.257 176.077 247.346Z" fill="#FFFFB6"/>
<path d="M176.042 247.158C171.615 222.925 163.55 199.571 152.076 177.762C168.348 169.746 184.619 161.732 200.891 153.716C214.499 179.582 224.062 207.278 229.313 236.017C219.733 234.035 210.132 232.373 200.526 231.027C192.497 236.685 184.33 242.064 176.042 247.158Z" fill="#FFFF50"/>
<path d="M170.759 224.453C178.128 228.083 185.409 232.104 192.564 236.516C193.249 236.054 193.932 235.591 194.614 235.126C186.532 230.136 178.291 225.644 169.944 221.646C170.221 222.58 170.493 223.516 170.759 224.453Z" fill="#FFE123"/>
<path d="M167.325 213.378C178.721 218.387 189.956 224.284 200.903 231.079C207.1 231.952 213.295 232.958 219.484 234.096C201.718 221.744 183.056 211.811 164.055 204.265C165.206 207.281 166.296 210.32 167.325 213.378Z" fill="#FFE123"/>
<path d="M227.444 226.659C224.7 214.019 221.113 201.6 216.707 189.472C200.925 181.308 184.773 174.715 168.529 169.657C163.045 172.358 157.56 175.06 152.077 177.761C154.555 182.471 156.874 187.254 159.032 192.101C182.477 200.124 205.607 211.619 227.444 226.659Z" fill="#FFE123"/>
<path d="M130.343 248.834C134.603 224.561 142.505 201.152 153.822 179.272C137.502 171.351 121.181 163.429 104.86 155.508C91.4395 181.457 82.068 209.219 77.0163 238.005C86.5789 235.965 96.1661 234.245 105.758 232.841C113.823 238.454 122.024 243.787 130.343 248.834Z" fill="#FF9728"/>
<path d="M130.609 247.346C135.017 223.109 143.064 199.749 154.52 177.931C138.243 169.927 121.966 161.922 105.689 153.918C92.1023 179.793 82.5603 207.496 77.3317 236.241C86.9094 234.252 96.5101 232.583 106.114 231.231C114.148 236.884 122.318 242.257 130.609 247.346Z" fill="#FFFFB6"/>
<path d="M130.643 247.158C135.071 222.925 143.136 199.571 154.609 177.762C138.338 169.746 122.067 161.732 105.795 153.716C92.1876 179.582 82.6234 207.278 77.3726 236.017C86.9527 234.035 96.5541 232.373 106.16 231.027C114.189 236.685 122.357 242.064 130.643 247.158Z" fill="#FFFF50"/>
<path d="M135.928 224.453C128.559 228.084 121.278 232.104 114.123 236.516C113.439 236.055 112.756 235.591 112.073 235.126C120.155 230.136 128.396 225.644 136.743 221.646C136.466 222.58 136.194 223.516 135.928 224.453Z" fill="#FFE123"/>
<path d="M139.361 213.379C127.966 218.387 116.731 224.285 105.784 231.079C99.5866 231.953 93.3921 232.958 87.2031 234.096C104.967 221.744 123.63 211.811 142.632 204.265C141.481 207.281 140.391 210.32 139.361 213.379Z" fill="#FFE123"/>
<path d="M79.2427 226.659C81.9867 214.019 85.5737 201.6 89.9799 189.472C105.762 181.308 121.914 174.715 138.158 169.657C143.642 172.358 149.126 175.06 154.61 177.761C152.132 182.471 149.813 187.254 147.655 192.101C124.209 200.124 101.08 211.619 79.2427 226.659Z" fill="#FFE123"/>
<path opacity="0.24" d="M200.891 153.716C185.042 161.523 169.192 169.331 153.343 177.138C137.493 169.331 121.644 161.523 105.795 153.716C100.038 164.66 95.0132 175.934 90.7236 187.473C104.378 199.515 121.522 207.676 140.453 210.254C144.067 199.985 148.365 189.955 153.343 180.225C158.321 189.954 162.619 199.985 166.233 210.254C185.163 207.676 202.308 199.515 215.962 187.473C211.673 175.934 206.648 164.66 200.891 153.716Z" fill="#FF7200"/>
<path d="M153.342 211.15C195.918 211.15 230.432 176.636 230.432 134.061C230.432 91.4857 195.918 56.9717 153.342 56.9717C110.767 56.9717 76.2531 91.4857 76.2531 134.061C76.2531 176.636 110.767 211.15 153.342 211.15Z" fill="#FFAA00"/>
<path d="M207.85 184.189C237.955 154.084 237.955 105.274 207.85 75.1695C177.745 45.0645 128.935 45.0645 98.8298 75.1695C68.7248 105.274 68.7248 154.084 98.8298 184.189C128.935 214.294 177.745 214.294 207.85 184.189Z" fill="#FFFF93"/>
<path d="M153.342 205.982C195.918 205.982 230.432 171.468 230.432 128.893C230.432 86.3173 195.918 51.8032 153.342 51.8032C110.767 51.8032 76.2531 86.3173 76.2531 128.893C76.2531 171.468 110.767 205.982 153.342 205.982Z" fill="#FFE600"/>
<path d="M218.1 87.0903C216.834 85.1338 215.482 83.24 214.05 81.4104L105.861 189.6C107.69 191.032 109.584 192.384 111.54 193.649L218.1 87.0903Z" fill="#FFC900"/>
<path d="M90.6936 173.786L198.237 66.2424C188.662 59.369 177.459 54.6242 165.304 52.7303L77.1816 140.853C79.0747 153.008 83.8203 164.211 90.6936 173.786Z" fill="#FFC900"/>
<path d="M230.258 123.937C229.655 114.445 227.332 105.426 223.602 97.1755L121.626 199.152C129.877 202.882 138.896 205.205 148.387 205.808L230.258 123.937Z" fill="#FFC900"/>
<path d="M153.343 192.79C188.062 192.79 216.207 164.645 216.207 129.926C216.207 95.2068 188.062 67.0614 153.343 67.0614C118.624 67.0614 90.4784 95.2068 90.4784 129.926C90.4784 164.645 118.624 192.79 153.343 192.79Z" fill="#FFFF50"/>
<path d="M153.343 191.757C188.062 191.757 216.207 163.611 216.207 128.892C216.207 94.1734 188.062 66.028 153.343 66.028C118.624 66.028 90.4784 94.1734 90.4784 128.892C90.4784 163.611 118.624 191.757 153.343 191.757Z" fill="#FF8C00"/>
<path d="M153.343 188.194C119.221 188.194 91.469 161.005 90.5229 127.111C90.5062 127.704 90.4777 128.295 90.4777 128.893C90.4777 163.612 118.623 191.758 153.342 191.758C188.061 191.758 216.206 163.612 216.206 128.893C216.206 128.295 216.178 127.705 216.161 127.111C215.217 161.004 187.465 188.194 153.343 188.194Z" fill="#FF6A00"/>
<mask id="mask0_300_3" style="mask-type:luminance" maskUnits="userSpaceOnUse" x="-25" y="0" width="318" height="192">
<path d="M-25 92.373C-25 104.092 93.6841 151.581 99.268 160.973C110.227 179.405 130.342 191.757 153.342 191.757C180.963 191.757 204.423 173.945 212.861 149.18C215.03 142.815 292.174 115.051 292.174 107.952C292.174 73.2327 188.062 0 153.342 0C118.623 0 -25 57.654 -25 92.373Z" fill="white"/>
</mask>
<g mask="url(#mask0_300_3)">
<path d="M109.929 -1.4558L151.22 196.595L125.917 -4.08793L109.929 -1.4558ZM14.6052 50.1377L151.22 196.595L26.6778 39.1016L14.6052 50.1377ZM83.63 6.07977L151.22 196.595L99.0747 1.1581L83.63 6.07977ZM35.4957 32.1299L151.22 196.595L48.9625 22.967L35.4957 32.1299ZM58.6528 17.349L151.22 196.595L73.2577 10.2369L58.6528 17.349ZM-3.60724 71.0172L151.22 196.595L6.83486 58.3284L-3.60724 71.0172ZM287.124 53.1585L151.22 196.595L298.319 65.4539L287.124 53.1585ZM266.151 34.6883L151.22 196.595L278.871 45.2692L266.151 34.6883ZM137.034 -5.10066L151.22 196.595L153.256 -5.40361L137.034 -5.10066ZM242.918 19.3903L151.22 196.595L256.919 28.0505L242.918 19.3903ZM164.425 -4.8001L151.22 196.596L180.55 -2.75244L164.425 -4.8001ZM191.55 -0.550135L151.221 196.595L207.275 3.80451L191.55 -0.550135ZM217.885 7.57388L151.22 196.595L232.9 14.1396L217.885 7.57388Z" fill="url(#paint0_radial_300_3)"/>
</g>
<mask id="mask1_300_3" style="mask-type:luminance" maskUnits="userSpaceOnUse" x="-25" y="0" width="318" height="192">
<path d="M-25 92.373C-25 104.092 93.6841 151.581 99.268 160.973C110.227 179.405 130.342 191.757 153.342 191.757C180.963 191.757 204.423 173.945 212.861 149.18C215.03 142.815 292.174 115.051 292.174 107.952C292.174 73.2327 188.062 0 153.342 0C118.623 0 -25 57.654 -25 92.373Z" fill="white"/>
</mask>
<g mask="url(#mask1_300_3)">
<path d="M177.439 128.669C180.852 127.867 182.968 124.45 182.166 121.037C181.364 117.624 177.947 115.508 174.535 116.31C171.122 117.112 169.006 120.529 169.808 123.942C170.61 127.355 174.027 129.471 177.439 128.669Z" fill="#FEB064"/>
<path d="M175.979 126.897C178.41 126.897 180.381 124.926 180.381 122.495C180.381 120.063 178.41 118.092 175.979 118.092C173.547 118.092 171.576 120.063 171.576 122.495C171.576 124.926 173.547 126.897 175.979 126.897Z" fill="#FE934F"/>
<path d="M130.923 128.762C134.385 128.211 136.745 124.957 136.193 121.495C135.642 118.033 132.389 115.673 128.927 116.224C125.465 116.775 123.105 120.029 123.656 123.491C124.207 126.953 127.46 129.313 130.923 128.762Z" fill="#FEB064"/>
<path d="M129.915 126.774C132.279 126.774 134.195 124.858 134.195 122.494C134.195 120.13 132.279 118.214 129.915 118.214C127.551 118.214 125.635 120.13 125.635 122.494C125.635 124.858 127.551 126.774 129.915 126.774Z" fill="#FE934F"/>
<path d="M136.237 152.663C136.237 152.663 116.863 161.601 116.441 195.391C131.944 209.542 132.499 192.946 132.499 192.946L135.429 182.049" fill="#28242C"/>
<path d="M129.907 179.047L128.01 163.471C128.01 163.471 120.197 176.02 122.672 199.148C128.479 202.656 132.499 192.947 132.499 192.947L131.159 186.298L129.907 179.047Z" fill="#141516"/>
<path d="M170.567 152.663C170.567 152.663 189.941 161.601 190.363 195.391C174.86 209.542 174.305 192.946 174.305 192.946L171.375 182.049" fill="#28242C"/>
<path d="M176.898 179.047L178.795 163.471C178.795 163.471 186.608 176.02 184.133 199.148C178.326 202.656 174.306 192.947 174.306 192.947L175.646 186.298L176.898 179.047Z" fill="#141516"/>
<path d="M154.678 238.855H152.122C152.122 238.855 126.094 231.899 126.094 207.063V173.237C126.094 158.922 137.806 147.209 152.122 147.209H154.678C168.994 147.209 180.706 158.922 180.706 173.237V207.063C180.707 232.796 154.678 238.855 154.678 238.855Z" fill="#42414F"/>
<path d="M142.148 149.834C142.148 149.834 127.969 157.307 130.279 182.246L135.428 182.048L130.856 187.807C130.856 187.807 135.771 208.411 153.33 223.184C157.609 209.909 152.101 191.65 152.101 191.65" fill="#303339"/>
<path d="M142.695 149.342C142.695 149.342 129.122 156.271 131.333 181.299H136.262L131.885 186.882C131.885 186.882 136.591 207.675 153.399 223.122C157.496 210.011 152.222 191.541 152.222 191.541" fill="#5E5660"/>
<path d="M142.716 149.435L142.694 149.342C142.694 149.342 129.122 156.27 131.332 181.298H131.521C129.454 157.902 141.179 150.324 142.716 149.435Z" fill="#8C7375"/>
<path d="M132.074 186.881L136.451 181.298H136.263L131.886 186.881C131.886 186.881 136.591 207.674 153.4 223.121C153.414 223.075 153.426 223.026 153.44 222.98C136.755 207.548 132.074 186.881 132.074 186.881Z" fill="#8C7375"/>
<path d="M165.141 149.834C165.141 149.834 179.32 157.307 177.01 182.246L171.86 182.048L176.433 187.807C176.433 187.807 171.517 208.411 153.959 223.184C149.68 209.909 155.188 191.65 155.188 191.65" fill="#303339"/>
<path d="M164.594 149.342C164.594 149.342 178.167 156.271 175.956 181.299H171.026L175.403 186.882C175.403 186.882 170.698 207.675 153.889 223.122C149.793 210.011 155.066 191.541 155.066 191.541" fill="#5E5660"/>
<path d="M164.573 149.435L164.595 149.342C164.595 149.342 178.168 156.27 175.957 181.298H175.769C177.835 157.902 166.111 150.324 164.573 149.435Z" fill="#8C7375"/>
<path d="M175.215 186.881L170.838 181.298H171.026L175.403 186.881C175.403 186.881 170.698 207.674 153.889 223.121C153.875 223.075 153.863 223.026 153.849 222.98C170.534 207.548 175.215 186.881 175.215 186.881Z" fill="#8C7375"/>
<path d="M166.34 151.672L163.675 150.643L153.53 154.315L143.385 150.643L140.72 151.672C140.72 151.672 130.579 168.142 153.399 223.121C176.219 168.142 166.34 151.672 166.34 151.672Z" fill="#DEEAFF"/>
<path d="M167.946 157.246C167.93 187.864 153.313 215.167 153.313 215.167C137.234 182.793 139.634 156.253 139.634 156.253L139.799 153.985C137.934 160.137 135.299 179.516 153.399 223.121C169.042 185.432 169.319 165.842 167.946 157.246Z" fill="#BFD2FF"/>
<path d="M153.708 170.185H153.089C153.089 170.185 146.779 168.498 146.779 162.477V158.092C146.779 154.621 149.619 151.782 153.089 151.782H153.708C157.179 151.782 160.018 154.621 160.018 158.092V162.477C160.018 168.716 153.708 170.185 153.708 170.185Z" fill="#0081E6"/>
<path d="M142.694 149.342C142.694 149.342 134.835 154.43 144.306 168.52C144.306 168.52 146.798 161.855 153.9 161.805C150 156.994 146.767 147.89 146.767 147.89L142.694 149.342Z" fill="white"/>
<path d="M164.39 149.342C164.39 149.342 172.249 154.43 162.778 168.52C162.778 168.52 160.286 161.855 153.184 161.805C157.084 156.994 160.317 147.89 160.317 147.89L164.39 149.342Z" fill="white"/>
<path d="M153.9 161.805H152.898C152.898 161.805 142.694 159.078 142.694 149.342V142.249C142.694 136.637 147.286 132.045 152.898 132.045H153.9C159.512 132.045 164.104 136.637 164.104 142.249V149.342C164.104 159.43 153.9 161.805 153.9 161.805Z" fill="#FEAC6B"/>
<path d="M148.64 146.794L142.694 143.063V149.342C142.694 151.622 143.258 153.513 144.114 155.079C149.161 155.542 152.604 154.509 152.604 154.509L150.798 149.129L148.64 146.794Z" fill="#FE925A"/>
<path d="M202.45 95.6265C200.646 87.8691 200.048 80.8902 203.467 74.647C200.225 74.1677 196.833 75.8682 195.078 78.5944C190.01 62.182 179.599 53.4141 160.137 44.9209C157.179 43.6295 154.251 42.1183 151.87 39.9385C149.489 37.7588 147.88 34.4128 148.463 31.2378C145.715 31.5125 143.471 33.8053 142.565 36.4277C141.658 39.0502 141.862 41.9046 142.375 44.6217C142.888 47.3388 143.688 50.004 143.944 52.7546C144.488 58.6132 142.623 63.7451 138.565 67.9978C137.445 65.8943 138.632 63.3787 139.234 61.0707C140.479 56.2991 138.88 51.5457 135.247 48.215C135.65 51.6647 133.797 55.0382 131.348 57.5019C128.9 59.9656 125.853 61.7515 123.105 63.8611C113.29 71.3621 107.639 83.0944 107.062 95.425C106.049 93.7887 105.27 92.3721 104.254 90.745C100.108 105.228 104.293 121.793 114.823 132.57C133.562 151.742 174.501 151.153 191.145 130.127C192.593 128.29 193.879 126.331 194.989 124.272C200.866 115.898 204.12 102.807 202.45 95.6265Z" fill="#FF9A35"/>
<mask id="mask2_300_3" style="mask-type:luminance" maskUnits="userSpaceOnUse" x="102" y="31" width="102" height="116">
<path d="M202.45 95.6265C200.646 87.8691 200.048 80.8902 203.467 74.647C200.225 74.1677 196.833 75.8682 195.078 78.5944C190.01 62.182 179.599 53.4141 160.137 44.9209C157.179 43.6295 154.251 42.1183 151.87 39.9385C149.489 37.7588 147.88 34.4128 148.463 31.2378C145.715 31.5125 143.471 33.8053 142.565 36.4277C141.658 39.0502 141.862 41.9046 142.375 44.6217C142.888 47.3388 143.688 50.004 143.944 52.7546C144.488 58.6132 142.623 63.7451 138.565 67.9978C137.445 65.8943 138.632 63.3787 139.234 61.0707C140.479 56.2991 138.88 51.5457 135.247 48.215C135.65 51.6647 133.797 55.0382 131.348 57.5019C128.9 59.9656 125.853 61.7515 123.105 63.8611C113.29 71.3621 107.639 83.0944 107.062 95.425C106.049 93.7887 105.27 92.3721 104.254 90.745C100.108 105.228 104.293 121.793 114.823 132.57C133.562 151.742 174.501 151.153 191.145 130.127C192.593 128.29 193.879 126.331 194.989 124.272C200.866 115.898 204.12 102.807 202.45 95.6265Z" fill="white"/>
</mask>
<g mask="url(#mask2_300_3)">
<path d="M135.247 48.2001C137.079 54.0006 135.586 59.914 130.036 65.3299C125.691 69.5734 119.799 75.6365 116.875 80.9577C103.136 105.992 124.18 123.283 134.621 125.292C141.295 126.577 147.776 121.842 151.412 116.097C154.029 111.887 155.671 107.145 156.218 102.219C156.765 97.2925 156.202 92.3061 154.572 87.6252C157.771 93.3462 159.788 99.652 160.502 106.168C161.215 112.684 160.612 119.277 158.727 125.555C163.511 127.241 168.612 127.834 173.655 127.29C178.699 126.746 183.556 125.078 187.87 122.41C192.184 119.741 195.845 116.139 198.584 111.869C201.323 107.6 203.069 102.77 203.696 97.7365C202.713 111.072 201.681 124.629 196.87 137.119C192.058 149.608 182.826 161.051 170.139 165.251C159.594 168.741 148.103 166.897 137.204 164.76C129.205 163.194 121.023 161.402 114.2 156.951C106.263 151.782 100.862 143.411 97.574 134.539C94.2861 125.667 92.9245 116.222 91.5842 106.846C90.2196 97.306 89.032 86.8529 94.1212 78.6711C98.5021 71.6494 106.534 67.931 114.014 64.3621C121.494 60.7933 131.8 55.7377 135.247 48.2001Z" fill="#F7802F"/>
<path d="M148.219 30.423C146.051 32.7737 146.005 36.5074 147.275 39.4443C148.545 42.3812 150.89 44.6923 153.207 46.8964C155.524 49.1006 157.921 51.3323 159.347 54.202C160.772 57.0718 161.032 60.7444 159.13 63.315C159.337 57.2488 153.534 52.4314 147.794 50.4561C150.002 54.0158 149.437 58.0701 147.663 61.8648C145.889 65.6596 142.711 67.3906 138.565 67.9706C141.389 65.3696 140.834 62.6769 140.852 58.8363C140.87 54.9958 139.936 51.2285 139.359 47.4338C138.782 43.639 138.52 39.6611 139.829 36.0525C141.139 32.444 144.387 30.6428 148.219 30.423Z" fill="#F7802F"/>
<path d="M203.18 75.2124C199.856 77.2426 198.714 81.4526 197.99 85.287C197.267 89.1214 197.835 91.4874 194.815 93.9481C196.739 88.6211 196.739 82.7894 194.815 77.4624C195.508 75.9085 196.076 74.2752 197.352 73.1517C198.628 72.0282 200.524 71.4421 202.069 72.1565C203.614 72.8708 204.63 74.3271 203.18 75.2124Z" fill="#F7802F"/>
</g>
<path d="M126.097 48.139C126.326 46.582 126.207 44.9151 125.413 43.5596C124.619 42.2041 123.047 41.2242 121.49 41.4531C119.42 41.7584 118.132 43.9535 117.857 46.0325C117.582 48.1115 118.01 50.215 117.836 52.3001C117.564 55.5148 114.713 59.4714 120.345 56.3391C123.331 54.6661 125.602 51.5277 126.097 48.139Z" fill="#FF9A35"/>
<path d="M193.457 115.766C193.399 137.906 189.601 155.759 152.911 155.759C118.227 155.759 112.366 137.607 112.366 115.214C112.366 104.784 116.384 94.7561 123.586 87.2127C130.788 79.6692 140.619 75.1907 151.037 74.7078C174.239 73.6545 193.521 92.5367 193.472 115.76" fill="#E84D4D"/>
<mask id="mask3_300_3" style="mask-type:luminance" maskUnits="userSpaceOnUse" x="112" y="74" width="82" height="82">
<path d="M193.457 115.766C193.399 137.906 189.601 155.759 152.911 155.759C118.227 155.759 112.366 137.607 112.366 115.214C112.366 104.784 116.384 94.7561 123.586 87.2127C130.788 79.6692 140.619 75.1907 151.037 74.7078C174.239 73.6545 193.521 92.5367 193.472 115.76" fill="white"/>
</mask>
<g mask="url(#mask3_300_3)">
<path d="M161.74 155.253C155.134 154.529 148.488 153.8 142.098 151.968C135.708 150.136 129.529 147.123 124.855 142.397C119.665 137.161 116.634 130.091 115.248 122.859C113.862 115.626 114.027 108.183 114.552 100.835C111.349 113.3 109.896 126.241 113.025 138.721C114.878 146.082 118.148 153.583 124.452 157.808C129.438 161.151 135.721 162.003 141.71 161.682C148.946 161.291 155.345 158.639 161.74 155.253Z" fill="#D83939"/>
</g>
<path d="M133.596 126.565C139.715 126.565 144.675 120.616 144.675 113.279C144.675 105.941 139.715 99.9924 133.596 99.9924C127.477 99.9924 122.517 105.941 122.517 113.279C122.517 120.616 127.477 126.565 133.596 126.565Z" fill="white"/>
<path d="M133.596 124.391C137.925 124.391 141.435 120.182 141.435 114.991C141.435 109.8 137.925 105.591 133.596 105.591C129.266 105.591 125.756 109.8 125.756 114.991C125.756 120.182 129.266 124.391 133.596 124.391Z" fill="#280800"/>
<path d="M128.272 111.63C129.663 111.63 130.79 110.278 130.79 108.611C130.79 106.943 129.663 105.591 128.272 105.591C126.881 105.591 125.753 106.943 125.753 108.611C125.753 110.278 126.881 111.63 128.272 111.63Z" fill="white"/>
<path d="M172.227 126.564C178.345 126.564 183.306 120.616 183.306 113.278C183.306 105.94 178.345 99.9919 172.227 99.9919C166.108 99.9919 161.148 105.94 161.148 113.278C161.148 120.616 166.108 126.564 172.227 126.564Z" fill="white"/>
<path d="M172.227 124.39C176.557 124.39 180.067 120.182 180.067 114.991C180.067 109.799 176.557 105.591 172.227 105.591C167.897 105.591 164.387 109.799 164.387 114.991C164.387 120.182 167.897 124.39 172.227 124.39Z" fill="#280800"/>
<path d="M166.906 111.629C168.297 111.629 169.424 110.278 169.424 108.61C169.424 106.942 168.297 105.591 166.906 105.591C165.515 105.591 164.387 106.942 164.387 108.61C164.387 110.278 165.515 111.629 166.906 111.629Z" fill="white"/>
<path d="M152.911 134.634C147.828 134.631 142.767 133.961 137.857 132.64C135.415 131.99 133.889 136.578 135.583 139.387C139.946 146.586 146.094 151.07 152.911 151.07C159.728 151.07 165.877 146.586 170.24 139.387C171.943 136.578 170.392 131.99 167.965 132.64C163.056 133.961 157.995 134.631 152.911 134.634Z" fill="#6F0904"/>
<path d="M152.911 141.823C164.744 141.823 167.791 135.662 168.575 132.597C168.371 132.574 168.164 132.588 167.965 132.64C158.105 135.298 147.717 135.298 137.857 132.64C137.558 132.555 137.241 132.555 136.941 132.64C137.787 135.723 140.947 141.823 152.911 141.823Z" fill="white"/>
<path d="M143.97 148.341C146.599 150.112 149.696 151.062 152.866 151.07C156.036 151.079 159.138 150.146 161.777 148.39C159.219 145.712 156.151 144.149 152.851 144.149C149.55 144.149 146.519 145.694 143.97 148.341Z" fill="#FF6E6E"/>
<path d="M126.214 92.7503C125.951 92.7506 125.693 92.6754 125.472 92.5337C125.251 92.392 125.074 92.1897 124.964 91.9509C124.855 91.7121 124.815 91.4467 124.852 91.1864C124.888 90.926 124.999 90.6815 125.17 90.482C126.698 88.7121 128.594 87.297 130.725 86.3352C132.856 85.3735 135.171 84.8883 137.51 84.9135C137.874 84.9192 138.221 85.0693 138.475 85.331C138.728 85.5926 138.868 85.9443 138.862 86.3087C138.856 86.673 138.706 87.0202 138.445 87.2738C138.183 87.5275 137.831 87.6668 137.467 87.6611H137.281C135.379 87.6698 133.502 88.0858 131.774 88.881C130.047 89.6761 128.51 90.8321 127.267 92.271C127.137 92.4228 126.975 92.5444 126.794 92.6272C126.612 92.71 126.414 92.752 126.214 92.7503Z" fill="#280800"/>
<path d="M179.6 92.7502C179.401 92.7502 179.205 92.7071 179.025 92.6238C178.844 92.5405 178.684 92.4191 178.556 92.2678C177.29 90.8041 175.721 89.6336 173.958 88.838C172.194 88.0424 170.278 87.6408 168.344 87.661C168.163 87.6636 167.984 87.6307 167.816 87.564C167.649 87.4974 167.496 87.3984 167.366 87.2727C167.237 87.1469 167.134 86.9969 167.062 86.8313C166.991 86.6656 166.953 86.4875 166.95 86.307C166.947 86.1266 166.98 85.9475 167.047 85.7798C167.114 85.6121 167.213 85.4592 167.338 85.3298C167.464 85.2004 167.614 85.097 167.78 85.0256C167.945 84.9541 168.124 84.916 168.304 84.9134C170.641 84.8895 172.954 85.3753 175.084 86.3371C177.213 87.2988 179.108 88.7132 180.635 90.4819C180.805 90.6818 180.914 90.9262 180.949 91.1861C180.985 91.446 180.946 91.7107 180.836 91.949C180.726 92.1874 180.551 92.3894 180.33 92.5313C180.11 92.6733 179.853 92.7492 179.591 92.7502H179.6Z" fill="#280800"/>
</g>
</g>
<defs>
<radialGradient id="paint0_radial_300_3" cx="0" cy="0" r="1" gradientUnits="userSpaceOnUse" gradientTransform="translate(149.152 103.987) scale(137.366 107.558)">
<stop stop-color="#FFFF00"/>
<stop offset="0.0581" stop-color="#FFFF12" stop-opacity="0.9419"/>
<stop offset="0.2229" stop-color="#FFFF42" stop-opacity="0.7771"/>
<stop offset="0.3875" stop-color="#FFFF69" stop-opacity="0.6125"/>
<stop offset="0.5492" stop-color="#FFFF87" stop-opacity="0.4508"/>
<stop offset="0.7071" stop-color="#FFFF9D" stop-opacity="0.2929"/>
<stop offset="0.8594" stop-color="#FFFFAA" stop-opacity="0.1406"/>
<stop offset="1" stop-color="#FFFFAE" stop-opacity="0"/>
</radialGradient>
<clipPath id="clip0_300_3">
<rect width="292" height="250" fill="white"/>
</clipPath>
</defs>
</svg>
