<svg width="24" height="25" viewBox="0 0 24 25" fill="none" xmlns="http://www.w3.org/2000/svg">
<path opacity="0.4" d="M12 22.5C17.5228 22.5 22 18.0228 22 12.5C22 6.97715 17.5228 2.5 12 2.5C6.47715 2.5 2 6.97715 2 12.5C2 18.0228 6.47715 22.5 12 22.5Z" fill="#E0E0E6"/>
<path d="M13.0601 12.4999L15.3601 10.1999C15.6501 9.90986 15.6501 9.42986 15.3601 9.13986C15.0701 8.84986 14.5901 8.84986 14.3001 9.13986L12.0001 11.4399L9.70011 9.13986C9.41011 8.84986 8.93011 8.84986 8.64011 9.13986C8.35011 9.42986 8.35011 9.90986 8.64011 10.1999L10.9401 12.4999L8.64011 14.7999C8.35011 15.0899 8.35011 15.5699 8.64011 15.8599C8.79011 16.0099 8.98011 16.0799 9.17011 16.0799C9.36011 16.0799 9.55011 16.0099 9.70011 15.8599L12.0001 13.5599L14.3001 15.8599C14.4501 16.0099 14.6401 16.0799 14.8301 16.0799C15.0201 16.0799 15.2101 16.0099 15.3601 15.8599C15.6501 15.5699 15.6501 15.0899 15.3601 14.7999L13.0601 12.4999Z" fill="#E0E0E6"/>
</svg>
