<svg width="16" height="16" viewBox="0 0 16 16" fill="none" xmlns="http://www.w3.org/2000/svg">
<g clip-path="url(#clip0_733_627)">
<path d="M15.8773 8.11394C15.8337 9.1503 15.6094 10.1261 15.2446 11.0073C15.1282 11.2909 14.9961 11.5661 14.847 11.8303C14.847 11.8327 14.8446 11.8327 14.8446 11.8327C14.5452 12.377 14.1876 12.8715 13.7852 13.3091C13.7828 13.3115 13.7755 13.3176 13.7694 13.3236C13.5925 13.5151 13.4082 13.6945 13.2155 13.8606C13.2082 13.8667 13.2022 13.8727 13.1949 13.8788C12.9209 14.1139 12.6312 14.3248 12.327 14.5115C12.3185 14.5176 12.3088 14.5236 12.3003 14.5273C12.3003 14.5273 12.2979 14.5273 12.2979 14.5297C11.4046 15.0691 10.3936 15.3879 9.32335 15.4182H9.30395C9.25547 15.4206 9.20698 15.4206 9.15971 15.4206C9.08577 15.4206 9.00819 15.4182 8.93426 15.417C8.89426 15.4145 8.85303 15.4133 8.81424 15.4109C8.77909 15.4085 8.74153 15.4073 8.70638 15.4024C8.66516 15.4 8.62516 15.3964 8.58395 15.3927C8.55971 15.3903 8.53545 15.3867 8.51121 15.3842C8.15606 15.3467 7.81062 15.2751 7.47486 15.1745C7.25547 15.1103 7.03971 15.0315 6.8288 14.943C4.41426 13.9091 2.63123 11.2836 2.5391 8.11515C2.52335 7.55636 2.55971 7.00727 2.64577 6.47757C3.07244 3.82545 4.70274 1.61697 6.91122 0.675148C7.40335 0.463026 7.92577 0.31636 8.46516 0.243632C8.48456 0.241208 8.50274 0.238784 8.52213 0.23636C8.53426 0.233935 8.5488 0.231511 8.55971 0.231511C8.77668 0.206057 8.99729 0.191511 9.21789 0.189087H9.26274C9.30274 0.189087 9.34636 0.189087 9.38636 0.191511C11.2615 0.229087 12.9343 1.14909 14.11 2.59515C14.1331 2.6206 14.1512 2.64363 14.1622 2.65697C14.1779 2.67515 14.1852 2.68484 14.1852 2.68484C15.3209 4.12121 15.9646 6.04242 15.8773 8.11394Z" fill="url(#paint0_linear_733_627)"/>
<path d="M9.58643 15.4L9.3234 15.4182H9.304L7.9137 15.5091L7.8834 15.5115L7.26643 15.5515H7.25793L6.85309 15.5782L6.82642 15.5806V15.5503L6.82764 15.4279L6.82885 15.2206V14.9443L6.87854 6.30305L6.91128 0.676389L6.9137 0.292147L6.91491 0.0182074V0.00366211L7.81916 0.072753C7.82158 0.072753 7.82157 0.072753 7.82157 0.072753L9.38764 0.191541V0.198814L9.38885 0.312753V0.34548L9.39249 0.500632V0.575783L9.39491 0.595177L9.44582 4.59881L9.57673 14.514L9.58279 15.0012V15.0497L9.58522 15.0679L9.58763 15.257L9.58643 15.3455V15.4Z" fill="url(#paint1_linear_733_627)"/>
<path d="M13.7767 8.11392C13.7427 9.18301 13.5221 10.1879 13.1536 11.0945C13.1536 11.0945 13.1536 11.0945 13.1512 11.0969C13.1512 11.0994 13.1512 11.1006 13.1488 11.1054C13.1464 11.1054 13.1464 11.1054 13.1488 11.1079C13.1367 11.1394 13.0979 11.2363 13.0312 11.3794C13.0021 11.4509 12.9694 11.52 12.9355 11.5866C12.6191 12.2424 12.2215 12.8376 11.7597 13.3551C11.6966 13.4291 11.63 13.5006 11.5621 13.5709C10.9815 14.1721 10.3124 14.6569 9.57906 15.0012C9.23481 15.1624 8.87966 15.2909 8.50875 15.3854C8.40815 15.4121 8.30754 15.4351 8.20451 15.4582H8.20209C8.11724 15.4763 8.03118 15.4921 7.9439 15.5042C7.93299 15.5066 7.92209 15.5079 7.91118 15.5103C7.61178 15.5563 7.30512 15.5806 6.99481 15.5806C6.94633 15.5806 6.89906 15.5806 6.85057 15.5782H6.8239C6.20451 15.56 5.60572 15.4436 5.03603 15.2485C4.95966 15.2242 4.88451 15.1988 4.813 15.1733C4.79724 15.1697 4.78269 15.1636 4.76693 15.1576C4.12087 14.903 3.51724 14.5406 2.97178 14.0921C2.96936 14.0885 2.96451 14.086 2.9633 14.0836C2.53784 13.7297 2.14875 13.3224 1.8033 12.8691V12.8666C0.836025 11.5915 0.214205 9.94422 0.137842 8.11755C0.0808721 6.76119 0.331781 5.46543 0.825114 4.32361C0.825114 4.32361 0.842085 4.27998 0.880873 4.20361C1.70997 2.35755 3.17421 0.934519 4.96936 0.327246C4.97421 0.327246 4.97906 0.324822 4.9839 0.322398C5.09057 0.284822 5.19966 0.252095 5.30754 0.223004C5.36693 0.206034 5.4239 0.192701 5.48087 0.178155C5.58512 0.152701 5.68693 0.130883 5.78875 0.111489C5.84815 0.0993673 5.90996 0.0896704 5.96936 0.0811855C6.27845 0.0314886 6.59239 0.00482178 6.9136 0.00482178C7.22027 0.00482178 7.52209 0.0290642 7.81784 0.0739127C7.82027 0.0739127 7.82027 0.0739127 7.82027 0.0739127C8.07239 0.111488 8.31966 0.16361 8.55966 0.235125C8.57178 0.235125 8.58148 0.237549 8.58996 0.242398C8.68209 0.267852 8.77542 0.296943 8.86754 0.329671C8.87239 0.332095 8.87724 0.332095 8.88451 0.334519C9.05542 0.393913 9.22512 0.459367 9.39118 0.532095C12.0651 1.71392 13.8833 4.71392 13.7767 8.11392Z" fill="url(#paint2_linear_733_627)"/>
<path opacity="0.2" d="M11.1124 2.18785C11.0627 2.50664 10.4688 3.58179 9.44451 4.59634C8.76815 5.26664 7.90512 5.9127 6.87845 6.30179C6.44451 6.46785 5.98148 6.58785 5.48815 6.64482C4.30512 6.78179 3.36573 6.6824 2.64573 6.47634C1.293 6.08603 0.696639 5.30422 0.722094 4.95391C0.722094 4.95391 1.19846 3.68361 2.19967 2.43149C2.87967 1.58179 3.80088 0.741791 4.97058 0.322397C4.97542 0.322397 4.98027 0.319972 4.98512 0.317547C5.09179 0.279972 5.20088 0.247244 5.30876 0.218154C5.34633 0.206032 5.38633 0.195123 5.42754 0.185426C5.44694 0.180578 5.4627 0.17573 5.48209 0.173306C5.58633 0.147852 5.68815 0.126032 5.78997 0.106639C5.84936 0.0945174 5.91118 0.0848204 5.97058 0.0763356C6.29421 0.0290628 6.60936 0.00966915 6.91482 0.0145176C7.45664 0.0193661 7.96573 0.10179 8.42997 0.232699C8.44209 0.232699 8.45422 0.237549 8.46513 0.242397C8.79968 0.336941 9.11239 0.456941 9.39361 0.591487C9.52815 0.652093 9.65543 0.721184 9.77543 0.789063C9.90998 0.866638 10.053 0.957547 10.2033 1.06179C10.8142 1.49694 11.1488 1.95149 11.1124 2.18785Z" fill="#F42774"/>
<g style="mix-blend-mode:soft-light">
<path d="M0.868817 11.0218C1.17064 11.4969 5.65911 9.51149 7.76336 8.92118C9.88214 8.32603 13.1707 8.95755 13.464 8.71633C13.7585 8.47512 13.5379 4.95755 12.3416 3.23512C11.1221 1.48118 11.1306 3.32967 9.8579 4.18906C8.5973 5.04118 3.50275 6.53452 2.41305 6.423C1.32336 6.31149 0.95609 5.83391 0.550029 5.88967C0.145181 5.94421 -0.595425 8.71633 0.868817 11.0218Z" fill="white"/>
</g>
<path d="M11.3282 8.11396C11.2797 10.7709 9.48334 12.8921 7.25061 13.0788C7.14273 13.0885 7.03485 13.0933 6.92455 13.0933C4.54031 13.0933 2.54516 10.8982 2.46395 8.11396C2.3791 5.24608 4.34879 2.85577 6.86758 2.85577C6.98394 2.85577 7.09788 2.86183 7.21182 2.87153C9.56698 3.08002 11.3779 5.38183 11.3282 8.11396Z" fill="url(#paint3_linear_733_627)"/>
<path d="M11.3282 8.11395C11.2797 10.7709 9.48338 12.8921 7.25066 13.0788C5.01672 12.8946 3.19975 10.7733 3.13066 8.11395C3.06035 5.3794 4.85793 3.07637 7.21187 2.87152C9.56702 3.08001 11.3779 5.38182 11.3282 8.11395Z" fill="#FF6B04"/>
<path d="M0.436079 9.99151C0.233655 9.07393 2.34154 10.2351 0.929414 11.3212C0.929414 11.3212 0.597291 10.7248 0.436079 9.99151Z" fill="white"/>
<g style="mix-blend-mode:soft-light">
<path d="M9.26159 0.187862C8.69189 0.135741 12.1077 1.42423 12.9416 3.75756C13.755 6.03514 15.4216 5.30665 15.4216 5.30665C15.4216 5.30665 13.9937 0.387862 9.26159 0.187862Z" fill="white"/>
</g>
<g style="mix-blend-mode:darken" opacity="0.7">
<path d="M15.2434 11.0085C15.1913 11.206 15.0495 11.4957 14.8458 11.8315C14.8458 11.8339 14.8434 11.8339 14.8434 11.8339C14.5489 12.3273 14.1234 12.9115 13.647 13.4267L13.6398 13.4327C13.5004 13.583 13.3585 13.726 13.2131 13.8606C13.2058 13.8667 13.1998 13.8727 13.1925 13.8788C12.9064 14.1382 12.6119 14.3612 12.3246 14.5115C12.3161 14.5176 12.3064 14.5236 12.2979 14.5273C12.2979 14.5273 12.2955 14.5273 12.2955 14.5297C11.344 15.0218 10.27 15.2448 9.58276 15.343C9.27124 15.3867 9.03851 15.4073 8.93185 15.4157C8.88821 15.4182 8.86397 15.4194 8.86397 15.4194C8.84215 15.4157 8.82518 15.4133 8.81185 15.4097C8.7876 15.406 8.77306 15.4 8.76336 15.3951C8.69791 15.3515 9.047 15.2909 9.58154 15.0654C10.5149 14.6751 12.0264 13.7818 12.9355 11.5854C12.9355 11.5854 14.7682 10.6606 15.2058 10.7418C15.281 10.7551 15.2907 10.8521 15.2434 11.0085Z" fill="#DE376D"/>
</g>
<path d="M8.85669 0.322449C8.85669 0.322449 12.807 1.21579 13.8458 5.94427C14.8349 10.4473 11.3028 13.9261 11.3028 13.9261C11.3028 13.9261 13.8652 10.7685 13.4458 6.42063C13.0046 1.86185 8.85669 0.322449 8.85669 0.322449Z" fill="#FFE016"/>
<path d="M13.7634 6.01456C13.4895 5.6085 12.8507 7.80486 13.6252 8.2182C14.0022 8.42062 14.2895 6.79517 13.7634 6.01456Z" fill="white"/>
<g style="mix-blend-mode:soft-light" opacity="0.5">
<path d="M13.1489 11.1067C13.1368 11.1382 13.098 11.2352 13.0313 11.3782C12.841 11.7867 12.4289 12.5734 11.7598 13.354C11.2119 13.9952 10.4919 14.6291 9.57917 15.0473C9.26887 15.1879 8.93675 15.3067 8.5816 15.3915C8.50281 15.4097 8.42402 15.4279 8.34281 15.4412C8.34038 15.4437 8.33675 15.4437 8.3319 15.4437C8.20705 15.4679 8.07735 15.4873 7.94402 15.5018C7.92463 15.5055 7.90281 15.5079 7.88099 15.5103C7.86402 15.5128 7.84584 15.514 7.82887 15.5164C7.63614 15.5346 7.44584 15.5467 7.26402 15.5503H7.25554C7.10644 15.554 6.96463 15.5528 6.82402 15.5479C6.03372 15.52 5.36099 15.3697 4.81311 15.1697C4.79735 15.1661 4.78281 15.16 4.76705 15.154C3.68463 14.7588 3.07857 14.1915 2.9719 14.0885C2.96948 14.0849 2.96463 14.0824 2.96341 14.08C2.95857 14.074 2.95614 14.0715 2.95614 14.0715C2.80463 13.9406 3.69917 14.5903 5.05554 14.9697C5.57311 15.1152 6.18281 15.2218 6.82644 15.2182C7.03857 15.2158 7.25432 15.2024 7.47372 15.1734C7.53069 15.1649 7.59008 15.1576 7.64705 15.1467C8.35614 15.0303 8.99857 14.8012 9.57432 14.5103C11.8022 13.3806 13.0459 11.2837 13.1489 11.1067Z" fill="white"/>
</g>
<path d="M3.94275 11.7709C3.94275 11.7709 7.19366 14.2218 9.75487 11.9067C9.75487 11.9067 6.95123 14.7782 3.94275 11.7709Z" fill="#FFE016"/>
<path opacity="0.5" d="M2.61182 6.46547C2.77666 7.34062 3.50273 4.5285 6.30757 3.65335C9.13788 2.76972 11.1682 6.63396 11.1682 6.63396C11.1682 6.63396 10.6736 2.84002 6.75848 2.83881C3.69788 2.83881 2.61182 6.46547 2.61182 6.46547Z" fill="#D42F55"/>
<g style="mix-blend-mode:soft-light">
<path d="M10.11 14.8352C9.84574 14.9903 11.327 15.0182 11.9391 14.6994C12.5524 14.3794 13.4312 13.7418 13.5597 13.3515C13.6882 12.9588 12.847 13.0352 12.3379 13.1552C11.8288 13.2752 11.3524 14.1043 10.11 14.8352Z" fill="white"/>
</g>
<path d="M13.6592 10.1248C13.1671 9.97211 12.4992 10.9588 12.8628 11.7794C13.2216 12.5927 14.7816 10.4739 13.6592 10.1248Z" fill="url(#paint4_linear_733_627)"/>
<path opacity="0.7" d="M12.9052 10.8218C12.8676 11.4206 13.6046 11.4569 13.8822 11.1442C14.1597 10.8315 14.1403 10.126 13.5961 10.1127C13.0519 10.0982 12.9052 10.8218 12.9052 10.8218Z" fill="#DE376D"/>
<path d="M12.761 11.3382C12.9161 10.9782 13.3525 11.4206 13.618 11.44C13.8834 11.4594 13.4361 12.0497 13.1295 11.9636C12.8228 11.8763 12.761 11.3382 12.761 11.3382Z" fill="#FF9500"/>
<path d="M12.0361 10.3806C11.5416 10.2303 11.0555 10.9418 11.2689 11.4206C11.4786 11.8958 12.8968 10.6412 12.0361 10.3806Z" fill="url(#paint5_linear_733_627)"/>
<path opacity="0.7" d="M11.8179 10.36C11.4785 10.4545 11.3694 10.9491 11.5051 11.0945C11.6409 11.24 12.2882 11.0618 12.3088 10.726C12.3294 10.3903 11.9524 10.3224 11.8179 10.36Z" fill="#DE376D"/>
<path d="M11.2155 11.2509C11.3015 10.8133 11.4894 11.2509 11.7548 11.3006C12.0203 11.3503 11.2361 11.8364 11.2155 11.2509Z" fill="#FF9500"/>
<path d="M3.75006 4.2194C3.35975 4.09455 2.99733 4.66546 3.17672 5.05455C3.35369 5.44243 4.43006 4.43758 3.75006 4.2194Z" fill="url(#paint6_linear_733_627)"/>
<path opacity="0.7" d="M3.57907 4.20124C3.31604 4.27396 3.24331 4.67396 3.35361 4.79396C3.4627 4.91275 3.96573 4.77457 3.97301 4.50306C3.98028 4.22912 3.68331 4.17215 3.57907 4.20124Z" fill="#DE376D"/>
<path d="M3.13062 4.91756C3.18637 4.56363 3.34516 4.91999 3.55486 4.96241C3.76334 5.00362 3.16092 5.39272 3.13062 4.91756Z" fill="#FF9500"/>
<path opacity="0.8" d="M14.1622 2.65697C14.1453 2.63637 14.1271 2.61576 14.1101 2.59515C14.1319 2.62061 14.1501 2.64243 14.1622 2.65697Z" fill="#D42F55"/>
<g style="mix-blend-mode:darken" opacity="0.8">
<path d="M14.1101 2.59515C13.9598 2.42061 13.5719 2.01091 12.9198 1.57939C12.9174 1.57697 12.915 1.57697 12.9125 1.57455C12.1283 1.05576 10.9658 0.510303 9.38644 0.310303C9.36463 0.305455 9.3416 0.30303 9.31978 0.300606C9.08463 0.272727 8.83978 0.250909 8.58887 0.238788C8.56462 0.236364 8.54402 0.236364 8.51978 0.236364C8.48947 0.233939 8.45796 0.233939 8.42766 0.233939C8.03857 0.219394 7.62887 0.229091 7.19978 0.261818C7.10281 0.269091 7.00705 0.278788 6.9125 0.289697C4.65796 0.534545 3.14644 1.50788 2.19978 2.43152C1.42038 3.19151 1.01796 3.92 0.882202 4.19879C1.71129 2.35273 3.17553 0.929697 4.97069 0.322424C4.97553 0.322424 4.98038 0.32 4.98523 0.317576C5.0919 0.28 5.20099 0.247273 5.30887 0.218182C5.34644 0.206061 5.38644 0.195152 5.42766 0.185455C5.44705 0.180606 5.46281 0.175758 5.4822 0.173333C5.58644 0.147879 5.68826 0.126061 5.79008 0.106666C5.84947 0.0945451 5.91129 0.0848481 5.97069 0.0763633C6.27978 0.0266663 6.59372 0 6.91493 0C7.22159 0 7.52341 0.0242424 7.81917 0.0690909C7.82159 0.0690909 7.8216 0.0690909 7.8216 0.0690909L9.38766 0.187879V0.190303C11.2616 0.227879 12.9331 1.14909 14.1101 2.59515Z" fill="#D42F55"/>
</g>
<g style="mix-blend-mode:darken" opacity="0.8">
<path d="M13.7695 13.3236C13.5925 13.5151 13.4082 13.6945 13.2155 13.8606C13.2082 13.8666 13.2022 13.8727 13.1949 13.8788C12.9089 14.1382 12.6143 14.3612 12.327 14.5115C12.3185 14.5176 12.3089 14.5236 12.3004 14.5273C12.3004 14.5273 12.2979 14.5273 12.2979 14.5297C11.4046 15.0691 10.3937 15.3879 9.32336 15.4182H9.30397L7.91366 15.5091C7.61427 15.5551 7.3076 15.5794 6.9973 15.5794C6.94882 15.5794 6.90154 15.5794 6.85306 15.5769L6.82639 15.5794V15.5769C6.207 15.5588 5.60821 15.4424 5.03851 15.2473C4.96215 15.223 4.887 15.1976 4.81548 15.1721C4.79973 15.1685 4.78518 15.1624 4.76942 15.1563C3.687 14.7612 3.08094 14.1939 2.97427 14.0909C2.97185 14.0873 2.967 14.0848 2.96579 14.0824C2.54033 13.7285 2.15124 13.3212 1.80579 12.8679C1.8676 12.9273 3.14882 14.2339 5.05912 14.9733C5.60215 15.1854 6.19609 15.3503 6.83003 15.4279C7.27003 15.4836 7.73306 15.4982 8.20821 15.4582H8.21063C8.25427 15.4545 8.29548 15.4497 8.33791 15.446C8.34276 15.446 8.34639 15.446 8.34882 15.4436C8.47124 15.4339 8.59245 15.4194 8.71003 15.4036C8.72942 15.4012 8.75003 15.4 8.76942 15.3976C9.05427 15.36 9.32821 15.3115 9.59003 15.2569C11.8228 14.7927 13.2082 13.7903 13.6458 13.4339L13.6531 13.4279C13.7052 13.3782 13.7464 13.343 13.7695 13.3236Z" fill="#D42F55"/>
</g>
<path d="M10.5391 0.529705C9.71244 0.494553 11.4421 1.76849 12.1222 2.31758C12.7985 2.86425 13.921 2.47879 13.9561 2.42546C13.99 2.37334 12.2082 0.60122 10.5391 0.529705Z" fill="white"/>
<path d="M7.16905 11.5152C6.10047 11.5152 5.26474 11.1953 4.66187 10.5555C4.059 9.91253 3.75757 9.01623 3.75757 7.86661C3.75757 6.73 4.05741 5.84181 4.6571 5.20206C5.25677 4.56231 6.07974 4.24243 7.12599 4.24243C7.78308 4.24243 8.36044 4.37558 8.85804 4.64187C9.35565 4.90492 9.70813 5.24427 9.91546 5.65996C9.99839 5.82558 10.0399 5.98957 10.0399 6.15195C10.0399 6.37927 9.96969 6.56276 9.82934 6.7024C9.69217 6.84204 9.51036 6.91186 9.28388 6.91186C8.9362 6.91186 8.65868 6.75761 8.45135 6.4491C8.28548 6.1828 8.09569 5.98795 7.88197 5.86455C7.67145 5.74115 7.42105 5.67944 7.13077 5.67944C6.63317 5.67944 6.24402 5.86941 5.96331 6.24938C5.6858 6.62933 5.54705 7.16029 5.54705 7.84226C5.54705 8.53397 5.69696 9.07955 5.9968 9.47899C6.29665 9.87843 6.70015 10.0782 7.20733 10.0782C7.60287 10.0782 7.92822 9.96937 8.18341 9.75178C8.43859 9.5342 8.57894 9.24842 8.60445 8.89444L8.60924 8.78728H7.92503C7.72089 8.78728 7.55821 8.73369 7.437 8.62653C7.31579 8.51937 7.25518 8.36835 7.25518 8.1735C7.25518 7.97865 7.31419 7.82764 7.43221 7.72048C7.55342 7.61332 7.7177 7.55973 7.92503 7.55973H9.42742C9.70494 7.55973 9.92025 7.64092 10.0734 7.80329C10.2265 7.96567 10.303 8.19461 10.303 8.49013V8.53884C10.303 8.97076 10.2329 9.36858 10.0925 9.7323C9.95215 10.096 9.75119 10.411 9.48963 10.6773C9.23125 10.9404 8.90271 11.1466 8.50398 11.296C8.10844 11.4421 7.66347 11.5152 7.16905 11.5152Z" fill="url(#paint7_linear_733_627)"/>
<path d="M6.68418 11.5152C5.6156 11.5152 4.77988 11.1953 4.17701 10.5555C3.57414 9.91253 3.27271 9.01623 3.27271 7.86661C3.27271 6.73 3.57255 5.84181 4.17223 5.20206C4.77191 4.56231 5.59487 4.24243 6.64113 4.24243C7.29822 4.24243 7.87558 4.37558 8.37318 4.64187C8.87079 4.90492 9.22326 5.24427 9.4306 5.65996C9.51353 5.82558 9.555 5.98957 9.555 6.15195C9.555 6.37927 9.48483 6.56276 9.34447 6.7024C9.20731 6.84204 9.02549 6.91186 8.79902 6.91186C8.45134 6.91186 8.17382 6.75761 7.96649 6.4491C7.80062 6.1828 7.61083 5.98795 7.3971 5.86455C7.18658 5.74115 6.93618 5.67944 6.6459 5.67944C6.1483 5.67944 5.75915 5.86941 5.47845 6.24938C5.20094 6.62933 5.06218 7.16029 5.06218 7.84226C5.06218 8.53397 5.2121 9.07955 5.51194 9.47899C5.81178 9.87843 6.21529 10.0782 6.72246 10.0782C7.118 10.0782 7.44336 9.96937 7.69855 9.75178C7.95372 9.5342 8.09407 9.24842 8.11959 8.89444L8.12438 8.78728H7.44017C7.23603 8.78728 7.07335 8.73369 6.95214 8.62653C6.83092 8.51937 6.77032 8.36835 6.77032 8.1735C6.77032 7.97865 6.82932 7.82764 6.94735 7.72048C7.06856 7.61332 7.23284 7.55973 7.44017 7.55973H8.94256C9.22007 7.55973 9.43538 7.64092 9.5885 7.80329C9.7416 7.96567 9.81816 8.19461 9.81816 8.49013V8.53884C9.81816 8.97076 9.74799 9.36858 9.60764 9.7323C9.46729 10.096 9.26633 10.411 9.00477 10.6773C8.74639 10.9404 8.41784 11.1466 8.01912 11.296C7.62358 11.4421 7.17861 11.5152 6.68418 11.5152Z" fill="url(#paint8_linear_733_627)"/>
<g style="mix-blend-mode:soft-light">
<path d="M3.69143 9.77511C3.8369 10.0567 6.00012 8.87994 7.01427 8.53007C8.03542 8.17731 9.6203 8.55162 9.76167 8.40865C9.90363 8.26568 9.93937 5.93939 9.09089 5.21213C8.02373 4.1818 8.63712 5.21594 8.02373 5.72531C7.41618 6.23037 4.96086 7.11547 4.43569 7.04939C3.9105 6.98329 3.73349 6.70022 3.5378 6.73328C3.34268 6.76561 2.98573 8.40865 3.69143 9.77511Z" fill="white"/>
</g>
<g style="mix-blend-mode:soft-light">
<path d="M9.16819 4.85816C8.9997 4.69088 9.15485 5.68361 9.46152 5.96603C9.76819 6.24725 9.98516 5.96603 9.98516 5.96603C9.98516 5.96603 9.64334 5.32725 9.16819 4.85816Z" fill="white"/>
</g>
</g>
<defs>
<linearGradient id="paint0_linear_733_627" x1="9.20948" y1="15.4199" x2="9.20948" y2="0.18882" gradientUnits="userSpaceOnUse">
<stop offset="0.0503" stop-color="#FF3F00"/>
<stop offset="0.7179" stop-color="#FF6A03"/>
<stop offset="1" stop-color="#FFFF04"/>
</linearGradient>
<linearGradient id="paint1_linear_733_627" x1="8.20535" y1="15.5784" x2="8.20535" y2="0.0018563" gradientUnits="userSpaceOnUse">
<stop offset="0.0503" stop-color="#FF3F00"/>
<stop offset="0.7179" stop-color="#FF6A03"/>
<stop offset="1" stop-color="#FFFF04"/>
</linearGradient>
<linearGradient id="paint2_linear_733_627" x1="6.95541" y1="15.5784" x2="6.95541" y2="0.00180343" gradientUnits="userSpaceOnUse">
<stop stop-color="#FFA900"/>
<stop offset="1" stop-color="#FF9600"/>
</linearGradient>
<linearGradient id="paint3_linear_733_627" x1="6.89483" y1="13.0936" x2="6.89483" y2="2.85598" gradientUnits="userSpaceOnUse">
<stop stop-color="#FF7C04"/>
<stop offset="1" stop-color="#D92000"/>
</linearGradient>
<linearGradient id="paint4_linear_733_627" x1="13.4093" y1="11.9636" x2="13.4093" y2="10.1092" gradientUnits="userSpaceOnUse">
<stop offset="0.0419" stop-color="#EF6300"/>
<stop offset="1" stop-color="#E13E00"/>
</linearGradient>
<linearGradient id="paint5_linear_733_627" x1="11.7637" y1="11.5269" x2="11.7637" y2="10.3598" gradientUnits="userSpaceOnUse">
<stop offset="0.0419" stop-color="#EF6300"/>
<stop offset="1" stop-color="#E13E00"/>
</linearGradient>
<linearGradient id="paint6_linear_733_627" x1="3.54579" y1="5.1451" x2="3.55571" y2="4.20055" gradientUnits="userSpaceOnUse">
<stop offset="0.0419" stop-color="#EF6300"/>
<stop offset="1" stop-color="#E13E00"/>
</linearGradient>
<linearGradient id="paint7_linear_733_627" x1="8.13135" y1="11.3627" x2="5.48613" y2="4.52476" gradientUnits="userSpaceOnUse">
<stop stop-color="#EA5104"/>
<stop offset="1" stop-color="#D92000"/>
</linearGradient>
<linearGradient id="paint8_linear_733_627" x1="7.65546" y1="11.2637" x2="5.13239" y2="4.60712" gradientUnits="userSpaceOnUse">
<stop stop-color="#FFD600"/>
<stop offset="1" stop-color="#FF8A00"/>
</linearGradient>
<clipPath id="clip0_733_627">
<rect width="16" height="15.6364" fill="white"/>
</clipPath>
</defs>
</svg>
