<svg width="20" height="20" viewBox="0 0 20 20" fill="none" xmlns="http://www.w3.org/2000/svg">
<path d="M12.8095 1.66699H9.71902C8.31902 1.66699 7.2095 1.66699 6.34204 1.79033C5.44839 1.91699 4.72538 2.18366 4.15553 2.78449C3.5849 3.38533 3.33172 4.14783 3.21188 5.08949C3.09521 6.00449 3.09521 7.17366 3.09521 8.64949V13.5145C3.09521 14.7712 3.82538 15.8478 4.86267 16.2995C4.8095 15.5412 4.8095 14.4787 4.8095 13.5937V9.41866C4.8095 8.35116 4.8095 7.43033 4.90315 6.69366C5.00395 5.90366 5.23093 5.14699 5.81347 4.53283C6.39601 3.91866 7.11426 3.67949 7.86347 3.57283C8.56188 3.47449 9.4349 3.47449 10.4484 3.47449H12.8849C13.8976 3.47449 14.769 3.47449 15.4683 3.57283C15.2587 3.01147 14.893 2.5294 14.4187 2.18946C13.9445 1.84951 13.3837 1.66744 12.8095 1.66699Z" fill="white"/>
<path d="M5.95239 9.49788C5.95239 7.22621 5.95239 6.09038 6.62223 5.38454C7.29128 4.67871 8.36827 4.67871 10.5238 4.67871H12.8095C14.9643 4.67871 16.0421 4.67871 16.7119 5.38454C17.381 6.09038 17.381 7.22621 17.381 9.49788V13.5145C17.381 15.7862 17.381 16.922 16.7119 17.6279C16.0421 18.3337 14.9643 18.3337 12.8095 18.3337H10.5238C8.36906 18.3337 7.29128 18.3337 6.62223 17.6279C5.95239 16.922 5.95239 15.7862 5.95239 13.5145V9.49788Z" fill="white"/>
</svg>
