<svg width="21" height="20" viewBox="0 0 21 20" fill="none" xmlns="http://www.w3.org/2000/svg">
<path d="M3.6667 17.0833C4.35837 17.775 5.47503 17.775 6.1667 17.0833L17 6.25001C17.6917 5.55835 17.6917 4.44168 17 3.75001C16.3084 3.05835 15.1917 3.05835 14.5 3.75001L3.6667 14.5833C2.97503 15.275 2.97503 16.3917 3.6667 17.0833Z" stroke="white" stroke-width="1.5" stroke-linecap="round" stroke-linejoin="round"/>
<path d="M15.7583 7.49164L13.2583 4.99164" stroke="white" stroke-width="1.5" stroke-linecap="round" stroke-linejoin="round"/>
<path d="M7.83325 2.03335L9.08325 1.66669L8.71659 2.91669L9.08325 4.16669L7.83325 3.80002L6.58325 4.16669L6.94992 2.91669L6.58325 1.66669L7.83325 2.03335Z" stroke="white" stroke-linecap="round" stroke-linejoin="round"/>
<path d="M4.5 7.03335L5.75 6.66669L5.38333 7.91669L5.75 9.16669L4.5 8.80002L3.25 9.16669L3.61667 7.91669L3.25 6.66669L4.5 7.03335Z" stroke="white" stroke-linecap="round" stroke-linejoin="round"/>
<path d="M17 11.2L18.25 10.8333L17.8833 12.0833L18.25 13.3333L17 12.9666L15.75 13.3333L16.1167 12.0833L15.75 10.8333L17 11.2Z" stroke="white" stroke-linecap="round" stroke-linejoin="round"/>
</svg>
