<svg width="20" height="20" viewBox="0 0 20 20" fill="none" xmlns="http://www.w3.org/2000/svg">
<path fill-rule="evenodd" clip-rule="evenodd" d="M14.3366 8.99669L15.8333 7.50002C16.2875 7.04585 16.515 6.81835 16.6366 6.57335C16.7506 6.34332 16.8099 6.09007 16.8099 5.83335C16.8099 5.57663 16.7506 5.32338 16.6366 5.09335C16.515 4.84835 16.2875 4.62085 15.8333 4.16669C15.3791 3.71252 15.1516 3.48502 14.9066 3.36335C14.6766 3.24937 14.4233 3.19006 14.1666 3.19006C13.9099 3.19006 13.6566 3.24937 13.4266 3.36335C13.1816 3.48502 12.9541 3.71252 12.5 4.16669L10.9841 5.68252C11.7905 7.06303 12.9469 8.20625 14.3366 8.99669ZM9.77245 6.89419L4.04745 12.6192C3.69245 12.9742 3.51579 13.1509 3.39912 13.3692C3.28245 13.5859 3.23329 13.8317 3.13579 14.3234L2.62245 16.8875C2.56745 17.1642 2.53912 17.3025 2.61829 17.3817C2.69745 17.4609 2.83495 17.4325 3.11245 17.3775L5.67662 16.8642C6.16829 16.7667 6.41412 16.7175 6.63162 16.6009C6.84829 16.4842 7.02579 16.3075 7.37995 15.9534L13.1216 10.2117C11.7733 9.36758 10.6292 8.2348 9.77162 6.89502" fill="white"/>
</svg>
