<svg width="16" height="16" viewBox="0 0 16 16" fill="none" xmlns="http://www.w3.org/2000/svg">
<path d="M14.1667 6.10001C12.6267 3.68001 10.3733 2.28668 8.00001 2.28668C6.81334 2.28668 5.66001 2.63335 4.60668 3.28002C3.55334 3.93335 2.60668 4.88668 1.83334 6.10001C1.16668 7.14668 1.16668 8.84668 1.83334 9.89335C3.37334 12.32 5.62668 13.7067 8.00001 13.7067C9.18668 13.7067 10.34 13.36 11.3933 12.7133C12.4467 12.06 13.3933 11.1067 14.1667 9.89335C14.8333 8.85335 14.8333 7.14668 14.1667 6.10001ZM8.00001 10.6933C6.50668 10.6933 5.30668 9.48668 5.30668 8.00001C5.30668 6.51335 6.50668 5.30668 8.00001 5.30668C9.49334 5.30668 10.6933 6.51335 10.6933 8.00001C10.6933 9.48668 9.49334 10.6933 8.00001 10.6933Z" fill="#16E0EE"/>
<path d="M8.00001 6.09332C6.95334 6.09332 6.10001 6.94666 6.10001 7.99999C6.10001 9.04666 6.95334 9.89999 8.00001 9.89999C9.04667 9.89999 9.90667 9.04666 9.90667 7.99999C9.90667 6.95332 9.04667 6.09332 8.00001 6.09332Z" fill="#16E0EE"/>
</svg>
