<svg width="20" height="20" viewBox="0 0 20 20" fill="none" xmlns="http://www.w3.org/2000/svg">
<path d="M8.88889 1.11111C8.88889 1.11111 14.8232 2.95597 13.5101 8.65827C13.5101 8.65827 14.1667 8.15513 14.8232 7.14883C14.8232 7.14883 17.7778 9.49683 17.7778 12.8512C17.7778 15.1992 15.8081 17.2117 11.8687 18.8889L11.4195 18.8463C12.7041 16.9647 12.7491 15.4136 11.5544 14.1929C8.92815 11.6771 10.0771 9.99999 10.0771 9.99999C10.0771 9.99999 7.29719 11.3492 6.75701 13.8628C6.46701 15.2122 6.82247 16.897 8.59985 18.8889L10.1776 18.8634L8.33335 18.8889C5.03335 17.7889 2.27785 15.6204 2.22307 12.3225L2.22223 12.2222C2.22223 5.95411 8.43583 7.00081 8.88889 1.11111Z" fill="#FF3434"/>
</svg>
