<svg width="40" height="40" viewBox="0 0 40 40" fill="none" xmlns="http://www.w3.org/2000/svg">
<g clip-path="url(#clip0_693_2)">
<path d="M38.9474 0H1.05263C0.471279 0 0 0.471279 0 1.05263V38.9474C0 39.5287 0.471279 40 1.05263 40H38.9474C39.5287 40 40 39.5287 40 38.9474V1.05263C40 0.471279 39.5287 0 38.9474 0Z" fill="white"/>
<path fill-rule="evenodd" clip-rule="evenodd" d="M28.64 20.2046C28.64 19.5664 28.5827 18.9529 28.4763 18.3638H20V21.8452H24.8437C24.6349 22.9701 24.0009 23.9233 23.0477 24.5615V26.8197H25.9563C27.6582 25.2529 28.64 22.9456 28.64 20.2046Z" fill="#4285F4"/>
<path fill-rule="evenodd" clip-rule="evenodd" d="M20.0003 29C22.4303 29 24.4675 28.1941 25.9567 26.8196L23.048 24.5614C22.242 25.1014 21.2112 25.4204 20.0003 25.4204C17.6562 25.4204 15.672 23.8373 14.9644 21.71H11.9575V24.0418C13.4385 26.9831 16.482 29 20.0003 29Z" fill="#34A853"/>
<path fill-rule="evenodd" clip-rule="evenodd" d="M14.9643 21.7101C14.7843 21.1701 14.682 20.5934 14.682 20.0001C14.682 19.4069 14.7843 18.8301 14.9643 18.2901V15.9583H11.9575C11.3479 17.1734 11.0002 18.5479 11.0002 20.0001C11.0002 21.4524 11.3479 22.8269 11.9575 24.042L14.9643 21.7101Z" fill="#FBBC05"/>
<path fill-rule="evenodd" clip-rule="evenodd" d="M20.0003 14.5798C21.3216 14.5798 22.508 15.0338 23.4407 15.9257L26.022 13.3443C24.4634 11.892 22.4262 11.0002 20.0003 11.0002C16.482 11.0002 13.4385 13.0171 11.9575 15.9584L14.9644 18.2902C15.672 16.163 17.6562 14.5798 20.0003 14.5798Z" fill="#EA4335"/>
</g>
<defs>
<clipPath id="clip0_693_2">
<rect width="40" height="40" fill="white"/>
</clipPath>
</defs>
</svg>
