<svg width="34" height="36" viewBox="0 0 34 36" fill="none" xmlns="http://www.w3.org/2000/svg">
<path d="M20.7783 6.2088C19.7837 5.86705 17.7641 4.68352 17.4758 1.77442C17.4297 1.3426 17.0492 1.01306 16.5996 1.00169C13.2329 0.910785 11.2839 4.47898 10.3961 6.25171C10.0246 6.73056 9.4854 6.71762 9.10492 6.27444C8.53997 5.61534 8.75941 3.83125 7.4681 4.41079C3.77861 6.06989 1.58798 10.4108 1.58798 15.4563C1.58798 24.104 14.1422 31.3086 16.5865 32.5927C16.8401 32.7291 18.0137 32.8452 18.4967 32.5927C20.9525 31.3086 33.2829 24.104 33.2829 15.4563C33.2829 9.51308 28.5443 5.59262 23.2522 3.53579C22.6757 3.30852 22.0416 3.71761 22.0416 4.33125L21.9545 5.37751C21.9103 5.81084 21.3856 6.41749 20.7783 6.2088Z" fill="url(#paint0_linear_292_359)"/>
<path d="M20.7783 6.2088C19.7837 5.86705 17.7641 4.68352 17.4758 1.77442C17.4297 1.3426 17.0492 1.01306 16.5996 1.00169C13.2329 0.910785 11.2839 4.47898 10.3961 6.25171C10.0246 6.73056 9.4854 6.71762 9.10492 6.27444C8.53997 5.61534 8.75941 3.83125 7.4681 4.41079C3.77861 6.06989 1.58798 10.4108 1.58798 15.4563C1.58798 24.104 14.1422 31.3086 16.5865 32.5927C16.8401 32.7291 18.0137 32.8452 18.4967 32.5927C20.9525 31.3086 33.2829 24.104 33.2829 15.4563C33.2829 9.51308 28.5443 5.59262 23.2522 3.53579C22.6757 3.30852 22.0416 3.71761 22.0416 4.33125L21.9545 5.37751C21.9103 5.81084 21.3856 6.41749 20.7783 6.2088Z" fill="url(#paint1_linear_292_359)"/>
<path d="M20.7783 6.2088C19.7837 5.86705 17.7641 4.68352 17.4758 1.77442C17.4297 1.3426 17.0492 1.01306 16.5996 1.00169C13.2329 0.910785 11.2839 4.47898 10.3961 6.25171C10.0246 6.73056 9.4854 6.71762 9.10492 6.27444C8.53997 5.61534 8.75941 3.83125 7.4681 4.41079C3.77861 6.06989 1.58798 10.4108 1.58798 15.4563C1.58798 24.104 14.1422 31.3086 16.5865 32.5927C16.8401 32.7291 18.0137 32.8452 18.4967 32.5927C20.9525 31.3086 33.2829 24.104 33.2829 15.4563C33.2829 9.51308 28.5443 5.59262 23.2522 3.53579C22.6757 3.30852 22.0416 3.71761 22.0416 4.33125L21.9545 5.37751C21.9103 5.81084 21.3856 6.41749 20.7783 6.2088Z" fill="url(#paint2_linear_292_359)"/>
<g filter="url(#filter0_f_292_359)">
<path d="M17.2036 11.2938C13.225 7.62659 14.7955 3.28268 16.6534 1.73669C16.7105 1.68918 16.7958 1.7244 16.8104 1.79722C17.6283 5.85239 19.8081 6.89909 22.8634 7.6149C20.2598 8.23748 17.8167 10.5391 17.2036 11.2938Z" fill="url(#paint3_linear_292_359)"/>
</g>
<g filter="url(#filter1_f_292_359)">
<path d="M9.73979 15.9988C6.07228 13.1616 6.22886 6.66962 8.02491 5.02953C8.07977 4.97944 8.16445 5.01312 8.17963 5.08583C8.70533 7.60412 10.2099 9.02726 13.2418 9.7376C10.6383 10.3602 10.3529 15.2441 9.73979 15.9988Z" fill="url(#paint4_linear_292_359)" fill-opacity="0.5"/>
</g>
<g filter="url(#filter2_f_292_359)">
<path d="M16.567 2.06152C15.4233 3.07557 13.7442 6.01632 16.1779 9.6669" stroke="url(#paint5_linear_292_359)" stroke-width="0.25" stroke-linecap="round"/>
</g>
<g filter="url(#filter3_f_292_359)">
<path d="M7.86503 5.24512C6.87455 6.97844 7.15754 11.1525 9.13848 13.8056" stroke="url(#paint6_linear_292_359)" stroke-width="0.25" stroke-linecap="round"/>
</g>
<g filter="url(#filter4_f_292_359)">
<path d="M26.2242 12.8506C26.0261 8.88875 23.4414 4.75001 22.6161 4.11328C22.6161 6.55408 20.3521 9.98534 18.8311 11.2942L26.2242 12.8506Z" fill="url(#paint7_linear_292_359)"/>
</g>
<g filter="url(#filter5_f_292_359)">
<path d="M26.6132 25.0193L24.5615 5.20996C27.132 5.79952 32.1598 9.89346 31.99 15.3269C31.8202 20.7603 28.3583 23.5336 26.6132 25.0193Z" fill="url(#paint8_linear_292_359)"/>
</g>
<path d="M16.6753 32.5759C17.2098 32.8752 17.8534 32.8586 18.385 32.5541C21.8856 30.5491 27.9444 25.9542 30.3266 19.9889C33.8299 12.2071 25.6041 5.99512 19.919 10.463C19.3303 10.9256 18.5912 11.4546 18.0785 11.9566C17.8401 12.19 17.4209 12.2138 17.1738 11.9897C16.4987 11.3775 15.4526 10.5965 14.7794 10.141C9.93269 6.86194 1.11405 11.1843 4.87577 20.4093C6.25142 24.543 12.7979 30.4046 16.6753 32.5759Z" fill="url(#paint9_radial_292_359)"/>
<path d="M16.6753 32.5759C17.2098 32.8752 17.8534 32.8586 18.385 32.5541C21.8856 30.5491 27.9444 25.9542 30.3266 19.9889C33.8299 12.2071 25.6041 5.99512 19.919 10.463C19.3303 10.9256 18.5912 11.4546 18.0785 11.9566C17.8401 12.19 17.4209 12.2138 17.1738 11.9897C16.4987 11.3775 15.4526 10.5965 14.7794 10.141C9.93269 6.86194 1.11405 11.1843 4.87577 20.4093C6.25142 24.543 12.7979 30.4046 16.6753 32.5759Z" fill="url(#paint10_radial_292_359)"/>
<path d="M16.6753 32.5759C17.2098 32.8752 17.8534 32.8586 18.385 32.5541C21.8856 30.5491 27.9444 25.9542 30.3266 19.9889C33.8299 12.2071 25.6041 5.99512 19.919 10.463C19.3303 10.9256 18.5912 11.4546 18.0785 11.9566C17.8401 12.19 17.4209 12.2138 17.1738 11.9897C16.4987 11.3775 15.4526 10.5965 14.7794 10.141C9.93269 6.86194 1.11405 11.1843 4.87577 20.4093C6.25142 24.543 12.7979 30.4046 16.6753 32.5759Z" fill="url(#paint11_radial_292_359)"/>
<path d="M16.6753 32.5759C17.2098 32.8752 17.8534 32.8586 18.385 32.5541C21.8856 30.5491 27.9444 25.9542 30.3266 19.9889C33.8299 12.2071 25.6041 5.99512 19.919 10.463C19.3303 10.9256 18.5912 11.4546 18.0785 11.9566C17.8401 12.19 17.4209 12.2138 17.1738 11.9897C16.4987 11.3775 15.4526 10.5965 14.7794 10.141C9.93269 6.86194 1.11405 11.1843 4.87577 20.4093C6.25142 24.543 12.7979 30.4046 16.6753 32.5759Z" fill="url(#paint12_radial_292_359)"/>
<path d="M16.6753 32.5759C17.2098 32.8752 17.8534 32.8586 18.385 32.5541C21.8856 30.5491 27.9444 25.9542 30.3266 19.9889C33.8299 12.2071 25.6041 5.99512 19.919 10.463C19.3303 10.9256 18.5912 11.4546 18.0785 11.9566C17.8401 12.19 17.4209 12.2138 17.1738 11.9897C16.4987 11.3775 15.4526 10.5965 14.7794 10.141C9.93269 6.86194 1.11405 11.1843 4.87577 20.4093C6.25142 24.543 12.7979 30.4046 16.6753 32.5759Z" fill="url(#paint13_linear_292_359)"/>
<path d="M16.6753 32.5759C17.2098 32.8752 17.8534 32.8586 18.385 32.5541C21.8856 30.5491 27.9444 25.9542 30.3266 19.9889C33.8299 12.2071 25.6041 5.99512 19.919 10.463C19.3303 10.9256 18.5912 11.4546 18.0785 11.9566C17.8401 12.19 17.4209 12.2138 17.1738 11.9897C16.4987 11.3775 15.4526 10.5965 14.7794 10.141C9.93269 6.86194 1.11405 11.1843 4.87577 20.4093C6.25142 24.543 12.7979 30.4046 16.6753 32.5759Z" fill="url(#paint14_linear_292_359)"/>
<path d="M16.6753 32.5759C17.2098 32.8752 17.8534 32.8586 18.385 32.5541C21.8856 30.5491 27.9444 25.9542 30.3266 19.9889C33.8299 12.2071 25.6041 5.99512 19.919 10.463C19.3303 10.9256 18.5912 11.4546 18.0785 11.9566C17.8401 12.19 17.4209 12.2138 17.1738 11.9897C16.4987 11.3775 15.4526 10.5965 14.7794 10.141C9.93269 6.86194 1.11405 11.1843 4.87577 20.4093C6.25142 24.543 12.7979 30.4046 16.6753 32.5759Z" fill="url(#paint15_radial_292_359)" fill-opacity="0.6"/>
<g filter="url(#filter6_f_292_359)">
<path d="M18.1429 14.4321V21.0176C18.1429 21.9225 19.2385 22.3511 19.8005 21.6419C21.4864 19.5143 22.829 16.9386 21.307 14.8319C20.7221 14.0222 19.6041 13.502 18.6864 13.6603C18.3332 13.7213 18.1429 14.0737 18.1429 14.4321Z" fill="#FA1C56"/>
</g>
<g filter="url(#filter7_f_292_359)">
<ellipse cx="26.0986" cy="15.026" rx="4.0629" ry="2.79557" transform="rotate(-44.1901 26.0986 15.026)" fill="url(#paint16_radial_292_359)"/>
</g>
<g filter="url(#filter8_f_292_359)">
<ellipse cx="15.1644" cy="16.8707" rx="4.6679" ry="2.51833" transform="rotate(-128.955 15.1644 16.8707)" fill="url(#paint17_radial_292_359)" fill-opacity="0.6"/>
</g>
<g filter="url(#filter9_f_292_359)">
<ellipse cx="24.5182" cy="10.1996" rx="1.99056" ry="0.387102" fill="#FF93BA"/>
</g>
<g filter="url(#filter10_f_292_359)">
<ellipse cx="11.035" cy="10.1996" rx="1.99056" ry="0.387102" fill="#FF93BA" fill-opacity="0.5"/>
</g>
<defs>
<filter id="filter0_f_292_359" x="13.7235" y="0.714996" width="10.1399" height="11.5788" filterUnits="userSpaceOnUse" color-interpolation-filters="sRGB">
<feFlood flood-opacity="0" result="BackgroundImageFix"/>
<feBlend mode="normal" in="SourceGraphic" in2="BackgroundImageFix" result="shape"/>
<feGaussianBlur stdDeviation="0.5" result="effect1_foregroundBlur_292_359"/>
</filter>
<filter id="filter1_f_292_359" x="5.79102" y="4.00571" width="8.45081" height="12.9931" filterUnits="userSpaceOnUse" color-interpolation-filters="sRGB">
<feFlood flood-opacity="0" result="BackgroundImageFix"/>
<feBlend mode="normal" in="SourceGraphic" in2="BackgroundImageFix" result="shape"/>
<feGaussianBlur stdDeviation="0.5" result="effect1_foregroundBlur_292_359"/>
</filter>
<filter id="filter2_f_292_359" x="14.3049" y="1.43652" width="2.88708" height="8.85538" filterUnits="userSpaceOnUse" color-interpolation-filters="sRGB">
<feFlood flood-opacity="0" result="BackgroundImageFix"/>
<feBlend mode="normal" in="SourceGraphic" in2="BackgroundImageFix" result="shape"/>
<feGaussianBlur stdDeviation="0.25" result="effect1_foregroundBlur_292_359"/>
</filter>
<filter id="filter3_f_292_359" x="6.68509" y="4.62009" width="3.0784" height="9.81052" filterUnits="userSpaceOnUse" color-interpolation-filters="sRGB">
<feFlood flood-opacity="0" result="BackgroundImageFix"/>
<feBlend mode="normal" in="SourceGraphic" in2="BackgroundImageFix" result="shape"/>
<feGaussianBlur stdDeviation="0.25" result="effect1_foregroundBlur_292_359"/>
</filter>
<filter id="filter4_f_292_359" x="17.5811" y="2.86328" width="9.89313" height="11.2373" filterUnits="userSpaceOnUse" color-interpolation-filters="sRGB">
<feFlood flood-opacity="0" result="BackgroundImageFix"/>
<feBlend mode="normal" in="SourceGraphic" in2="BackgroundImageFix" result="shape"/>
<feGaussianBlur stdDeviation="0.625" result="effect1_foregroundBlur_292_359"/>
</filter>
<filter id="filter5_f_292_359" x="23.5615" y="4.20996" width="9.43271" height="21.8094" filterUnits="userSpaceOnUse" color-interpolation-filters="sRGB">
<feFlood flood-opacity="0" result="BackgroundImageFix"/>
<feBlend mode="normal" in="SourceGraphic" in2="BackgroundImageFix" result="shape"/>
<feGaussianBlur stdDeviation="0.5" result="effect1_foregroundBlur_292_359"/>
</filter>
<filter id="filter6_f_292_359" x="16.1429" y="11.632" width="7.82883" height="12.3648" filterUnits="userSpaceOnUse" color-interpolation-filters="sRGB">
<feFlood flood-opacity="0" result="BackgroundImageFix"/>
<feBlend mode="normal" in="SourceGraphic" in2="BackgroundImageFix" result="shape"/>
<feGaussianBlur stdDeviation="1" result="effect1_foregroundBlur_292_359"/>
</filter>
<filter id="filter7_f_292_359" x="21.0933" y="10.0561" width="10.0105" height="9.93985" filterUnits="userSpaceOnUse" color-interpolation-filters="sRGB">
<feFlood flood-opacity="0" result="BackgroundImageFix"/>
<feBlend mode="normal" in="SourceGraphic" in2="BackgroundImageFix" result="shape"/>
<feGaussianBlur stdDeviation="0.75" result="effect1_foregroundBlur_292_359"/>
</filter>
<filter id="filter8_f_292_359" x="10.1358" y="11.4095" width="10.0571" height="10.9224" filterUnits="userSpaceOnUse" color-interpolation-filters="sRGB">
<feFlood flood-opacity="0" result="BackgroundImageFix"/>
<feBlend mode="normal" in="SourceGraphic" in2="BackgroundImageFix" result="shape"/>
<feGaussianBlur stdDeviation="0.75" result="effect1_foregroundBlur_292_359"/>
</filter>
<filter id="filter9_f_292_359" x="21.0276" y="8.3125" width="6.98114" height="3.7742" filterUnits="userSpaceOnUse" color-interpolation-filters="sRGB">
<feFlood flood-opacity="0" result="BackgroundImageFix"/>
<feBlend mode="normal" in="SourceGraphic" in2="BackgroundImageFix" result="shape"/>
<feGaussianBlur stdDeviation="0.75" result="effect1_foregroundBlur_292_359"/>
</filter>
<filter id="filter10_f_292_359" x="7.54443" y="8.3125" width="6.98114" height="3.7742" filterUnits="userSpaceOnUse" color-interpolation-filters="sRGB">
<feFlood flood-opacity="0" result="BackgroundImageFix"/>
<feBlend mode="normal" in="SourceGraphic" in2="BackgroundImageFix" result="shape"/>
<feGaussianBlur stdDeviation="0.75" result="effect1_foregroundBlur_292_359"/>
</filter>
<linearGradient id="paint0_linear_292_359" x1="22.156" y1="16.8708" x2="11.5439" y2="-0.379581" gradientUnits="userSpaceOnUse">
<stop stop-color="#F8EC1D"/>
<stop offset="0.721254" stop-color="#F89C20"/>
<stop offset="1" stop-color="#F5891F"/>
</linearGradient>
<linearGradient id="paint1_linear_292_359" x1="10.6241" y1="18.5808" x2="4.0446" y2="26.5045" gradientUnits="userSpaceOnUse">
<stop stop-color="#F89C20" stop-opacity="0"/>
<stop offset="1" stop-color="#F5891F"/>
</linearGradient>
<linearGradient id="paint2_linear_292_359" x1="25.6934" y1="15.1849" x2="22.5805" y2="32.7417" gradientUnits="userSpaceOnUse">
<stop stop-color="#F89C20" stop-opacity="0"/>
<stop offset="1" stop-color="#F5891F"/>
</linearGradient>
<linearGradient id="paint3_linear_292_359" x1="16.0716" y1="4.25438" x2="21.0239" y2="13.6638" gradientUnits="userSpaceOnUse">
<stop stop-color="#FFD56C"/>
<stop offset="1" stop-color="#FFD56C" stop-opacity="0"/>
</linearGradient>
<linearGradient id="paint4_linear_292_359" x1="7.01601" y1="8.37571" x2="11.9683" y2="17.7851" gradientUnits="userSpaceOnUse">
<stop stop-color="#FFD56C"/>
<stop offset="1" stop-color="#FFD56C" stop-opacity="0"/>
</linearGradient>
<linearGradient id="paint5_linear_292_359" x1="15.7485" y1="2.06152" x2="15.7485" y2="5.86421" gradientUnits="userSpaceOnUse">
<stop stop-color="#FFE39D"/>
<stop offset="1" stop-color="#FFDD89" stop-opacity="0"/>
</linearGradient>
<linearGradient id="paint6_linear_292_359" x1="7.04654" y1="5.24512" x2="7.04654" y2="9.04781" gradientUnits="userSpaceOnUse">
<stop stop-color="#FFE39D"/>
<stop offset="1" stop-color="#FFDD89" stop-opacity="0"/>
</linearGradient>
<linearGradient id="paint7_linear_292_359" x1="23.4297" y1="4.39627" x2="23.4297" y2="11.2588" gradientUnits="userSpaceOnUse">
<stop stop-color="#F89C20"/>
<stop offset="1" stop-color="#F89C20" stop-opacity="0"/>
</linearGradient>
<linearGradient id="paint8_linear_292_359" x1="31.9942" y1="15.1146" x2="19.8037" y2="8.61429" gradientUnits="userSpaceOnUse">
<stop stop-color="#FFE39E"/>
<stop offset="1" stop-color="#FFE39E" stop-opacity="0"/>
</linearGradient>
<radialGradient id="paint9_radial_292_359" cx="0" cy="0" r="1" gradientUnits="userSpaceOnUse" gradientTransform="translate(16.5489 1.03581) rotate(88.5481) scale(31.4221 32.3572)">
<stop stop-color="#F12E52"/>
<stop offset="0.67675" stop-color="#FF3B79"/>
<stop offset="1" stop-color="#FF4EC6"/>
</radialGradient>
<radialGradient id="paint10_radial_292_359" cx="0" cy="0" r="1" gradientUnits="userSpaceOnUse" gradientTransform="translate(24.3164 15.175) rotate(142.986) scale(25.5994 47.9501)">
<stop offset="0.483055" stop-color="#B91D43" stop-opacity="0"/>
<stop offset="0.833898" stop-color="#B91D43"/>
</radialGradient>
<radialGradient id="paint11_radial_292_359" cx="0" cy="0" r="1" gradientUnits="userSpaceOnUse" gradientTransform="translate(21.3607 21.4469) rotate(-158.663) scale(22.2053 31.3903)">
<stop offset="0.40984" stop-color="#B91D43" stop-opacity="0"/>
<stop offset="0.833898" stop-color="#B91D43"/>
</radialGradient>
<radialGradient id="paint12_radial_292_359" cx="0" cy="0" r="1" gradientUnits="userSpaceOnUse" gradientTransform="translate(17.0302 17.5688) rotate(90) scale(19.3259 19.3259)">
<stop offset="0.671096" stop-color="#FF7AF2" stop-opacity="0"/>
<stop offset="0.933555" stop-color="#FFBCE6"/>
</radialGradient>
<linearGradient id="paint13_linear_292_359" x1="19.1631" y1="19.8311" x2="26.984" y2="29.1385" gradientUnits="userSpaceOnUse">
<stop offset="0.694491" stop-color="#FF7AF2" stop-opacity="0"/>
<stop offset="0.933555" stop-color="#FFBCE6"/>
</linearGradient>
<linearGradient id="paint14_linear_292_359" x1="18.1936" y1="20.2189" x2="9.01542" y2="30.5605" gradientUnits="userSpaceOnUse">
<stop offset="0.694491" stop-color="#FF7AF2" stop-opacity="0"/>
<stop offset="0.933555" stop-color="#FFBCE6"/>
</linearGradient>
<radialGradient id="paint15_radial_292_359" cx="0" cy="0" r="1" gradientUnits="userSpaceOnUse" gradientTransform="translate(19.7505 16.671) rotate(164.618) scale(16.8031 17.7456)">
<stop offset="0.802083" stop-color="#FF73A6" stop-opacity="0"/>
<stop offset="1" stop-color="#FF93BA"/>
</radialGradient>
<radialGradient id="paint16_radial_292_359" cx="0" cy="0" r="1" gradientUnits="userSpaceOnUse" gradientTransform="translate(30.1875 15.8856) rotate(-176.775) scale(6.00837 4.05712)">
<stop stop-color="#FF93BA"/>
<stop offset="1" stop-color="#FF73A6" stop-opacity="0"/>
</radialGradient>
<radialGradient id="paint17_radial_292_359" cx="0" cy="0" r="1" gradientUnits="userSpaceOnUse" gradientTransform="translate(17.9199 17.5509) rotate(-177.229) scale(6.09218 3.22655)">
<stop stop-color="#FFA7C7"/>
<stop offset="1" stop-color="#FFA7C7" stop-opacity="0"/>
</radialGradient>
</defs>
</svg>
