<svg width="32" height="33" viewBox="0 0 32 33" fill="none" xmlns="http://www.w3.org/2000/svg">
<g clip-path="url(#clip0_601_155)">
<path d="M19.2783 6.2088C18.2837 5.86705 16.2641 4.68352 15.9758 1.77442C15.9297 1.3426 15.5493 1.01306 15.0996 1.00169C11.7329 0.910784 9.78388 4.47898 8.8961 6.25171C8.52467 6.73056 7.98543 6.71762 7.60495 6.27444C7.04 5.61534 7.25944 3.83125 5.96813 4.41079C2.27864 6.06989 0.0880127 10.4108 0.0880127 15.4563C0.0880127 24.104 12.6422 31.3086 15.0865 32.5927C15.3402 32.7291 16.5137 32.8452 16.9967 32.5927C19.4525 31.3086 31.783 24.104 31.783 15.4563C31.783 9.51308 27.0443 5.59262 21.7522 3.53579C21.1757 3.30852 20.5416 3.71761 20.5416 4.33125L20.4545 5.37751C20.4103 5.81084 19.8857 6.41749 19.2783 6.2088Z" fill="url(#paint0_linear_601_155)"/>
<path d="M19.2783 6.2088C18.2837 5.86705 16.2641 4.68352 15.9758 1.77442C15.9297 1.3426 15.5493 1.01306 15.0996 1.00169C11.7329 0.910784 9.78388 4.47898 8.8961 6.25171C8.52467 6.73056 7.98543 6.71762 7.60495 6.27444C7.04 5.61534 7.25944 3.83125 5.96813 4.41079C2.27864 6.06989 0.0880127 10.4108 0.0880127 15.4563C0.0880127 24.104 12.6422 31.3086 15.0865 32.5927C15.3402 32.7291 16.5137 32.8452 16.9967 32.5927C19.4525 31.3086 31.783 24.104 31.783 15.4563C31.783 9.51308 27.0443 5.59262 21.7522 3.53579C21.1757 3.30852 20.5416 3.71761 20.5416 4.33125L20.4545 5.37751C20.4103 5.81084 19.8857 6.41749 19.2783 6.2088Z" fill="url(#paint1_linear_601_155)"/>
<path d="M19.2783 6.2088C18.2837 5.86705 16.2641 4.68352 15.9758 1.77442C15.9297 1.3426 15.5493 1.01306 15.0996 1.00169C11.7329 0.910784 9.78388 4.47898 8.8961 6.25171C8.52467 6.73056 7.98543 6.71762 7.60495 6.27444C7.04 5.61534 7.25944 3.83125 5.96813 4.41079C2.27864 6.06989 0.0880127 10.4108 0.0880127 15.4563C0.0880127 24.104 12.6422 31.3086 15.0865 32.5927C15.3402 32.7291 16.5137 32.8452 16.9967 32.5927C19.4525 31.3086 31.783 24.104 31.783 15.4563C31.783 9.51308 27.0443 5.59262 21.7522 3.53579C21.1757 3.30852 20.5416 3.71761 20.5416 4.33125L20.4545 5.37751C20.4103 5.81084 19.8857 6.41749 19.2783 6.2088Z" fill="url(#paint2_linear_601_155)"/>
<g filter="url(#filter0_f_601_155)">
<path d="M15.7036 11.2938C11.725 7.62659 13.2955 3.28268 15.1534 1.73669C15.2105 1.68918 15.2958 1.7244 15.3105 1.79722C16.1283 5.85239 18.3081 6.89909 21.3634 7.6149C18.7599 8.23748 16.3167 10.5391 15.7036 11.2938Z" fill="url(#paint3_linear_601_155)"/>
</g>
<g filter="url(#filter1_f_601_155)">
<path d="M8.23979 15.9988C4.57228 13.1616 4.72886 6.66962 6.52491 5.02953C6.57977 4.97944 6.66445 5.01312 6.67963 5.08583C7.20533 7.60412 8.70987 9.02726 11.7418 9.7376C9.1383 10.3602 8.85293 15.2441 8.23979 15.9988Z" fill="url(#paint4_linear_601_155)" fill-opacity="0.5"/>
</g>
<g filter="url(#filter2_f_601_155)">
<path d="M15.067 2.06152C13.9233 3.07557 12.2442 6.01632 14.6779 9.6669" stroke="url(#paint5_linear_601_155)" stroke-width="0.25" stroke-linecap="round"/>
</g>
<g filter="url(#filter3_f_601_155)">
<path d="M6.36503 5.24512C5.37455 6.97844 5.65754 11.1525 7.63848 13.8056" stroke="url(#paint6_linear_601_155)" stroke-width="0.25" stroke-linecap="round"/>
</g>
<g filter="url(#filter4_f_601_155)">
<path d="M24.7242 12.8506C24.5261 8.88875 21.9414 4.75001 21.1161 4.11328C21.1161 6.55408 18.8521 9.98534 17.3311 11.2942L24.7242 12.8506Z" fill="url(#paint7_linear_601_155)"/>
</g>
<g filter="url(#filter5_f_601_155)">
<path d="M25.1132 25.0193L23.0615 5.20996C25.632 5.79952 30.6598 9.89346 30.49 15.3269C30.3202 20.7603 26.8583 23.5336 25.1132 25.0193Z" fill="url(#paint8_linear_601_155)"/>
</g>
<path d="M15.1752 32.576C15.7097 32.8753 16.3534 32.8586 16.885 32.5542C20.3855 30.5492 26.4443 25.9543 28.8265 19.989C32.3298 12.2072 24.104 5.99521 18.419 10.4631C17.8303 10.9257 17.0912 11.4547 16.5784 11.9567C16.34 12.1901 15.9208 12.2139 15.6737 11.9898C14.9987 11.3775 13.9525 10.5966 13.2793 10.1411C8.43263 6.86203 -0.386012 11.1844 3.37571 20.4094C4.75135 24.5431 11.2979 30.4047 15.1752 32.576Z" fill="url(#paint9_radial_601_155)"/>
<path d="M15.1752 32.576C15.7097 32.8753 16.3534 32.8586 16.885 32.5542C20.3855 30.5492 26.4443 25.9543 28.8265 19.989C32.3298 12.2072 24.104 5.99521 18.419 10.4631C17.8303 10.9257 17.0912 11.4547 16.5784 11.9567C16.34 12.1901 15.9208 12.2139 15.6737 11.9898C14.9987 11.3775 13.9525 10.5966 13.2793 10.1411C8.43263 6.86203 -0.386012 11.1844 3.37571 20.4094C4.75135 24.5431 11.2979 30.4047 15.1752 32.576Z" fill="url(#paint10_radial_601_155)"/>
<path d="M15.1752 32.576C15.7097 32.8753 16.3534 32.8586 16.885 32.5542C20.3855 30.5492 26.4443 25.9543 28.8265 19.989C32.3298 12.2072 24.104 5.99521 18.419 10.4631C17.8303 10.9257 17.0912 11.4547 16.5784 11.9567C16.34 12.1901 15.9208 12.2139 15.6737 11.9898C14.9987 11.3775 13.9525 10.5966 13.2793 10.1411C8.43263 6.86203 -0.386012 11.1844 3.37571 20.4094C4.75135 24.5431 11.2979 30.4047 15.1752 32.576Z" fill="url(#paint11_radial_601_155)"/>
<path d="M15.1752 32.576C15.7097 32.8753 16.3534 32.8586 16.885 32.5542C20.3855 30.5492 26.4443 25.9543 28.8265 19.989C32.3298 12.2072 24.104 5.99521 18.419 10.4631C17.8303 10.9257 17.0912 11.4547 16.5784 11.9567C16.34 12.1901 15.9208 12.2139 15.6737 11.9898C14.9987 11.3775 13.9525 10.5966 13.2793 10.1411C8.43263 6.86203 -0.386012 11.1844 3.37571 20.4094C4.75135 24.5431 11.2979 30.4047 15.1752 32.576Z" fill="url(#paint12_radial_601_155)"/>
<path d="M15.1752 32.576C15.7097 32.8753 16.3534 32.8586 16.885 32.5542C20.3855 30.5492 26.4443 25.9543 28.8265 19.989C32.3298 12.2072 24.104 5.99521 18.419 10.4631C17.8303 10.9257 17.0912 11.4547 16.5784 11.9567C16.34 12.1901 15.9208 12.2139 15.6737 11.9898C14.9987 11.3775 13.9525 10.5966 13.2793 10.1411C8.43263 6.86203 -0.386012 11.1844 3.37571 20.4094C4.75135 24.5431 11.2979 30.4047 15.1752 32.576Z" fill="url(#paint13_linear_601_155)"/>
<path d="M15.1752 32.576C15.7097 32.8753 16.3534 32.8586 16.885 32.5542C20.3855 30.5492 26.4443 25.9543 28.8265 19.989C32.3298 12.2072 24.104 5.99521 18.419 10.4631C17.8303 10.9257 17.0912 11.4547 16.5784 11.9567C16.34 12.1901 15.9208 12.2139 15.6737 11.9898C14.9987 11.3775 13.9525 10.5966 13.2793 10.1411C8.43263 6.86203 -0.386012 11.1844 3.37571 20.4094C4.75135 24.5431 11.2979 30.4047 15.1752 32.576Z" fill="url(#paint14_linear_601_155)"/>
<path d="M15.1752 32.576C15.7097 32.8753 16.3534 32.8586 16.885 32.5542C20.3855 30.5492 26.4443 25.9543 28.8265 19.989C32.3298 12.2072 24.104 5.99521 18.419 10.4631C17.8303 10.9257 17.0912 11.4547 16.5784 11.9567C16.34 12.1901 15.9208 12.2139 15.6737 11.9898C14.9987 11.3775 13.9525 10.5966 13.2793 10.1411C8.43263 6.86203 -0.386012 11.1844 3.37571 20.4094C4.75135 24.5431 11.2979 30.4047 15.1752 32.576Z" fill="url(#paint15_radial_601_155)" fill-opacity="0.6"/>
<g filter="url(#filter6_f_601_155)">
<path d="M16.6429 14.4319V21.0175C16.6429 21.9224 17.7385 22.351 18.3005 21.6417C19.9864 19.5141 21.329 16.9385 19.807 14.8318C19.2221 14.022 18.1041 13.5019 17.1864 13.6602C16.8332 13.7211 16.6429 14.0735 16.6429 14.4319Z" fill="#FA1C56"/>
</g>
<g filter="url(#filter7_f_601_155)">
<path d="M26.5472 17.0305C28.1562 15.4664 28.588 13.3011 27.5118 12.194C26.4356 11.0869 24.2589 11.4574 22.65 13.0215C21.041 14.5856 20.6092 16.751 21.6854 17.858C22.7616 18.9651 24.9383 18.5946 26.5472 17.0305Z" fill="url(#paint16_radial_601_155)"/>
</g>
<g filter="url(#filter8_f_601_155)">
<path d="M15.6227 15.2874C14.0018 13.2826 11.8111 12.3663 10.7295 13.2408C9.64798 14.1152 10.0851 16.4492 11.7059 18.454C13.3268 20.4588 15.5175 21.3751 16.5991 20.5006C17.6806 19.6262 17.2435 17.2922 15.6227 15.2874Z" fill="url(#paint17_radial_601_155)" fill-opacity="0.6"/>
</g>
<g filter="url(#filter9_f_601_155)">
<path d="M23.0182 10.5867C24.1176 10.5867 25.0088 10.4134 25.0088 10.1996C25.0088 9.98581 24.1176 9.8125 23.0182 9.8125C21.9188 9.8125 21.0276 9.98581 21.0276 10.1996C21.0276 10.4134 21.9188 10.5867 23.0182 10.5867Z" fill="#FF93BA"/>
</g>
<g filter="url(#filter10_f_601_155)">
<path d="M9.535 10.5867C10.6344 10.5867 11.5256 10.4134 11.5256 10.1996C11.5256 9.98581 10.6344 9.8125 9.535 9.8125C8.43565 9.8125 7.54444 9.98581 7.54444 10.1996C7.54444 10.4134 8.43565 10.5867 9.535 10.5867Z" fill="#FF93BA" fill-opacity="0.5"/>
</g>
</g>
<defs>
<filter id="filter0_f_601_155" x="12.2235" y="0.715012" width="10.1399" height="11.5788" filterUnits="userSpaceOnUse" color-interpolation-filters="sRGB">
<feFlood flood-opacity="0" result="BackgroundImageFix"/>
<feBlend mode="normal" in="SourceGraphic" in2="BackgroundImageFix" result="shape"/>
<feGaussianBlur stdDeviation="0.5" result="effect1_foregroundBlur_601_155"/>
</filter>
<filter id="filter1_f_601_155" x="4.29102" y="4.0057" width="8.45078" height="12.9931" filterUnits="userSpaceOnUse" color-interpolation-filters="sRGB">
<feFlood flood-opacity="0" result="BackgroundImageFix"/>
<feBlend mode="normal" in="SourceGraphic" in2="BackgroundImageFix" result="shape"/>
<feGaussianBlur stdDeviation="0.5" result="effect1_foregroundBlur_601_155"/>
</filter>
<filter id="filter2_f_601_155" x="12.805" y="1.43652" width="2.88705" height="8.85539" filterUnits="userSpaceOnUse" color-interpolation-filters="sRGB">
<feFlood flood-opacity="0" result="BackgroundImageFix"/>
<feBlend mode="normal" in="SourceGraphic" in2="BackgroundImageFix" result="shape"/>
<feGaussianBlur stdDeviation="0.25" result="effect1_foregroundBlur_601_155"/>
</filter>
<filter id="filter3_f_601_155" x="5.18507" y="4.62009" width="3.07841" height="9.81051" filterUnits="userSpaceOnUse" color-interpolation-filters="sRGB">
<feFlood flood-opacity="0" result="BackgroundImageFix"/>
<feBlend mode="normal" in="SourceGraphic" in2="BackgroundImageFix" result="shape"/>
<feGaussianBlur stdDeviation="0.25" result="effect1_foregroundBlur_601_155"/>
</filter>
<filter id="filter4_f_601_155" x="16.0811" y="2.86328" width="9.8931" height="11.2373" filterUnits="userSpaceOnUse" color-interpolation-filters="sRGB">
<feFlood flood-opacity="0" result="BackgroundImageFix"/>
<feBlend mode="normal" in="SourceGraphic" in2="BackgroundImageFix" result="shape"/>
<feGaussianBlur stdDeviation="0.625" result="effect1_foregroundBlur_601_155"/>
</filter>
<filter id="filter5_f_601_155" x="22.0615" y="4.20996" width="9.43269" height="21.8093" filterUnits="userSpaceOnUse" color-interpolation-filters="sRGB">
<feFlood flood-opacity="0" result="BackgroundImageFix"/>
<feBlend mode="normal" in="SourceGraphic" in2="BackgroundImageFix" result="shape"/>
<feGaussianBlur stdDeviation="0.5" result="effect1_foregroundBlur_601_155"/>
</filter>
<filter id="filter6_f_601_155" x="14.6429" y="11.6318" width="7.82886" height="12.3648" filterUnits="userSpaceOnUse" color-interpolation-filters="sRGB">
<feFlood flood-opacity="0" result="BackgroundImageFix"/>
<feBlend mode="normal" in="SourceGraphic" in2="BackgroundImageFix" result="shape"/>
<feGaussianBlur stdDeviation="1" result="effect1_foregroundBlur_601_155"/>
</filter>
<filter id="filter7_f_601_155" x="19.5934" y="10.0561" width="10.0105" height="9.93983" filterUnits="userSpaceOnUse" color-interpolation-filters="sRGB">
<feFlood flood-opacity="0" result="BackgroundImageFix"/>
<feBlend mode="normal" in="SourceGraphic" in2="BackgroundImageFix" result="shape"/>
<feGaussianBlur stdDeviation="0.75" result="effect1_foregroundBlur_601_155"/>
</filter>
<filter id="filter8_f_601_155" x="8.63577" y="11.4095" width="10.0571" height="10.9224" filterUnits="userSpaceOnUse" color-interpolation-filters="sRGB">
<feFlood flood-opacity="0" result="BackgroundImageFix"/>
<feBlend mode="normal" in="SourceGraphic" in2="BackgroundImageFix" result="shape"/>
<feGaussianBlur stdDeviation="0.75" result="effect1_foregroundBlur_601_155"/>
</filter>
<filter id="filter9_f_601_155" x="19.5276" y="8.3125" width="6.98112" height="3.7742" filterUnits="userSpaceOnUse" color-interpolation-filters="sRGB">
<feFlood flood-opacity="0" result="BackgroundImageFix"/>
<feBlend mode="normal" in="SourceGraphic" in2="BackgroundImageFix" result="shape"/>
<feGaussianBlur stdDeviation="0.75" result="effect1_foregroundBlur_601_155"/>
</filter>
<filter id="filter10_f_601_155" x="6.04444" y="8.3125" width="6.98112" height="3.7742" filterUnits="userSpaceOnUse" color-interpolation-filters="sRGB">
<feFlood flood-opacity="0" result="BackgroundImageFix"/>
<feBlend mode="normal" in="SourceGraphic" in2="BackgroundImageFix" result="shape"/>
<feGaussianBlur stdDeviation="0.75" result="effect1_foregroundBlur_601_155"/>
</filter>
<linearGradient id="paint0_linear_601_155" x1="20.656" y1="16.8708" x2="10.0439" y2="-0.379582" gradientUnits="userSpaceOnUse">
<stop stop-color="#F8EC1D"/>
<stop offset="0.721254" stop-color="#F89C20"/>
<stop offset="1" stop-color="#F5891F"/>
</linearGradient>
<linearGradient id="paint1_linear_601_155" x1="9.12416" y1="18.5808" x2="2.54463" y2="26.5045" gradientUnits="userSpaceOnUse">
<stop stop-color="#F89C20" stop-opacity="0"/>
<stop offset="1" stop-color="#F5891F"/>
</linearGradient>
<linearGradient id="paint2_linear_601_155" x1="24.1934" y1="15.1849" x2="21.0805" y2="32.7417" gradientUnits="userSpaceOnUse">
<stop stop-color="#F89C20" stop-opacity="0"/>
<stop offset="1" stop-color="#F5891F"/>
</linearGradient>
<linearGradient id="paint3_linear_601_155" x1="14.5716" y1="4.25438" x2="19.5239" y2="13.6638" gradientUnits="userSpaceOnUse">
<stop stop-color="#FFD56C"/>
<stop offset="1" stop-color="#FFD56C" stop-opacity="0"/>
</linearGradient>
<linearGradient id="paint4_linear_601_155" x1="5.51601" y1="8.37571" x2="10.4683" y2="17.7851" gradientUnits="userSpaceOnUse">
<stop stop-color="#FFD56C"/>
<stop offset="1" stop-color="#FFD56C" stop-opacity="0"/>
</linearGradient>
<linearGradient id="paint5_linear_601_155" x1="14.2485" y1="2.06152" x2="14.2485" y2="5.86421" gradientUnits="userSpaceOnUse">
<stop stop-color="#FFE39D"/>
<stop offset="1" stop-color="#FFDD89" stop-opacity="0"/>
</linearGradient>
<linearGradient id="paint6_linear_601_155" x1="5.54654" y1="5.24512" x2="5.54654" y2="9.04781" gradientUnits="userSpaceOnUse">
<stop stop-color="#FFE39D"/>
<stop offset="1" stop-color="#FFDD89" stop-opacity="0"/>
</linearGradient>
<linearGradient id="paint7_linear_601_155" x1="21.9297" y1="4.39627" x2="21.9297" y2="11.2588" gradientUnits="userSpaceOnUse">
<stop stop-color="#F89C20"/>
<stop offset="1" stop-color="#F89C20" stop-opacity="0"/>
</linearGradient>
<linearGradient id="paint8_linear_601_155" x1="30.4942" y1="15.1146" x2="18.3037" y2="8.61429" gradientUnits="userSpaceOnUse">
<stop stop-color="#FFE39E"/>
<stop offset="1" stop-color="#FFE39E" stop-opacity="0"/>
</linearGradient>
<radialGradient id="paint9_radial_601_155" cx="0" cy="0" r="1" gradientUnits="userSpaceOnUse" gradientTransform="translate(15.0489 1.0359) rotate(88.5481) scale(31.4221 32.3572)">
<stop stop-color="#F12E52"/>
<stop offset="0.67675" stop-color="#FF3B79"/>
<stop offset="1" stop-color="#FF4EC6"/>
</radialGradient>
<radialGradient id="paint10_radial_601_155" cx="0" cy="0" r="1" gradientUnits="userSpaceOnUse" gradientTransform="translate(22.8164 15.1751) rotate(142.986) scale(25.5994 47.9501)">
<stop offset="0.483055" stop-color="#B91D43" stop-opacity="0"/>
<stop offset="0.833898" stop-color="#B91D43"/>
</radialGradient>
<radialGradient id="paint11_radial_601_155" cx="0" cy="0" r="1" gradientUnits="userSpaceOnUse" gradientTransform="translate(19.8607 21.447) rotate(-158.663) scale(22.2053 31.3903)">
<stop offset="0.40984" stop-color="#B91D43" stop-opacity="0"/>
<stop offset="0.833898" stop-color="#B91D43"/>
</radialGradient>
<radialGradient id="paint12_radial_601_155" cx="0" cy="0" r="1" gradientUnits="userSpaceOnUse" gradientTransform="translate(15.5301 17.5689) rotate(90) scale(19.3259 19.3259)">
<stop offset="0.671096" stop-color="#FF7AF2" stop-opacity="0"/>
<stop offset="0.933555" stop-color="#FFBCE6"/>
</radialGradient>
<linearGradient id="paint13_linear_601_155" x1="17.6631" y1="19.8312" x2="25.4839" y2="29.1386" gradientUnits="userSpaceOnUse">
<stop offset="0.694491" stop-color="#FF7AF2" stop-opacity="0"/>
<stop offset="0.933555" stop-color="#FFBCE6"/>
</linearGradient>
<linearGradient id="paint14_linear_601_155" x1="16.6936" y1="20.219" x2="7.51536" y2="30.5606" gradientUnits="userSpaceOnUse">
<stop offset="0.694491" stop-color="#FF7AF2" stop-opacity="0"/>
<stop offset="0.933555" stop-color="#FFBCE6"/>
</linearGradient>
<radialGradient id="paint15_radial_601_155" cx="0" cy="0" r="1" gradientUnits="userSpaceOnUse" gradientTransform="translate(18.2504 16.6711) rotate(164.618) scale(16.8031 17.7456)">
<stop offset="0.802083" stop-color="#FF73A6" stop-opacity="0"/>
<stop offset="1" stop-color="#FF93BA"/>
</radialGradient>
<radialGradient id="paint16_radial_601_155" cx="0" cy="0" r="1" gradientUnits="userSpaceOnUse" gradientTransform="translate(28.1296 12.7922) rotate(139.035) scale(6.00837 4.05712)">
<stop stop-color="#FF93BA"/>
<stop offset="1" stop-color="#FF73A6" stop-opacity="0"/>
</radialGradient>
<radialGradient id="paint17_radial_601_155" cx="0" cy="0" r="1" gradientUnits="userSpaceOnUse" gradientTransform="translate(12.4608 14.3003) rotate(53.816) scale(6.09218 3.22655)">
<stop stop-color="#FFA7C7"/>
<stop offset="1" stop-color="#FFA7C7" stop-opacity="0"/>
</radialGradient>
<clipPath id="clip0_601_155">
<rect width="32" height="33" fill="white"/>
</clipPath>
</defs>
</svg>
