<svg width="25" height="24" viewBox="0 0 25 24" fill="none" xmlns="http://www.w3.org/2000/svg">
<path d="M21.36 8.36997L14.43 2.82997C13.36 1.96997 11.63 1.96997 10.57 2.81997L3.64002 8.36997C2.86002 8.98997 2.36002 10.3 2.53002 11.28L3.86002 19.24C4.10002 20.66 5.46002 21.81 6.90002 21.81H18.1C19.53 21.81 20.9 20.65 21.14 19.24L22.47 11.28C22.63 10.3 22.13 8.98997 21.36 8.36997ZM12.5 15.5C11.12 15.5 10 14.38 10 13C10 11.62 11.12 10.5 12.5 10.5C13.88 10.5 15 11.62 15 13C15 14.38 13.88 15.5 12.5 15.5Z" fill="white"/>
</svg>
