<svg width="21" height="26" viewBox="0 0 21 26" fill="none" xmlns="http://www.w3.org/2000/svg">
<g clip-path="url(#clip0_453_11)">
<path d="M5.49951 19H15.4979V26L10.4987 23L5.49951 26V19Z" fill="#EB6F3D"/>
<path d="M10.4984 21C16.2965 21 20.9968 16.299 20.9968 10.5C20.9968 4.70101 16.2965 0 10.4984 0C4.70029 0 0 4.70101 0 10.5C0 16.299 4.70029 21 10.4984 21Z" fill="#F9DA8B"/>
<path d="M10.4984 18C14.6399 18 17.9972 14.6421 17.9972 10.5C17.9972 6.35786 14.6399 3 10.4984 3C6.35686 3 2.99951 6.35786 2.99951 10.5C2.99951 14.6421 6.35686 18 10.4984 18Z" fill="#F4B73F"/>
</g>
<defs>
<clipPath id="clip0_453_11">
<rect width="21" height="26" fill="white"/>
</clipPath>
</defs>
</svg>
