<svg width="24" height="24" viewBox="0 0 24 24" fill="none" xmlns="http://www.w3.org/2000/svg">
<path d="M7.20005 2H9.80005C13 2 15 4 15 7.2V11.25H8.75005C8.34005 11.25 8.00005 11.59 8.00005 12C8.00005 12.41 8.34005 12.75 8.75005 12.75H15V16.8C15 20 13 22 9.80005 22H7.21005C4.01005 22 2.01005 20 2.01005 16.8V7.2C2.00005 4 4.00005 2 7.20005 2Z" fill="#FF6060"/>
<path d="M19.44 11.2498L17.37 9.17984C17.22 9.02984 17.15 8.83984 17.15 8.64984C17.15 8.45984 17.22 8.25984 17.37 8.11984C17.66 7.82984 18.14 7.82984 18.43 8.11984L21.78 11.4698C22.07 11.7598 22.07 12.2398 21.78 12.5298L18.43 15.8798C18.14 16.1698 17.66 16.1698 17.37 15.8798C17.08 15.5898 17.08 15.1098 17.37 14.8198L19.44 12.7498H15V11.2498H19.44Z" fill="#FF6060"/>
</svg>
