<svg width="24" height="24" viewBox="0 0 24 24" fill="none" xmlns="http://www.w3.org/2000/svg">
<path d="M9.06292 2.70508C6.49558 2.70508 4.41526 4.78539 4.41526 7.35273V8.38562C4.41526 10.9532 6.49558 13.0333 9.06292 13.0333C11.6305 13.0333 13.7106 10.9532 13.7106 8.38562V2.70508H9.06292ZM11.2885 9.77477C10.932 10.6621 10.0667 11.2804 9.06292 11.2804C8.05183 11.2804 7.18628 10.6621 6.83003 9.77477C6.77917 9.63648 6.87362 9.48391 7.02644 9.48391H11.0994C11.2447 9.48391 11.3467 9.63648 11.2885 9.77477ZM14.6342 21.2957H3.48409C2.13855 21.2957 1.17128 20.001 1.52753 18.7136L2.29839 16.037C2.63308 14.8661 3.70206 14.0659 4.90956 14.0659H5.59323C6.16065 14.0659 6.70605 14.2914 7.10612 14.6915L8.33542 15.9208C8.35722 15.9426 8.37901 15.9571 8.40081 15.9789L7.54253 18.4663C7.46987 18.7572 7.56433 19.0628 7.79706 19.2517L8.5098 19.8482C8.82972 20.11 9.29542 20.11 9.61534 19.8482L10.3281 19.2517C10.5535 19.0626 10.648 18.7572 10.5753 18.4663L9.72433 15.9789C9.74612 15.9644 9.76792 15.9426 9.78972 15.9208L11.0115 14.6915C11.4188 14.2914 11.9642 14.0659 12.5317 14.0659H13.2153C14.4226 14.0659 15.4845 14.8661 15.8265 16.037L16.5903 18.7136C16.947 20.001 15.9798 21.2957 14.6342 21.2957ZM21.8197 5.99453H19.6867V3.86148C19.6867 3.45977 19.3609 3.13422 18.9594 3.13422C18.5577 3.13422 18.2321 3.46 18.2321 3.86148V5.99453H16.0991C15.6974 5.99453 15.3718 6.32031 15.3718 6.7218C15.3718 7.12328 15.6976 7.44906 16.0991 7.44906H18.2321V9.58211C18.2321 9.98383 18.5579 10.3094 18.9594 10.3094C19.3611 10.3094 19.6867 9.98359 19.6867 9.58211V7.44906H21.8197C22.2214 7.44906 22.547 7.12328 22.547 6.7218C22.547 6.32031 22.2212 5.99453 21.8197 5.99453Z" fill="white"/>
</svg>
