<svg width="24" height="24" viewBox="0 0 24 24" fill="none" xmlns="http://www.w3.org/2000/svg">
<path d="M14.5972 16.47C14.079 16.3875 14.067 14.9625 14.067 14.9625C14.067 14.9625 15.5895 13.455 15.9218 11.4278C16.8142 11.4278 17.3663 9.273 16.473 8.51475C16.5105 7.7175 17.6205 2.25 12 2.25C6.3795 2.25 7.4895 7.7175 7.52625 8.5155C6.63375 9.27375 7.185 11.4285 8.0775 11.4285C8.409 13.4557 9.93225 14.9633 9.93225 14.9633C9.93225 14.9633 9.92025 16.3883 9.402 16.4708C7.73325 16.7362 1.5 19.485 1.5 22.5H12H22.5C22.5 19.485 16.2667 16.7362 14.5972 16.47Z" fill="white"/>
</svg>
