<svg width="46" height="56" viewBox="0 0 46 56" fill="none" xmlns="http://www.w3.org/2000/svg">
<g clip-path="url(#clip0_595_4)">
<path d="M45.3412 28.9431C44.5249 25.5043 44.2542 22.4106 45.7997 19.6431C44.3343 19.4306 42.7998 20.1844 42.0043 21.3929C39.713 14.1175 35.0019 10.2308 26.197 6.46593C24.8587 5.89348 23.5356 5.22359 22.4583 4.25732C21.381 3.29106 20.6531 1.80783 20.9169 0.400391C19.6739 0.522189 18.6587 1.53852 18.2472 2.70102C17.8356 3.86351 17.9309 5.12209 18.1629 6.3306C18.3949 7.5391 18.7568 8.71648 18.8714 9.93581C19.1173 12.5328 18.2748 14.8077 16.4392 16.6929C15.931 15.7605 16.4696 14.6453 16.7417 13.6222C17.3038 11.507 16.5815 9.3999 14.9365 7.92344C15.1188 9.45268 14.2819 10.9481 13.1728 12.0402C12.0637 13.1323 10.6867 13.924 9.4437 14.8592C5.00331 18.1802 2.4468 23.3823 2.18576 28.847C1.72584 28.1216 1.37365 27.4937 0.915105 26.7723C-0.961878 33.1924 0.93306 40.5355 5.69664 45.3127C14.1741 53.8115 32.6954 53.5503 40.2254 44.23C40.8813 43.416 41.4636 42.5475 41.9656 41.6344C44.623 37.929 46.0953 32.126 45.3412 28.9431Z" fill="#FF9A35"/>
<mask id="mask0_595_4" style="mask-type:luminance" maskUnits="userSpaceOnUse" x="0" y="0" width="46" height="52">
<path d="M45.3414 28.944C44.5251 25.5053 44.2544 22.4116 45.7999 19.6441C44.3345 19.4316 42.8001 20.1854 42.0046 21.3939C39.7132 14.1185 35.0021 10.2318 26.1973 6.4669C24.859 5.89445 23.5358 5.22456 22.4585 4.2583C21.3812 3.29204 20.6534 1.80881 20.9172 0.401367C19.6741 0.523165 18.659 1.5395 18.2474 2.70199C17.8358 3.86449 17.9311 5.12307 18.1631 6.33157C18.3952 7.54008 18.757 8.71746 18.8717 9.93679C19.1175 12.5338 18.275 14.8087 16.4395 16.6939C15.9312 15.7614 16.4699 14.6463 16.7419 13.6232C17.3041 11.508 16.5817 9.40088 14.9368 7.92442C15.1191 9.45366 14.2821 10.9491 13.1731 12.0412C12.064 13.1333 10.687 13.925 9.44395 14.8601C5.00355 18.1812 2.44704 23.3833 2.18601 28.8479C1.72608 28.1226 1.37389 27.4946 0.915349 26.7733C-0.961634 33.1934 0.933304 40.5365 5.69689 45.3137C14.1744 53.8125 32.6956 53.5513 40.2256 44.231C40.8815 43.417 41.4638 42.5485 41.9659 41.6354C44.6232 37.93 46.0955 32.127 45.3414 28.944Z" fill="white"/>
</mask>
<g mask="url(#mask0_595_4)">
<path d="M14.9363 7.91895C15.7719 10.4902 15.0896 13.1116 12.5801 15.5124C10.6147 17.3935 7.94911 20.0811 6.62597 22.44C0.403885 33.5317 9.93382 41.2023 14.6532 42.0927C17.6724 42.6625 20.606 40.5635 22.2495 38.0166C23.4335 36.1506 24.1764 34.0486 24.4238 31.8648C24.6711 29.681 24.4166 27.4706 23.679 25.3956C25.1266 27.9316 26.0389 30.7269 26.3616 33.6154C26.6842 36.5038 26.4108 39.4263 25.5574 42.2091C27.7218 42.9574 30.03 43.2207 32.312 42.9797C34.594 42.7386 36.7918 41.9994 38.7438 40.8164C40.6958 39.6334 42.3524 38.0367 43.5916 36.1437C44.8308 34.2506 45.6211 32.1095 45.9045 29.8778C45.4597 35.789 44.9915 41.7991 42.8162 47.3355C40.6409 52.8719 36.4629 57.9441 30.7215 59.8062C25.951 61.3531 20.7537 60.5357 15.8217 59.5883C12.2044 58.8941 8.50157 58.0997 5.41608 56.1266C1.82509 53.8354 -0.619547 50.1246 -2.10704 46.1919C-3.59454 42.2592 -4.20915 38.0721 -4.81548 33.916C-5.43285 29.6869 -5.9715 25.0532 -3.66774 21.4263C-1.68717 18.3137 1.94663 16.6654 5.33045 15.0834C8.71426 13.5013 13.3784 11.2603 14.9363 7.91895Z" fill="#F7802F"/>
<path d="M20.8063 0.0390625C19.8257 1.08111 19.8049 2.73621 20.3795 4.03809C20.9541 5.33998 22.0134 6.36443 23.0617 7.34152C24.11 8.31861 25.1956 9.30788 25.8406 10.58C26.4856 11.8521 26.603 13.4801 25.7425 14.6196C25.8364 11.9306 23.2095 9.79507 20.6129 8.91948C21.6129 10.4974 21.356 12.2946 20.5549 13.9768C19.7538 15.659 18.3147 16.4263 16.4391 16.6834C17.7167 15.5304 17.4653 14.3368 17.4736 12.6343C17.4819 10.9319 17.0592 9.26187 16.7982 7.57971C16.5371 5.89754 16.4253 4.13959 17.0109 2.54133C17.5965 0.943074 19.0729 0.136501 20.8063 0.0390625Z" fill="#F7802F"/>
<path d="M45.6697 19.8935C44.167 20.7935 43.6491 22.6597 43.3218 24.3595C42.9944 26.0592 43.25 27.108 41.8854 28.1988C42.7549 25.8373 42.7549 23.2524 41.8854 20.8909C42.1989 20.2021 42.4558 19.4781 43.0317 18.9801C43.6077 18.482 44.4681 18.2222 45.167 18.5389C45.8658 18.8556 46.3272 19.5011 45.6697 19.8935Z" fill="#F7802F"/>
</g>
<path d="M10.7986 7.89256C10.9022 7.20237 10.8483 6.46346 10.4892 5.86259C10.1301 5.26172 9.41882 4.82731 8.71305 4.92881C7.77801 5.06414 7.19378 6.03717 7.07086 6.95878C6.94794 7.88038 7.13992 8.81281 7.06119 9.73712C6.93827 11.1622 5.64828 12.916 8.1965 11.5276C9.54588 10.7859 10.5735 9.39473 10.7986 7.89256Z" fill="#FF9A35"/>
<path d="M41.2718 37.8719C41.2456 47.6861 39.526 55.6002 22.9287 55.6002C7.2375 55.6002 4.58569 47.5534 4.58569 37.6269C4.5864 33.0031 6.40557 28.5574 9.66508 25.2139C12.9246 21.8704 17.3737 19.8863 22.0876 19.6739C32.5844 19.207 41.3063 27.5772 41.2856 37.8719" fill="#E84D4D"/>
<mask id="mask1_595_4" style="mask-type:luminance" maskUnits="userSpaceOnUse" x="4" y="19" width="38" height="37">
<path d="M41.2716 37.8738C41.2454 47.688 39.5258 55.6022 22.9286 55.6022C7.23732 55.6022 4.58551 47.5554 4.58551 37.6289C4.58622 33.0051 6.40539 28.5594 9.66489 25.2159C12.9244 21.8724 17.3735 19.8882 22.0874 19.6759C32.5842 19.209 41.3061 27.5792 41.2854 37.8738" fill="white"/>
</mask>
<g mask="url(#mask1_595_4)">
<path d="M26.9213 55.3767C23.9325 55.0559 20.9271 54.7325 18.0364 53.9205C15.1456 53.1085 12.3488 51.7728 10.2343 49.6779C7.8863 47.3569 6.51482 44.2227 5.88777 41.0167C5.26073 37.8107 5.33532 34.5113 5.57425 31.2539C4.12405 36.7795 3.468 42.5162 4.88368 48.0485C5.72066 51.3113 7.20125 54.6364 10.0533 56.5094C12.3074 57.9913 15.1498 58.3688 17.861 58.2267C21.1343 58.0535 24.0292 56.8775 26.9213 55.3767Z" fill="#D83939"/>
</g>
<path d="M41.0125 42.8947C41.0125 42.8947 45.7015 18.5085 21.7977 19.6575C-2.10604 20.8065 5.24075 44.451 5.24075 44.451C5.24075 44.451 15.1709 51.6038 19.5898 47.4984C24.009 43.3934 26.577 43.9358 27.5547 46.6684C28.5323 49.4014 37.4882 51.9926 41.0125 42.8947Z" fill="#007939"/>
<path d="M14.0525 42.6588C16.8148 42.6588 19.0647 40.0212 19.0647 36.7692C19.0684 35.827 18.8723 34.8942 18.4887 34.0301C16.0745 33.3535 13.6395 32.5591 11.2294 31.9014C9.90765 32.9624 9.04028 34.7433 9.04028 36.7733C9.04028 40.028 11.2833 42.6588 14.0525 42.6588Z" fill="white"/>
<path d="M14.051 42.2351C16.0098 42.2351 17.5978 40.3695 17.5978 38.0682C17.5978 35.7669 16.0098 33.9014 14.051 33.9014C12.0922 33.9014 10.5042 35.7669 10.5042 38.0682C10.5042 40.3695 12.0922 42.2351 14.051 42.2351Z" fill="#280800"/>
<path d="M11.6437 36.5782C12.273 36.5782 12.7831 35.979 12.7831 35.2398C12.7831 34.5006 12.273 33.9014 11.6437 33.9014C11.0144 33.9014 10.5042 34.5006 10.5042 35.2398C10.5042 35.979 11.0144 36.5782 11.6437 36.5782Z" fill="white"/>
<path d="M31.6673 42.6601C34.4296 42.6601 36.6794 40.0225 36.6794 36.7705C36.6794 34.7148 35.7831 32.9054 34.424 31.8525C32.1103 32.6085 29.7555 33.2378 27.3705 33.7377C26.8944 34.6803 26.6494 35.7188 26.6551 36.7705C26.6551 40.0292 28.8994 42.6601 31.6673 42.6601Z" fill="white"/>
<path d="M31.6672 42.236C33.626 42.236 35.2139 40.3705 35.2139 38.0692C35.2139 35.7679 33.626 33.9023 31.6672 33.9023C29.7083 33.9023 28.1204 35.7679 28.1204 38.0692C28.1204 40.3705 29.7083 42.236 31.6672 42.236Z" fill="#280800"/>
<path d="M29.2598 36.5792C29.8891 36.5792 30.3993 35.98 30.3993 35.2408C30.3993 34.5016 29.8891 33.9023 29.2598 33.9023C28.6305 33.9023 28.1204 34.5016 28.1204 35.2408C28.1204 35.98 28.6305 36.5792 29.2598 36.5792Z" fill="white"/>
<path d="M18.0935 34.5281C18.0269 34.5276 17.9608 34.5171 17.8974 34.4969C16.7207 34.1139 15.1655 33.6714 13.66 33.2424C12.707 32.9718 11.8065 32.7133 11.0469 32.4859C10.9688 32.4625 10.8962 32.4242 10.8332 32.3732C10.7703 32.3223 10.7181 32.2596 10.6799 32.189C10.6416 32.1183 10.6179 32.0409 10.6101 31.9612C10.6024 31.8816 10.6107 31.8012 10.6346 31.7247C10.6586 31.6482 10.6977 31.577 10.7497 31.5153C10.8016 31.4536 10.8655 31.4026 10.9377 31.365C11.0098 31.3275 11.0888 31.3043 11.1701 31.2967C11.2514 31.2891 11.3334 31.2973 11.4115 31.3207C12.1629 31.5467 13.0592 31.8025 14.0081 32.0732C15.5273 32.5049 17.0908 32.9515 18.2896 33.3412C18.4297 33.3869 18.5486 33.4799 18.6251 33.6036C18.7016 33.7273 18.7306 33.8736 18.707 34.0164C18.6834 34.1592 18.6087 34.2891 18.4963 34.3828C18.3839 34.4766 18.2411 34.5281 18.0935 34.5281Z" fill="#280800"/>
<path d="M27.7642 34.5277C27.6155 34.5275 27.4718 34.475 27.3592 34.3799C27.2465 34.2847 27.1725 34.1531 27.1504 34.009C27.1284 33.8649 27.1598 33.7179 27.2389 33.5945C27.3181 33.4712 27.4397 33.3797 27.5818 33.3368C28.3415 33.1081 29.2392 32.8509 30.195 32.5789C31.7004 32.1513 33.2556 31.7074 34.4323 31.3244C34.5104 31.2967 34.5934 31.2847 34.6763 31.2889C34.7592 31.2932 34.8404 31.3137 34.9151 31.3492C34.9898 31.3847 35.0565 31.4346 35.1112 31.4958C35.166 31.557 35.2076 31.6283 35.2337 31.7055C35.2599 31.7827 35.2699 31.8643 35.2633 31.9454C35.2567 32.0265 35.2336 32.1055 35.1954 32.1777C35.1571 32.2499 35.1044 32.3139 35.0405 32.3658C34.9766 32.4178 34.9027 32.4566 34.8232 32.4801C33.6258 32.8712 32.0609 33.3165 30.5416 33.7495C29.5928 34.0202 28.6964 34.2746 27.9451 34.5006C27.8864 34.518 27.8255 34.5271 27.7642 34.5277Z" fill="#280800"/>
<path d="M22.3636 45.2558C23.59 45.1868 24.5817 43.3368 25.8786 43.4302C27.1755 43.5236 30.6201 46.0191 30.3839 48.7C30.1477 51.3809 24.9145 52.0047 23.0541 52.0278C21.1937 52.0508 16.5904 51.4039 15.8349 48.769C15.3197 47.3128 17.3666 44.0771 18.9466 44.3599C20.5266 44.6427 21.1399 45.3248 22.3636 45.2558Z" fill="#6F0904"/>
<mask id="mask2_595_4" style="mask-type:luminance" maskUnits="userSpaceOnUse" x="15" y="43" width="16" height="10">
<path d="M22.3637 45.2548C23.5902 45.1858 24.5819 43.3358 25.8788 43.4292C27.1757 43.5226 30.6203 46.0181 30.3841 48.699C30.1479 51.3799 24.9147 52.0038 23.0543 52.0268C21.1939 52.0498 16.5905 51.4029 15.835 48.768C15.3199 47.3118 17.3667 44.0761 18.9468 44.3589C20.5268 44.6418 21.14 45.3238 22.3637 45.2548Z" fill="white"/>
</mask>
<g mask="url(#mask2_595_4)">
<path d="M22.9949 47.3728C28.3483 47.3728 29.7267 44.6418 30.0816 43.2831C29.9891 43.2727 29.8955 43.2791 29.8054 43.302C27.5955 43.8812 25.2476 42.6592 22.9286 42.6592C20.6097 42.6592 18.3985 43.8772 16.1845 43.302C16.049 43.2644 15.9056 43.2644 15.7701 43.302C16.1486 44.6688 17.5822 47.3728 22.9949 47.3728Z" fill="white"/>
<path d="M18.9497 51.5313C20.1394 52.3163 21.5402 52.7374 22.9745 52.7412C24.4087 52.7451 25.8119 52.3315 27.0059 51.553C25.8485 50.3648 24.4605 49.6719 22.9661 49.6719C21.4717 49.6719 20.103 50.3594 18.9497 51.5313Z" fill="#FF6E6E"/>
</g>
<path d="M23.076 21.2412L22.2204 26.881L19.914 25.8068L21.0103 28.0667L15.2545 28.9051L21.0103 29.7435L19.914 32.0038L22.2204 30.9292L23.076 36.569L23.9317 30.9292L26.238 32.0038L25.1417 29.7435L30.8976 28.9051L25.1417 28.0667L26.238 25.8068L23.9317 26.881L23.076 21.2412Z" fill="#FFFF00"/>
</g>
<defs>
<clipPath id="clip0_595_4">
<rect width="46" height="56" fill="white"/>
</clipPath>
</defs>
</svg>
