<svg width="73" height="121" viewBox="0 0 73 121" fill="none" xmlns="http://www.w3.org/2000/svg">
<g clip-path="url(#clip0_493_2)">
<path d="M71.8469 46.5935C70.5576 41.0383 70.1271 36.0448 72.5746 31.5736C70.2538 31.2326 67.8259 32.4477 66.5693 34.3992C62.9416 22.6529 55.4895 16.3766 41.5579 10.2948C39.4403 9.37036 37.3467 8.29079 35.64 6.73045C33.9332 5.1701 32.7837 2.77277 33.2011 0.5C31.2343 0.698867 29.6281 2.33788 28.979 4.2151C28.33 6.09232 28.4786 8.13562 28.8435 10.0784C29.2085 12.0212 29.7832 13.9334 29.9668 15.9024C30.3558 20.0961 29.0205 23.7696 26.1162 26.8138C25.3142 25.306 26.1643 23.5074 26.5948 21.8553C27.4864 18.4396 26.3435 15.037 23.7407 12.6506C24.0292 15.1222 22.7027 17.537 20.95 19.3006C19.1974 21.0642 17.0164 22.3426 15.0496 23.8527C8.02365 29.2221 3.98074 37.6204 3.56553 46.4471C2.83999 45.2757 2.28272 44.2617 1.55718 43.0969C-1.41271 53.4642 1.5834 65.3198 9.12069 73.0363C22.5344 86.7603 51.8422 86.3385 63.7546 71.288C64.7911 69.9722 65.7116 68.569 66.5059 67.0943C70.7215 61.1042 73.0423 51.7334 71.8469 46.5935Z" fill="#FF9A35"/>
<mask id="mask0_493_2" style="mask-type:luminance" maskUnits="userSpaceOnUse" x="0" y="0" width="73" height="83">
<path d="M71.8469 46.5935C70.5576 41.0383 70.1271 36.0448 72.5746 31.5736C70.2538 31.2326 67.8259 32.4477 66.5693 34.3992C62.9416 22.6529 55.4895 16.3766 41.5579 10.2948C39.4403 9.37036 37.3467 8.29079 35.64 6.73045C33.9332 5.1701 32.7837 2.77277 33.2011 0.5C31.2343 0.698867 29.6281 2.33788 28.979 4.2151C28.33 6.09232 28.4786 8.13562 28.8435 10.0784C29.2085 12.0212 29.7832 13.9334 29.9668 15.9024C30.3558 20.0961 29.0205 23.7696 26.1162 26.8138C25.3142 25.306 26.1643 23.5074 26.5948 21.8553C27.4864 18.4396 26.3435 15.037 23.7407 12.6506C24.0292 15.1222 22.7027 17.537 20.95 19.3006C19.1974 21.0642 17.0164 22.3426 15.0496 23.8527C8.02365 29.2221 3.98074 37.6204 3.56553 46.4471C2.83999 45.2757 2.28272 44.2617 1.55718 43.0969C-1.41271 53.4642 1.5834 65.3198 9.12069 73.0363C22.5344 86.7603 51.8422 86.3385 63.7546 71.288C64.7911 69.9722 65.7116 68.569 66.5059 67.0943C70.7215 61.1042 73.0423 51.7334 71.8469 46.5935Z" fill="white"/>
</mask>
<g mask="url(#mask0_493_2)">
<path d="M23.7364 12.6421C25.0476 16.7833 23.979 21.0273 20.006 24.9063C16.8963 27.9439 12.6785 32.2819 10.5872 36.0931C0.753069 54.013 15.8145 66.3909 23.2884 67.8288C28.0656 68.7489 32.7073 65.3572 35.3079 61.2466C37.181 58.234 38.3565 54.8406 38.7482 51.3149C39.1399 47.7892 38.738 44.2206 37.5719 40.8703C39.8623 44.9655 41.3058 49.4794 41.8168 54.1436C42.3277 58.8079 41.8956 63.5272 40.5462 68.0212C43.9702 69.229 47.6214 69.6541 51.2313 69.2652C54.8412 68.8763 58.3181 67.6833 61.4062 65.7739C64.4944 63.8645 67.1154 61.2873 69.0766 58.2317C71.0377 55.1761 72.289 51.7198 72.7386 48.1169C72.035 57.6604 71.2963 67.3677 67.8522 76.308C64.4081 85.2483 57.7996 93.439 48.7172 96.4461C41.169 98.9439 32.9433 97.624 25.1416 96.0942C19.416 94.9731 13.5592 93.6903 8.67498 90.5041C2.99306 86.8043 -0.87284 80.812 -3.22647 74.4592C-5.58009 68.1064 -6.55476 61.3471 -7.51413 54.6359C-8.49098 47.8066 -9.34109 40.3262 -5.69591 34.4694C-2.56212 29.4431 3.18754 26.7791 8.54166 24.2245C13.8958 21.6698 21.2735 18.0377 23.7364 12.6421Z" fill="#F7802F"/>
<path d="M33.0264 -0.0810547C31.4748 1.60167 31.442 4.27437 32.3511 6.37449C33.2602 8.47462 34.9385 10.1333 36.5972 11.7111C38.2559 13.2889 39.9714 14.8908 41.0007 16.9407C42.03 18.9905 42.207 21.6239 40.8455 23.464C40.9941 19.1195 36.8398 15.6732 32.7313 14.2592C34.3113 16.8074 33.907 19.7095 32.6374 22.4259C31.3677 25.1423 29.0927 26.3814 26.125 26.7966C28.1465 24.9347 27.7487 23.005 27.7618 20.258C27.7749 17.5111 27.1062 14.81 26.6932 12.0957C26.2802 9.38154 26.0922 6.53183 27.0297 3.94874C27.9673 1.36565 30.2925 0.0762908 33.0264 -0.0810547Z" fill="#F7802F"/>
<path d="M72.3693 31.9802C69.9895 33.4335 69.1722 36.4471 68.6542 39.1919C68.1363 41.9367 68.5428 43.6303 66.3815 45.3895C67.7582 41.5763 67.7582 37.4018 66.3815 33.5886C66.8775 32.4785 67.284 31.3093 68.1975 30.5029C69.111 29.6965 70.4681 29.2813 71.5739 29.7905C72.6797 30.2997 73.4074 31.3464 72.3693 31.9802Z" fill="#F7802F"/>
</g>
<path d="M17.1912 12.6002C17.3551 11.4835 17.2721 10.2903 16.7017 9.32219C16.1313 8.35407 15.0102 7.65038 13.8935 7.81429C12.4119 8.03282 11.4896 9.60191 11.2929 11.0923C11.0963 12.5827 11.4044 14.0863 11.2776 15.5767C11.0853 17.88 9.04204 20.7122 13.074 18.4679C15.2135 17.2681 16.8372 15.026 17.1912 12.6002Z" fill="#FF9A35"/>
<path d="M65.411 61.0102C65.3673 76.8584 62.6487 89.6384 36.3851 89.6384C11.5573 89.6384 7.36145 76.6442 7.36145 60.6147C7.36244 53.1499 10.2393 45.9724 15.3945 40.5735C20.5496 35.1746 27.5865 31.9694 35.0433 31.6238C51.652 30.8676 65.4547 44.3862 65.4198 61.0102" fill="#E84D4D"/>
<mask id="mask1_493_2" style="mask-type:luminance" maskUnits="userSpaceOnUse" x="7" y="31" width="59" height="59">
<path d="M65.411 61.0102C65.3673 76.8584 62.6487 89.6384 36.3851 89.6384C11.5573 89.6384 7.36145 76.6442 7.36145 60.6147C7.36244 53.1499 10.2393 45.9724 15.3945 40.5735C20.5496 35.1746 27.5865 31.9694 35.0433 31.6238C51.652 30.8676 65.4547 44.3862 65.4198 61.0102" fill="white"/>
</mask>
<g mask="url(#mask1_493_2)">
<path d="M42.7052 89.2755C37.9761 88.7576 33.2186 88.2352 28.6447 86.924C24.0707 85.6128 19.6476 83.4559 16.3062 80.073C12.5911 76.3251 10.421 71.2616 9.42886 66.0867C8.43671 60.9118 8.55472 55.5817 8.9306 50.3215C6.63816 59.2443 5.59793 68.508 7.83792 77.4418C9.16443 82.7085 11.5049 88.0801 16.0177 91.1046C19.5842 93.4932 24.086 94.1051 28.3737 93.8756C33.5464 93.5981 38.1269 91.699 42.7052 89.2755Z" fill="#D83939"/>
</g>
<path d="M54.9214 65.2081C54.7306 65.208 54.5438 65.1526 54.3838 65.0486C51.4117 63.1058 47.8562 62.8633 43.1926 64.2728C43.0011 64.3307 42.7965 64.3288 42.6061 64.2674C42.4157 64.206 42.2486 64.088 42.127 63.9292C42.0054 63.7703 41.9352 63.5782 41.9257 63.3783C41.9162 63.1785 41.9678 62.9805 42.0737 62.8108C43.7674 60.0988 47.5021 56.9475 52.4651 56.9475H52.5459C52.8068 56.9475 53.0569 57.0511 53.2413 57.2355C53.4257 57.42 53.5294 57.6701 53.5294 57.9309C53.5294 58.1917 53.4257 58.4419 53.2413 58.6263C53.0569 58.8107 52.8068 58.9143 52.5459 58.9143H52.4695C49.3531 58.9143 47.0629 60.3479 45.6096 61.6766C49.458 61.021 52.7033 61.5958 55.4656 63.403C55.6437 63.5183 55.7797 63.6881 55.8532 63.8872C55.9266 64.0862 55.9336 64.3037 55.8731 64.507C55.8125 64.7103 55.6877 64.8886 55.5173 65.015C55.3469 65.1414 55.1401 65.2092 54.928 65.2081H54.9214Z" fill="#280800"/>
<path d="M17.4622 65.2081C17.2507 65.208 17.0448 65.1397 16.8751 65.0133C16.7055 64.8869 16.5811 64.7092 16.5205 64.5065C16.4599 64.3038 16.4663 64.087 16.5387 63.8882C16.6111 63.6894 16.7457 63.5193 16.9224 63.403C19.6847 61.5958 22.93 61.0232 26.7784 61.6766C25.3251 60.3479 23.0349 58.9143 19.9186 58.9143H19.8443C19.5834 58.9143 19.3333 58.8107 19.1489 58.6263C18.9644 58.4419 18.8608 58.1917 18.8608 57.9309C18.8608 57.6701 18.9644 57.42 19.1489 57.2355C19.3333 57.0511 19.5834 56.9475 19.8443 56.9475H19.9229C24.888 56.9475 28.6206 60.0988 30.3143 62.8108C30.4202 62.9805 30.4718 63.1785 30.4623 63.3783C30.4528 63.5782 30.3826 63.7703 30.261 63.9292C30.1394 64.088 29.9723 64.206 29.7819 64.2674C29.5915 64.3288 29.3869 64.3307 29.1954 64.2728C24.5318 62.8589 20.9763 63.1058 18.0064 65.0486C17.8443 65.1535 17.6552 65.2089 17.4622 65.2081Z" fill="#280800"/>
<path d="M36.3851 74.5246C32.7462 74.5214 29.1234 74.0416 25.6091 73.0976C23.8608 72.6321 22.7681 75.9167 23.981 77.925C27.1039 83.0803 31.5052 86.2906 36.3851 86.2906C41.265 86.2906 45.6663 83.0803 48.7913 77.925C50.0086 75.9167 48.9006 72.6321 47.1611 73.0976C43.6468 74.0419 40.024 74.5217 36.3851 74.5246Z" fill="#6F0904"/>
<path d="M36.3851 79.6623C44.8555 79.6623 47.0365 75.2523 47.5981 73.0582C47.4518 73.0415 47.3036 73.0518 47.1611 73.0888C40.1031 74.9915 32.6671 74.9915 25.6091 73.0888C25.3948 73.028 25.1678 73.028 24.9535 73.0888C25.5588 75.296 27.8207 79.6623 36.3851 79.6623Z" fill="white"/>
<path d="M29.9842 84.3281C31.8666 85.5957 34.0831 86.2757 36.3525 86.2819C38.6219 86.2882 40.842 85.6203 42.7314 84.3631C40.9 82.4465 38.7037 81.3254 36.3414 81.3254C33.979 81.3254 31.809 82.4334 29.9842 84.3281Z" fill="#FF6E6E"/>
<path d="M17.283 44.5347C17.0949 44.5349 16.9106 44.4811 16.752 44.3796C16.5935 44.2782 16.4674 44.1334 16.3887 43.9625C16.31 43.7915 16.2821 43.6016 16.3081 43.4152C16.3342 43.2288 16.4131 43.0538 16.5357 42.911C17.6285 41.6445 18.9844 40.6316 20.5089 39.9428C22.0333 39.254 23.6896 38.9059 25.3623 38.9227C25.6231 38.9265 25.8718 39.0337 26.0535 39.2208C26.2353 39.4079 26.3353 39.6595 26.3315 39.9203C26.3277 40.1811 26.2205 40.4298 26.0334 40.6115C25.8464 40.7933 25.5947 40.8933 25.3339 40.8895C23.9496 40.8743 22.5788 41.1618 21.3172 41.7318C20.0557 42.3018 18.9339 43.1405 18.0304 44.1894C17.9383 44.2977 17.8238 44.3846 17.6947 44.4442C17.5657 44.5038 17.4252 44.5347 17.283 44.5347Z" fill="#280800"/>
<path d="M55.4895 44.5346C55.3474 44.5346 55.2069 44.5038 55.0779 44.4441C54.9488 44.3845 54.8343 44.2976 54.7422 44.1893C53.8367 43.1428 52.7146 42.3056 51.4535 41.7358C50.1924 41.166 48.8225 40.8772 47.4387 40.8895H47.4234C47.1626 40.8912 46.9118 40.7892 46.7261 40.6061C46.5404 40.4229 46.4352 40.1734 46.4334 39.9126C46.4317 39.6518 46.5336 39.401 46.7168 39.2153C46.9 39.0296 47.1495 38.9244 47.4103 38.9226C49.0829 38.9068 50.7388 39.2554 52.2631 39.9441C53.7874 40.6329 55.1434 41.6452 56.2369 42.9109C56.3585 43.054 56.4367 43.2289 56.4623 43.415C56.4878 43.6011 56.4596 43.7905 56.3811 43.9611C56.3026 44.1317 56.1769 44.2763 56.019 44.3779C55.861 44.4795 55.6773 44.5339 55.4895 44.5346Z" fill="#280800"/>
<path d="M41.123 92.7131H31.6036C30.9039 92.7125 30.2126 92.8658 29.5789 93.1623C28.9451 93.4587 28.3843 93.891 27.9363 94.4285C27.4883 94.9659 27.164 95.5954 26.9866 96.2723C26.8091 96.9491 26.7828 97.6567 26.9095 98.3448L30.2924 116.643C30.4918 117.726 31.0648 118.706 31.9117 119.41C32.7586 120.115 33.8258 120.501 34.9275 120.5H37.5893C38.6955 120.5 39.7673 120.115 40.6207 119.412C41.4741 118.708 42.0558 117.729 42.266 116.643L45.8084 98.3863C45.9422 97.6959 45.9216 96.9843 45.748 96.3028C45.5744 95.6212 45.2521 94.9866 44.8042 94.4443C44.3563 93.902 43.794 93.4656 43.1576 93.1663C42.5211 92.867 41.8263 92.7122 41.123 92.7131Z" fill="#FC965E"/>
<mask id="mask2_493_2" style="mask-type:luminance" maskUnits="userSpaceOnUse" x="26" y="92" width="20" height="29">
<path d="M41.123 92.7131H31.6036C30.9039 92.7125 30.2126 92.8658 29.5789 93.1623C28.9451 93.4587 28.3843 93.891 27.9363 94.4285C27.4883 94.9659 27.164 95.5954 26.9866 96.2723C26.8091 96.9491 26.7828 97.6567 26.9095 98.3448L30.2924 116.643C30.4918 117.726 31.0648 118.706 31.9117 119.41C32.7586 120.115 33.8258 120.501 34.9275 120.5H37.5893C38.6955 120.5 39.7673 120.115 40.6207 119.412C41.4741 118.708 42.0558 117.729 42.266 116.643L45.8084 98.3863C45.9422 97.6959 45.9216 96.9843 45.748 96.3028C45.5744 95.6212 45.2521 94.9866 44.8042 94.4443C44.3563 93.902 43.794 93.4656 43.1576 93.1663C42.5211 92.867 41.8263 92.7122 41.123 92.7131Z" fill="white"/>
</mask>
<g mask="url(#mask2_493_2)">
<path d="M38.6908 120.491C37.6635 120.527 36.6438 120.303 35.7267 119.838C34.8096 119.374 34.025 118.685 33.4459 117.836C32.775 116.826 32.4276 115.65 32.0888 114.475C30.5744 109.254 29.2107 103.224 27.6963 98.0036C27.3007 96.6378 28.1334 94.695 28.9332 93.5215C26.608 94.1771 25.5218 98.2222 25.3842 100.252C25.2465 102.283 25.5262 104.315 25.8059 106.33L26.8986 114.241C27.1434 116.009 27.4297 117.875 28.5595 119.267C29.4336 120.342 30.7449 121 32.102 121.315C33.4591 121.63 34.8621 121.627 36.2541 121.575C37.2528 121.527 38.0942 121.291 38.6908 120.491Z" fill="#EF7F48"/>
</g>
<path d="M23.9789 96.3367L23.6926 92.2981C23.6489 91.7139 23.3851 91.1681 22.9545 90.7709C22.5239 90.3738 21.9585 90.1549 21.3727 90.1585C20.7869 90.1621 20.2243 90.3879 19.7986 90.7904C19.3729 91.1928 19.1158 91.7419 19.0793 92.3265L15.8013 90.7334C14.8088 90.2497 13.6647 90.1802 12.6209 90.54C11.577 90.8998 10.7189 91.6596 10.2352 92.6522C9.75154 93.6447 9.68197 94.7888 10.0418 95.8326C10.4016 96.8764 11.1614 97.7346 12.154 98.2183L17.9539 101.037C18.4451 101.278 18.979 101.419 19.5249 101.453C20.0708 101.486 20.618 101.412 21.135 101.233C21.652 101.055 22.1287 100.776 22.5376 100.413C22.9465 100.049 23.2796 99.6088 23.5178 99.1164C23.9811 98.1461 23.9942 96.5618 23.9789 96.3367Z" fill="#FC965E"/>
<mask id="mask3_493_2" style="mask-type:luminance" maskUnits="userSpaceOnUse" x="9" y="90" width="15" height="12">
<path d="M23.9789 96.3367L23.6926 92.2981C23.6489 91.7139 23.3851 91.1681 22.9545 90.7709C22.5239 90.3738 21.9585 90.1549 21.3727 90.1585C20.7869 90.1621 20.2243 90.3879 19.7986 90.7904C19.3729 91.1928 19.1158 91.7419 19.0793 92.3265L15.8013 90.7334C14.8088 90.2497 13.6647 90.1802 12.6209 90.54C11.577 90.8998 10.7189 91.6596 10.2352 92.6522C9.75154 93.6447 9.68197 94.7888 10.0418 95.8326C10.4016 96.8764 11.1614 97.7346 12.154 98.2183L17.9539 101.037C18.4451 101.278 18.979 101.419 19.5249 101.453C20.0708 101.486 20.618 101.412 21.135 101.233C21.652 101.055 22.1287 100.776 22.5376 100.413C22.9465 100.049 23.2796 99.6088 23.5178 99.1164C23.9811 98.1461 23.9942 96.5618 23.9789 96.3367Z" fill="white"/>
</mask>
<g mask="url(#mask3_493_2)">
<path d="M23.8937 95.1634C24.086 97.2635 22.1804 99.1298 20.1021 99.5013C18.0238 99.8728 15.7314 98.5223 13.9285 97.4405C12.1255 96.3588 10.6242 95.5043 9.23651 93.8718C10.5477 98.1464 13.6793 101.665 18.0282 102.683C19.3394 102.991 20.7861 103.077 21.9968 102.478C23.3386 101.822 24.1821 100.389 24.4291 98.9134C24.676 97.4383 24.4094 96.5664 23.8937 95.1634Z" fill="#EF7F48"/>
</g>
<path d="M48.739 96.3367L49.0253 92.2981C49.069 91.7139 49.3328 91.1681 49.7634 90.7709C50.194 90.3738 50.7594 90.1549 51.3452 90.1585C51.931 90.1621 52.4936 90.3879 52.9193 90.7904C53.345 91.1928 53.6021 91.7419 53.6386 92.3265L56.9166 90.7334C57.9092 90.2506 59.0528 90.1819 60.0961 90.5423C61.1393 90.9028 61.9966 91.6629 62.4794 92.6554C62.9622 93.648 63.031 94.7917 62.6705 95.8349C62.3101 96.8781 61.5499 97.7355 60.5574 98.2183L54.7575 101.037C54.2662 101.278 53.7323 101.419 53.1864 101.453C52.6405 101.486 52.0933 101.412 51.5763 101.233C51.0593 101.055 50.5827 100.776 50.1738 100.413C49.7648 100.049 49.4317 99.6088 49.1935 99.1164C48.739 98.1461 48.7237 96.5618 48.739 96.3367Z" fill="#FC965E"/>
<mask id="mask4_493_2" style="mask-type:luminance" maskUnits="userSpaceOnUse" x="48" y="90" width="15" height="12">
<path d="M48.739 96.3367L49.0253 92.2981C49.069 91.7139 49.3328 91.1681 49.7634 90.7709C50.194 90.3738 50.7594 90.1549 51.3452 90.1585C51.931 90.1621 52.4936 90.3879 52.9193 90.7904C53.345 91.1928 53.6021 91.7419 53.6386 92.3265L56.9166 90.7334C57.9092 90.2506 59.0528 90.1819 60.0961 90.5423C61.1393 90.9028 61.9966 91.6629 62.4794 92.6554C62.9622 93.648 63.031 94.7917 62.6705 95.8349C62.3101 96.8781 61.5499 97.7355 60.5574 98.2183L54.7575 101.037C54.2662 101.278 53.7323 101.419 53.1864 101.453C52.6405 101.486 52.0933 101.412 51.5763 101.233C51.0593 101.055 50.5827 100.776 50.1738 100.413C49.7648 100.049 49.4317 99.6088 49.1935 99.1164C48.739 98.1461 48.7237 96.5618 48.739 96.3367Z" fill="white"/>
</mask>
<g mask="url(#mask4_493_2)">
<path d="M60.5815 98.1789C58.9872 98.9881 57.2803 99.5531 55.518 99.8551C53.7698 100.185 51.8554 99.9294 50.4917 98.7428C49.8997 98.2009 49.447 97.5243 49.1719 96.7703C48.8969 96.0163 48.8076 95.2072 48.9117 94.4114C48.1315 95.8013 47.6835 97.8664 48.1927 99.3874C48.4438 100.134 48.8525 100.817 49.3909 101.391C49.9294 101.965 50.585 102.417 51.3134 102.716C53.0748 103.408 55.0985 103.054 56.7637 102.13C58.4289 101.206 59.3927 99.713 60.5815 98.1789Z" fill="#EF7F48"/>
<path d="M54.6504 89.3152C55.1706 90.1173 53.2387 92.755 52.9459 93.6641L55.011 92.4097C55.7643 91.9197 56.5609 91.4998 57.3909 91.1553C58.2322 90.8362 59.1523 90.4538 60.0373 90.6221C60.0398 90.3583 59.9782 90.0978 59.8579 89.863C59.7377 89.6281 59.5623 89.4259 59.3468 89.2737C58.9251 89.0032 58.4432 88.841 57.9438 88.8017C55.9573 88.5526 56.1234 87.9494 54.6504 89.3152Z" fill="#EF7F48"/>
</g>
</g>
<defs>
<clipPath id="clip0_493_2">
<rect width="73" height="121" fill="white"/>
</clipPath>
</defs>
</svg>
