<svg width="24" height="32" viewBox="0 0 24 32" fill="none" xmlns="http://www.w3.org/2000/svg">
<g clip-path="url(#clip0_259_21)">
<path d="M11.8403 31.797C-1 31.797 -1.5 18 2.66273 11.9616C4.14298 16.6984 7.40361 14.9221 7.10756 13.1458C6.16255 7.47571 6.5114 6.63264 10.3601 4.85633C13.0971 3.59308 12.0377 1.20503 11.5443 0.711609C14.2087 1.00766 17.7654 4.56028 15.985 7.81685C15.3499 8.97856 13.6248 11.3695 15.6931 12.5537C18.3575 13.7379 18.6495 10.1853 18.6495 9.29711C25 11.9616 28.138 31.797 11.8403 31.797Z" fill="white"/>
<path d="M8.5878 23.2115C9.73233 23.2115 10.6602 22.1511 10.6602 20.8431C10.6602 19.5351 9.73233 18.4747 8.5878 18.4747C7.44327 18.4747 6.51544 19.5351 6.51544 20.8431C6.51544 22.1511 7.44327 23.2115 8.5878 23.2115Z" fill="black"/>
<path d="M15.6931 23.2115C16.8376 23.2115 17.7655 22.1511 17.7655 20.8431C17.7655 19.5351 16.8376 18.4747 15.6931 18.4747C14.5486 18.4747 13.6207 19.5351 13.6207 20.8431C13.6207 22.1511 14.5486 23.2115 15.6931 23.2115Z" fill="black"/>
<path d="M14.5 21C15.0523 21 15.5 20.5523 15.5 20C15.5 19.4477 15.0523 19 14.5 19C13.9477 19 13.5 19.4477 13.5 20C13.5 20.5523 13.9477 21 14.5 21Z" fill="white"/>
<path d="M7.5 21C8.05228 21 8.5 20.5523 8.5 20C8.5 19.4477 8.05228 19 7.5 19C6.94772 19 6.5 19.4477 6.5 20C6.5 20.5523 6.94772 21 7.5 21Z" fill="white"/>
</g>
<defs>
<clipPath id="clip0_259_21">
<rect width="24" height="32" fill="white"/>
</clipPath>
</defs>
</svg>
