<svg width="44" height="44" viewBox="0 0 44 44" fill="none" xmlns="http://www.w3.org/2000/svg">
<path d="M22.1377 42.4254C5.10009 42.4254 4.43664 24.1183 9.9601 16.106C11.9242 22.3912 16.2507 20.0343 15.8579 17.6773C14.604 10.1538 15.0668 9.03517 20.1736 6.67821C23.8053 5.00203 22.3996 1.83336 21.7449 1.17865C25.2803 1.57148 29.9996 6.28538 27.6373 10.6065C26.7945 12.1479 24.5054 15.3204 27.2498 16.8917C30.7852 18.463 31.1727 13.7491 31.1727 12.5706C39.599 16.106 43.7628 42.4254 22.1377 42.4254Z" fill="url(#paint0_linear_311_2)"/>
<path d="M17.822 31.0334C19.3407 31.0334 20.5718 29.6264 20.5718 27.8908C20.5718 26.1552 19.3407 24.7482 17.822 24.7482C16.3033 24.7482 15.0722 26.1552 15.0722 27.8908C15.0722 29.6264 16.3033 31.0334 17.822 31.0334Z" fill="black"/>
<path d="M27.2498 31.0334C28.7685 31.0334 29.9996 29.6264 29.9996 27.8908C29.9996 26.1552 28.7685 24.7482 27.2498 24.7482C25.7311 24.7482 24.5 26.1552 24.5 27.8908C24.5 29.6264 25.7311 31.0334 27.2498 31.0334Z" fill="black"/>
<path d="M25.6668 28.099C26.3996 28.099 26.9937 27.5049 26.9937 26.7721C26.9937 26.0393 26.3996 25.4452 25.6668 25.4452C24.934 25.4452 24.3399 26.0393 24.3399 26.7721C24.3399 27.5049 24.934 28.099 25.6668 28.099Z" fill="white"/>
<path d="M16.3786 28.099C17.1114 28.099 17.7055 27.5049 17.7055 26.7721C17.7055 26.0393 17.1114 25.4452 16.3786 25.4452C15.6458 25.4452 15.0517 26.0393 15.0517 26.7721C15.0517 27.5049 15.6458 28.099 16.3786 28.099Z" fill="white"/>
<defs>
<linearGradient id="paint0_linear_311_2" x1="32.3574" y1="-8.66847" x2="24.3486" y2="43.6379" gradientUnits="userSpaceOnUse">
<stop stop-color="#FFCAAD"/>
<stop offset="0.493214" stop-color="#FF9055"/>
<stop offset="1" stop-color="#FF6E47"/>
</linearGradient>
</defs>
</svg>
