<svg width="15" height="20" viewBox="0 0 15 20" fill="none" xmlns="http://www.w3.org/2000/svg">
<g clip-path="url(#clip0_265_2)">
<path d="M7.06259 19.2843C-0.681777 19.2843 -0.983342 10.9629 1.52732 7.32094C2.42011 10.1779 4.38668 9.10651 4.20813 8.03517C3.63816 4.61539 3.84856 4.10691 6.16981 3.03557C7.82059 2.27366 7.18163 0.833362 6.88403 0.535767C8.49105 0.714324 10.6362 2.85701 9.56239 4.82114C9.17934 5.5218 8.13883 6.96382 9.38628 7.67805C10.9933 8.39228 11.1694 6.2496 11.1694 5.71392C14.9996 7.32094 16.8922 19.2843 7.06259 19.2843Z" fill="url(#paint0_linear_265_2)"/>
<path d="M5.10097 14.1062C5.79127 14.1062 6.35087 13.4666 6.35087 12.6777C6.35087 11.8888 5.79127 11.2492 5.10097 11.2492C4.41067 11.2492 3.85107 11.8888 3.85107 12.6777C3.85107 13.4666 4.41067 14.1062 5.10097 14.1062Z" fill="black"/>
<path d="M9.38625 14.1062C10.0766 14.1062 10.6362 13.4666 10.6362 12.6777C10.6362 11.8888 10.0766 11.2492 9.38625 11.2492C8.69595 11.2492 8.13635 11.8888 8.13635 12.6777C8.13635 13.4666 8.69595 14.1062 9.38625 14.1062Z" fill="black"/>
<path d="M8.66673 12.7722C8.99983 12.7722 9.26986 12.5022 9.26986 12.1691C9.26986 11.836 8.99983 11.566 8.66673 11.566C8.33363 11.566 8.0636 11.836 8.0636 12.1691C8.0636 12.5022 8.33363 12.7722 8.66673 12.7722Z" fill="white"/>
<path d="M4.4448 12.7722C4.7779 12.7722 5.04793 12.5022 5.04793 12.1691C5.04793 11.836 4.7779 11.566 4.4448 11.566C4.1117 11.566 3.84167 11.836 3.84167 12.1691C3.84167 12.5022 4.1117 12.7722 4.4448 12.7722Z" fill="white"/>
</g>
<defs>
<linearGradient id="paint0_linear_265_2" x1="11.7079" y1="-3.9402" x2="8.06756" y2="19.8354" gradientUnits="userSpaceOnUse">
<stop stop-color="#FFCAAD"/>
<stop offset="0.493214" stop-color="#FF9055"/>
<stop offset="1" stop-color="#FF6E47"/>
</linearGradient>
<clipPath id="clip0_265_2">
<rect width="15" height="20" fill="white"/>
</clipPath>
</defs>
</svg>
