<svg width="28" height="28" viewBox="0 0 28 28" fill="none" xmlns="http://www.w3.org/2000/svg">
<path d="M19.8335 2.33301H8.16683C4.94683 2.33301 2.3335 4.93467 2.3335 8.14301V15.1197V16.2863C2.3335 19.4947 4.94683 22.0963 8.16683 22.0963H9.91683C10.2318 22.0963 10.6518 22.3063 10.8502 22.563L12.6002 24.8847C13.3702 25.9113 14.6302 25.9113 15.4002 24.8847L17.1502 22.563C17.3718 22.2713 17.7218 22.0963 18.0835 22.0963H19.8335C23.0535 22.0963 25.6668 19.4947 25.6668 16.2863V8.14301C25.6668 4.93467 23.0535 2.33301 19.8335 2.33301ZM15.1668 16.0413H8.16683C7.6885 16.0413 7.29183 15.6447 7.29183 15.1663C7.29183 14.688 7.6885 14.2913 8.16683 14.2913H15.1668C15.6452 14.2913 16.0418 14.688 16.0418 15.1663C16.0418 15.6447 15.6452 16.0413 15.1668 16.0413ZM19.8335 10.208H8.16683C7.6885 10.208 7.29183 9.81134 7.29183 9.33301C7.29183 8.85467 7.6885 8.45801 8.16683 8.45801H19.8335C20.3118 8.45801 20.7085 8.85467 20.7085 9.33301C20.7085 9.81134 20.3118 10.208 19.8335 10.208Z" fill="white"/>
</svg>
