<svg width="32" height="32" viewBox="0 0 32 32" fill="none" xmlns="http://www.w3.org/2000/svg">
<path d="M16 2.66669C23.364 2.66669 29.3333 8.63602 29.3333 16C29.3333 23.364 23.364 29.3334 16 29.3334C8.63596 29.3334 2.66663 23.364 2.66663 16C2.66663 14.048 3.08529 12.1947 3.83996 10.5254C4.46129 9.27335 5.48396 8.02669 6.30663 7.60002C5.43596 9.31069 5.00929 10.9867 4.91996 12.1107C5.52529 10.1107 6.67329 8.43469 8.27996 7.25202C11.0346 5.22669 14.744 5.13602 16.2213 6.42535C13.48 7.36802 10.4933 11.156 11.1506 15.5934C11.2573 16.3267 11.4773 17.0387 11.8026 17.7027C11.2906 16.356 11.2453 14.4587 12.072 13.2254C12.9946 11.852 14.3093 11.5614 15.0133 11.7107C14.736 11.652 14.1226 12.8254 14.032 13.032C13.8011 13.5568 13.6869 14.1255 13.6973 14.6987C13.7171 15.8965 14.211 17.0376 15.0706 17.872C17.6333 20.3667 21.768 19.3854 23.62 16.536C24.8906 14.5747 25.0453 11.2454 23.4133 8.60002C23.0061 7.95588 22.5206 7.3647 21.968 6.84002C19.5013 4.48535 15.9946 3.41335 12.6586 3.90002C11.184 4.13602 9.92929 4.56135 8.89329 5.17469C10.34 3.73069 13.2133 2.66669 16 2.66669Z" fill="url(#paint0_linear_350_5)"/>
<defs>
<linearGradient id="paint0_linear_350_5" x1="24.9626" y1="-5.33331" x2="20.7933" y2="30.4858" gradientUnits="userSpaceOnUse">
<stop stop-color="#FF9255"/>
<stop offset="0.493214" stop-color="#FF9055"/>
<stop offset="1" stop-color="#FF6E47"/>
</linearGradient>
</defs>
</svg>
