<svg width="20" height="20" viewBox="0 0 20 20" fill="none" xmlns="http://www.w3.org/2000/svg">
<path d="M15.3916 14.025L15.7166 16.6584C15.8 17.35 15.0583 17.8334 14.4666 17.475L11.5833 15.7584C11.3833 15.6417 11.3333 15.3917 11.4416 15.1917C11.8583 14.425 12.0833 13.5584 12.0833 12.6917C12.0833 9.64169 9.46664 7.15835 6.24997 7.15835C5.59164 7.15835 4.94997 7.25835 4.34997 7.45835C4.04164 7.55835 3.74164 7.27502 3.81664 6.95835C4.57497 3.92502 7.49164 1.66669 10.975 1.66669C15.0416 1.66669 18.3333 4.74169 18.3333 8.53335C18.3333 10.7834 17.175 12.775 15.3916 14.025Z" fill="white"/>
<path d="M10.8334 12.6917C10.8334 13.6833 10.4667 14.6 9.85002 15.325C9.02502 16.325 7.71669 16.9667 6.25002 16.9667L4.07502 18.2583C3.70835 18.4833 3.24169 18.175 3.29169 17.75L3.50002 16.1083C2.38335 15.3333 1.66669 14.0917 1.66669 12.6917C1.66669 11.225 2.45002 9.93332 3.65002 9.16666C4.39169 8.68333 5.28335 8.40833 6.25002 8.40833C8.78335 8.40833 10.8334 10.325 10.8334 12.6917Z" fill="white"/>
</svg>
