<svg width="20" height="20" viewBox="0 0 20 20" fill="none" xmlns="http://www.w3.org/2000/svg">
<path d="M10 12.9166C11.8417 12.9166 13.3334 11.425 13.3334 9.58329V4.99996C13.3334 3.15829 11.8417 1.66663 10 1.66663C8.15835 1.66663 6.66669 3.15829 6.66669 4.99996V9.58329C6.66669 11.425 8.15835 12.9166 10 12.9166Z" stroke="#FEA97B" stroke-width="1.25" stroke-linecap="round" stroke-linejoin="round"/>
<path d="M3.625 8.04163V9.45829C3.625 12.975 6.48333 15.8333 10 15.8333C13.5167 15.8333 16.375 12.975 16.375 9.45829V8.04163" stroke="#FEA97B" stroke-width="1.25" stroke-linecap="round" stroke-linejoin="round"/>
<path d="M8.84167 5.35835C9.59167 5.08335 10.4083 5.08335 11.1583 5.35835" stroke="#FEA97B" stroke-width="1.25" stroke-linecap="round" stroke-linejoin="round"/>
<path d="M9.33331 7.12498C9.77498 7.00831 10.2333 7.00831 10.675 7.12498" stroke="#FEA97B" stroke-width="1.25" stroke-linecap="round" stroke-linejoin="round"/>
<path d="M10 15.8334V18.3334" stroke="#FEA97B" stroke-width="1.25" stroke-linecap="round" stroke-linejoin="round"/>
</svg>
