<svg width="24" height="25" viewBox="0 0 24 25" fill="none" xmlns="http://www.w3.org/2000/svg">
<path d="M11.97 2.57422C6.44997 2.57422 1.96997 7.05422 1.96997 12.5742C1.96997 18.0942 6.44997 22.5742 11.97 22.5742C17.49 22.5742 21.97 18.0942 21.97 12.5742C21.97 7.05422 17.5 2.57422 11.97 2.57422ZM14.97 14.8042L12.07 16.4742C11.71 16.6842 11.31 16.7842 10.92 16.7842C10.52 16.7842 10.13 16.6842 9.76997 16.4742C9.04997 16.0542 8.61997 15.3142 8.61997 14.4742V11.1242C8.61997 10.2942 9.04997 9.54422 9.76997 9.12422C10.49 8.70422 11.35 8.70422 12.08 9.12422L14.98 10.7942C15.7 11.2142 16.13 11.9542 16.13 12.7942C16.13 13.6342 15.7 14.3842 14.97 14.8042Z" fill="#FF6E47"/>
</svg>
