<svg width="20" height="20" viewBox="0 0 20 20" fill="none" xmlns="http://www.w3.org/2000/svg">
<path d="M7.50002 6.66669H11.6667C11.9584 6.66669 12.225 6.51669 12.375 6.27502C12.525 6.02502 12.5417 5.71669 12.4084 5.45836L11.7667 4.16669L12.4084 2.87502C12.5417 2.61669 12.525 2.30836 12.375 2.05836C12.3 1.93821 12.1956 1.83918 12.0717 1.77064C11.9477 1.70211 11.8083 1.66633 11.6667 1.66669H6.66669C6.20835 1.66669 5.83335 2.04169 5.83335 2.50002V8.33336C5.49169 8.45002 5.17502 8.65002 4.90002 8.92502L2.15835 11.6667C1.84169 11.9834 1.66669 12.4 1.66669 12.8417V16.6667C1.66669 17.5834 2.41669 18.3334 3.33335 18.3334H16.6667C17.5834 18.3334 18.3334 17.5834 18.3334 16.6667V14.5084C18.3334 14.0667 18.1584 13.65 17.8417 13.3334L15.9334 11.425C15.4646 10.9569 14.8292 10.6939 14.1667 10.6939C13.5042 10.6939 12.8688 10.9569 12.4 11.425L11.6667 12.1584L8.43335 8.92502C8.17174 8.65883 7.85239 8.45639 7.50002 8.33336V6.66669ZM10.0917 4.54169C10.0301 4.42628 9.99791 4.29749 9.99791 4.16669C9.99791 4.03589 10.0301 3.9071 10.0917 3.79169L10.3167 3.33336H7.50002V5.00002H10.3167L10.0917 4.54169ZM3.33335 16.665V12.8484L6.07502 10.0984C6.40002 9.77336 6.93335 9.77336 7.25835 10.0984L11.075 13.9234C11.4 14.2484 11.9334 14.2484 12.2584 13.9234L13.575 12.5984C13.9 12.2734 14.4334 12.2734 14.7584 12.5984L16.6667 14.515V16.665H3.33335Z" fill="white"/>
</svg>
