<svg width="24" height="24" viewBox="0 0 24 24" fill="none" xmlns="http://www.w3.org/2000/svg">
<path d="M12.5 5.4793C12.58 5.4793 12.66 5.4793 12.75 5.4893V2.5293C12.75 2.1193 12.41 1.7793 12 1.7793C11.59 1.7793 11.25 2.1193 11.25 2.5293V5.4893C11.33 5.4793 11.41 5.4793 11.5 5.4793C6.88997 5.7093 3.21997 9.5093 3.21997 14.1793V16.1193C3.21997 17.2193 4.11997 18.1193 5.21997 18.1193H18.78C19.88 18.1193 20.78 17.2193 20.78 16.1193V14.1793C20.78 9.5093 17.11 5.7093 12.5 5.4793Z" fill="white"/>
<path d="M14.73 19.1094C15.06 19.1094 15.3 19.4194 15.22 19.7394C14.84 21.1694 13.54 22.2194 12 22.2194C10.46 22.2194 9.16001 21.1694 8.78001 19.7394C8.70001 19.4194 8.94001 19.1094 9.27001 19.1094H14.73Z" fill="white"/>
</svg>
