<svg width="268" height="268" viewBox="0 0 268 268" fill="none" xmlns="http://www.w3.org/2000/svg">
<g clip-path="url(#clip0_533_33)">
<mask id="mask0_533_33" style="mask-type:luminance" maskUnits="userSpaceOnUse" x="0" y="0" width="268" height="268">
<path d="M256 0H12C5.37258 0 0 5.37258 0 12V256C0 262.627 5.37258 268 12 268H256C262.627 268 268 262.627 268 256V12C268 5.37258 262.627 0 256 0Z" fill="white"/>
</mask>
<g mask="url(#mask0_533_33)">
<path d="M268 0H0V268H268V0Z" fill="white"/>
<path d="M9.92603 9.92578H19.852V19.8517H9.92603V9.92578ZM19.852 9.92578H29.7779V19.8517H19.852V9.92578ZM29.7779 9.92578H39.7038V19.8517H29.7779V9.92578ZM39.7038 9.92578H49.6297V19.8517H39.7038V9.92578ZM49.6297 9.92578H59.5557V19.8517H49.6297V9.92578ZM59.5557 9.92578H69.4816V19.8517H59.5557V9.92578ZM69.4816 9.92578H79.4075V19.8517H69.4816V9.92578ZM109.185 9.92578H119.111V19.8517H109.185V9.92578ZM138.963 9.92578H148.889V19.8517H138.963V9.92578ZM148.889 9.92578H158.815V19.8517H148.889V9.92578ZM158.815 9.92578H168.741V19.8517H158.815V9.92578ZM188.593 9.92578H198.519V19.8517H188.593V9.92578ZM198.519 9.92578H208.445V19.8517H198.519V9.92578ZM208.445 9.92578H218.37V19.8517H208.445V9.92578ZM218.37 9.92578H228.296V19.8517H218.37V9.92578ZM228.296 9.92578H238.222V19.8517H228.296V9.92578ZM238.222 9.92578H248.148V19.8517H238.222V9.92578ZM248.148 9.92578H258.074V19.8517H248.148V9.92578ZM9.92603 19.8517H19.852V29.7776H9.92603V19.8517ZM69.4816 19.8517H79.4075V29.7776H69.4816V19.8517ZM99.2594 19.8517H109.185V29.7776H99.2594V19.8517ZM148.889 19.8517H158.815V29.7776H148.889V19.8517ZM158.815 19.8517H168.741V29.7776H158.815V19.8517ZM188.593 19.8517H198.519V29.7776H188.593V19.8517ZM248.148 19.8517H258.074V29.7776H248.148V19.8517ZM9.92603 29.7776H19.852V39.7036H9.92603V29.7776ZM29.7779 29.7776H39.7038V39.7036H29.7779V29.7776ZM39.7038 29.7776H49.6297V39.7036H39.7038V29.7776ZM49.6297 29.7776H59.5557V39.7036H49.6297V29.7776ZM69.4816 29.7776H79.4075V39.7036H69.4816V29.7776ZM89.3334 29.7776H99.2594V39.7036H89.3334V29.7776ZM119.111 29.7776H129.037V39.7036H119.111V29.7776ZM188.593 29.7776H198.519V39.7036H188.593V29.7776ZM208.445 29.7776H218.37V39.7036H208.445V29.7776ZM218.37 29.7776H228.296V39.7036H218.37V29.7776ZM228.296 29.7776H238.222V39.7036H228.296V29.7776ZM248.148 29.7776H258.074V39.7036H248.148V29.7776ZM9.92603 39.7036H19.852V49.6295H9.92603V39.7036ZM29.7779 39.7036H39.7038V49.6295H29.7779V39.7036ZM39.7038 39.7036H49.6297V49.6295H39.7038V39.7036ZM49.6297 39.7036H59.5557V49.6295H49.6297V39.7036ZM69.4816 39.7036H79.4075V49.6295H69.4816V39.7036ZM99.2594 39.7036H109.185V49.6295H99.2594V39.7036ZM158.815 39.7036H168.741V49.6295H158.815V39.7036ZM168.741 39.7036H178.667V49.6295H168.741V39.7036ZM188.593 39.7036H198.519V49.6295H188.593V39.7036ZM208.445 39.7036H218.37V49.6295H208.445V39.7036ZM218.37 39.7036H228.296V49.6295H218.37V39.7036ZM228.296 39.7036H238.222V49.6295H228.296V39.7036ZM248.148 39.7036H258.074V49.6295H248.148V39.7036ZM9.92603 49.6295H19.852V59.5554H9.92603V49.6295ZM29.7779 49.6295H39.7038V59.5554H29.7779V49.6295ZM39.7038 49.6295H49.6297V59.5554H39.7038V49.6295ZM49.6297 49.6295H59.5557V59.5554H49.6297V49.6295ZM69.4816 49.6295H79.4075V59.5554H69.4816V49.6295ZM99.2594 49.6295H109.185V59.5554H99.2594V49.6295ZM129.037 49.6295H138.963V59.5554H129.037V49.6295ZM138.963 49.6295H148.889V59.5554H138.963V49.6295ZM148.889 49.6295H158.815V59.5554H148.889V49.6295ZM158.815 49.6295H168.741V59.5554H158.815V49.6295ZM188.593 49.6295H198.519V59.5554H188.593V49.6295ZM208.445 49.6295H218.37V59.5554H208.445V49.6295ZM218.37 49.6295H228.296V59.5554H218.37V49.6295ZM228.296 49.6295H238.222V59.5554H228.296V49.6295ZM248.148 49.6295H258.074V59.5554H248.148V49.6295ZM9.92603 59.5554H19.852V69.4813H9.92603V59.5554ZM69.4816 59.5554H79.4075V69.4813H69.4816V59.5554ZM109.185 59.5554H119.111V69.4813H109.185V59.5554ZM119.111 59.5554H129.037V69.4813H119.111V59.5554ZM148.889 59.5554H158.815V69.4813H148.889V59.5554ZM158.815 59.5554H168.741V69.4813H158.815V59.5554ZM188.593 59.5554H198.519V69.4813H188.593V59.5554ZM248.148 59.5554H258.074V69.4813H248.148V59.5554ZM9.92603 69.4813H19.852V79.4073H9.92603V69.4813ZM19.852 69.4813H29.7779V79.4073H19.852V69.4813ZM29.7779 69.4813H39.7038V79.4073H29.7779V69.4813ZM39.7038 69.4813H49.6297V79.4073H39.7038V69.4813ZM49.6297 69.4813H59.5557V79.4073H49.6297V69.4813ZM59.5557 69.4813H69.4816V79.4073H59.5557V69.4813ZM69.4816 69.4813H79.4075V79.4073H69.4816V69.4813ZM89.3334 69.4813H99.2594V79.4073H89.3334V69.4813ZM109.185 69.4813H119.111V79.4073H109.185V69.4813ZM129.037 69.4813H138.963V79.4073H129.037V69.4813ZM148.889 69.4813H158.815V79.4073H148.889V69.4813ZM168.741 69.4813H178.667V79.4073H168.741V69.4813ZM188.593 69.4813H198.519V79.4073H188.593V69.4813ZM198.519 69.4813H208.445V79.4073H198.519V69.4813ZM208.445 69.4813H218.37V79.4073H208.445V69.4813ZM218.37 69.4813H228.296V79.4073H218.37V69.4813ZM228.296 69.4813H238.222V79.4073H228.296V69.4813ZM238.222 69.4813H248.148V79.4073H238.222V69.4813ZM248.148 69.4813H258.074V79.4073H248.148V69.4813ZM89.3334 79.4073H99.2594V89.3332H89.3334V79.4073ZM119.111 79.4073H129.037V89.3332H119.111V79.4073ZM138.963 79.4073H148.889V89.3332H138.963V79.4073ZM148.889 79.4073H158.815V89.3332H148.889V79.4073ZM168.741 79.4073H178.667V89.3332H168.741V79.4073ZM9.92603 89.3332H19.852V99.2591H9.92603V89.3332ZM19.852 89.3332H29.7779V99.2591H19.852V89.3332ZM29.7779 89.3332H39.7038V99.2591H29.7779V89.3332ZM49.6297 89.3332H59.5557V99.2591H49.6297V89.3332ZM59.5557 89.3332H69.4816V99.2591H59.5557V89.3332ZM69.4816 89.3332H79.4075V99.2591H69.4816V89.3332ZM79.4075 89.3332H89.3334V99.2591H79.4075V89.3332ZM89.3334 89.3332H99.2594V99.2591H89.3334V89.3332ZM138.963 89.3332H148.889V99.2591H138.963V89.3332ZM158.815 89.3332H168.741V99.2591H158.815V89.3332ZM168.741 89.3332H178.667V99.2591H168.741V89.3332ZM178.667 89.3332H188.593V99.2591H178.667V89.3332ZM188.593 89.3332H198.519V99.2591H188.593V89.3332ZM228.296 89.3332H238.222V99.2591H228.296V89.3332ZM49.6297 99.2591H59.5557V109.185H49.6297V99.2591ZM79.4075 99.2591H89.3334V109.185H79.4075V99.2591ZM99.2594 99.2591H109.185V109.185H99.2594V99.2591ZM129.037 99.2591H138.963V109.185H129.037V99.2591ZM178.667 99.2591H188.593V109.185H178.667V99.2591ZM188.593 99.2591H198.519V109.185H188.593V99.2591ZM248.148 99.2591H258.074V109.185H248.148V99.2591ZM29.7779 109.185H39.7038V119.111H29.7779V109.185ZM49.6297 109.185H59.5557V119.111H49.6297V109.185ZM69.4816 109.185H79.4075V119.111H69.4816V109.185ZM79.4075 109.185H89.3334V119.111H79.4075V109.185ZM109.185 109.185H119.111V119.111H109.185V109.185ZM129.037 109.185H138.963V119.111H129.037V109.185ZM178.667 109.185H188.593V119.111H178.667V109.185ZM198.519 109.185H208.445V119.111H198.519V109.185ZM228.296 109.185H238.222V119.111H228.296V109.185ZM238.222 109.185H248.148V119.111H238.222V109.185ZM248.148 109.185H258.074V119.111H248.148V109.185ZM9.92603 119.111H19.852V129.037H9.92603V119.111ZM29.7779 119.111H39.7038V129.037H29.7779V119.111ZM49.6297 119.111H59.5557V129.037H49.6297V119.111ZM79.4075 119.111H89.3334V129.037H79.4075V119.111ZM89.3334 119.111H99.2594V129.037H89.3334V119.111ZM99.2594 119.111H109.185V129.037H99.2594V119.111ZM109.185 119.111H119.111V129.037H109.185V119.111ZM119.111 119.111H129.037V129.037H119.111V119.111ZM138.963 119.111H148.889V129.037H138.963V119.111ZM148.889 119.111H158.815V129.037H148.889V119.111ZM178.667 119.111H188.593V129.037H178.667V119.111ZM188.593 119.111H198.519V129.037H188.593V119.111ZM208.445 119.111H218.37V129.037H208.445V119.111ZM238.222 119.111H248.148V129.037H238.222V119.111ZM39.7038 129.037H49.6297V138.963H39.7038V129.037ZM59.5557 129.037H69.4816V138.963H59.5557V129.037ZM69.4816 129.037H79.4075V138.963H69.4816V129.037ZM109.185 129.037H119.111V138.963H109.185V129.037ZM138.963 129.037H148.889V138.963H138.963V129.037ZM158.815 129.037H168.741V138.963H158.815V129.037ZM168.741 129.037H178.667V138.963H168.741V129.037ZM178.667 129.037H188.593V138.963H178.667V129.037ZM188.593 129.037H198.519V138.963H188.593V129.037ZM218.37 129.037H228.296V138.963H218.37V129.037ZM238.222 129.037H248.148V138.963H238.222V129.037ZM248.148 129.037H258.074V138.963H248.148V129.037ZM19.852 138.963H29.7779V148.889H19.852V138.963ZM49.6297 138.963H59.5557V148.889H49.6297V138.963ZM59.5557 138.963H69.4816V148.889H59.5557V138.963ZM79.4075 138.963H89.3334V148.889H79.4075V138.963ZM109.185 138.963H119.111V148.889H109.185V138.963ZM129.037 138.963H138.963V148.889H129.037V138.963ZM148.889 138.963H158.815V148.889H148.889V138.963ZM168.741 138.963H178.667V148.889H168.741V138.963ZM178.667 138.963H188.593V148.889H178.667V138.963ZM188.593 138.963H198.519V148.889H188.593V138.963ZM218.37 138.963H228.296V148.889H218.37V138.963ZM248.148 138.963H258.074V148.889H248.148V138.963ZM9.92603 148.889H19.852V158.815H9.92603V148.889ZM29.7779 148.889H39.7038V158.815H29.7779V148.889ZM59.5557 148.889H69.4816V158.815H59.5557V148.889ZM69.4816 148.889H79.4075V158.815H69.4816V148.889ZM99.2594 148.889H109.185V158.815H99.2594V148.889ZM109.185 148.889H119.111V158.815H109.185V148.889ZM148.889 148.889H158.815V158.815H148.889V148.889ZM168.741 148.889H178.667V158.815H168.741V148.889ZM178.667 148.889H188.593V158.815H178.667V148.889ZM188.593 148.889H198.519V158.815H188.593V148.889ZM198.519 148.889H208.445V158.815H198.519V148.889ZM228.296 148.889H238.222V158.815H228.296V148.889ZM238.222 148.889H248.148V158.815H238.222V148.889ZM248.148 148.889H258.074V158.815H248.148V148.889ZM19.852 158.815H29.7779V168.741H19.852V158.815ZM89.3334 158.815H99.2594V168.741H89.3334V158.815ZM99.2594 158.815H109.185V168.741H99.2594V158.815ZM109.185 158.815H119.111V168.741H109.185V158.815ZM119.111 158.815H129.037V168.741H119.111V158.815ZM138.963 158.815H148.889V168.741H138.963V158.815ZM148.889 158.815H158.815V168.741H148.889V158.815ZM168.741 158.815H178.667V168.741H168.741V158.815ZM208.445 158.815H218.37V168.741H208.445V158.815ZM238.222 158.815H248.148V168.741H238.222V158.815ZM9.92603 168.741H19.852V178.667H9.92603V168.741ZM49.6297 168.741H59.5557V178.667H49.6297V168.741ZM69.4816 168.741H79.4075V178.667H69.4816V168.741ZM99.2594 168.741H109.185V178.667H99.2594V168.741ZM129.037 168.741H138.963V178.667H129.037V168.741ZM138.963 168.741H148.889V178.667H138.963V168.741ZM158.815 168.741H168.741V178.667H158.815V168.741ZM168.741 168.741H178.667V178.667H168.741V168.741ZM178.667 168.741H188.593V178.667H178.667V168.741ZM188.593 168.741H198.519V178.667H188.593V168.741ZM198.519 168.741H208.445V178.667H198.519V168.741ZM208.445 168.741H218.37V178.667H208.445V168.741ZM218.37 168.741H228.296V178.667H218.37V168.741ZM89.3334 178.667H99.2594V188.592H89.3334V178.667ZM129.037 178.667H138.963V188.592H129.037V178.667ZM138.963 178.667H148.889V188.592H138.963V178.667ZM158.815 178.667H168.741V188.592H158.815V178.667ZM168.741 178.667H178.667V188.592H168.741V178.667ZM208.445 178.667H218.37V188.592H208.445V178.667ZM218.37 178.667H228.296V188.592H218.37V178.667ZM238.222 178.667H248.148V188.592H238.222V178.667ZM248.148 178.667H258.074V188.592H248.148V178.667ZM9.92603 188.592H19.852V198.518H9.92603V188.592ZM19.852 188.592H29.7779V198.518H19.852V188.592ZM29.7779 188.592H39.7038V198.518H29.7779V188.592ZM39.7038 188.592H49.6297V198.518H39.7038V188.592ZM49.6297 188.592H59.5557V198.518H49.6297V188.592ZM59.5557 188.592H69.4816V198.518H59.5557V188.592ZM69.4816 188.592H79.4075V198.518H69.4816V188.592ZM89.3334 188.592H99.2594V198.518H89.3334V188.592ZM109.185 188.592H119.111V198.518H109.185V188.592ZM138.963 188.592H148.889V198.518H138.963V188.592ZM148.889 188.592H158.815V198.518H148.889V188.592ZM158.815 188.592H168.741V198.518H158.815V188.592ZM168.741 188.592H178.667V198.518H168.741V188.592ZM188.593 188.592H198.519V198.518H188.593V188.592ZM208.445 188.592H218.37V198.518H208.445V188.592ZM218.37 188.592H228.296V198.518H218.37V188.592ZM238.222 188.592H248.148V198.518H238.222V188.592ZM248.148 188.592H258.074V198.518H248.148V188.592ZM9.92603 198.518H19.852V208.444H9.92603V198.518ZM69.4816 198.518H79.4075V208.444H69.4816V198.518ZM89.3334 198.518H99.2594V208.444H89.3334V198.518ZM138.963 198.518H148.889V208.444H138.963V198.518ZM168.741 198.518H178.667V208.444H168.741V198.518ZM208.445 198.518H218.37V208.444H208.445V198.518ZM218.37 198.518H228.296V208.444H218.37V198.518ZM238.222 198.518H248.148V208.444H238.222V198.518ZM9.92603 208.444H19.852V218.37H9.92603V208.444ZM29.7779 208.444H39.7038V218.37H29.7779V208.444ZM39.7038 208.444H49.6297V218.37H39.7038V208.444ZM49.6297 208.444H59.5557V218.37H49.6297V208.444ZM69.4816 208.444H79.4075V218.37H69.4816V208.444ZM89.3334 208.444H99.2594V218.37H89.3334V208.444ZM109.185 208.444H119.111V218.37H109.185V208.444ZM119.111 208.444H129.037V218.37H119.111V208.444ZM129.037 208.444H138.963V218.37H129.037V208.444ZM138.963 208.444H148.889V218.37H138.963V208.444ZM168.741 208.444H178.667V218.37H168.741V208.444ZM178.667 208.444H188.593V218.37H178.667V208.444ZM188.593 208.444H198.519V218.37H188.593V208.444ZM198.519 208.444H208.445V218.37H198.519V208.444ZM208.445 208.444H218.37V218.37H208.445V208.444ZM218.37 208.444H228.296V218.37H218.37V208.444ZM238.222 208.444H248.148V218.37H238.222V208.444ZM9.92603 218.37H19.852V228.296H9.92603V218.37ZM29.7779 218.37H39.7038V228.296H29.7779V218.37ZM39.7038 218.37H49.6297V228.296H39.7038V218.37ZM49.6297 218.37H59.5557V228.296H49.6297V218.37ZM69.4816 218.37H79.4075V228.296H69.4816V218.37ZM99.2594 218.37H109.185V228.296H99.2594V218.37ZM109.185 218.37H119.111V228.296H109.185V218.37ZM129.037 218.37H138.963V228.296H129.037V218.37ZM138.963 218.37H148.889V228.296H138.963V218.37ZM198.519 218.37H208.445V228.296H198.519V218.37ZM208.445 218.37H218.37V228.296H208.445V218.37ZM218.37 218.37H228.296V228.296H218.37V218.37ZM228.296 218.37H238.222V228.296H228.296V218.37ZM9.92603 228.296H19.852V238.222H9.92603V228.296ZM29.7779 228.296H39.7038V238.222H29.7779V228.296ZM39.7038 228.296H49.6297V238.222H39.7038V228.296ZM49.6297 228.296H59.5557V238.222H49.6297V228.296ZM69.4816 228.296H79.4075V238.222H69.4816V228.296ZM89.3334 228.296H99.2594V238.222H89.3334V228.296ZM99.2594 228.296H109.185V238.222H99.2594V228.296ZM109.185 228.296H119.111V238.222H109.185V228.296ZM129.037 228.296H138.963V238.222H129.037V228.296ZM148.889 228.296H158.815V238.222H148.889V228.296ZM208.445 228.296H218.37V238.222H208.445V228.296ZM248.148 228.296H258.074V238.222H248.148V228.296ZM9.92603 238.222H19.852V248.148H9.92603V238.222ZM69.4816 238.222H79.4075V248.148H69.4816V238.222ZM89.3334 238.222H99.2594V248.148H89.3334V238.222ZM99.2594 238.222H109.185V248.148H99.2594V238.222ZM129.037 238.222H138.963V248.148H129.037V238.222ZM138.963 238.222H148.889V248.148H138.963V238.222ZM148.889 238.222H158.815V248.148H148.889V238.222ZM158.815 238.222H168.741V248.148H158.815V238.222ZM168.741 238.222H178.667V248.148H168.741V238.222ZM188.593 238.222H198.519V248.148H188.593V238.222ZM208.445 238.222H218.37V248.148H208.445V238.222ZM218.37 238.222H228.296V248.148H218.37V238.222ZM238.222 238.222H248.148V248.148H238.222V238.222ZM9.92603 248.148H19.852V258.074H9.92603V248.148ZM19.852 248.148H29.7779V258.074H19.852V248.148ZM29.7779 248.148H39.7038V258.074H29.7779V248.148ZM39.7038 248.148H49.6297V258.074H39.7038V248.148ZM49.6297 248.148H59.5557V258.074H49.6297V248.148ZM59.5557 248.148H69.4816V258.074H59.5557V248.148ZM69.4816 248.148H79.4075V258.074H69.4816V248.148ZM89.3334 248.148H99.2594V258.074H89.3334V248.148ZM99.2594 248.148H109.185V258.074H99.2594V248.148ZM119.111 248.148H129.037V258.074H119.111V248.148ZM129.037 248.148H138.963V258.074H129.037V248.148ZM138.963 248.148H148.889V258.074H138.963V248.148ZM158.815 248.148H168.741V258.074H158.815V248.148ZM168.741 248.148H178.667V258.074H168.741V248.148ZM188.593 248.148H198.519V258.074H188.593V248.148ZM198.519 248.148H208.445V258.074H198.519V248.148ZM238.222 248.148H248.148V258.074H238.222V248.148ZM248.148 248.148H258.074V258.074H248.148V248.148Z" fill="black"/>
</g>
</g>
<defs>
<clipPath id="clip0_533_33">
<rect width="268" height="268" fill="white"/>
</clipPath>
</defs>
</svg>
