<svg width="20" height="20" viewBox="0 0 20 20" fill="none" xmlns="http://www.w3.org/2000/svg">
<path d="M5.55835 11.6667H3.33335C2.41669 11.6667 1.66669 12.4167 1.66669 13.3334V17.5C1.66669 17.9584 2.04169 18.3334 2.50002 18.3334H5.55835C6.01669 18.3334 6.39169 17.9584 6.39169 17.5V12.5C6.39169 12.0417 6.01669 11.6667 5.55835 11.6667Z" fill="white"/>
<path d="M11.1083 8.33337H8.88334C7.96667 8.33337 7.21667 9.08337 7.21667 10V17.5C7.21667 17.9584 7.59167 18.3334 8.05001 18.3334H11.9417C12.4 18.3334 12.775 17.9584 12.775 17.5V10C12.775 9.08337 12.0333 8.33337 11.1083 8.33337Z" fill="white"/>
<path d="M16.6667 14.1667H14.4417C13.9833 14.1667 13.6083 14.5417 13.6083 15V17.5C13.6083 17.9584 13.9833 18.3334 14.4417 18.3334H17.5C17.9583 18.3334 18.3333 17.9584 18.3333 17.5V15.8334C18.3333 14.9167 17.5833 14.1667 16.6667 14.1667Z" fill="white"/>
<path d="M12.5083 4.04161C12.7666 3.78328 12.8666 3.47494 12.7833 3.20828C12.7 2.94161 12.4416 2.74994 12.075 2.69161L11.275 2.55828C11.2416 2.55828 11.1666 2.49994 11.15 2.46661L10.7083 1.58328C10.375 0.908275 9.61664 0.908275 9.2833 1.58328L8.84164 2.46661C8.8333 2.49994 8.7583 2.55828 8.72497 2.55828L7.92497 2.69161C7.5583 2.74994 7.3083 2.94161 7.21664 3.20828C7.1333 3.47494 7.2333 3.78328 7.49164 4.04161L8.1083 4.66661C8.14164 4.69161 8.16664 4.79161 8.1583 4.82494L7.9833 5.59161C7.84997 6.16661 8.06664 6.42494 8.2083 6.52494C8.34997 6.62494 8.6583 6.75828 9.16664 6.45828L9.91664 6.01661C9.94997 5.99161 10.0583 5.99161 10.0916 6.01661L10.8333 6.45828C11.0666 6.59994 11.2583 6.64161 11.4083 6.64161C11.5833 6.64161 11.7083 6.57494 11.7833 6.52494C11.925 6.42494 12.1416 6.16661 12.0083 5.59161L11.8333 4.82494C11.825 4.78328 11.85 4.69161 11.8833 4.66661L12.5083 4.04161Z" fill="white"/>
</svg>
