<svg width="14" height="14" viewBox="0 0 14 14" fill="none" xmlns="http://www.w3.org/2000/svg">
<path d="M3.89085 8.1665H2.33335C1.69169 8.1665 1.16669 8.6915 1.16669 9.33317V12.2498C1.16669 12.5707 1.42919 12.8332 1.75002 12.8332H3.89085C4.21169 12.8332 4.47419 12.5707 4.47419 12.2498V8.74984C4.47419 8.429 4.21169 8.1665 3.89085 8.1665Z" fill="white"/>
<path d="M7.77586 5.8335H6.21836C5.5767 5.8335 5.0517 6.3585 5.0517 7.00016V12.2502C5.0517 12.571 5.3142 12.8335 5.63503 12.8335H8.3592C8.68003 12.8335 8.94253 12.571 8.94253 12.2502V7.00016C8.94253 6.3585 8.42336 5.8335 7.77586 5.8335Z" fill="white"/>
<path d="M11.6667 9.9165H10.1092C9.78832 9.9165 9.52582 10.179 9.52582 10.4998V12.2498C9.52582 12.5707 9.78832 12.8332 10.1092 12.8332H12.25C12.5708 12.8332 12.8333 12.5707 12.8333 12.2498V11.0832C12.8333 10.4415 12.3083 9.9165 11.6667 9.9165Z" fill="white"/>
<path d="M8.75582 2.82911C8.93665 2.64828 9.00665 2.43245 8.94832 2.24578C8.88999 2.05911 8.70915 1.92495 8.45249 1.88411L7.89249 1.79078C7.86915 1.79078 7.81665 1.74995 7.80499 1.72661L7.49582 1.10828C7.26249 0.635781 6.73165 0.635781 6.49832 1.10828L6.18915 1.72661C6.18332 1.74995 6.13082 1.79078 6.10749 1.79078L5.54749 1.88411C5.29082 1.92495 5.11582 2.05911 5.05165 2.24578C4.99332 2.43245 5.06332 2.64828 5.24415 2.82911L5.67582 3.26661C5.69915 3.28411 5.71665 3.35411 5.71082 3.37745L5.58832 3.91411C5.49499 4.31661 5.64665 4.49745 5.74582 4.56745C5.84499 4.63745 6.06082 4.73078 6.41665 4.52078L6.94165 4.21161C6.96499 4.19411 7.04082 4.19411 7.06415 4.21161L7.58332 4.52078C7.74665 4.61995 7.88082 4.64911 7.98582 4.64911C8.10832 4.64911 8.19582 4.60245 8.24832 4.56745C8.34749 4.49745 8.49915 4.31661 8.40582 3.91411L8.28332 3.37745C8.27749 3.34828 8.29499 3.28411 8.31832 3.26661L8.75582 2.82911Z" fill="white"/>
</svg>
