<svg width="20" height="21" viewBox="0 0 20 21" fill="none" xmlns="http://www.w3.org/2000/svg">
<path d="M16.7501 8.18287C15.2417 8.18287 14.6251 7.11621 15.3751 5.80787C15.8084 5.04954 15.5501 4.08287 14.7917 3.64954L13.3501 2.82454C12.6917 2.43287 11.8417 2.66621 11.4501 3.32454L11.3584 3.48287C10.6084 4.79121 9.37508 4.79121 8.61675 3.48287L8.52508 3.32454C8.15008 2.66621 7.30008 2.43287 6.64175 2.82454L5.20008 3.64954C4.44175 4.08287 4.18341 5.05787 4.61675 5.81621C5.37508 7.11621 4.75841 8.18287 3.25008 8.18287C2.38341 8.18287 1.66675 8.89121 1.66675 9.76621V11.2329C1.66675 12.0995 2.37508 12.8162 3.25008 12.8162C4.75841 12.8162 5.37508 13.8829 4.61675 15.1912C4.18341 15.9495 4.44175 16.9162 5.20008 17.3495L6.64175 18.1745C7.30008 18.5662 8.15008 18.3329 8.54175 17.6745L8.63341 17.5162C9.38341 16.2079 10.6167 16.2079 11.3751 17.5162L11.4667 17.6745C11.8584 18.3329 12.7084 18.5662 13.3667 18.1745L14.8084 17.3495C15.5667 16.9162 15.8251 15.9412 15.3917 15.1912C14.6334 13.8829 15.2501 12.8162 16.7584 12.8162C17.6251 12.8162 18.3417 12.1079 18.3417 11.2329V9.76621C18.3334 8.89954 17.6251 8.18287 16.7501 8.18287ZM10.0001 13.2079C8.50842 13.2079 7.29175 11.9912 7.29175 10.4995C7.29175 9.00787 8.50842 7.79121 10.0001 7.79121C11.4917 7.79121 12.7084 9.00787 12.7084 10.4995C12.7084 11.9912 11.4917 13.2079 10.0001 13.2079Z" fill="white"/>
</svg>
