<svg width="21" height="20" viewBox="0 0 21 20" fill="none" xmlns="http://www.w3.org/2000/svg">
<path d="M14.8749 12.5001C14.4071 12.5025 13.9457 12.6098 13.5249 12.8143C13.1042 13.0187 12.7346 13.3151 12.4436 13.6814L7.87493 10.8251C8.04144 10.2877 8.04144 9.71253 7.87493 9.17513L12.4436 6.31888C12.9074 6.89308 13.5593 7.28461 14.2841 7.42413C15.0089 7.56365 15.7596 7.44215 16.4033 7.08114C17.0471 6.72014 17.5423 6.14294 17.8012 5.45178C18.0601 4.76063 18.0661 4.00014 17.818 3.30502C17.5699 2.60991 17.0838 2.02504 16.4457 1.65402C15.8077 1.283 15.059 1.14978 14.3321 1.27796C13.6053 1.40614 12.9472 1.78745 12.4746 2.35433C12.002 2.92121 11.7453 3.63708 11.7499 4.37513C11.7528 4.65461 11.7949 4.93231 11.8749 5.20013L7.30618 8.05638C6.90284 7.54862 6.35152 7.17891 5.72865 6.9985C5.10579 6.81809 4.44222 6.83592 3.82994 7.04951C3.21766 7.2631 2.68699 7.66188 2.31149 8.19057C1.93599 8.71925 1.73425 9.35166 1.73425 10.0001C1.73425 10.6486 1.93599 11.281 2.31149 11.8097C2.68699 12.3384 3.21766 12.7372 3.82994 12.9507C4.44222 13.1643 5.10579 13.1822 5.72865 13.0018C6.35152 12.8213 6.90284 12.4516 7.30618 11.9439L11.8749 14.8001C11.7949 15.0679 11.7528 15.3456 11.7499 15.6251C11.7499 16.2432 11.9332 16.8474 12.2766 17.3613C12.6199 17.8752 13.108 18.2757 13.679 18.5123C14.25 18.7488 14.8784 18.8107 15.4846 18.6901C16.0907 18.5695 16.6476 18.2719 17.0846 17.8348C17.5216 17.3978 17.8193 16.841 17.9398 16.2348C18.0604 15.6286 17.9985 15.0003 17.762 14.4292C17.5255 13.8582 17.125 13.3702 16.6111 13.0268C16.0971 12.6834 15.493 12.5001 14.8749 12.5001ZM14.8749 2.50013C15.2457 2.50013 15.6082 2.61009 15.9166 2.81612C16.2249 3.02215 16.4653 3.31499 16.6072 3.6576C16.7491 4.00021 16.7862 4.37721 16.7139 4.74092C16.6415 5.10464 16.4629 5.43873 16.2007 5.70095C15.9385 5.96318 15.6044 6.14175 15.2407 6.2141C14.877 6.28645 14.5 6.24932 14.1574 6.1074C13.8148 5.96549 13.5219 5.72516 13.3159 5.41682C13.1099 5.10848 12.9999 4.74597 12.9999 4.37513C12.9999 3.87785 13.1974 3.40093 13.5491 3.0493C13.9007 2.69767 14.3776 2.50013 14.8749 2.50013ZM4.87493 11.8751C4.50409 11.8751 4.14158 11.7652 3.83324 11.5591C3.5249 11.3531 3.28457 11.0603 3.14266 10.7177C3.00074 10.375 2.96361 9.99805 3.03596 9.63433C3.10831 9.27062 3.28688 8.93653 3.54911 8.6743C3.81133 8.41208 4.14542 8.2335 4.50914 8.16116C4.87285 8.08881 5.24985 8.12594 5.59246 8.26785C5.93508 8.40977 6.22791 8.65009 6.43394 8.95843C6.63997 9.26678 6.74993 9.62929 6.74993 10.0001C6.74993 10.4974 6.55239 10.9743 6.20076 11.326C5.84913 11.6776 5.37221 11.8751 4.87493 11.8751ZM14.8749 17.5001C14.5041 17.5001 14.1415 17.3902 13.8332 17.1841C13.5249 16.9781 13.2845 16.6853 13.1426 16.3427C13.0007 16.0001 12.9636 15.623 13.0359 15.2593C13.1083 14.8956 13.2868 14.5615 13.5491 14.2993C13.8113 14.0371 14.1454 13.8585 14.5091 13.7862C14.8728 13.7138 15.2498 13.7509 15.5924 13.8929C15.935 14.0348 16.2279 14.2751 16.4339 14.5834C16.6399 14.8918 16.7499 15.2543 16.7499 15.6251C16.7499 16.1224 16.5524 16.5993 16.2007 16.951C15.8491 17.3026 15.3722 17.5001 14.8749 17.5001Z" fill="white"/>
</svg>
