<svg width="15" height="14" viewBox="0 0 15 14" fill="none" xmlns="http://www.w3.org/2000/svg">
<g clip-path="url(#clip0_511_9)">
<path d="M7.04874 0.945683C7.22986 0.566122 7.77014 0.566123 7.95126 0.945684L9.54324 4.28195C9.61613 4.4347 9.76135 4.54021 9.92916 4.56233L13.5941 5.04543C14.011 5.1004 14.178 5.61423 13.873 5.90378L11.1919 8.4488C11.0692 8.56533 11.0137 8.73605 11.0445 8.90247L11.7176 12.5373C11.7942 12.9508 11.3571 13.2684 10.9875 13.0678L7.73851 11.3044C7.58975 11.2237 7.41025 11.2237 7.26149 11.3044L4.01254 13.0678C3.64292 13.2684 3.20582 12.9508 3.28239 12.5373L3.95546 8.90247C3.98627 8.73605 3.9308 8.56533 3.80805 8.4488L1.12703 5.90378C0.822011 5.61423 0.988968 5.1004 1.40592 5.04543L5.07085 4.56233C5.23865 4.54021 5.38387 4.4347 5.45676 4.28195L7.04874 0.945683Z" fill="#FFC900"/>
</g>
<defs>
<clipPath id="clip0_511_9">
<rect width="15" height="14" fill="white"/>
</clipPath>
</defs>
</svg>
