<svg width="49" height="48" viewBox="0 0 49 48" fill="none" xmlns="http://www.w3.org/2000/svg">
<path d="M27.2389 10.296L30.0589 15.936C30.4389 16.716 31.4589 17.456 32.3189 17.616L37.4189 18.456C40.6789 18.996 41.4389 21.356 39.0989 23.716L35.1189 27.696C34.4589 28.356 34.0789 29.656 34.2989 30.596L35.4389 35.516C36.3389 39.396 34.2589 40.916 30.8389 38.876L26.0589 36.036C25.1989 35.516 23.7589 35.516 22.8989 36.036L18.1189 38.876C14.6989 40.896 12.6189 39.396 13.5189 35.516L14.6589 30.596C14.8789 29.676 14.4989 28.376 13.8389 27.696L9.85891 23.716C7.51891 21.376 8.2789 19.016 11.5389 18.456L16.6389 17.616C17.4989 17.476 18.5189 16.716 18.8989 15.936L21.7189 10.296C23.2189 7.23597 25.6989 7.23597 27.2389 10.296Z" fill="#FFCC00"/>
</svg>
