<svg width="30" height="30" viewBox="0 0 30 30" fill="none" xmlns="http://www.w3.org/2000/svg">
<g filter="url(#filter0_d_631_28)">
<path d="M13.485 3.87781C14.1038 2.62406 15.8925 2.62406 16.5113 3.87781L18.9934 8.90736C19.2848 9.49769 19.8479 9.90684 20.4994 10.0015L26.05 10.8078C27.4338 11.0078 27.9863 12.7103 26.985 13.6866L22.9682 17.6013C22.4967 18.0608 22.2816 18.723 22.3929 19.3719L23.3413 24.8978C23.5788 26.2778 22.1313 27.3291 20.8925 26.6778L15.9285 24.0674C15.3457 23.7609 14.6494 23.7609 14.0666 24.0675L9.10379 26.6778C7.86629 27.3278 6.41879 26.2778 6.65379 24.8991L7.60224 19.3715C7.71355 18.7228 7.49856 18.0608 7.02732 17.6013L3.01129 13.6853C2.01004 12.7103 2.56254 11.0091 3.94629 10.8078L9.49693 10.0015C10.1484 9.90684 10.7116 9.49769 11.0029 8.90736L13.485 3.87781Z" fill="url(#paint0_radial_631_28)"/>
</g>
<defs>
<filter id="filter0_d_631_28" x="0.5" y="0.9375" width="28.9961" height="27.938" filterUnits="userSpaceOnUse" color-interpolation-filters="sRGB">
<feFlood flood-opacity="0" result="BackgroundImageFix"/>
<feColorMatrix in="SourceAlpha" type="matrix" values="0 0 0 0 0 0 0 0 0 0 0 0 0 0 0 0 0 0 127 0" result="hardAlpha"/>
<feOffset/>
<feGaussianBlur stdDeviation="1"/>
<feComposite in2="hardAlpha" operator="out"/>
<feColorMatrix type="matrix" values="0 0 0 0 0 0 0 0 0 0 0 0 0 0 0 0 0 0 0.15 0"/>
<feBlend mode="normal" in2="BackgroundImageFix" result="effect1_dropShadow_631_28"/>
<feBlend mode="normal" in="SourceGraphic" in2="effect1_dropShadow_631_28" result="shape"/>
</filter>
<radialGradient id="paint0_radial_631_28" cx="0" cy="0" r="1" gradientUnits="userSpaceOnUse" gradientTransform="translate(9.5 8) rotate(55.6197) scale(23.0217 24.0395)">
<stop offset="0.12248" stop-color="#FEEC4C"/>
<stop offset="0.318958" stop-color="#FFFC8F"/>
<stop offset="1" stop-color="#FECC19"/>
</radialGradient>
</defs>
</svg>
