<svg width="20" height="20" viewBox="0 0 20 20" fill="none" xmlns="http://www.w3.org/2000/svg">
<path d="M4.40002 2.40002H15.6C16.1305 2.40002 16.6392 2.61074 17.0142 2.98581C17.3893 3.36088 17.6 3.86959 17.6 4.40002V5.85442C17.6 6.27433 17.5056 6.68886 17.3237 7.06733C17.1418 7.44579 16.8771 7.7785 16.5492 8.04082L13.614 10.1084L13.4608 11.1044C13.3881 11.5766 13.1488 12.0071 12.7862 12.3181C12.4237 12.6291 11.9617 12.8 11.484 12.8H8.51602C8.03827 12.8 7.57629 12.629 7.21369 12.3179C6.8511 12.0068 6.61184 11.5762 6.53922 11.104L6.38602 10.108L3.45082 8.04082C3.12294 7.7785 2.85825 7.44579 2.67636 7.06733C2.49446 6.68886 2.40002 6.27433 2.40002 5.85442V4.40002C2.40002 3.86959 2.61074 3.36088 2.98581 2.98581C3.36088 2.61074 3.86959 2.40002 4.40002 2.40002ZM10 8.63602L10.992 9.51602C11.0413 9.5598 11.1028 9.58739 11.1682 9.59507C11.2337 9.60274 11.2999 9.59012 11.358 9.55891C11.416 9.52771 11.4631 9.47943 11.4928 9.42061C11.5225 9.36178 11.5334 9.29525 11.524 9.23002L11.3136 7.71802L12.272 6.99402C12.3217 6.9566 12.3594 6.90562 12.3808 6.84722C12.4021 6.78883 12.4061 6.7255 12.3923 6.66488C12.3785 6.60426 12.3474 6.54893 12.3029 6.50556C12.2583 6.46219 12.2022 6.43262 12.1412 6.42042L10.8788 6.16642L10.288 4.97842C10.2613 4.92494 10.2202 4.87996 10.1693 4.84853C10.1184 4.81709 10.0598 4.80044 10 4.80044C9.94023 4.80044 9.88161 4.81709 9.83074 4.84853C9.77988 4.87996 9.73877 4.92494 9.71202 4.97842L9.12122 6.16642L7.85842 6.42042C7.79738 6.43252 7.74115 6.46205 7.69654 6.50544C7.65192 6.54883 7.62084 6.60421 7.60704 6.6649C7.59325 6.72558 7.59733 6.78896 7.6188 6.84737C7.64027 6.90579 7.67821 6.95672 7.72802 6.99402L8.68643 7.71802L8.40642 9.21802C8.39388 9.2832 8.4018 9.35066 8.42911 9.41115C8.45642 9.47164 8.50178 9.52221 8.55896 9.5559C8.61614 9.5896 8.68235 9.60478 8.7485 9.59935C8.81465 9.59393 8.87749 9.56818 8.92842 9.52562L10 8.63602ZM14.4496 4.67842L13.9596 7.86282L15.5496 6.79122C15.6901 6.67883 15.8036 6.53628 15.8815 6.37412C15.9595 6.21196 16 6.03435 16 5.85442V4.40002C16 4.29394 15.9579 4.1922 15.8829 4.11718C15.8079 4.04217 15.7061 4.00002 15.6 4.00002H15.24C15.049 4.0001 14.8643 4.06854 14.7193 4.19297C14.5743 4.3174 14.4787 4.4896 14.4496 4.67842ZM4.76002 4.00002H4.40002C4.29394 4.00002 4.1922 4.04217 4.11718 4.11718C4.04217 4.1922 4.00002 4.29394 4.00002 4.40002V5.85442C4.00006 6.03435 4.04057 6.21196 4.11853 6.37412C4.19649 6.53628 4.30992 6.67883 4.45042 6.79122L6.04042 7.86322L5.55042 4.67842C5.52139 4.4896 5.42573 4.3174 5.28076 4.19297C5.13579 4.06854 4.95107 4.0001 4.76002 4.00002ZM8.98882 14.6C8.98882 14.4409 9.05205 14.2883 9.16457 14.1758C9.27709 14.0632 9.4297 14 9.58883 14H10.4112C10.49 14 10.568 14.0155 10.6408 14.0457C10.7136 14.0758 10.7798 14.12 10.8355 14.1758C10.8912 14.2315 10.9354 14.2976 10.9656 14.3704C10.9957 14.4432 11.0112 14.5212 11.0112 14.6C11.0112 14.7592 11.0744 14.9118 11.187 15.0243C11.2995 15.1368 11.4521 15.2 11.6112 15.2C12.2456 15.2 12.8072 15.5424 13.082 16.0844L13.5572 17.0212C13.5809 17.0683 13.595 17.1196 13.5987 17.1722C13.6024 17.2247 13.5955 17.2775 13.5786 17.3274C13.5617 17.3773 13.5351 17.4234 13.5002 17.4629C13.4654 17.5024 13.423 17.5346 13.3756 17.5576C13.3196 17.5856 13.2572 17.6 13.1944 17.6H6.80562C6.58162 17.6 6.40002 17.4208 6.40002 17.2C6.40002 17.138 6.41482 17.0768 6.44282 17.0212L6.91762 16.0844C7.05435 15.8174 7.26228 15.5935 7.51841 15.4374C7.77455 15.2813 8.06888 15.1992 8.36882 15.2C8.72002 15.2 8.98882 14.9312 8.98882 14.6Z" fill="white"/>
</svg>
