<svg width="40" height="40" viewBox="0 0 40 40" fill="none" xmlns="http://www.w3.org/2000/svg">
<g clip-path="url(#clip0_693_8)">
<path d="M39 0H1C0.447715 0 0 0.447715 0 1V39C0 39.5523 0.447715 40 1 40H39C39.5523 40 40 39.5523 40 39V1C40 0.447715 39.5523 0 39 0Z" fill="white"/>
<path fill-rule="evenodd" clip-rule="evenodd" d="M18.1315 18.2749V17.4948C17.8608 17.4565 17.5878 17.4366 17.3143 17.4353C13.9704 17.4353 11.25 20.1562 11.25 23.5001C11.25 25.5513 12.2751 27.3671 13.839 28.4651C12.7919 27.3452 12.2097 25.8691 12.2106 24.3361C12.2106 21.0398 14.8536 18.3519 18.1315 18.2749Z" fill="#00F2EA"/>
<path fill-rule="evenodd" clip-rule="evenodd" d="M18.2745 27.1055C19.7664 27.1055 20.9835 25.9187 21.0389 24.4396L21.044 11.2359H23.4561C23.4046 10.9602 23.3786 10.6804 23.3782 10.3999H20.0839L20.0784 23.6041C20.0234 25.0827 18.8059 26.2691 17.3144 26.2691C16.8666 26.2692 16.4256 26.1602 16.0295 25.9512C16.2852 26.3079 16.6222 26.5987 17.0126 26.7994C17.403 27.0002 17.8355 27.1051 18.2745 27.1055ZM27.9621 15.7176V14.9837C27.0756 14.9846 26.2082 14.7267 25.4661 14.2417C26.1167 14.9908 26.9922 15.5086 27.9621 15.7176Z" fill="#00F2EA"/>
<path fill-rule="evenodd" clip-rule="evenodd" d="M25.4658 14.2412C24.7386 13.4091 24.3381 12.3414 24.3386 11.2363H23.4559C23.5702 11.8471 23.8072 12.4284 24.1527 12.9449C24.4982 13.4614 24.9449 13.9024 25.4658 14.2412ZM17.3141 20.7302C16.5799 20.731 15.876 21.0231 15.3568 21.5423C14.8376 22.0614 14.5456 22.7654 14.5447 23.4996C14.5452 24.0047 14.6837 24.5001 14.9453 24.9322C15.2068 25.3642 15.5815 25.7166 16.0288 25.9512C15.6882 25.4815 15.5048 24.9162 15.5048 24.3361C15.5055 23.6017 15.7975 22.8977 16.3167 22.3784C16.8359 21.8591 17.5399 21.567 18.2743 21.5662C18.5596 21.5662 18.8331 21.6133 19.0914 21.6944V18.3308C18.8207 18.2925 18.5477 18.2726 18.2743 18.2713C18.2261 18.2713 18.179 18.274 18.1313 18.2749V20.8584C17.8671 20.7743 17.5915 20.7311 17.3141 20.7302Z" fill="#FF004F"/>
<path fill-rule="evenodd" clip-rule="evenodd" d="M27.9622 15.7175V18.2781C26.2536 18.2781 24.671 17.7316 23.3783 16.804V23.4996C23.3783 26.8434 20.6583 29.5639 17.3145 29.5639C16.0222 29.5639 14.824 29.1562 13.8391 28.4645C14.4053 29.0751 15.0915 29.5622 15.8548 29.8952C16.618 30.2282 17.4418 30.4 18.2745 30.3998C21.6184 30.3998 24.3389 27.6794 24.3389 24.336V17.6405C25.6742 18.6007 27.2779 19.1164 28.9227 19.1145V15.8192C28.5929 15.8192 28.2722 15.784 27.9622 15.7175Z" fill="#FF004F"/>
<path fill-rule="evenodd" clip-rule="evenodd" d="M23.3783 23.4996V16.8041C24.7136 17.7644 26.3173 18.2802 27.9622 18.2782V15.7176C26.9924 15.5084 26.1165 14.9904 25.4662 14.2412C24.9453 13.9024 24.4985 13.4614 24.153 12.9449C23.8075 12.4284 23.5705 11.8471 23.4562 11.2363H21.044L21.039 24.44C20.9835 25.9187 19.7665 27.1055 18.2745 27.1055C17.8356 27.1051 17.403 27.0001 17.0127 26.7994C16.6223 26.5987 16.2853 26.3079 16.0296 25.9512C15.5822 25.7167 15.2074 25.3643 14.9458 24.9322C14.6841 24.5002 14.5455 24.0048 14.545 23.4996C14.5458 22.7654 14.8379 22.0614 15.3571 21.5423C15.8763 21.0231 16.5802 20.731 17.3145 20.7302C17.5994 20.7302 17.8728 20.7769 18.1316 20.8584V18.2749C14.8537 18.3519 12.2107 21.0398 12.2107 24.3361C12.2107 25.9301 12.83 27.3813 13.8391 28.465C14.8564 29.1812 16.0704 29.565 17.3145 29.5639C20.6583 29.5639 23.3783 26.8435 23.3783 23.4996Z" fill="black"/>
</g>
<defs>
<clipPath id="clip0_693_8">
<rect width="40" height="40" fill="white"/>
</clipPath>
</defs>
</svg>
