<svg width="20" height="20" viewBox="0 0 20 20" fill="none" xmlns="http://www.w3.org/2000/svg">
<g clip-path="url(#clip0_665_2)">
<mask id="mask0_665_2" style="mask-type:luminance" maskUnits="userSpaceOnUse" x="0" y="0" width="20" height="20">
<path d="M20 0H0V20H20V0Z" fill="white"/>
</mask>
<g mask="url(#mask0_665_2)">
<path d="M1.39429 3.09902L2.77497 4.4797C4.05897 2.79873 5.88884 1.61799 7.94956 1.14073C10.0103 0.663479 12.1729 0.919579 14.0652 1.86494C15.9574 2.81031 17.4609 4.38579 18.3168 6.32016C19.1727 8.25454 19.3274 10.4268 18.7543 12.4629C18.1813 14.4991 16.9163 16.2718 15.1771 17.4758C13.438 18.6798 11.3335 19.2399 9.22589 19.0595C7.11833 18.8792 5.13958 17.9697 3.63028 16.4877C2.12098 15.0057 1.17556 13.0439 0.956785 10.9399C0.933579 10.715 1.0007 10.49 1.14337 10.3145C1.28605 10.139 1.4926 10.0273 1.71758 10.0041C1.94256 9.98093 2.16755 10.048 2.34304 10.1907C2.51854 10.3334 2.63017 10.54 2.65338 10.7649C2.83253 12.4836 3.60857 14.085 4.84645 15.2906C6.08432 16.4962 7.7057 17.2296 9.42847 17.3633C11.1512 17.497 12.8664 17.0225 14.2754 16.0223C15.6844 15.0221 16.6982 13.5595 17.1404 11.8891C17.5825 10.2187 17.4251 8.44613 16.6953 6.87982C15.9656 5.31351 14.7099 4.05261 13.1466 3.3165C11.5832 2.58038 9.81134 2.41565 8.13912 2.85096C6.46691 3.28627 5.00023 4.29408 3.99429 5.69902L5.53747 7.2422C5.5773 7.28194 5.60444 7.3326 5.61544 7.38778C5.62645 7.44295 5.62082 7.50015 5.59928 7.55213C5.57773 7.6041 5.54124 7.64851 5.49443 7.67972C5.44762 7.71093 5.39259 7.72753 5.33633 7.72743H1.19315C1.1178 7.72743 1.04554 7.6975 0.992266 7.64422C0.938989 7.59095 0.909058 7.51869 0.909058 7.44334V3.30016C0.908957 3.2439 0.925564 3.18887 0.956774 3.14206C0.987983 3.09525 1.03239 3.05876 1.08436 3.03721C1.13634 3.01567 1.19354 3.01004 1.24871 3.02105C1.30389 3.03205 1.35455 3.05919 1.39429 3.09902ZM9.71588 5.4547C9.94191 5.4547 10.1587 5.5445 10.3185 5.70433C10.4784 5.86416 10.5681 6.08094 10.5681 6.30698V9.70698L12.8727 10.6297C13.0758 10.7182 13.2364 10.8824 13.3205 11.0873C13.4047 11.2923 13.4057 11.5219 13.3234 11.7276C13.2411 11.9333 13.0819 12.0988 12.8796 12.1892C12.6774 12.2795 12.4478 12.2875 12.2397 12.2115L9.39883 11.0752C9.24093 11.0117 9.1056 10.9025 9.01023 10.7616C8.91486 10.6206 8.8638 10.4544 8.8636 10.2843V6.30698C8.8636 6.08094 8.9534 5.86416 9.11323 5.70433C9.27306 5.5445 9.48984 5.4547 9.71588 5.4547Z" fill="white"/>
</g>
</g>
<defs>
<clipPath id="clip0_665_2">
<rect width="20" height="20" fill="white"/>
</clipPath>
</defs>
</svg>
