<svg width="25" height="25" viewBox="0 0 25 25" fill="none" xmlns="http://www.w3.org/2000/svg">
<path d="M9.5 10.5742C10.6046 10.5742 11.5 9.67879 11.5 8.57422C11.5 7.46965 10.6046 6.57422 9.5 6.57422C8.39543 6.57422 7.5 7.46965 7.5 8.57422C7.5 9.67879 8.39543 10.5742 9.5 10.5742Z" stroke="white" stroke-width="1.5" stroke-linecap="round" stroke-linejoin="round"/>
<path d="M13.5 2.57422H9.5C4.5 2.57422 2.5 4.57422 2.5 9.57422V15.5742C2.5 20.5742 4.5 22.5742 9.5 22.5742H15.5C20.5 22.5742 22.5 20.5742 22.5 15.5742V10.5742" stroke="white" stroke-width="1.5" stroke-linecap="round" stroke-linejoin="round"/>
<path d="M18.5 8.57422V2.57422L20.5 4.57422" stroke="white" stroke-width="1.5" stroke-linecap="round" stroke-linejoin="round"/>
<path d="M18.5 2.57422L16.5 4.57422" stroke="white" stroke-width="1.5" stroke-linecap="round" stroke-linejoin="round"/>
<path d="M3.17004 19.5248L8.10004 16.2148C8.89004 15.6848 10.03 15.7448 10.74 16.3548L11.07 16.6448C11.85 17.3148 13.11 17.3148 13.89 16.6448L18.05 13.0748C18.83 12.4048 20.09 12.4048 20.87 13.0748L22.5 14.4748" stroke="white" stroke-width="1.5" stroke-linecap="round" stroke-linejoin="round"/>
</svg>
